G04*
G04 #@! TF.GenerationSoftware,Altium Limited,Altium Designer,19.1.5 (86)*
G04*
G04 Layer_Color=16711935*
%FSAX43Y43*%
%MOMM*%
G71*
G01*
G75*
%ADD21C,0.050*%
%ADD56C,1.600*%
%ADD57R,1.600X1.600*%
%ADD58C,1.700*%
%ADD59R,1.600X1.600*%
%ADD60R,4.300X2.513*%
G36*
X0046875Y0027600D02*
Y0025000D01*
X0049475D01*
Y0027600D01*
X0046875D01*
D02*
G37*
D21*
X0065000Y0040600D02*
G03*
X0052300Y0053300I-0012700J0000000D01*
G01*
Y0000000D02*
G03*
X0065000Y0012700I0000000J0012700D01*
G01*
X0000000Y0000000D02*
X0052300D01*
X0000000D02*
Y0053300D01*
X0052300D01*
X0065000Y0012700D02*
Y0040600D01*
D56*
X0003500Y0010650D02*
D03*
Y0012650D02*
D03*
Y0014650D02*
D03*
Y0023650D02*
D03*
Y0025650D02*
D03*
Y0027650D02*
D03*
Y0036650D02*
D03*
Y0038650D02*
D03*
Y0040650D02*
D03*
X0037040Y0002540D02*
D03*
X0039580D02*
D03*
X0042120D02*
D03*
X0044660D02*
D03*
X0047200D02*
D03*
X0014040D02*
D03*
X0016580D02*
D03*
X0019120D02*
D03*
X0021660D02*
D03*
X0024200D02*
D03*
X0026740D02*
D03*
X0029280D02*
D03*
X0020420Y0050800D02*
D03*
X0002640D02*
D03*
X0005180D02*
D03*
X0007720D02*
D03*
X0010260D02*
D03*
X0012800D02*
D03*
X0015340D02*
D03*
X0017880D02*
D03*
X0022960D02*
D03*
X0044660D02*
D03*
X0042120D02*
D03*
X0039580D02*
D03*
X0037040D02*
D03*
X0034500D02*
D03*
X0031960D02*
D03*
X0029420D02*
D03*
D57*
X0003500Y0016650D02*
D03*
Y0029650D02*
D03*
Y0042650D02*
D03*
D58*
X0055000Y0003775D02*
D03*
D59*
X0034500Y0002540D02*
D03*
X0011500D02*
D03*
X0025500Y0050800D02*
D03*
X0047200D02*
D03*
D60*
X0062650Y0022270D02*
D03*
Y0031030D02*
D03*
M02*
