G04*
G04 #@! TF.GenerationSoftware,Altium Limited,Altium Designer,19.1.5 (86)*
G04*
G04 Layer_Color=8388736*
%FSAX43Y43*%
%MOMM*%
G71*
G01*
G75*
%ADD21C,0.050*%
%ADD38R,0.400X0.400*%
%ADD39R,1.000X1.000*%
%ADD40R,0.600X0.600*%
%ADD41R,0.600X0.600*%
%ADD42R,1.400X1.400*%
%ADD43R,0.400X0.400*%
%ADD44R,0.350X0.650*%
%ADD45R,0.550X0.300*%
%ADD46R,1.000X1.000*%
%ADD47R,0.750X0.750*%
%ADD48R,0.750X0.750*%
%ADD49R,0.300X0.300*%
%ADD50R,0.600X0.600*%
%ADD51R,4.300X2.005*%
G04:AMPARAMS|DCode=52|XSize=2.5mm|YSize=2.5mm|CornerRadius=0.11mm|HoleSize=0mm|Usage=FLASHONLY|Rotation=270.000|XOffset=0mm|YOffset=0mm|HoleType=Round|Shape=RoundedRectangle|*
%AMROUNDEDRECTD52*
21,1,2.500,2.280,0,0,270.0*
21,1,2.280,2.500,0,0,270.0*
1,1,0.220,-1.140,-1.140*
1,1,0.220,-1.140,1.140*
1,1,0.220,1.140,1.140*
1,1,0.220,1.140,-1.140*
%
%ADD52ROUNDEDRECTD52*%
%ADD53O,0.400X0.900*%
%ADD54O,0.900X0.400*%
%ADD55R,0.950X0.850*%
%ADD56C,1.600*%
%ADD57R,1.600X1.600*%
%ADD58C,1.700*%
%ADD59R,1.600X1.600*%
%ADD60R,4.300X2.513*%
G36*
X0049650Y0037775D02*
X0046450D01*
Y0038775D01*
X0049650D01*
Y0037775D01*
D02*
G37*
G36*
X0043650D02*
X0040400D01*
Y0038775D01*
X0043650D01*
Y0037775D01*
D02*
G37*
G36*
X0037650D02*
X0034450D01*
Y0038775D01*
X0037650D01*
Y0037775D01*
D02*
G37*
G36*
X0057150Y0038775D02*
Y0037775D01*
Y0033775D01*
X0056150D01*
Y0037775D01*
X0052400D01*
Y0038775D01*
X0056150D01*
Y0038775D01*
X0057150D01*
Y0038775D01*
D02*
G37*
G36*
X0031650Y0037825D02*
X0027850D01*
Y0033525D01*
X0026850D01*
Y0037825D01*
X0026850D01*
Y0038825D01*
X0031650D01*
Y0037825D01*
D02*
G37*
G36*
X0027850Y0027525D02*
X0026850D01*
Y0030725D01*
X0027850D01*
Y0027525D01*
D02*
G37*
G36*
X0057150Y0027475D02*
X0056150D01*
Y0030675D01*
X0057150D01*
Y0027475D01*
D02*
G37*
G36*
X0027850Y0020375D02*
X0031650D01*
Y0019375D01*
X0026850D01*
Y0020375D01*
X0026850D01*
Y0024725D01*
X0027850D01*
Y0020375D01*
D02*
G37*
G36*
X0057150Y0019375D02*
X0052400D01*
Y0020375D01*
X0056150D01*
Y0024675D01*
X0057150D01*
Y0019375D01*
D02*
G37*
G36*
X0049650D02*
X0046450D01*
Y0020375D01*
X0049650D01*
Y0019375D01*
D02*
G37*
G36*
X0043650D02*
X0040400D01*
Y0020375D01*
X0043650D01*
Y0019375D01*
D02*
G37*
G36*
X0037650D02*
X0034450D01*
Y0020375D01*
X0037650D01*
Y0019375D01*
D02*
G37*
D21*
X0065000Y0040600D02*
G03*
X0052300Y0053300I-0012700J0000000D01*
G01*
Y0000000D02*
G03*
X0065000Y0012700I0000000J0012700D01*
G01*
X0000000Y0000000D02*
X0052300D01*
X0000000D02*
Y0053300D01*
X0052300D01*
X0065000Y0012700D02*
Y0040600D01*
D38*
X0005100Y0045400D02*
D03*
X0004500D02*
D03*
Y0046025D02*
D03*
X0005100D02*
D03*
X0020225Y0007000D02*
D03*
X0020825D02*
D03*
X0059100Y0026650D02*
D03*
X0058500D02*
D03*
X0055800D02*
D03*
X0055200D02*
D03*
D39*
X0021450Y0010950D02*
D03*
X0019950D02*
D03*
X0018350D02*
D03*
X0016850D02*
D03*
Y0007000D02*
D03*
X0018350D02*
D03*
D40*
X0044175Y0030750D02*
D03*
X0043375D02*
D03*
X0051625Y0030100D02*
D03*
X0050825D02*
D03*
D41*
X0045025Y0030425D02*
D03*
Y0029625D02*
D03*
Y0027650D02*
D03*
Y0028450D02*
D03*
X0051250Y0027700D02*
D03*
Y0028500D02*
D03*
D42*
X0043750Y0027250D02*
D03*
Y0028850D02*
D03*
D43*
X0051950Y0028800D02*
D03*
Y0029400D02*
D03*
X0059700Y0026650D02*
D03*
Y0026050D02*
D03*
X0057900Y0026650D02*
D03*
Y0026050D02*
D03*
X0053975Y0025000D02*
D03*
Y0024400D02*
D03*
X0054575D02*
D03*
Y0025000D02*
D03*
X0045150Y0025075D02*
D03*
Y0025675D02*
D03*
X0054575Y0028850D02*
D03*
Y0028250D02*
D03*
X0052550Y0029400D02*
D03*
Y0028800D02*
D03*
X0053975Y0028850D02*
D03*
Y0028250D02*
D03*
D44*
X0052675Y0027875D02*
D03*
Y0025725D02*
D03*
D45*
X0052025Y0026050D02*
D03*
X0053325D02*
D03*
Y0026550D02*
D03*
Y0027050D02*
D03*
Y0027550D02*
D03*
X0052025D02*
D03*
Y0027050D02*
D03*
Y0026550D02*
D03*
D46*
X0019950Y0009725D02*
D03*
Y0008225D02*
D03*
X0018350D02*
D03*
Y0009725D02*
D03*
D47*
X0054675Y0007575D02*
D03*
X0055675D02*
D03*
Y0009875D02*
D03*
X0054675D02*
D03*
X0055675Y0011025D02*
D03*
X0054675D02*
D03*
Y0008725D02*
D03*
X0055675D02*
D03*
Y0006425D02*
D03*
X0054675D02*
D03*
D48*
X0037000Y0006125D02*
D03*
Y0005125D02*
D03*
X0038111D02*
D03*
Y0006125D02*
D03*
X0040675Y0005125D02*
D03*
Y0006125D02*
D03*
X0042100D02*
D03*
Y0005125D02*
D03*
X0039580D02*
D03*
Y0006125D02*
D03*
D49*
X0054175Y0027050D02*
D03*
Y0026650D02*
D03*
Y0026250D02*
D03*
X0054575D02*
D03*
Y0026650D02*
D03*
Y0027050D02*
D03*
D50*
X0056750Y0038375D02*
D03*
D51*
X0062650Y0026650D02*
D03*
D52*
X0048175Y0026300D02*
D03*
D53*
X0049425Y0028200D02*
D03*
X0048925D02*
D03*
X0048425D02*
D03*
X0047925D02*
D03*
X0047425D02*
D03*
X0046925D02*
D03*
Y0024400D02*
D03*
X0047425D02*
D03*
X0047925D02*
D03*
X0048425D02*
D03*
X0048925D02*
D03*
X0049425D02*
D03*
D54*
X0046275Y0027550D02*
D03*
Y0027050D02*
D03*
Y0026550D02*
D03*
Y0026050D02*
D03*
Y0025550D02*
D03*
Y0025050D02*
D03*
X0050075D02*
D03*
Y0025550D02*
D03*
Y0026050D02*
D03*
Y0026550D02*
D03*
Y0027050D02*
D03*
Y0027550D02*
D03*
D55*
X0047500Y0033450D02*
D03*
Y0032400D02*
D03*
X0048850Y0033450D02*
D03*
Y0032400D02*
D03*
D56*
X0003500Y0010650D02*
D03*
Y0012650D02*
D03*
Y0014650D02*
D03*
Y0023650D02*
D03*
Y0025650D02*
D03*
Y0027650D02*
D03*
Y0036650D02*
D03*
Y0038650D02*
D03*
Y0040650D02*
D03*
X0037040Y0002540D02*
D03*
X0039580D02*
D03*
X0042120D02*
D03*
X0044660D02*
D03*
X0047200D02*
D03*
X0014040D02*
D03*
X0016580D02*
D03*
X0019120D02*
D03*
X0021660D02*
D03*
X0024200D02*
D03*
X0026740D02*
D03*
X0029280D02*
D03*
X0020420Y0050800D02*
D03*
X0002640D02*
D03*
X0005180D02*
D03*
X0007720D02*
D03*
X0010260D02*
D03*
X0012800D02*
D03*
X0015340D02*
D03*
X0017880D02*
D03*
X0022960D02*
D03*
X0044660D02*
D03*
X0042120D02*
D03*
X0039580D02*
D03*
X0037040D02*
D03*
X0034500D02*
D03*
X0031960D02*
D03*
X0029420D02*
D03*
D57*
X0003500Y0016650D02*
D03*
Y0029650D02*
D03*
Y0042650D02*
D03*
D58*
X0055000Y0003775D02*
D03*
D59*
X0034500Y0002540D02*
D03*
X0011500D02*
D03*
X0025500Y0050800D02*
D03*
X0047200D02*
D03*
D60*
X0062650Y0022270D02*
D03*
Y0031030D02*
D03*
M02*
