G04*
G04 #@! TF.GenerationSoftware,Altium Limited,Altium Designer,19.1.5 (86)*
G04*
G04 Layer_Physical_Order=3*
G04 Layer_Color=7334*
%FSAX43Y43*%
%MOMM*%
G71*
G01*
G75*
%ADD12C,0.200*%
%ADD21C,0.050*%
%ADD56C,1.600*%
%ADD65C,0.650*%
%ADD68C,1.500*%
%ADD69R,1.500X1.500*%
%ADD70R,1.500X1.500*%
%ADD71R,4.200X2.413*%
%ADD72C,0.500*%
%ADD73C,0.600*%
%ADD74C,0.400*%
G36*
X0053662Y0053050D02*
X0053833Y0053031D01*
X0054138Y0052989D01*
X0054441Y0052941D01*
X0054743Y0052884D01*
X0055044Y0052821D01*
X0055343Y0052750D01*
X0055641Y0052671D01*
X0055936Y0052586D01*
X0056229Y0052493D01*
X0056520Y0052393D01*
X0056808Y0052286D01*
X0057093Y0052172D01*
X0057376Y0052050D01*
X0057655Y0051922D01*
X0057931Y0051788D01*
X0058204Y0051646D01*
X0058474Y0051498D01*
X0058739Y0051343D01*
X0059001Y0051182D01*
X0059258Y0051014D01*
X0059512Y0050840D01*
X0059761Y0050660D01*
X0060006Y0050474D01*
X0060246Y0050282D01*
X0060481Y0050084D01*
X0060711Y0049880D01*
X0060936Y0049671D01*
X0061156Y0049456D01*
X0061371Y0049236D01*
X0061580Y0049011D01*
X0061784Y0048781D01*
X0061982Y0048546D01*
X0062174Y0048306D01*
X0062360Y0048061D01*
X0062540Y0047812D01*
X0062714Y0047558D01*
X0062882Y0047301D01*
X0063043Y0047039D01*
X0063198Y0046774D01*
X0063346Y0046504D01*
X0063488Y0046231D01*
X0063622Y0045955D01*
X0063750Y0045676D01*
X0063872Y0045393D01*
X0063986Y0045108D01*
X0064093Y0044820D01*
X0064193Y0044529D01*
X0064286Y0044236D01*
X0064371Y0043941D01*
X0064450Y0043643D01*
X0064521Y0043344D01*
X0064584Y0043043D01*
X0064641Y0042741D01*
X0064689Y0042438D01*
X0064731Y0042133D01*
X0064750Y0041960D01*
X0064750Y0029825D01*
X0060500D01*
Y0023475D01*
X0064750D01*
X0064750Y0011340D01*
X0064731Y0011167D01*
X0064689Y0010862D01*
X0064641Y0010559D01*
X0064584Y0010257D01*
X0064521Y0009956D01*
X0064450Y0009657D01*
X0064371Y0009359D01*
X0064286Y0009064D01*
X0064193Y0008771D01*
X0064093Y0008480D01*
X0063986Y0008192D01*
X0063872Y0007907D01*
X0063750Y0007624D01*
X0063622Y0007345D01*
X0063488Y0007069D01*
X0063346Y0006796D01*
X0063198Y0006526D01*
X0063043Y0006261D01*
X0062882Y0005999D01*
X0062714Y0005742D01*
X0062540Y0005488D01*
X0062360Y0005239D01*
X0062174Y0004994D01*
X0061982Y0004754D01*
X0061784Y0004519D01*
X0061580Y0004289D01*
X0061371Y0004064D01*
X0061156Y0003844D01*
X0060936Y0003629D01*
X0060711Y0003420D01*
X0060481Y0003216D01*
X0060246Y0003018D01*
X0060006Y0002826D01*
X0059761Y0002640D01*
X0059512Y0002460D01*
X0059258Y0002286D01*
X0059001Y0002118D01*
X0058739Y0001957D01*
X0058474Y0001802D01*
X0058204Y0001654D01*
X0057931Y0001512D01*
X0057655Y0001378D01*
X0057376Y0001250D01*
X0057093Y0001128D01*
X0056808Y0001014D01*
X0056520Y0000907D01*
X0056229Y0000807D01*
X0055936Y0000714D01*
X0055641Y0000629D01*
X0055343Y0000550D01*
X0055044Y0000479D01*
X0054743Y0000416D01*
X0054441Y0000359D01*
X0054138Y0000311D01*
X0053833Y0000269D01*
X0053657Y0000250D01*
X0000250Y0000250D01*
X0000250Y0053050D01*
X0053662Y0053050D01*
D02*
G37*
%LPC*%
G36*
X0019000Y0052451D02*
X0001925D01*
X0001886Y0052448D01*
X0001848Y0052438D01*
X0001811Y0052423D01*
X0001778Y0052403D01*
X0001748Y0052377D01*
X0001173Y0051802D01*
X0001147Y0051772D01*
X0001127Y0051739D01*
X0001112Y0051702D01*
X0001102Y0051664D01*
X0001099Y0051625D01*
Y0029800D01*
X0001102Y0029761D01*
X0001112Y0029723D01*
X0001127Y0029686D01*
X0001147Y0029653D01*
X0001173Y0029623D01*
X0002711Y0028084D01*
X0002684Y0028031D01*
X0002653Y0027958D01*
X0002630Y0027883D01*
X0002613Y0027806D01*
X0002603Y0027729D01*
X0002599Y0027650D01*
X0002603Y0027571D01*
X0002613Y0027494D01*
X0002630Y0027417D01*
X0002653Y0027342D01*
X0002684Y0027269D01*
X0002720Y0027200D01*
X0002762Y0027133D01*
X0002810Y0027071D01*
X0002863Y0027013D01*
X0002921Y0026960D01*
X0002983Y0026912D01*
X0003050Y0026870D01*
X0003119Y0026834D01*
X0003192Y0026803D01*
X0003267Y0026780D01*
X0003344Y0026763D01*
X0003421Y0026753D01*
X0003500Y0026749D01*
X0003579Y0026753D01*
X0003656Y0026763D01*
X0003733Y0026780D01*
X0003808Y0026803D01*
X0003881Y0026834D01*
X0003950Y0026870D01*
X0004017Y0026912D01*
X0004079Y0026960D01*
X0004137Y0027013D01*
X0004190Y0027071D01*
X0004238Y0027133D01*
X0004280Y0027200D01*
X0004316Y0027269D01*
X0004347Y0027342D01*
X0004370Y0027417D01*
X0004387Y0027494D01*
X0004397Y0027571D01*
X0004401Y0027650D01*
X0004397Y0027729D01*
X0004387Y0027806D01*
X0004370Y0027883D01*
X0004347Y0027958D01*
X0004316Y0028031D01*
X0004280Y0028100D01*
X0004238Y0028167D01*
X0004190Y0028229D01*
X0004137Y0028287D01*
X0004079Y0028340D01*
X0004017Y0028388D01*
X0003950Y0028430D01*
X0003881Y0028466D01*
X0003808Y0028497D01*
X0003733Y0028520D01*
X0003656Y0028537D01*
X0003579Y0028547D01*
X0003500Y0028551D01*
X0003421Y0028547D01*
X0003344Y0028537D01*
X0003267Y0028520D01*
X0003192Y0028497D01*
X0003119Y0028466D01*
X0003066Y0028439D01*
X0002893Y0028611D01*
X0002951Y0028750D01*
X0004400D01*
Y0030550D01*
X0002955D01*
X0002001Y0031504D01*
Y0047021D01*
X0003480Y0048500D01*
X0003500Y0048499D01*
X0003552Y0048503D01*
X0003604Y0048513D01*
X0003653Y0048530D01*
X0003700Y0048553D01*
X0003744Y0048582D01*
X0003783Y0048617D01*
X0003818Y0048656D01*
X0003847Y0048700D01*
X0003870Y0048747D01*
X0003887Y0048796D01*
X0003897Y0048848D01*
X0003901Y0048900D01*
X0003897Y0048952D01*
X0003887Y0049004D01*
X0003870Y0049053D01*
X0003847Y0049100D01*
X0003818Y0049144D01*
X0003783Y0049183D01*
X0003744Y0049218D01*
X0003700Y0049247D01*
X0003653Y0049270D01*
X0003604Y0049287D01*
X0003552Y0049297D01*
X0003500Y0049301D01*
X0003448Y0049297D01*
X0003396Y0049287D01*
X0003347Y0049270D01*
X0003300Y0049247D01*
X0003256Y0049218D01*
X0003217Y0049183D01*
X0003182Y0049144D01*
X0003153Y0049100D01*
X0003130Y0049053D01*
X0003113Y0049004D01*
X0003103Y0048952D01*
X0003099Y0048900D01*
X0003103Y0048848D01*
X0003105Y0048835D01*
X0001739Y0047469D01*
X0001601Y0047526D01*
Y0050649D01*
X0001751Y0050659D01*
X0001753Y0050644D01*
X0001770Y0050567D01*
X0001793Y0050492D01*
X0001824Y0050419D01*
X0001860Y0050350D01*
X0001902Y0050283D01*
X0001950Y0050221D01*
X0002003Y0050163D01*
X0002061Y0050110D01*
X0002123Y0050062D01*
X0002190Y0050020D01*
X0002259Y0049984D01*
X0002332Y0049953D01*
X0002407Y0049930D01*
X0002484Y0049913D01*
X0002561Y0049903D01*
X0002640Y0049899D01*
X0002719Y0049903D01*
X0002796Y0049913D01*
X0002873Y0049930D01*
X0002948Y0049953D01*
X0003021Y0049984D01*
X0003090Y0050020D01*
X0003157Y0050062D01*
X0003219Y0050110D01*
X0003277Y0050163D01*
X0003330Y0050221D01*
X0003378Y0050283D01*
X0003420Y0050350D01*
X0003456Y0050419D01*
X0003487Y0050492D01*
X0003510Y0050567D01*
X0003527Y0050644D01*
X0003537Y0050721D01*
X0003541Y0050800D01*
X0003537Y0050879D01*
X0003527Y0050956D01*
X0003510Y0051033D01*
X0003487Y0051108D01*
X0003456Y0051181D01*
X0003420Y0051250D01*
X0003378Y0051317D01*
X0003330Y0051379D01*
X0003277Y0051437D01*
X0003219Y0051490D01*
X0003157Y0051538D01*
X0003090Y0051580D01*
X0003021Y0051616D01*
X0002948Y0051647D01*
X0002873Y0051670D01*
X0002796Y0051687D01*
X0002719Y0051697D01*
X0002640Y0051701D01*
X0002561Y0051697D01*
X0002484Y0051687D01*
X0002407Y0051670D01*
X0002332Y0051647D01*
X0002259Y0051616D01*
X0002190Y0051580D01*
X0002123Y0051538D01*
X0002061Y0051490D01*
X0002003Y0051437D01*
X0001950Y0051379D01*
X0001902Y0051317D01*
X0001860Y0051250D01*
X0001824Y0051181D01*
X0001793Y0051108D01*
X0001770Y0051033D01*
X0001753Y0050956D01*
X0001751Y0050941D01*
X0001601Y0050951D01*
Y0051521D01*
X0002029Y0051949D01*
X0010148D01*
X0010158Y0051799D01*
X0010085Y0051790D01*
X0010000Y0051771D01*
X0009916Y0051744D01*
X0009835Y0051711D01*
X0009758Y0051670D01*
X0009684Y0051623D01*
X0009614Y0051570D01*
X0009549Y0051511D01*
X0009490Y0051446D01*
X0009437Y0051376D01*
X0009390Y0051302D01*
X0009349Y0051225D01*
X0009339Y0051200D01*
X0010260D01*
X0011181D01*
X0011171Y0051225D01*
X0011130Y0051302D01*
X0011083Y0051376D01*
X0011030Y0051446D01*
X0010971Y0051511D01*
X0010906Y0051570D01*
X0010836Y0051623D01*
X0010762Y0051670D01*
X0010685Y0051711D01*
X0010604Y0051744D01*
X0010520Y0051771D01*
X0010435Y0051790D01*
X0010362Y0051799D01*
X0010372Y0051949D01*
X0018801D01*
X0018824Y0051925D01*
X0018828Y0051866D01*
X0018839Y0051808D01*
X0018858Y0051752D01*
X0018884Y0051700D01*
X0018917Y0051650D01*
X0018956Y0051606D01*
X0019000Y0051567D01*
X0019050Y0051534D01*
X0019102Y0051508D01*
X0019158Y0051489D01*
X0019216Y0051478D01*
X0019275Y0051474D01*
X0019334Y0051478D01*
X0019392Y0051489D01*
X0019448Y0051508D01*
X0019500Y0051534D01*
X0019550Y0051567D01*
X0019594Y0051606D01*
X0019633Y0051650D01*
X0019666Y0051700D01*
X0019692Y0051752D01*
X0019711Y0051808D01*
X0019722Y0051866D01*
X0019726Y0051925D01*
X0019722Y0051984D01*
X0019711Y0052042D01*
X0019692Y0052098D01*
X0019666Y0052150D01*
X0019633Y0052200D01*
X0019594Y0052244D01*
X0019550Y0052283D01*
X0019500Y0052316D01*
X0019448Y0052342D01*
X0019392Y0052361D01*
X0019334Y0052372D01*
X0019275Y0052376D01*
X0019216Y0052372D01*
X0019188Y0052367D01*
X0019177Y0052377D01*
X0019147Y0052403D01*
X0019114Y0052423D01*
X0019077Y0052438D01*
X0019039Y0052448D01*
X0019000Y0052451D01*
D02*
G37*
G36*
X0048100Y0051700D02*
X0046300D01*
Y0049900D01*
X0048100D01*
Y0051700D01*
D02*
G37*
G36*
X0044660Y0051701D02*
X0044581Y0051697D01*
X0044504Y0051687D01*
X0044427Y0051670D01*
X0044352Y0051647D01*
X0044279Y0051616D01*
X0044210Y0051580D01*
X0044143Y0051538D01*
X0044081Y0051490D01*
X0044023Y0051437D01*
X0043970Y0051379D01*
X0043922Y0051317D01*
X0043880Y0051250D01*
X0043844Y0051181D01*
X0043813Y0051108D01*
X0043790Y0051033D01*
X0043773Y0050956D01*
X0043763Y0050879D01*
X0043759Y0050800D01*
X0043763Y0050721D01*
X0043773Y0050644D01*
X0043790Y0050567D01*
X0043813Y0050492D01*
X0043844Y0050419D01*
X0043880Y0050350D01*
X0043922Y0050283D01*
X0043970Y0050221D01*
X0044023Y0050163D01*
X0044081Y0050110D01*
X0044143Y0050062D01*
X0044210Y0050020D01*
X0044279Y0049984D01*
X0044352Y0049953D01*
X0044427Y0049930D01*
X0044504Y0049913D01*
X0044581Y0049903D01*
X0044660Y0049899D01*
X0044739Y0049903D01*
X0044816Y0049913D01*
X0044893Y0049930D01*
X0044968Y0049953D01*
X0045041Y0049984D01*
X0045110Y0050020D01*
X0045177Y0050062D01*
X0045239Y0050110D01*
X0045297Y0050163D01*
X0045350Y0050221D01*
X0045398Y0050283D01*
X0045440Y0050350D01*
X0045476Y0050419D01*
X0045507Y0050492D01*
X0045530Y0050567D01*
X0045547Y0050644D01*
X0045557Y0050721D01*
X0045561Y0050800D01*
X0045557Y0050879D01*
X0045547Y0050956D01*
X0045530Y0051033D01*
X0045507Y0051108D01*
X0045476Y0051181D01*
X0045440Y0051250D01*
X0045398Y0051317D01*
X0045350Y0051379D01*
X0045297Y0051437D01*
X0045239Y0051490D01*
X0045177Y0051538D01*
X0045110Y0051580D01*
X0045041Y0051616D01*
X0044968Y0051647D01*
X0044893Y0051670D01*
X0044816Y0051687D01*
X0044739Y0051697D01*
X0044660Y0051701D01*
D02*
G37*
G36*
X0042120D02*
X0042041Y0051697D01*
X0041964Y0051687D01*
X0041887Y0051670D01*
X0041812Y0051647D01*
X0041739Y0051616D01*
X0041670Y0051580D01*
X0041603Y0051538D01*
X0041541Y0051490D01*
X0041483Y0051437D01*
X0041430Y0051379D01*
X0041382Y0051317D01*
X0041340Y0051250D01*
X0041304Y0051181D01*
X0041273Y0051108D01*
X0041250Y0051033D01*
X0041233Y0050956D01*
X0041223Y0050879D01*
X0041219Y0050800D01*
X0041223Y0050721D01*
X0041233Y0050644D01*
X0041250Y0050567D01*
X0041273Y0050492D01*
X0041304Y0050419D01*
X0041340Y0050350D01*
X0041382Y0050283D01*
X0041430Y0050221D01*
X0041483Y0050163D01*
X0041541Y0050110D01*
X0041603Y0050062D01*
X0041670Y0050020D01*
X0041739Y0049984D01*
X0041812Y0049953D01*
X0041887Y0049930D01*
X0041964Y0049913D01*
X0042041Y0049903D01*
X0042120Y0049899D01*
X0042199Y0049903D01*
X0042276Y0049913D01*
X0042353Y0049930D01*
X0042428Y0049953D01*
X0042501Y0049984D01*
X0042570Y0050020D01*
X0042637Y0050062D01*
X0042699Y0050110D01*
X0042757Y0050163D01*
X0042810Y0050221D01*
X0042858Y0050283D01*
X0042900Y0050350D01*
X0042936Y0050419D01*
X0042967Y0050492D01*
X0042990Y0050567D01*
X0043007Y0050644D01*
X0043017Y0050721D01*
X0043021Y0050800D01*
X0043017Y0050879D01*
X0043007Y0050956D01*
X0042990Y0051033D01*
X0042967Y0051108D01*
X0042936Y0051181D01*
X0042900Y0051250D01*
X0042858Y0051317D01*
X0042810Y0051379D01*
X0042757Y0051437D01*
X0042699Y0051490D01*
X0042637Y0051538D01*
X0042570Y0051580D01*
X0042501Y0051616D01*
X0042428Y0051647D01*
X0042353Y0051670D01*
X0042276Y0051687D01*
X0042199Y0051697D01*
X0042120Y0051701D01*
D02*
G37*
G36*
X0037040D02*
X0036961Y0051697D01*
X0036884Y0051687D01*
X0036807Y0051670D01*
X0036732Y0051647D01*
X0036659Y0051616D01*
X0036590Y0051580D01*
X0036523Y0051538D01*
X0036461Y0051490D01*
X0036403Y0051437D01*
X0036350Y0051379D01*
X0036302Y0051317D01*
X0036260Y0051250D01*
X0036224Y0051181D01*
X0036193Y0051108D01*
X0036170Y0051033D01*
X0036153Y0050956D01*
X0036143Y0050879D01*
X0036139Y0050800D01*
X0036143Y0050721D01*
X0036153Y0050644D01*
X0036170Y0050567D01*
X0036193Y0050492D01*
X0036224Y0050419D01*
X0036260Y0050350D01*
X0036302Y0050283D01*
X0036350Y0050221D01*
X0036403Y0050163D01*
X0036461Y0050110D01*
X0036523Y0050062D01*
X0036590Y0050020D01*
X0036659Y0049984D01*
X0036732Y0049953D01*
X0036807Y0049930D01*
X0036884Y0049913D01*
X0036961Y0049903D01*
X0037040Y0049899D01*
X0037119Y0049903D01*
X0037196Y0049913D01*
X0037273Y0049930D01*
X0037348Y0049953D01*
X0037421Y0049984D01*
X0037490Y0050020D01*
X0037557Y0050062D01*
X0037619Y0050110D01*
X0037677Y0050163D01*
X0037730Y0050221D01*
X0037778Y0050283D01*
X0037820Y0050350D01*
X0037856Y0050419D01*
X0037887Y0050492D01*
X0037910Y0050567D01*
X0037927Y0050644D01*
X0037937Y0050721D01*
X0037941Y0050800D01*
X0037937Y0050879D01*
X0037927Y0050956D01*
X0037910Y0051033D01*
X0037887Y0051108D01*
X0037856Y0051181D01*
X0037820Y0051250D01*
X0037778Y0051317D01*
X0037730Y0051379D01*
X0037677Y0051437D01*
X0037619Y0051490D01*
X0037557Y0051538D01*
X0037490Y0051580D01*
X0037421Y0051616D01*
X0037348Y0051647D01*
X0037273Y0051670D01*
X0037196Y0051687D01*
X0037119Y0051697D01*
X0037040Y0051701D01*
D02*
G37*
G36*
X0039580D02*
X0039501Y0051697D01*
X0039424Y0051687D01*
X0039347Y0051670D01*
X0039272Y0051647D01*
X0039199Y0051616D01*
X0039130Y0051580D01*
X0039063Y0051538D01*
X0039001Y0051490D01*
X0038943Y0051437D01*
X0038890Y0051379D01*
X0038842Y0051317D01*
X0038800Y0051250D01*
X0038764Y0051181D01*
X0038733Y0051108D01*
X0038710Y0051033D01*
X0038693Y0050956D01*
X0038683Y0050879D01*
X0038679Y0050800D01*
X0038683Y0050721D01*
X0038693Y0050644D01*
X0038710Y0050567D01*
X0038733Y0050492D01*
X0038764Y0050419D01*
X0038791Y0050366D01*
X0037251Y0048826D01*
X0033076D01*
X0033019Y0048964D01*
X0034066Y0050011D01*
X0034119Y0049984D01*
X0034192Y0049953D01*
X0034267Y0049930D01*
X0034344Y0049913D01*
X0034421Y0049903D01*
X0034500Y0049899D01*
X0034579Y0049903D01*
X0034656Y0049913D01*
X0034733Y0049930D01*
X0034808Y0049953D01*
X0034881Y0049984D01*
X0034950Y0050020D01*
X0035017Y0050062D01*
X0035079Y0050110D01*
X0035137Y0050163D01*
X0035190Y0050221D01*
X0035238Y0050283D01*
X0035280Y0050350D01*
X0035316Y0050419D01*
X0035347Y0050492D01*
X0035370Y0050567D01*
X0035387Y0050644D01*
X0035397Y0050721D01*
X0035401Y0050800D01*
X0035397Y0050879D01*
X0035387Y0050956D01*
X0035370Y0051033D01*
X0035347Y0051108D01*
X0035316Y0051181D01*
X0035280Y0051250D01*
X0035238Y0051317D01*
X0035190Y0051379D01*
X0035137Y0051437D01*
X0035079Y0051490D01*
X0035017Y0051538D01*
X0034950Y0051580D01*
X0034881Y0051616D01*
X0034808Y0051647D01*
X0034733Y0051670D01*
X0034656Y0051687D01*
X0034579Y0051697D01*
X0034500Y0051701D01*
X0034421Y0051697D01*
X0034344Y0051687D01*
X0034267Y0051670D01*
X0034192Y0051647D01*
X0034119Y0051616D01*
X0034050Y0051580D01*
X0033983Y0051538D01*
X0033921Y0051490D01*
X0033863Y0051437D01*
X0033810Y0051379D01*
X0033762Y0051317D01*
X0033720Y0051250D01*
X0033684Y0051181D01*
X0033653Y0051108D01*
X0033630Y0051033D01*
X0033613Y0050956D01*
X0033603Y0050879D01*
X0033599Y0050800D01*
X0033603Y0050721D01*
X0033613Y0050644D01*
X0033630Y0050567D01*
X0033653Y0050492D01*
X0033684Y0050419D01*
X0033711Y0050366D01*
X0032546Y0049201D01*
X0026826D01*
X0026769Y0049339D01*
X0027979Y0050549D01*
X0028555D01*
X0028573Y0050492D01*
X0028604Y0050419D01*
X0028640Y0050350D01*
X0028682Y0050283D01*
X0028730Y0050221D01*
X0028783Y0050163D01*
X0028841Y0050110D01*
X0028903Y0050062D01*
X0028970Y0050020D01*
X0029039Y0049984D01*
X0029112Y0049953D01*
X0029187Y0049930D01*
X0029264Y0049913D01*
X0029341Y0049903D01*
X0029420Y0049899D01*
X0029499Y0049903D01*
X0029576Y0049913D01*
X0029653Y0049930D01*
X0029728Y0049953D01*
X0029801Y0049984D01*
X0029870Y0050020D01*
X0029937Y0050062D01*
X0029999Y0050110D01*
X0030057Y0050163D01*
X0030110Y0050221D01*
X0030158Y0050283D01*
X0030200Y0050350D01*
X0030236Y0050419D01*
X0030267Y0050492D01*
X0030290Y0050567D01*
X0030307Y0050644D01*
X0030317Y0050721D01*
X0030321Y0050800D01*
X0030317Y0050879D01*
X0030307Y0050956D01*
X0030290Y0051033D01*
X0030267Y0051108D01*
X0030236Y0051181D01*
X0030200Y0051250D01*
X0030158Y0051317D01*
X0030110Y0051379D01*
X0030057Y0051437D01*
X0029999Y0051490D01*
X0029937Y0051538D01*
X0029870Y0051580D01*
X0029801Y0051616D01*
X0029728Y0051647D01*
X0029653Y0051670D01*
X0029576Y0051687D01*
X0029499Y0051697D01*
X0029420Y0051701D01*
X0029341Y0051697D01*
X0029264Y0051687D01*
X0029187Y0051670D01*
X0029112Y0051647D01*
X0029039Y0051616D01*
X0028970Y0051580D01*
X0028903Y0051538D01*
X0028841Y0051490D01*
X0028783Y0051437D01*
X0028730Y0051379D01*
X0028682Y0051317D01*
X0028640Y0051250D01*
X0028604Y0051181D01*
X0028573Y0051108D01*
X0028555Y0051051D01*
X0027875D01*
X0027836Y0051048D01*
X0027798Y0051039D01*
X0027761Y0051023D01*
X0027728Y0051003D01*
X0027698Y0050977D01*
X0020689Y0043969D01*
X0020551Y0044026D01*
Y0044550D01*
X0020548Y0044589D01*
X0020538Y0044627D01*
X0020523Y0044664D01*
X0020503Y0044697D01*
X0020477Y0044727D01*
X0020158Y0045046D01*
X0020159Y0045048D01*
X0020237Y0045180D01*
X0020248Y0045178D01*
X0020300Y0045174D01*
X0020352Y0045178D01*
X0020404Y0045188D01*
X0020453Y0045205D01*
X0020500Y0045228D01*
X0020544Y0045257D01*
X0020583Y0045292D01*
X0020618Y0045331D01*
X0020647Y0045375D01*
X0020670Y0045422D01*
X0020687Y0045471D01*
X0020697Y0045523D01*
X0020701Y0045575D01*
X0020697Y0045627D01*
X0020695Y0045640D01*
X0024955Y0049900D01*
X0026400D01*
Y0051700D01*
X0024600D01*
Y0050255D01*
X0020320Y0045975D01*
X0020300Y0045976D01*
X0020248Y0045972D01*
X0020196Y0045962D01*
X0020147Y0045945D01*
X0020100Y0045922D01*
X0020056Y0045893D01*
X0020017Y0045858D01*
X0019982Y0045819D01*
X0019953Y0045775D01*
X0019930Y0045728D01*
X0019913Y0045679D01*
X0019903Y0045627D01*
X0019899Y0045575D01*
X0019903Y0045523D01*
X0019905Y0045512D01*
X0019773Y0045434D01*
X0019771Y0045433D01*
X0018126Y0047079D01*
Y0049934D01*
X0018188Y0049953D01*
X0018261Y0049984D01*
X0018330Y0050020D01*
X0018397Y0050062D01*
X0018459Y0050110D01*
X0018517Y0050163D01*
X0018570Y0050221D01*
X0018618Y0050283D01*
X0018660Y0050350D01*
X0018696Y0050419D01*
X0018727Y0050492D01*
X0018750Y0050567D01*
X0018767Y0050644D01*
X0018777Y0050721D01*
X0018781Y0050800D01*
X0018777Y0050879D01*
X0018767Y0050956D01*
X0018750Y0051033D01*
X0018727Y0051108D01*
X0018696Y0051181D01*
X0018660Y0051250D01*
X0018618Y0051317D01*
X0018570Y0051379D01*
X0018517Y0051437D01*
X0018459Y0051490D01*
X0018397Y0051538D01*
X0018330Y0051580D01*
X0018261Y0051616D01*
X0018188Y0051647D01*
X0018113Y0051670D01*
X0018036Y0051687D01*
X0017959Y0051697D01*
X0017880Y0051701D01*
X0017801Y0051697D01*
X0017724Y0051687D01*
X0017647Y0051670D01*
X0017572Y0051647D01*
X0017499Y0051616D01*
X0017430Y0051580D01*
X0017363Y0051538D01*
X0017301Y0051490D01*
X0017243Y0051437D01*
X0017190Y0051379D01*
X0017142Y0051317D01*
X0017100Y0051250D01*
X0017064Y0051181D01*
X0017033Y0051108D01*
X0017010Y0051033D01*
X0016993Y0050956D01*
X0016983Y0050879D01*
X0016979Y0050800D01*
X0016983Y0050721D01*
X0016993Y0050644D01*
X0017010Y0050567D01*
X0017033Y0050492D01*
X0017064Y0050419D01*
X0017100Y0050350D01*
X0017142Y0050283D01*
X0017190Y0050221D01*
X0017243Y0050163D01*
X0017301Y0050110D01*
X0017363Y0050062D01*
X0017430Y0050020D01*
X0017499Y0049984D01*
X0017572Y0049953D01*
X0017624Y0049937D01*
Y0047276D01*
X0017486Y0047219D01*
X0015591Y0049114D01*
Y0049935D01*
X0015648Y0049953D01*
X0015721Y0049984D01*
X0015790Y0050020D01*
X0015857Y0050062D01*
X0015919Y0050110D01*
X0015977Y0050163D01*
X0016030Y0050221D01*
X0016078Y0050283D01*
X0016120Y0050350D01*
X0016156Y0050419D01*
X0016187Y0050492D01*
X0016210Y0050567D01*
X0016227Y0050644D01*
X0016237Y0050721D01*
X0016241Y0050800D01*
X0016237Y0050879D01*
X0016227Y0050956D01*
X0016210Y0051033D01*
X0016187Y0051108D01*
X0016156Y0051181D01*
X0016120Y0051250D01*
X0016078Y0051317D01*
X0016030Y0051379D01*
X0015977Y0051437D01*
X0015919Y0051490D01*
X0015857Y0051538D01*
X0015790Y0051580D01*
X0015721Y0051616D01*
X0015648Y0051647D01*
X0015573Y0051670D01*
X0015496Y0051687D01*
X0015419Y0051697D01*
X0015340Y0051701D01*
X0015261Y0051697D01*
X0015184Y0051687D01*
X0015107Y0051670D01*
X0015032Y0051647D01*
X0014959Y0051616D01*
X0014890Y0051580D01*
X0014823Y0051538D01*
X0014761Y0051490D01*
X0014703Y0051437D01*
X0014650Y0051379D01*
X0014602Y0051317D01*
X0014560Y0051250D01*
X0014524Y0051181D01*
X0014493Y0051108D01*
X0014470Y0051033D01*
X0014453Y0050956D01*
X0014443Y0050879D01*
X0014439Y0050800D01*
X0014443Y0050721D01*
X0014453Y0050644D01*
X0014470Y0050567D01*
X0014493Y0050492D01*
X0014524Y0050419D01*
X0014560Y0050350D01*
X0014602Y0050283D01*
X0014650Y0050221D01*
X0014703Y0050163D01*
X0014761Y0050110D01*
X0014823Y0050062D01*
X0014890Y0050020D01*
X0014959Y0049984D01*
X0015032Y0049953D01*
X0015089Y0049935D01*
Y0049311D01*
X0014951Y0049254D01*
X0013662Y0050542D01*
X0013670Y0050567D01*
X0013687Y0050644D01*
X0013697Y0050721D01*
X0013701Y0050800D01*
X0013697Y0050879D01*
X0013687Y0050956D01*
X0013670Y0051033D01*
X0013647Y0051108D01*
X0013616Y0051181D01*
X0013580Y0051250D01*
X0013538Y0051317D01*
X0013490Y0051379D01*
X0013437Y0051437D01*
X0013379Y0051490D01*
X0013317Y0051538D01*
X0013250Y0051580D01*
X0013181Y0051616D01*
X0013108Y0051647D01*
X0013033Y0051670D01*
X0012956Y0051687D01*
X0012879Y0051697D01*
X0012800Y0051701D01*
X0012721Y0051697D01*
X0012644Y0051687D01*
X0012567Y0051670D01*
X0012492Y0051647D01*
X0012419Y0051616D01*
X0012350Y0051580D01*
X0012283Y0051538D01*
X0012221Y0051490D01*
X0012163Y0051437D01*
X0012110Y0051379D01*
X0012062Y0051317D01*
X0012020Y0051250D01*
X0011984Y0051181D01*
X0011953Y0051108D01*
X0011930Y0051033D01*
X0011913Y0050956D01*
X0011903Y0050879D01*
X0011899Y0050800D01*
X0011903Y0050721D01*
X0011913Y0050644D01*
X0011930Y0050567D01*
X0011953Y0050492D01*
X0011984Y0050419D01*
X0012020Y0050350D01*
X0012062Y0050283D01*
X0012110Y0050221D01*
X0012163Y0050163D01*
X0012221Y0050110D01*
X0012283Y0050062D01*
X0012350Y0050020D01*
X0012419Y0049984D01*
X0012492Y0049953D01*
X0012567Y0049930D01*
X0012644Y0049913D01*
X0012721Y0049903D01*
X0012800Y0049899D01*
X0012879Y0049903D01*
X0012956Y0049913D01*
X0013033Y0049930D01*
X0013108Y0049953D01*
X0013181Y0049984D01*
X0013250Y0050020D01*
X0013317Y0050062D01*
X0013379Y0050110D01*
X0013382Y0050113D01*
X0018973Y0044523D01*
X0018973Y0044485D01*
X0018921Y0044362D01*
X0018872Y0044345D01*
X0018825Y0044322D01*
X0018781Y0044293D01*
X0018742Y0044258D01*
X0018707Y0044219D01*
X0018678Y0044175D01*
X0018655Y0044128D01*
X0018638Y0044079D01*
X0018628Y0044027D01*
X0018624Y0043975D01*
X0018628Y0043923D01*
X0018638Y0043871D01*
X0018655Y0043822D01*
X0018678Y0043775D01*
X0018707Y0043731D01*
X0018742Y0043692D01*
X0018781Y0043657D01*
X0018825Y0043628D01*
X0018872Y0043605D01*
X0018921Y0043588D01*
X0018973Y0043578D01*
X0018974Y0043577D01*
Y0019600D01*
X0018977Y0019561D01*
X0018986Y0019523D01*
X0019002Y0019486D01*
X0019022Y0019453D01*
X0019048Y0019423D01*
X0022873Y0015598D01*
X0022903Y0015572D01*
X0022936Y0015552D01*
X0022973Y0015536D01*
X0023011Y0015527D01*
X0023050Y0015524D01*
X0037521D01*
X0037702Y0015343D01*
X0037699Y0015300D01*
X0037703Y0015248D01*
X0037713Y0015196D01*
X0037730Y0015147D01*
X0037753Y0015100D01*
X0037782Y0015056D01*
X0037817Y0015017D01*
X0037856Y0014982D01*
X0037900Y0014953D01*
X0037947Y0014930D01*
X0037996Y0014913D01*
X0038048Y0014903D01*
X0038100Y0014899D01*
X0038108Y0014900D01*
X0038172Y0014785D01*
X0038177Y0014756D01*
X0034323Y0010902D01*
X0034297Y0010872D01*
X0034277Y0010839D01*
X0034262Y0010802D01*
X0034252Y0010764D01*
X0034249Y0010725D01*
Y0003440D01*
X0033600D01*
Y0001640D01*
X0035400D01*
Y0003440D01*
X0034751D01*
Y0010621D01*
X0039427Y0015297D01*
X0039551Y0015257D01*
X0039580Y0015238D01*
X0039588Y0015196D01*
X0039605Y0015147D01*
X0039628Y0015100D01*
X0039657Y0015056D01*
X0039692Y0015017D01*
X0039731Y0014982D01*
X0039775Y0014953D01*
X0039822Y0014930D01*
X0039871Y0014913D01*
X0039923Y0014903D01*
X0039975Y0014899D01*
X0040027Y0014903D01*
X0040079Y0014913D01*
X0040128Y0014930D01*
X0040175Y0014953D01*
X0040219Y0014982D01*
X0040258Y0015017D01*
X0040287Y0015049D01*
X0046700D01*
X0046739Y0015052D01*
X0046777Y0015061D01*
X0046814Y0015077D01*
X0046847Y0015097D01*
X0046877Y0015123D01*
X0054152Y0022398D01*
X0054178Y0022428D01*
X0054198Y0022461D01*
X0054214Y0022498D01*
X0054223Y0022536D01*
X0054226Y0022575D01*
Y0023588D01*
X0054258Y0023617D01*
X0054293Y0023656D01*
X0054322Y0023700D01*
X0054345Y0023747D01*
X0054362Y0023796D01*
X0054372Y0023848D01*
X0054376Y0023900D01*
X0054372Y0023952D01*
X0054362Y0024004D01*
X0054345Y0024053D01*
X0054322Y0024100D01*
X0054293Y0024144D01*
X0054258Y0024183D01*
X0054219Y0024218D01*
X0054175Y0024247D01*
X0054128Y0024270D01*
X0054079Y0024287D01*
X0054027Y0024297D01*
X0053975Y0024301D01*
X0053923Y0024297D01*
X0053871Y0024287D01*
X0053822Y0024270D01*
X0053775Y0024247D01*
X0053731Y0024218D01*
X0053692Y0024183D01*
X0053657Y0024144D01*
X0053628Y0024100D01*
X0053605Y0024053D01*
X0053588Y0024004D01*
X0053578Y0023952D01*
X0053574Y0023900D01*
X0053578Y0023848D01*
X0053588Y0023796D01*
X0053605Y0023747D01*
X0053628Y0023700D01*
X0053657Y0023656D01*
X0053692Y0023617D01*
X0053724Y0023588D01*
Y0022679D01*
X0046596Y0015551D01*
X0044368D01*
X0044305Y0015701D01*
X0046452Y0017848D01*
X0046478Y0017878D01*
X0046498Y0017911D01*
X0046514Y0017948D01*
X0046523Y0017986D01*
X0046526Y0018025D01*
Y0020203D01*
X0046797Y0020474D01*
X0048650D01*
X0048689Y0020477D01*
X0048728Y0020486D01*
X0048764Y0020502D01*
X0048797Y0020522D01*
X0048827Y0020548D01*
X0050257Y0021977D01*
X0050300Y0021974D01*
X0050352Y0021978D01*
X0050404Y0021988D01*
X0050453Y0022005D01*
X0050500Y0022028D01*
X0050544Y0022057D01*
X0050583Y0022092D01*
X0050618Y0022131D01*
X0050647Y0022175D01*
X0050670Y0022222D01*
X0050687Y0022271D01*
X0050697Y0022323D01*
X0050701Y0022375D01*
X0050697Y0022427D01*
X0050687Y0022479D01*
X0050670Y0022528D01*
X0050647Y0022575D01*
X0050618Y0022619D01*
X0050583Y0022658D01*
X0050544Y0022693D01*
X0050500Y0022722D01*
X0050453Y0022745D01*
X0050404Y0022762D01*
X0050352Y0022772D01*
X0050300Y0022776D01*
X0050276Y0022774D01*
X0050213Y0022804D01*
X0050141Y0022869D01*
X0050126Y0022897D01*
Y0024088D01*
X0050158Y0024117D01*
X0050193Y0024156D01*
X0050244Y0024200D01*
X0050325Y0024203D01*
X0050372Y0024180D01*
X0050421Y0024163D01*
X0050473Y0024153D01*
X0050525Y0024149D01*
X0050577Y0024153D01*
X0050629Y0024163D01*
X0050678Y0024180D01*
X0050725Y0024203D01*
X0050769Y0024232D01*
X0050808Y0024267D01*
X0050843Y0024306D01*
X0050872Y0024350D01*
X0050895Y0024397D01*
X0050912Y0024446D01*
X0050922Y0024498D01*
X0050926Y0024550D01*
X0050922Y0024602D01*
X0050912Y0024654D01*
X0050895Y0024703D01*
X0050872Y0024750D01*
X0050843Y0024794D01*
X0050808Y0024833D01*
X0050769Y0024868D01*
X0050725Y0024897D01*
X0050678Y0024920D01*
X0050629Y0024937D01*
X0050577Y0024947D01*
X0050525Y0024951D01*
X0050473Y0024947D01*
X0050421Y0024937D01*
X0050372Y0024920D01*
X0050325Y0024897D01*
X0050281Y0024868D01*
X0050242Y0024833D01*
X0050207Y0024794D01*
X0050156Y0024750D01*
X0050075Y0024747D01*
X0050028Y0024770D01*
X0049979Y0024787D01*
X0049927Y0024797D01*
X0049875Y0024801D01*
X0049823Y0024797D01*
X0049771Y0024787D01*
X0049722Y0024770D01*
X0049675Y0024747D01*
X0049631Y0024718D01*
X0049592Y0024683D01*
X0049557Y0024644D01*
X0049528Y0024600D01*
X0049505Y0024553D01*
X0049488Y0024504D01*
X0049478Y0024452D01*
X0049474Y0024400D01*
X0049478Y0024348D01*
X0049488Y0024296D01*
X0049505Y0024247D01*
X0049528Y0024200D01*
X0049557Y0024156D01*
X0049592Y0024117D01*
X0049624Y0024088D01*
Y0023551D01*
X0049486Y0023494D01*
X0049152Y0023827D01*
X0049122Y0023853D01*
X0049089Y0023873D01*
X0049052Y0023889D01*
X0049014Y0023898D01*
X0048975Y0023901D01*
X0048737D01*
X0048708Y0023933D01*
X0048669Y0023968D01*
X0048625Y0023997D01*
X0048578Y0024020D01*
X0048529Y0024037D01*
X0048477Y0024047D01*
X0048425Y0024051D01*
X0048373Y0024047D01*
X0048321Y0024037D01*
X0048272Y0024020D01*
X0048225Y0023997D01*
X0048181Y0023968D01*
X0048142Y0023933D01*
X0048107Y0023894D01*
X0048078Y0023850D01*
X0048055Y0023803D01*
X0048038Y0023754D01*
X0048028Y0023702D01*
X0048024Y0023650D01*
X0047925Y0023601D01*
X0047826Y0023650D01*
X0047822Y0023702D01*
X0047812Y0023754D01*
X0047795Y0023803D01*
X0047772Y0023850D01*
X0047743Y0023894D01*
X0047708Y0023933D01*
X0047669Y0023968D01*
X0047625Y0023997D01*
X0047578Y0024020D01*
X0047529Y0024037D01*
X0047477Y0024047D01*
X0047425Y0024051D01*
X0047373Y0024047D01*
X0047321Y0024037D01*
X0047272Y0024020D01*
X0047225Y0023997D01*
X0047181Y0023968D01*
X0047142Y0023933D01*
X0047113Y0023901D01*
X0046857D01*
X0046818Y0023898D01*
X0046780Y0023889D01*
X0046743Y0023873D01*
X0046710Y0023853D01*
X0046680Y0023827D01*
X0045928Y0023076D01*
X0045807D01*
X0045768Y0023073D01*
X0045730Y0023063D01*
X0045693Y0023048D01*
X0045660Y0023028D01*
X0045630Y0023002D01*
X0045623Y0022995D01*
X0045577Y0022990D01*
X0045448Y0023025D01*
X0045445Y0023029D01*
X0045418Y0023069D01*
X0045383Y0023108D01*
X0045344Y0023143D01*
X0045300Y0023172D01*
X0045253Y0023195D01*
X0045204Y0023212D01*
X0045152Y0023222D01*
X0045100Y0023226D01*
X0045048Y0023222D01*
X0044996Y0023212D01*
X0044947Y0023195D01*
X0044900Y0023172D01*
X0044856Y0023143D01*
X0044817Y0023108D01*
X0044782Y0023069D01*
X0044753Y0023025D01*
X0044730Y0022978D01*
X0044713Y0022929D01*
X0044703Y0022877D01*
X0044699Y0022825D01*
X0044702Y0022782D01*
X0043648Y0021727D01*
X0043622Y0021697D01*
X0043602Y0021664D01*
X0043586Y0021627D01*
X0043577Y0021589D01*
X0043574Y0021550D01*
Y0019154D01*
X0042921Y0018501D01*
X0024179D01*
X0021951Y0020729D01*
Y0036496D01*
X0026129Y0040674D01*
X0051246D01*
X0053724Y0038196D01*
Y0029662D01*
X0053692Y0029633D01*
X0053657Y0029594D01*
X0053628Y0029550D01*
X0053605Y0029503D01*
X0053588Y0029454D01*
X0053578Y0029402D01*
X0053574Y0029350D01*
X0053578Y0029298D01*
X0053588Y0029246D01*
X0053605Y0029197D01*
X0053628Y0029150D01*
X0053657Y0029106D01*
X0053692Y0029067D01*
X0053731Y0029032D01*
X0053775Y0029003D01*
X0053822Y0028980D01*
X0053871Y0028963D01*
X0053923Y0028953D01*
X0053975Y0028949D01*
X0054027Y0028953D01*
X0054079Y0028963D01*
X0054128Y0028980D01*
X0054175Y0029003D01*
X0054219Y0029032D01*
X0054258Y0029067D01*
X0054293Y0029106D01*
X0054322Y0029150D01*
X0054345Y0029197D01*
X0054362Y0029246D01*
X0054372Y0029298D01*
X0054376Y0029350D01*
X0054372Y0029402D01*
X0054362Y0029454D01*
X0054345Y0029503D01*
X0054322Y0029550D01*
X0054293Y0029594D01*
X0054258Y0029633D01*
X0054226Y0029662D01*
Y0038300D01*
X0054223Y0038339D01*
X0054214Y0038377D01*
X0054198Y0038414D01*
X0054178Y0038447D01*
X0054152Y0038477D01*
X0051527Y0041102D01*
X0051497Y0041128D01*
X0051464Y0041148D01*
X0051427Y0041164D01*
X0051389Y0041173D01*
X0051350Y0041176D01*
X0026025D01*
X0025986Y0041173D01*
X0025948Y0041164D01*
X0025911Y0041148D01*
X0025878Y0041128D01*
X0025848Y0041102D01*
X0021739Y0036994D01*
X0021601Y0037051D01*
Y0043171D01*
X0026754Y0048324D01*
X0037355D01*
X0037394Y0048327D01*
X0037432Y0048336D01*
X0037469Y0048352D01*
X0037502Y0048372D01*
X0037532Y0048398D01*
X0039146Y0050011D01*
X0039199Y0049984D01*
X0039272Y0049953D01*
X0039347Y0049930D01*
X0039424Y0049913D01*
X0039501Y0049903D01*
X0039580Y0049899D01*
X0039659Y0049903D01*
X0039736Y0049913D01*
X0039813Y0049930D01*
X0039888Y0049953D01*
X0039961Y0049984D01*
X0040030Y0050020D01*
X0040097Y0050062D01*
X0040159Y0050110D01*
X0040217Y0050163D01*
X0040270Y0050221D01*
X0040318Y0050283D01*
X0040360Y0050350D01*
X0040396Y0050419D01*
X0040427Y0050492D01*
X0040450Y0050567D01*
X0040467Y0050644D01*
X0040477Y0050721D01*
X0040481Y0050800D01*
X0040477Y0050879D01*
X0040467Y0050956D01*
X0040450Y0051033D01*
X0040427Y0051108D01*
X0040396Y0051181D01*
X0040360Y0051250D01*
X0040318Y0051317D01*
X0040270Y0051379D01*
X0040217Y0051437D01*
X0040159Y0051490D01*
X0040097Y0051538D01*
X0040030Y0051580D01*
X0039961Y0051616D01*
X0039888Y0051647D01*
X0039813Y0051670D01*
X0039736Y0051687D01*
X0039659Y0051697D01*
X0039580Y0051701D01*
D02*
G37*
G36*
X0031960D02*
X0031881Y0051697D01*
X0031804Y0051687D01*
X0031727Y0051670D01*
X0031652Y0051647D01*
X0031579Y0051616D01*
X0031510Y0051580D01*
X0031443Y0051538D01*
X0031381Y0051490D01*
X0031323Y0051437D01*
X0031270Y0051379D01*
X0031222Y0051317D01*
X0031180Y0051250D01*
X0031144Y0051181D01*
X0031113Y0051108D01*
X0031090Y0051033D01*
X0031073Y0050956D01*
X0031063Y0050879D01*
X0031059Y0050800D01*
X0031063Y0050721D01*
X0031073Y0050644D01*
X0031090Y0050567D01*
X0031113Y0050492D01*
X0031144Y0050419D01*
X0031180Y0050350D01*
X0031222Y0050283D01*
X0031270Y0050221D01*
X0031323Y0050163D01*
X0031381Y0050110D01*
X0031443Y0050062D01*
X0031510Y0050020D01*
X0031579Y0049984D01*
X0031652Y0049953D01*
X0031727Y0049930D01*
X0031804Y0049913D01*
X0031881Y0049903D01*
X0031960Y0049899D01*
X0032039Y0049903D01*
X0032116Y0049913D01*
X0032193Y0049930D01*
X0032268Y0049953D01*
X0032341Y0049984D01*
X0032410Y0050020D01*
X0032477Y0050062D01*
X0032539Y0050110D01*
X0032597Y0050163D01*
X0032650Y0050221D01*
X0032698Y0050283D01*
X0032740Y0050350D01*
X0032776Y0050419D01*
X0032807Y0050492D01*
X0032830Y0050567D01*
X0032847Y0050644D01*
X0032857Y0050721D01*
X0032861Y0050800D01*
X0032857Y0050879D01*
X0032847Y0050956D01*
X0032830Y0051033D01*
X0032807Y0051108D01*
X0032776Y0051181D01*
X0032740Y0051250D01*
X0032698Y0051317D01*
X0032650Y0051379D01*
X0032597Y0051437D01*
X0032539Y0051490D01*
X0032477Y0051538D01*
X0032410Y0051580D01*
X0032341Y0051616D01*
X0032268Y0051647D01*
X0032193Y0051670D01*
X0032116Y0051687D01*
X0032039Y0051697D01*
X0031960Y0051701D01*
D02*
G37*
G36*
X0022960D02*
X0022881Y0051697D01*
X0022804Y0051687D01*
X0022727Y0051670D01*
X0022652Y0051647D01*
X0022579Y0051616D01*
X0022510Y0051580D01*
X0022443Y0051538D01*
X0022381Y0051490D01*
X0022323Y0051437D01*
X0022270Y0051379D01*
X0022222Y0051317D01*
X0022180Y0051250D01*
X0022144Y0051181D01*
X0022113Y0051108D01*
X0022090Y0051033D01*
X0022073Y0050956D01*
X0022063Y0050879D01*
X0022059Y0050800D01*
X0022063Y0050721D01*
X0022073Y0050644D01*
X0022090Y0050567D01*
X0022113Y0050492D01*
X0022144Y0050419D01*
X0022171Y0050366D01*
X0020956Y0049151D01*
X0019012D01*
X0018983Y0049183D01*
X0018944Y0049218D01*
X0018900Y0049247D01*
X0018853Y0049270D01*
X0018804Y0049287D01*
X0018752Y0049297D01*
X0018700Y0049301D01*
X0018648Y0049297D01*
X0018596Y0049287D01*
X0018547Y0049270D01*
X0018500Y0049247D01*
X0018456Y0049218D01*
X0018417Y0049183D01*
X0018382Y0049144D01*
X0018353Y0049100D01*
X0018330Y0049053D01*
X0018313Y0049004D01*
X0018303Y0048952D01*
X0018299Y0048900D01*
X0018303Y0048848D01*
X0018313Y0048796D01*
X0018330Y0048747D01*
X0018353Y0048700D01*
X0018382Y0048656D01*
X0018417Y0048617D01*
X0018456Y0048582D01*
X0018500Y0048553D01*
X0018547Y0048530D01*
X0018596Y0048513D01*
X0018648Y0048503D01*
X0018700Y0048499D01*
X0018752Y0048503D01*
X0018804Y0048513D01*
X0018853Y0048530D01*
X0018900Y0048553D01*
X0018944Y0048582D01*
X0018983Y0048617D01*
X0019012Y0048649D01*
X0021060D01*
X0021099Y0048652D01*
X0021137Y0048661D01*
X0021174Y0048677D01*
X0021207Y0048697D01*
X0021237Y0048723D01*
X0022526Y0050011D01*
X0022579Y0049984D01*
X0022652Y0049953D01*
X0022727Y0049930D01*
X0022804Y0049913D01*
X0022881Y0049903D01*
X0022960Y0049899D01*
X0023039Y0049903D01*
X0023116Y0049913D01*
X0023193Y0049930D01*
X0023268Y0049953D01*
X0023341Y0049984D01*
X0023410Y0050020D01*
X0023477Y0050062D01*
X0023539Y0050110D01*
X0023597Y0050163D01*
X0023650Y0050221D01*
X0023698Y0050283D01*
X0023740Y0050350D01*
X0023776Y0050419D01*
X0023807Y0050492D01*
X0023830Y0050567D01*
X0023847Y0050644D01*
X0023857Y0050721D01*
X0023861Y0050800D01*
X0023857Y0050879D01*
X0023847Y0050956D01*
X0023830Y0051033D01*
X0023807Y0051108D01*
X0023776Y0051181D01*
X0023740Y0051250D01*
X0023698Y0051317D01*
X0023650Y0051379D01*
X0023597Y0051437D01*
X0023539Y0051490D01*
X0023477Y0051538D01*
X0023410Y0051580D01*
X0023341Y0051616D01*
X0023268Y0051647D01*
X0023193Y0051670D01*
X0023116Y0051687D01*
X0023039Y0051697D01*
X0022960Y0051701D01*
D02*
G37*
G36*
X0020420D02*
X0020341Y0051697D01*
X0020264Y0051687D01*
X0020187Y0051670D01*
X0020112Y0051647D01*
X0020039Y0051616D01*
X0019970Y0051580D01*
X0019903Y0051538D01*
X0019841Y0051490D01*
X0019783Y0051437D01*
X0019730Y0051379D01*
X0019682Y0051317D01*
X0019640Y0051250D01*
X0019604Y0051181D01*
X0019573Y0051108D01*
X0019550Y0051033D01*
X0019533Y0050956D01*
X0019523Y0050879D01*
X0019519Y0050800D01*
X0019523Y0050721D01*
X0019533Y0050644D01*
X0019550Y0050567D01*
X0019573Y0050492D01*
X0019604Y0050419D01*
X0019640Y0050350D01*
X0019682Y0050283D01*
X0019730Y0050221D01*
X0019783Y0050163D01*
X0019841Y0050110D01*
X0019903Y0050062D01*
X0019970Y0050020D01*
X0020039Y0049984D01*
X0020112Y0049953D01*
X0020187Y0049930D01*
X0020264Y0049913D01*
X0020341Y0049903D01*
X0020420Y0049899D01*
X0020499Y0049903D01*
X0020576Y0049913D01*
X0020653Y0049930D01*
X0020728Y0049953D01*
X0020801Y0049984D01*
X0020870Y0050020D01*
X0020937Y0050062D01*
X0020999Y0050110D01*
X0021057Y0050163D01*
X0021110Y0050221D01*
X0021158Y0050283D01*
X0021200Y0050350D01*
X0021236Y0050419D01*
X0021267Y0050492D01*
X0021290Y0050567D01*
X0021307Y0050644D01*
X0021317Y0050721D01*
X0021321Y0050800D01*
X0021317Y0050879D01*
X0021307Y0050956D01*
X0021290Y0051033D01*
X0021267Y0051108D01*
X0021236Y0051181D01*
X0021200Y0051250D01*
X0021158Y0051317D01*
X0021110Y0051379D01*
X0021057Y0051437D01*
X0020999Y0051490D01*
X0020937Y0051538D01*
X0020870Y0051580D01*
X0020801Y0051616D01*
X0020728Y0051647D01*
X0020653Y0051670D01*
X0020576Y0051687D01*
X0020499Y0051697D01*
X0020420Y0051701D01*
D02*
G37*
G36*
X0007720D02*
X0007641Y0051697D01*
X0007564Y0051687D01*
X0007487Y0051670D01*
X0007412Y0051647D01*
X0007339Y0051616D01*
X0007270Y0051580D01*
X0007203Y0051538D01*
X0007141Y0051490D01*
X0007083Y0051437D01*
X0007030Y0051379D01*
X0006982Y0051317D01*
X0006940Y0051250D01*
X0006904Y0051181D01*
X0006873Y0051108D01*
X0006850Y0051033D01*
X0006833Y0050956D01*
X0006823Y0050879D01*
X0006819Y0050800D01*
X0006823Y0050721D01*
X0006833Y0050644D01*
X0006850Y0050567D01*
X0006873Y0050492D01*
X0006904Y0050419D01*
X0006940Y0050350D01*
X0006982Y0050283D01*
X0007030Y0050221D01*
X0007083Y0050163D01*
X0007141Y0050110D01*
X0007203Y0050062D01*
X0007270Y0050020D01*
X0007339Y0049984D01*
X0007412Y0049953D01*
X0007487Y0049930D01*
X0007564Y0049913D01*
X0007641Y0049903D01*
X0007720Y0049899D01*
X0007799Y0049903D01*
X0007876Y0049913D01*
X0007953Y0049930D01*
X0008028Y0049953D01*
X0008101Y0049984D01*
X0008170Y0050020D01*
X0008237Y0050062D01*
X0008299Y0050110D01*
X0008357Y0050163D01*
X0008410Y0050221D01*
X0008458Y0050283D01*
X0008500Y0050350D01*
X0008536Y0050419D01*
X0008567Y0050492D01*
X0008590Y0050567D01*
X0008607Y0050644D01*
X0008617Y0050721D01*
X0008621Y0050800D01*
X0008617Y0050879D01*
X0008607Y0050956D01*
X0008590Y0051033D01*
X0008567Y0051108D01*
X0008536Y0051181D01*
X0008500Y0051250D01*
X0008458Y0051317D01*
X0008410Y0051379D01*
X0008357Y0051437D01*
X0008299Y0051490D01*
X0008237Y0051538D01*
X0008170Y0051580D01*
X0008101Y0051616D01*
X0008028Y0051647D01*
X0007953Y0051670D01*
X0007876Y0051687D01*
X0007799Y0051697D01*
X0007720Y0051701D01*
D02*
G37*
G36*
X0005180D02*
X0005101Y0051697D01*
X0005024Y0051687D01*
X0004947Y0051670D01*
X0004872Y0051647D01*
X0004799Y0051616D01*
X0004730Y0051580D01*
X0004663Y0051538D01*
X0004601Y0051490D01*
X0004543Y0051437D01*
X0004490Y0051379D01*
X0004442Y0051317D01*
X0004400Y0051250D01*
X0004364Y0051181D01*
X0004333Y0051108D01*
X0004310Y0051033D01*
X0004293Y0050956D01*
X0004283Y0050879D01*
X0004279Y0050800D01*
X0004283Y0050721D01*
X0004293Y0050644D01*
X0004310Y0050567D01*
X0004333Y0050492D01*
X0004364Y0050419D01*
X0004398Y0050353D01*
X0004323Y0050277D01*
X0004297Y0050247D01*
X0004277Y0050214D01*
X0004261Y0050177D01*
X0004252Y0050139D01*
X0004249Y0050100D01*
Y0045099D01*
X0004225Y0045083D01*
X0004181Y0045044D01*
X0004142Y0045000D01*
X0004109Y0044950D01*
X0004083Y0044898D01*
X0004064Y0044842D01*
X0004053Y0044784D01*
X0004049Y0044725D01*
X0004053Y0044666D01*
X0004064Y0044608D01*
X0004083Y0044552D01*
X0004109Y0044500D01*
X0004142Y0044450D01*
X0004181Y0044406D01*
X0004225Y0044367D01*
X0004275Y0044334D01*
X0004327Y0044308D01*
X0004383Y0044289D01*
X0004441Y0044278D01*
X0004500Y0044274D01*
X0004559Y0044278D01*
X0004617Y0044289D01*
X0004673Y0044308D01*
X0004725Y0044334D01*
X0004775Y0044367D01*
X0004819Y0044406D01*
X0004858Y0044450D01*
X0004891Y0044500D01*
X0004917Y0044552D01*
X0004936Y0044608D01*
X0004947Y0044666D01*
X0004951Y0044725D01*
X0004947Y0044784D01*
X0004936Y0044842D01*
X0004917Y0044898D01*
X0004891Y0044950D01*
X0004858Y0045000D01*
X0004819Y0045044D01*
X0004775Y0045083D01*
X0004751Y0045099D01*
Y0049841D01*
X0004823Y0049908D01*
X0004901Y0049944D01*
X0004947Y0049930D01*
X0005024Y0049913D01*
X0005101Y0049903D01*
X0005180Y0049899D01*
X0005259Y0049903D01*
X0005336Y0049913D01*
X0005413Y0049930D01*
X0005488Y0049953D01*
X0005561Y0049984D01*
X0005630Y0050020D01*
X0005697Y0050062D01*
X0005759Y0050110D01*
X0005817Y0050163D01*
X0005870Y0050221D01*
X0005918Y0050283D01*
X0005960Y0050350D01*
X0005996Y0050419D01*
X0006027Y0050492D01*
X0006050Y0050567D01*
X0006067Y0050644D01*
X0006077Y0050721D01*
X0006081Y0050800D01*
X0006077Y0050879D01*
X0006067Y0050956D01*
X0006050Y0051033D01*
X0006027Y0051108D01*
X0005996Y0051181D01*
X0005960Y0051250D01*
X0005918Y0051317D01*
X0005870Y0051379D01*
X0005817Y0051437D01*
X0005759Y0051490D01*
X0005697Y0051538D01*
X0005630Y0051580D01*
X0005561Y0051616D01*
X0005488Y0051647D01*
X0005413Y0051670D01*
X0005336Y0051687D01*
X0005259Y0051697D01*
X0005180Y0051701D01*
D02*
G37*
G36*
X0011181Y0050400D02*
X0010660D01*
Y0049879D01*
X0010685Y0049889D01*
X0010762Y0049930D01*
X0010836Y0049977D01*
X0010906Y0050030D01*
X0010971Y0050089D01*
X0011030Y0050154D01*
X0011083Y0050224D01*
X0011130Y0050298D01*
X0011171Y0050375D01*
X0011181Y0050400D01*
D02*
G37*
G36*
X0009860D02*
X0009339D01*
X0009349Y0050375D01*
X0009390Y0050298D01*
X0009437Y0050224D01*
X0009490Y0050154D01*
X0009549Y0050089D01*
X0009614Y0050030D01*
X0009684Y0049977D01*
X0009758Y0049930D01*
X0009835Y0049889D01*
X0009860Y0049879D01*
Y0050400D01*
D02*
G37*
G36*
X0004400Y0043550D02*
X0002600D01*
Y0041750D01*
X0004400D01*
Y0043550D01*
D02*
G37*
G36*
X0003500Y0041551D02*
X0003421Y0041547D01*
X0003344Y0041537D01*
X0003267Y0041520D01*
X0003192Y0041497D01*
X0003119Y0041466D01*
X0003050Y0041430D01*
X0002983Y0041388D01*
X0002921Y0041340D01*
X0002863Y0041287D01*
X0002810Y0041229D01*
X0002762Y0041167D01*
X0002720Y0041100D01*
X0002684Y0041031D01*
X0002653Y0040958D01*
X0002630Y0040883D01*
X0002613Y0040806D01*
X0002603Y0040729D01*
X0002599Y0040650D01*
X0002603Y0040571D01*
X0002613Y0040494D01*
X0002630Y0040417D01*
X0002653Y0040342D01*
X0002684Y0040269D01*
X0002720Y0040200D01*
X0002762Y0040133D01*
X0002810Y0040071D01*
X0002863Y0040013D01*
X0002921Y0039960D01*
X0002983Y0039912D01*
X0003050Y0039870D01*
X0003119Y0039834D01*
X0003192Y0039803D01*
X0003267Y0039780D01*
X0003344Y0039763D01*
X0003421Y0039753D01*
X0003500Y0039749D01*
X0003579Y0039753D01*
X0003656Y0039763D01*
X0003733Y0039780D01*
X0003808Y0039803D01*
X0003881Y0039834D01*
X0003950Y0039870D01*
X0004017Y0039912D01*
X0004079Y0039960D01*
X0004137Y0040013D01*
X0004190Y0040071D01*
X0004238Y0040133D01*
X0004280Y0040200D01*
X0004316Y0040269D01*
X0004347Y0040342D01*
X0004370Y0040417D01*
X0004387Y0040494D01*
X0004397Y0040571D01*
X0004401Y0040650D01*
X0004397Y0040729D01*
X0004387Y0040806D01*
X0004370Y0040883D01*
X0004347Y0040958D01*
X0004316Y0041031D01*
X0004280Y0041100D01*
X0004238Y0041167D01*
X0004190Y0041229D01*
X0004137Y0041287D01*
X0004079Y0041340D01*
X0004017Y0041388D01*
X0003950Y0041430D01*
X0003881Y0041466D01*
X0003808Y0041497D01*
X0003733Y0041520D01*
X0003656Y0041537D01*
X0003579Y0041547D01*
X0003500Y0041551D01*
D02*
G37*
G36*
Y0039551D02*
X0003421Y0039547D01*
X0003344Y0039537D01*
X0003267Y0039520D01*
X0003192Y0039497D01*
X0003119Y0039466D01*
X0003050Y0039430D01*
X0002983Y0039388D01*
X0002921Y0039340D01*
X0002863Y0039287D01*
X0002810Y0039229D01*
X0002762Y0039167D01*
X0002720Y0039100D01*
X0002684Y0039031D01*
X0002653Y0038958D01*
X0002630Y0038883D01*
X0002613Y0038806D01*
X0002603Y0038729D01*
X0002599Y0038650D01*
X0002603Y0038571D01*
X0002613Y0038494D01*
X0002630Y0038417D01*
X0002653Y0038342D01*
X0002684Y0038269D01*
X0002720Y0038200D01*
X0002762Y0038133D01*
X0002810Y0038071D01*
X0002863Y0038013D01*
X0002921Y0037960D01*
X0002983Y0037912D01*
X0003050Y0037870D01*
X0003119Y0037834D01*
X0003192Y0037803D01*
X0003267Y0037780D01*
X0003266Y0037626D01*
X0003240Y0037621D01*
X0003156Y0037594D01*
X0003075Y0037561D01*
X0002998Y0037520D01*
X0002924Y0037473D01*
X0002854Y0037420D01*
X0002789Y0037361D01*
X0002730Y0037296D01*
X0002677Y0037226D01*
X0002630Y0037152D01*
X0002589Y0037075D01*
X0002579Y0037050D01*
X0003500D01*
X0004421D01*
X0004411Y0037075D01*
X0004370Y0037152D01*
X0004323Y0037226D01*
X0004270Y0037296D01*
X0004211Y0037361D01*
X0004146Y0037420D01*
X0004076Y0037473D01*
X0004002Y0037520D01*
X0003925Y0037561D01*
X0003844Y0037594D01*
X0003760Y0037621D01*
X0003734Y0037626D01*
X0003733Y0037780D01*
X0003808Y0037803D01*
X0003881Y0037834D01*
X0003950Y0037870D01*
X0004017Y0037912D01*
X0004079Y0037960D01*
X0004137Y0038013D01*
X0004190Y0038071D01*
X0004238Y0038133D01*
X0004280Y0038200D01*
X0004316Y0038269D01*
X0004347Y0038342D01*
X0004370Y0038417D01*
X0004387Y0038494D01*
X0004397Y0038571D01*
X0004401Y0038650D01*
X0004397Y0038729D01*
X0004387Y0038806D01*
X0004370Y0038883D01*
X0004347Y0038958D01*
X0004316Y0039031D01*
X0004280Y0039100D01*
X0004238Y0039167D01*
X0004190Y0039229D01*
X0004137Y0039287D01*
X0004079Y0039340D01*
X0004017Y0039388D01*
X0003950Y0039430D01*
X0003881Y0039466D01*
X0003808Y0039497D01*
X0003733Y0039520D01*
X0003656Y0039537D01*
X0003579Y0039547D01*
X0003500Y0039551D01*
D02*
G37*
G36*
X0004421Y0036250D02*
X0003900D01*
Y0035729D01*
X0003925Y0035739D01*
X0004002Y0035780D01*
X0004076Y0035827D01*
X0004146Y0035880D01*
X0004211Y0035939D01*
X0004270Y0036004D01*
X0004323Y0036074D01*
X0004370Y0036148D01*
X0004411Y0036225D01*
X0004421Y0036250D01*
D02*
G37*
G36*
X0003100D02*
X0002579D01*
X0002589Y0036225D01*
X0002630Y0036148D01*
X0002677Y0036074D01*
X0002730Y0036004D01*
X0002789Y0035939D01*
X0002854Y0035880D01*
X0002924Y0035827D01*
X0002998Y0035780D01*
X0003075Y0035739D01*
X0003100Y0035729D01*
Y0036250D01*
D02*
G37*
G36*
X0048850Y0034426D02*
X0048798Y0034422D01*
X0048746Y0034412D01*
X0048697Y0034395D01*
X0048650Y0034372D01*
X0048606Y0034343D01*
X0048567Y0034308D01*
X0048532Y0034269D01*
X0048503Y0034225D01*
X0048480Y0034178D01*
X0048463Y0034129D01*
X0048453Y0034077D01*
X0048449Y0034025D01*
X0048453Y0033973D01*
X0048463Y0033921D01*
X0048480Y0033872D01*
X0048503Y0033825D01*
X0048532Y0033781D01*
X0048567Y0033742D01*
X0048606Y0033707D01*
X0048650Y0033678D01*
X0048697Y0033655D01*
X0048746Y0033638D01*
X0048798Y0033628D01*
X0048850Y0033624D01*
X0048902Y0033628D01*
X0048954Y0033638D01*
X0049003Y0033655D01*
X0049050Y0033678D01*
X0049094Y0033707D01*
X0049133Y0033742D01*
X0049168Y0033781D01*
X0049197Y0033825D01*
X0049220Y0033872D01*
X0049237Y0033921D01*
X0049247Y0033973D01*
X0049251Y0034025D01*
X0049247Y0034077D01*
X0049237Y0034129D01*
X0049220Y0034178D01*
X0049197Y0034225D01*
X0049168Y0034269D01*
X0049133Y0034308D01*
X0049094Y0034343D01*
X0049050Y0034372D01*
X0049003Y0034395D01*
X0048954Y0034412D01*
X0048902Y0034422D01*
X0048850Y0034426D01*
D02*
G37*
G36*
X0052775Y0033625D02*
X0049800D01*
X0049725Y0033550D01*
Y0031375D01*
X0047817D01*
X0047776Y0031450D01*
X0047765Y0031525D01*
X0047783Y0031542D01*
X0047818Y0031581D01*
X0047847Y0031625D01*
X0047870Y0031672D01*
X0047887Y0031721D01*
X0047897Y0031773D01*
X0047901Y0031825D01*
X0047897Y0031877D01*
X0047887Y0031929D01*
X0047870Y0031978D01*
X0047847Y0032025D01*
X0047818Y0032069D01*
X0047783Y0032108D01*
X0047744Y0032143D01*
X0047700Y0032172D01*
X0047653Y0032195D01*
X0047604Y0032212D01*
X0047552Y0032222D01*
X0047500Y0032226D01*
X0047448Y0032222D01*
X0047396Y0032212D01*
X0047347Y0032195D01*
X0047300Y0032172D01*
X0047256Y0032143D01*
X0047217Y0032108D01*
X0047182Y0032069D01*
X0047153Y0032025D01*
X0047130Y0031978D01*
X0047113Y0031929D01*
X0047103Y0031877D01*
X0047099Y0031825D01*
X0047103Y0031773D01*
X0047113Y0031721D01*
X0047130Y0031672D01*
X0047153Y0031625D01*
X0047182Y0031581D01*
X0047217Y0031542D01*
X0047235Y0031525D01*
X0047224Y0031450D01*
X0047183Y0031375D01*
X0046725D01*
Y0033525D01*
X0046650Y0033600D01*
X0043725D01*
Y0032600D01*
X0044571D01*
X0044600Y0032574D01*
X0044660Y0032450D01*
X0044658Y0032448D01*
X0044639Y0032392D01*
X0044628Y0032334D01*
X0044624Y0032275D01*
X0044628Y0032216D01*
X0044639Y0032158D01*
X0044658Y0032102D01*
X0044684Y0032050D01*
X0044717Y0032000D01*
X0044756Y0031956D01*
X0044800Y0031917D01*
X0044850Y0031884D01*
X0044902Y0031858D01*
X0044918Y0031853D01*
X0044972Y0031804D01*
X0045012Y0031697D01*
X0045012Y0031678D01*
X0045003Y0031634D01*
X0044999Y0031575D01*
X0045003Y0031516D01*
X0045014Y0031458D01*
X0045033Y0031402D01*
X0045059Y0031350D01*
X0045092Y0031300D01*
X0045102Y0031289D01*
X0045131Y0031237D01*
Y0031138D01*
X0045102Y0031086D01*
X0045092Y0031075D01*
X0045059Y0031025D01*
X0045033Y0030973D01*
X0045014Y0030917D01*
X0045003Y0030859D01*
X0044999Y0030800D01*
X0045003Y0030741D01*
X0045014Y0030683D01*
X0045033Y0030627D01*
X0045059Y0030575D01*
X0045092Y0030525D01*
X0045131Y0030481D01*
X0045175Y0030442D01*
X0045225Y0030409D01*
X0045277Y0030383D01*
X0045333Y0030364D01*
X0045391Y0030353D01*
X0045450Y0030349D01*
X0045509Y0030353D01*
X0045567Y0030364D01*
X0045623Y0030383D01*
X0045675Y0030409D01*
X0045725Y0030442D01*
X0045725Y0030443D01*
X0045868Y0030386D01*
X0045875Y0030379D01*
Y0029800D01*
X0050425D01*
Y0030103D01*
X0050493Y0030151D01*
X0050575Y0030176D01*
X0050600Y0030159D01*
X0050652Y0030133D01*
X0050708Y0030114D01*
X0050766Y0030103D01*
X0050825Y0030099D01*
X0050884Y0030103D01*
X0050942Y0030114D01*
X0050998Y0030133D01*
X0051050Y0030159D01*
X0051100Y0030192D01*
X0051144Y0030231D01*
X0051183Y0030275D01*
X0051216Y0030325D01*
X0051242Y0030377D01*
X0051261Y0030433D01*
X0051272Y0030491D01*
X0051276Y0030550D01*
X0051272Y0030609D01*
X0051261Y0030667D01*
X0051242Y0030723D01*
X0051216Y0030775D01*
X0051183Y0030825D01*
X0051159Y0030852D01*
X0051144Y0030887D01*
Y0031013D01*
X0051159Y0031048D01*
X0051183Y0031075D01*
X0051216Y0031125D01*
X0051242Y0031177D01*
X0051261Y0031233D01*
X0051272Y0031291D01*
X0051276Y0031350D01*
X0051272Y0031409D01*
X0051261Y0031467D01*
X0051242Y0031523D01*
X0051216Y0031575D01*
X0051183Y0031625D01*
X0051144Y0031669D01*
X0051100Y0031708D01*
X0051050Y0031741D01*
X0050998Y0031767D01*
X0050942Y0031786D01*
X0050884Y0031797D01*
X0050825Y0031801D01*
X0050766Y0031797D01*
X0050708Y0031786D01*
X0050652Y0031767D01*
X0050600Y0031741D01*
X0050575Y0031724D01*
X0050493Y0031749D01*
X0050425Y0031797D01*
Y0032625D01*
X0052775D01*
Y0033625D01*
D02*
G37*
G36*
X0048675Y0029426D02*
X0048623Y0029422D01*
X0048571Y0029412D01*
X0048522Y0029395D01*
X0048475Y0029372D01*
X0048431Y0029343D01*
X0048392Y0029308D01*
X0048357Y0029269D01*
X0048328Y0029225D01*
X0048305Y0029178D01*
X0048288Y0029129D01*
X0048278Y0029077D01*
X0048274Y0029025D01*
X0048278Y0028973D01*
X0048288Y0028921D01*
X0048305Y0028872D01*
X0048328Y0028825D01*
X0048357Y0028781D01*
X0048392Y0028742D01*
X0048431Y0028707D01*
X0048475Y0028678D01*
X0048522Y0028655D01*
X0048571Y0028638D01*
X0048623Y0028628D01*
X0048675Y0028624D01*
X0048727Y0028628D01*
X0048779Y0028638D01*
X0048828Y0028655D01*
X0048875Y0028678D01*
X0048919Y0028707D01*
X0048958Y0028742D01*
X0048993Y0028781D01*
X0049022Y0028825D01*
X0049045Y0028872D01*
X0049062Y0028921D01*
X0049072Y0028973D01*
X0049076Y0029025D01*
X0049072Y0029077D01*
X0049062Y0029129D01*
X0049045Y0029178D01*
X0049022Y0029225D01*
X0048993Y0029269D01*
X0048958Y0029308D01*
X0048919Y0029343D01*
X0048875Y0029372D01*
X0048828Y0029395D01*
X0048779Y0029412D01*
X0048727Y0029422D01*
X0048675Y0029426D01*
D02*
G37*
G36*
X0047675D02*
X0047623Y0029422D01*
X0047571Y0029412D01*
X0047522Y0029395D01*
X0047475Y0029372D01*
X0047431Y0029343D01*
X0047392Y0029308D01*
X0047357Y0029269D01*
X0047328Y0029225D01*
X0047305Y0029178D01*
X0047288Y0029129D01*
X0047278Y0029077D01*
X0047274Y0029025D01*
X0047278Y0028973D01*
X0047288Y0028921D01*
X0047305Y0028872D01*
X0047328Y0028825D01*
X0047357Y0028781D01*
X0047392Y0028742D01*
X0047431Y0028707D01*
X0047475Y0028678D01*
X0047522Y0028655D01*
X0047571Y0028638D01*
X0047623Y0028628D01*
X0047675Y0028624D01*
X0047727Y0028628D01*
X0047779Y0028638D01*
X0047828Y0028655D01*
X0047875Y0028678D01*
X0047919Y0028707D01*
X0047958Y0028742D01*
X0047993Y0028781D01*
X0048022Y0028825D01*
X0048045Y0028872D01*
X0048062Y0028921D01*
X0048072Y0028973D01*
X0048076Y0029025D01*
X0048072Y0029077D01*
X0048062Y0029129D01*
X0048045Y0029178D01*
X0048022Y0029225D01*
X0047993Y0029269D01*
X0047958Y0029308D01*
X0047919Y0029343D01*
X0047875Y0029372D01*
X0047828Y0029395D01*
X0047779Y0029412D01*
X0047727Y0029422D01*
X0047675Y0029426D01*
D02*
G37*
G36*
X0003500Y0026551D02*
X0003421Y0026547D01*
X0003344Y0026537D01*
X0003267Y0026520D01*
X0003192Y0026497D01*
X0003119Y0026466D01*
X0003050Y0026430D01*
X0002983Y0026388D01*
X0002921Y0026340D01*
X0002863Y0026287D01*
X0002810Y0026229D01*
X0002762Y0026167D01*
X0002720Y0026100D01*
X0002684Y0026031D01*
X0002653Y0025958D01*
X0002630Y0025883D01*
X0002613Y0025806D01*
X0002603Y0025729D01*
X0002599Y0025650D01*
X0002603Y0025571D01*
X0002613Y0025494D01*
X0002630Y0025417D01*
X0002653Y0025342D01*
X0002684Y0025269D01*
X0002720Y0025200D01*
X0002762Y0025133D01*
X0002810Y0025071D01*
X0002863Y0025013D01*
X0002921Y0024960D01*
X0002983Y0024912D01*
X0003050Y0024870D01*
X0003119Y0024834D01*
X0003192Y0024803D01*
X0003267Y0024780D01*
X0003266Y0024626D01*
X0003240Y0024621D01*
X0003156Y0024594D01*
X0003075Y0024561D01*
X0002998Y0024520D01*
X0002924Y0024473D01*
X0002854Y0024420D01*
X0002789Y0024361D01*
X0002730Y0024296D01*
X0002677Y0024226D01*
X0002630Y0024152D01*
X0002589Y0024075D01*
X0002579Y0024050D01*
X0003500D01*
X0004421D01*
X0004411Y0024075D01*
X0004370Y0024152D01*
X0004323Y0024226D01*
X0004270Y0024296D01*
X0004211Y0024361D01*
X0004146Y0024420D01*
X0004076Y0024473D01*
X0004002Y0024520D01*
X0003925Y0024561D01*
X0003844Y0024594D01*
X0003760Y0024621D01*
X0003734Y0024626D01*
X0003733Y0024780D01*
X0003808Y0024803D01*
X0003881Y0024834D01*
X0003950Y0024870D01*
X0004017Y0024912D01*
X0004079Y0024960D01*
X0004137Y0025013D01*
X0004190Y0025071D01*
X0004238Y0025133D01*
X0004280Y0025200D01*
X0004316Y0025269D01*
X0004347Y0025342D01*
X0004370Y0025417D01*
X0004387Y0025494D01*
X0004397Y0025571D01*
X0004401Y0025650D01*
X0004397Y0025729D01*
X0004387Y0025806D01*
X0004370Y0025883D01*
X0004347Y0025958D01*
X0004316Y0026031D01*
X0004280Y0026100D01*
X0004238Y0026167D01*
X0004190Y0026229D01*
X0004137Y0026287D01*
X0004079Y0026340D01*
X0004017Y0026388D01*
X0003950Y0026430D01*
X0003881Y0026466D01*
X0003808Y0026497D01*
X0003733Y0026520D01*
X0003656Y0026537D01*
X0003579Y0026547D01*
X0003500Y0026551D01*
D02*
G37*
G36*
X0004421Y0023250D02*
X0003900D01*
Y0022729D01*
X0003925Y0022739D01*
X0004002Y0022780D01*
X0004076Y0022827D01*
X0004146Y0022880D01*
X0004211Y0022939D01*
X0004270Y0023004D01*
X0004323Y0023074D01*
X0004370Y0023148D01*
X0004411Y0023225D01*
X0004421Y0023250D01*
D02*
G37*
G36*
X0003100D02*
X0002579D01*
X0002589Y0023225D01*
X0002630Y0023148D01*
X0002677Y0023074D01*
X0002730Y0023004D01*
X0002789Y0022939D01*
X0002854Y0022880D01*
X0002924Y0022827D01*
X0002998Y0022780D01*
X0003075Y0022739D01*
X0003100Y0022729D01*
Y0023250D01*
D02*
G37*
G36*
X0003500Y0015551D02*
X0003421Y0015547D01*
X0003344Y0015537D01*
X0003267Y0015520D01*
X0003192Y0015497D01*
X0003119Y0015466D01*
X0003050Y0015430D01*
X0002983Y0015388D01*
X0002921Y0015340D01*
X0002863Y0015287D01*
X0002810Y0015229D01*
X0002762Y0015167D01*
X0002720Y0015100D01*
X0002684Y0015031D01*
X0002653Y0014958D01*
X0002630Y0014883D01*
X0002613Y0014806D01*
X0002603Y0014729D01*
X0002599Y0014650D01*
X0002603Y0014571D01*
X0002613Y0014494D01*
X0002630Y0014417D01*
X0002653Y0014342D01*
X0002684Y0014269D01*
X0002720Y0014200D01*
X0002720Y0014200D01*
X0001873Y0013352D01*
X0001847Y0013322D01*
X0001827Y0013289D01*
X0001811Y0013252D01*
X0001802Y0013214D01*
X0001799Y0013175D01*
Y0009075D01*
X0001802Y0009036D01*
X0001811Y0008998D01*
X0001827Y0008961D01*
X0001847Y0008928D01*
X0001873Y0008898D01*
X0009873Y0000898D01*
X0009903Y0000872D01*
X0009936Y0000852D01*
X0009973Y0000836D01*
X0010011Y0000827D01*
X0010050Y0000824D01*
X0045735Y0000824D01*
X0045774Y0000827D01*
X0045812Y0000836D01*
X0045849Y0000852D01*
X0045882Y0000872D01*
X0045912Y0000898D01*
X0046766Y0001751D01*
X0046819Y0001724D01*
X0046892Y0001693D01*
X0046967Y0001670D01*
X0047044Y0001653D01*
X0047121Y0001643D01*
X0047200Y0001639D01*
X0047279Y0001643D01*
X0047356Y0001653D01*
X0047433Y0001670D01*
X0047508Y0001693D01*
X0047581Y0001724D01*
X0047650Y0001760D01*
X0047717Y0001802D01*
X0047779Y0001850D01*
X0047837Y0001903D01*
X0047890Y0001961D01*
X0047938Y0002023D01*
X0047980Y0002090D01*
X0048016Y0002159D01*
X0048047Y0002232D01*
X0048070Y0002307D01*
X0048087Y0002384D01*
X0048097Y0002461D01*
X0048101Y0002540D01*
X0048097Y0002619D01*
X0048087Y0002696D01*
X0048070Y0002773D01*
X0048047Y0002848D01*
X0048016Y0002921D01*
X0047980Y0002990D01*
X0047938Y0003057D01*
X0047890Y0003119D01*
X0047837Y0003177D01*
X0047779Y0003230D01*
X0047717Y0003278D01*
X0047650Y0003320D01*
X0047581Y0003356D01*
X0047508Y0003387D01*
X0047433Y0003410D01*
X0047356Y0003427D01*
X0047279Y0003437D01*
X0047200Y0003441D01*
X0047121Y0003437D01*
X0047044Y0003427D01*
X0046967Y0003410D01*
X0046892Y0003387D01*
X0046819Y0003356D01*
X0046750Y0003320D01*
X0046683Y0003278D01*
X0046621Y0003230D01*
X0046563Y0003177D01*
X0046510Y0003119D01*
X0046462Y0003057D01*
X0046420Y0002990D01*
X0046384Y0002921D01*
X0046353Y0002848D01*
X0046330Y0002773D01*
X0046313Y0002696D01*
X0046303Y0002619D01*
X0046299Y0002540D01*
X0046303Y0002461D01*
X0046313Y0002384D01*
X0046330Y0002307D01*
X0046353Y0002232D01*
X0046384Y0002159D01*
X0046411Y0002106D01*
X0045631Y0001326D01*
X0010154Y0001326D01*
X0002301Y0009179D01*
Y0013071D01*
X0003082Y0013853D01*
X0003119Y0013834D01*
X0003192Y0013803D01*
X0003267Y0013780D01*
X0003344Y0013763D01*
X0003421Y0013753D01*
X0003500Y0013749D01*
X0003579Y0013753D01*
X0003656Y0013763D01*
X0003733Y0013780D01*
X0003808Y0013803D01*
X0003881Y0013834D01*
X0003950Y0013870D01*
X0004017Y0013912D01*
X0004079Y0013960D01*
X0004137Y0014013D01*
X0004190Y0014071D01*
X0004238Y0014133D01*
X0004280Y0014200D01*
X0004316Y0014269D01*
X0004347Y0014342D01*
X0004370Y0014417D01*
X0004387Y0014494D01*
X0004397Y0014571D01*
X0004401Y0014650D01*
X0004397Y0014729D01*
X0004387Y0014806D01*
X0004370Y0014883D01*
X0004347Y0014958D01*
X0004316Y0015031D01*
X0004280Y0015100D01*
X0004238Y0015167D01*
X0004190Y0015229D01*
X0004137Y0015287D01*
X0004079Y0015340D01*
X0004017Y0015388D01*
X0003950Y0015430D01*
X0003881Y0015466D01*
X0003808Y0015497D01*
X0003733Y0015520D01*
X0003656Y0015537D01*
X0003579Y0015547D01*
X0003500Y0015551D01*
D02*
G37*
G36*
Y0013551D02*
X0003421Y0013547D01*
X0003344Y0013537D01*
X0003267Y0013520D01*
X0003192Y0013497D01*
X0003119Y0013466D01*
X0003050Y0013430D01*
X0002983Y0013388D01*
X0002921Y0013340D01*
X0002863Y0013287D01*
X0002810Y0013229D01*
X0002762Y0013167D01*
X0002720Y0013100D01*
X0002684Y0013031D01*
X0002653Y0012958D01*
X0002630Y0012883D01*
X0002613Y0012806D01*
X0002603Y0012729D01*
X0002599Y0012650D01*
X0002603Y0012571D01*
X0002613Y0012494D01*
X0002630Y0012417D01*
X0002653Y0012342D01*
X0002684Y0012269D01*
X0002720Y0012200D01*
X0002762Y0012133D01*
X0002810Y0012071D01*
X0002863Y0012013D01*
X0002921Y0011960D01*
X0002983Y0011912D01*
X0003050Y0011870D01*
X0003119Y0011834D01*
X0003192Y0011803D01*
X0003267Y0011780D01*
X0003266Y0011626D01*
X0003240Y0011621D01*
X0003156Y0011594D01*
X0003075Y0011561D01*
X0002998Y0011520D01*
X0002924Y0011473D01*
X0002854Y0011420D01*
X0002789Y0011361D01*
X0002730Y0011296D01*
X0002677Y0011226D01*
X0002630Y0011152D01*
X0002589Y0011075D01*
X0002579Y0011050D01*
X0003500D01*
X0004421D01*
X0004411Y0011075D01*
X0004370Y0011152D01*
X0004323Y0011226D01*
X0004270Y0011296D01*
X0004211Y0011361D01*
X0004146Y0011420D01*
X0004076Y0011473D01*
X0004002Y0011520D01*
X0003925Y0011561D01*
X0003844Y0011594D01*
X0003760Y0011621D01*
X0003734Y0011626D01*
X0003733Y0011780D01*
X0003808Y0011803D01*
X0003881Y0011834D01*
X0003950Y0011870D01*
X0004017Y0011912D01*
X0004079Y0011960D01*
X0004137Y0012013D01*
X0004190Y0012071D01*
X0004238Y0012133D01*
X0004280Y0012200D01*
X0004316Y0012269D01*
X0004347Y0012342D01*
X0004370Y0012417D01*
X0004387Y0012494D01*
X0004397Y0012571D01*
X0004401Y0012650D01*
X0004397Y0012729D01*
X0004387Y0012806D01*
X0004370Y0012883D01*
X0004347Y0012958D01*
X0004316Y0013031D01*
X0004280Y0013100D01*
X0004238Y0013167D01*
X0004190Y0013229D01*
X0004137Y0013287D01*
X0004079Y0013340D01*
X0004017Y0013388D01*
X0003950Y0013430D01*
X0003881Y0013466D01*
X0003808Y0013497D01*
X0003733Y0013520D01*
X0003656Y0013537D01*
X0003579Y0013547D01*
X0003500Y0013551D01*
D02*
G37*
G36*
X0004421Y0010250D02*
X0003900D01*
Y0009729D01*
X0003925Y0009739D01*
X0004002Y0009780D01*
X0004076Y0009827D01*
X0004146Y0009880D01*
X0004211Y0009939D01*
X0004270Y0010004D01*
X0004323Y0010074D01*
X0004370Y0010148D01*
X0004411Y0010225D01*
X0004421Y0010250D01*
D02*
G37*
G36*
X0003100D02*
X0002579D01*
X0002589Y0010225D01*
X0002630Y0010148D01*
X0002677Y0010074D01*
X0002730Y0010004D01*
X0002789Y0009939D01*
X0002854Y0009880D01*
X0002924Y0009827D01*
X0002998Y0009780D01*
X0003075Y0009739D01*
X0003100Y0009729D01*
Y0010250D01*
D02*
G37*
G36*
X0018375Y0013101D02*
X0018322Y0013098D01*
X0018269Y0013089D01*
X0018218Y0013074D01*
X0018169Y0013054D01*
X0018122Y0013028D01*
X0018078Y0012997D01*
X0018039Y0012961D01*
X0018003Y0012922D01*
X0017972Y0012878D01*
X0017946Y0012831D01*
X0017926Y0012782D01*
X0017911Y0012731D01*
X0017902Y0012678D01*
X0017899Y0012625D01*
Y0011675D01*
X0017902Y0011622D01*
X0017911Y0011569D01*
X0017926Y0011518D01*
X0017946Y0011469D01*
X0017972Y0011422D01*
X0018003Y0011378D01*
X0018039Y0011339D01*
X0021914Y0007464D01*
X0021953Y0007428D01*
X0021997Y0007397D01*
X0022044Y0007371D01*
X0022093Y0007351D01*
X0022144Y0007336D01*
X0022197Y0007327D01*
X0022250Y0007324D01*
X0022303Y0007327D01*
X0022356Y0007336D01*
X0022407Y0007351D01*
X0022456Y0007371D01*
X0022503Y0007397D01*
X0022547Y0007428D01*
X0022586Y0007464D01*
X0022622Y0007503D01*
X0022653Y0007547D01*
X0022679Y0007594D01*
X0022699Y0007643D01*
X0022714Y0007694D01*
X0022723Y0007747D01*
X0022726Y0007800D01*
X0022723Y0007853D01*
X0022714Y0007906D01*
X0022699Y0007957D01*
X0022679Y0008006D01*
X0022653Y0008053D01*
X0022622Y0008097D01*
X0022586Y0008136D01*
X0018851Y0011872D01*
Y0012625D01*
X0018848Y0012678D01*
X0018839Y0012731D01*
X0018824Y0012782D01*
X0018804Y0012831D01*
X0018778Y0012878D01*
X0018747Y0012922D01*
X0018711Y0012961D01*
X0018672Y0012997D01*
X0018628Y0013028D01*
X0018581Y0013054D01*
X0018532Y0013074D01*
X0018481Y0013089D01*
X0018428Y0013098D01*
X0018375Y0013101D01*
D02*
G37*
G36*
X0055400Y0004751D02*
Y0004175D01*
X0055976D01*
X0055975Y0004179D01*
X0055940Y0004254D01*
X0055899Y0004326D01*
X0055853Y0004395D01*
X0055802Y0004460D01*
X0055746Y0004521D01*
X0055685Y0004577D01*
X0055620Y0004628D01*
X0055551Y0004674D01*
X0055479Y0004715D01*
X0055404Y0004750D01*
X0055400Y0004751D01*
D02*
G37*
G36*
X0054600Y0004751D02*
X0054596Y0004750D01*
X0054521Y0004715D01*
X0054449Y0004674D01*
X0054380Y0004628D01*
X0054315Y0004577D01*
X0054254Y0004521D01*
X0054198Y0004460D01*
X0054147Y0004395D01*
X0054101Y0004326D01*
X0054060Y0004254D01*
X0054025Y0004179D01*
X0054024Y0004175D01*
X0054600D01*
Y0004751D01*
D02*
G37*
G36*
X0004400Y0017550D02*
X0002600D01*
Y0015750D01*
X0004045D01*
X0015523Y0004273D01*
X0015553Y0004247D01*
X0015586Y0004227D01*
X0015623Y0004212D01*
X0015661Y0004202D01*
X0015700Y0004199D01*
X0033013D01*
X0033042Y0004167D01*
X0033081Y0004132D01*
X0033125Y0004103D01*
X0033172Y0004080D01*
X0033221Y0004063D01*
X0033273Y0004053D01*
X0033325Y0004049D01*
X0033377Y0004053D01*
X0033429Y0004063D01*
X0033478Y0004080D01*
X0033525Y0004103D01*
X0033569Y0004132D01*
X0033608Y0004167D01*
X0033643Y0004206D01*
X0033672Y0004250D01*
X0033695Y0004297D01*
X0033712Y0004346D01*
X0033722Y0004398D01*
X0033726Y0004450D01*
X0033722Y0004502D01*
X0033712Y0004554D01*
X0033695Y0004603D01*
X0033672Y0004650D01*
X0033643Y0004694D01*
X0033608Y0004733D01*
X0033569Y0004768D01*
X0033525Y0004797D01*
X0033478Y0004820D01*
X0033429Y0004837D01*
X0033377Y0004847D01*
X0033325Y0004851D01*
X0033273Y0004847D01*
X0033221Y0004837D01*
X0033172Y0004820D01*
X0033125Y0004797D01*
X0033081Y0004768D01*
X0033042Y0004733D01*
X0033013Y0004701D01*
X0015804D01*
X0004400Y0016105D01*
Y0017550D01*
D02*
G37*
G36*
X0027140Y0003461D02*
Y0002940D01*
X0027661D01*
X0027651Y0002965D01*
X0027610Y0003042D01*
X0027563Y0003116D01*
X0027510Y0003186D01*
X0027451Y0003251D01*
X0027386Y0003310D01*
X0027316Y0003363D01*
X0027242Y0003410D01*
X0027165Y0003451D01*
X0027140Y0003461D01*
D02*
G37*
G36*
X0026340D02*
X0026315Y0003451D01*
X0026238Y0003410D01*
X0026164Y0003363D01*
X0026094Y0003310D01*
X0026029Y0003251D01*
X0025970Y0003186D01*
X0025917Y0003116D01*
X0025870Y0003042D01*
X0025829Y0002965D01*
X0025819Y0002940D01*
X0026340D01*
Y0003461D01*
D02*
G37*
G36*
X0024600D02*
Y0002940D01*
X0025121D01*
X0025111Y0002965D01*
X0025070Y0003042D01*
X0025023Y0003116D01*
X0024970Y0003186D01*
X0024911Y0003251D01*
X0024846Y0003310D01*
X0024776Y0003363D01*
X0024702Y0003410D01*
X0024625Y0003451D01*
X0024600Y0003461D01*
D02*
G37*
G36*
X0023800D02*
X0023775Y0003451D01*
X0023698Y0003410D01*
X0023624Y0003363D01*
X0023554Y0003310D01*
X0023489Y0003251D01*
X0023430Y0003186D01*
X0023377Y0003116D01*
X0023330Y0003042D01*
X0023289Y0002965D01*
X0023279Y0002940D01*
X0023800D01*
Y0003461D01*
D02*
G37*
G36*
X0054600Y0003375D02*
X0054024D01*
X0054025Y0003371D01*
X0054060Y0003296D01*
X0054101Y0003224D01*
X0054147Y0003155D01*
X0054198Y0003090D01*
X0054254Y0003029D01*
X0054315Y0002973D01*
X0054380Y0002922D01*
X0054449Y0002876D01*
X0054521Y0002835D01*
X0054596Y0002800D01*
X0054600Y0002799D01*
Y0003375D01*
D02*
G37*
G36*
X0055976D02*
X0055400D01*
Y0002799D01*
X0055404Y0002800D01*
X0055479Y0002835D01*
X0055551Y0002876D01*
X0055620Y0002922D01*
X0055685Y0002973D01*
X0055746Y0003029D01*
X0055802Y0003090D01*
X0055853Y0003155D01*
X0055899Y0003224D01*
X0055940Y0003296D01*
X0055975Y0003371D01*
X0055976Y0003375D01*
D02*
G37*
G36*
X0012400Y0003440D02*
X0010600D01*
Y0001640D01*
X0012400D01*
Y0003440D01*
D02*
G37*
G36*
X0035500Y0004851D02*
X0035448Y0004847D01*
X0035396Y0004837D01*
X0035347Y0004820D01*
X0035300Y0004797D01*
X0035256Y0004768D01*
X0035217Y0004733D01*
X0035182Y0004694D01*
X0035153Y0004650D01*
X0035130Y0004603D01*
X0035113Y0004554D01*
X0035103Y0004502D01*
X0035099Y0004450D01*
X0035103Y0004398D01*
X0035113Y0004346D01*
X0035130Y0004297D01*
X0035153Y0004250D01*
X0035182Y0004206D01*
X0035217Y0004167D01*
X0035256Y0004132D01*
X0035300Y0004103D01*
X0035347Y0004080D01*
X0035396Y0004063D01*
X0035448Y0004053D01*
X0035500Y0004049D01*
X0035552Y0004053D01*
X0035604Y0004063D01*
X0035653Y0004080D01*
X0035700Y0004103D01*
X0035744Y0004132D01*
X0035783Y0004167D01*
X0035812Y0004199D01*
X0042646D01*
X0043871Y0002974D01*
X0043844Y0002921D01*
X0043813Y0002848D01*
X0043790Y0002773D01*
X0043773Y0002696D01*
X0043763Y0002619D01*
X0043759Y0002540D01*
X0043763Y0002461D01*
X0043773Y0002384D01*
X0043790Y0002307D01*
X0043813Y0002232D01*
X0043844Y0002159D01*
X0043880Y0002090D01*
X0043922Y0002023D01*
X0043970Y0001961D01*
X0044023Y0001903D01*
X0044081Y0001850D01*
X0044143Y0001802D01*
X0044210Y0001760D01*
X0044279Y0001724D01*
X0044352Y0001693D01*
X0044427Y0001670D01*
X0044504Y0001653D01*
X0044581Y0001643D01*
X0044660Y0001639D01*
X0044739Y0001643D01*
X0044816Y0001653D01*
X0044893Y0001670D01*
X0044968Y0001693D01*
X0045041Y0001724D01*
X0045110Y0001760D01*
X0045177Y0001802D01*
X0045239Y0001850D01*
X0045297Y0001903D01*
X0045350Y0001961D01*
X0045398Y0002023D01*
X0045440Y0002090D01*
X0045476Y0002159D01*
X0045507Y0002232D01*
X0045530Y0002307D01*
X0045547Y0002384D01*
X0045557Y0002461D01*
X0045561Y0002540D01*
X0045557Y0002619D01*
X0045547Y0002696D01*
X0045530Y0002773D01*
X0045507Y0002848D01*
X0045476Y0002921D01*
X0045440Y0002990D01*
X0045398Y0003057D01*
X0045350Y0003119D01*
X0045297Y0003177D01*
X0045239Y0003230D01*
X0045177Y0003278D01*
X0045110Y0003320D01*
X0045041Y0003356D01*
X0044968Y0003387D01*
X0044893Y0003410D01*
X0044816Y0003427D01*
X0044739Y0003437D01*
X0044660Y0003441D01*
X0044581Y0003437D01*
X0044504Y0003427D01*
X0044427Y0003410D01*
X0044352Y0003387D01*
X0044279Y0003356D01*
X0044226Y0003329D01*
X0042927Y0004627D01*
X0042897Y0004653D01*
X0042864Y0004673D01*
X0042827Y0004688D01*
X0042789Y0004698D01*
X0042750Y0004701D01*
X0035812D01*
X0035783Y0004733D01*
X0035744Y0004768D01*
X0035700Y0004797D01*
X0035653Y0004820D01*
X0035604Y0004837D01*
X0035552Y0004847D01*
X0035500Y0004851D01*
D02*
G37*
G36*
X0042120Y0003441D02*
X0042041Y0003437D01*
X0041964Y0003427D01*
X0041887Y0003410D01*
X0041812Y0003387D01*
X0041739Y0003356D01*
X0041670Y0003320D01*
X0041603Y0003278D01*
X0041541Y0003230D01*
X0041483Y0003177D01*
X0041430Y0003119D01*
X0041382Y0003057D01*
X0041340Y0002990D01*
X0041304Y0002921D01*
X0041273Y0002848D01*
X0041250Y0002773D01*
X0041233Y0002696D01*
X0041223Y0002619D01*
X0041219Y0002540D01*
X0041223Y0002461D01*
X0041233Y0002384D01*
X0041250Y0002307D01*
X0041273Y0002232D01*
X0041304Y0002159D01*
X0041340Y0002090D01*
X0041382Y0002023D01*
X0041430Y0001961D01*
X0041483Y0001903D01*
X0041541Y0001850D01*
X0041603Y0001802D01*
X0041670Y0001760D01*
X0041739Y0001724D01*
X0041812Y0001693D01*
X0041887Y0001670D01*
X0041964Y0001653D01*
X0042041Y0001643D01*
X0042120Y0001639D01*
X0042199Y0001643D01*
X0042276Y0001653D01*
X0042353Y0001670D01*
X0042428Y0001693D01*
X0042501Y0001724D01*
X0042570Y0001760D01*
X0042637Y0001802D01*
X0042699Y0001850D01*
X0042757Y0001903D01*
X0042810Y0001961D01*
X0042858Y0002023D01*
X0042900Y0002090D01*
X0042936Y0002159D01*
X0042967Y0002232D01*
X0042990Y0002307D01*
X0043007Y0002384D01*
X0043017Y0002461D01*
X0043021Y0002540D01*
X0043017Y0002619D01*
X0043007Y0002696D01*
X0042990Y0002773D01*
X0042967Y0002848D01*
X0042936Y0002921D01*
X0042900Y0002990D01*
X0042858Y0003057D01*
X0042810Y0003119D01*
X0042757Y0003177D01*
X0042699Y0003230D01*
X0042637Y0003278D01*
X0042570Y0003320D01*
X0042501Y0003356D01*
X0042428Y0003387D01*
X0042353Y0003410D01*
X0042276Y0003427D01*
X0042199Y0003437D01*
X0042120Y0003441D01*
D02*
G37*
G36*
X0039580D02*
X0039501Y0003437D01*
X0039424Y0003427D01*
X0039347Y0003410D01*
X0039272Y0003387D01*
X0039199Y0003356D01*
X0039130Y0003320D01*
X0039063Y0003278D01*
X0039001Y0003230D01*
X0038943Y0003177D01*
X0038890Y0003119D01*
X0038842Y0003057D01*
X0038800Y0002990D01*
X0038764Y0002921D01*
X0038733Y0002848D01*
X0038710Y0002773D01*
X0038693Y0002696D01*
X0038683Y0002619D01*
X0038679Y0002540D01*
X0038683Y0002461D01*
X0038693Y0002384D01*
X0038710Y0002307D01*
X0038733Y0002232D01*
X0038764Y0002159D01*
X0038800Y0002090D01*
X0038842Y0002023D01*
X0038890Y0001961D01*
X0038943Y0001903D01*
X0039001Y0001850D01*
X0039063Y0001802D01*
X0039130Y0001760D01*
X0039199Y0001724D01*
X0039272Y0001693D01*
X0039347Y0001670D01*
X0039424Y0001653D01*
X0039501Y0001643D01*
X0039580Y0001639D01*
X0039659Y0001643D01*
X0039736Y0001653D01*
X0039813Y0001670D01*
X0039888Y0001693D01*
X0039961Y0001724D01*
X0040030Y0001760D01*
X0040097Y0001802D01*
X0040159Y0001850D01*
X0040217Y0001903D01*
X0040270Y0001961D01*
X0040318Y0002023D01*
X0040360Y0002090D01*
X0040396Y0002159D01*
X0040427Y0002232D01*
X0040450Y0002307D01*
X0040467Y0002384D01*
X0040477Y0002461D01*
X0040481Y0002540D01*
X0040477Y0002619D01*
X0040467Y0002696D01*
X0040450Y0002773D01*
X0040427Y0002848D01*
X0040396Y0002921D01*
X0040360Y0002990D01*
X0040318Y0003057D01*
X0040270Y0003119D01*
X0040217Y0003177D01*
X0040159Y0003230D01*
X0040097Y0003278D01*
X0040030Y0003320D01*
X0039961Y0003356D01*
X0039888Y0003387D01*
X0039813Y0003410D01*
X0039736Y0003427D01*
X0039659Y0003437D01*
X0039580Y0003441D01*
D02*
G37*
G36*
X0037040D02*
X0036961Y0003437D01*
X0036884Y0003427D01*
X0036807Y0003410D01*
X0036732Y0003387D01*
X0036659Y0003356D01*
X0036590Y0003320D01*
X0036523Y0003278D01*
X0036461Y0003230D01*
X0036403Y0003177D01*
X0036350Y0003119D01*
X0036302Y0003057D01*
X0036260Y0002990D01*
X0036224Y0002921D01*
X0036193Y0002848D01*
X0036170Y0002773D01*
X0036153Y0002696D01*
X0036143Y0002619D01*
X0036139Y0002540D01*
X0036143Y0002461D01*
X0036153Y0002384D01*
X0036170Y0002307D01*
X0036193Y0002232D01*
X0036224Y0002159D01*
X0036260Y0002090D01*
X0036302Y0002023D01*
X0036350Y0001961D01*
X0036403Y0001903D01*
X0036461Y0001850D01*
X0036523Y0001802D01*
X0036590Y0001760D01*
X0036659Y0001724D01*
X0036732Y0001693D01*
X0036807Y0001670D01*
X0036884Y0001653D01*
X0036961Y0001643D01*
X0037040Y0001639D01*
X0037119Y0001643D01*
X0037196Y0001653D01*
X0037273Y0001670D01*
X0037348Y0001693D01*
X0037421Y0001724D01*
X0037490Y0001760D01*
X0037557Y0001802D01*
X0037619Y0001850D01*
X0037677Y0001903D01*
X0037730Y0001961D01*
X0037778Y0002023D01*
X0037820Y0002090D01*
X0037856Y0002159D01*
X0037887Y0002232D01*
X0037910Y0002307D01*
X0037927Y0002384D01*
X0037937Y0002461D01*
X0037941Y0002540D01*
X0037937Y0002619D01*
X0037927Y0002696D01*
X0037910Y0002773D01*
X0037887Y0002848D01*
X0037856Y0002921D01*
X0037820Y0002990D01*
X0037778Y0003057D01*
X0037730Y0003119D01*
X0037677Y0003177D01*
X0037619Y0003230D01*
X0037557Y0003278D01*
X0037490Y0003320D01*
X0037421Y0003356D01*
X0037348Y0003387D01*
X0037273Y0003410D01*
X0037196Y0003427D01*
X0037119Y0003437D01*
X0037040Y0003441D01*
D02*
G37*
G36*
X0029280D02*
X0029201Y0003437D01*
X0029124Y0003427D01*
X0029047Y0003410D01*
X0028972Y0003387D01*
X0028899Y0003356D01*
X0028830Y0003320D01*
X0028763Y0003278D01*
X0028701Y0003230D01*
X0028643Y0003177D01*
X0028590Y0003119D01*
X0028542Y0003057D01*
X0028500Y0002990D01*
X0028464Y0002921D01*
X0028433Y0002848D01*
X0028410Y0002773D01*
X0028393Y0002696D01*
X0028383Y0002619D01*
X0028379Y0002540D01*
X0028383Y0002461D01*
X0028393Y0002384D01*
X0028410Y0002307D01*
X0028433Y0002232D01*
X0028464Y0002159D01*
X0028500Y0002090D01*
X0028542Y0002023D01*
X0028590Y0001961D01*
X0028643Y0001903D01*
X0028701Y0001850D01*
X0028763Y0001802D01*
X0028830Y0001760D01*
X0028899Y0001724D01*
X0028972Y0001693D01*
X0029047Y0001670D01*
X0029124Y0001653D01*
X0029201Y0001643D01*
X0029280Y0001639D01*
X0029359Y0001643D01*
X0029436Y0001653D01*
X0029513Y0001670D01*
X0029588Y0001693D01*
X0029661Y0001724D01*
X0029730Y0001760D01*
X0029797Y0001802D01*
X0029859Y0001850D01*
X0029917Y0001903D01*
X0029970Y0001961D01*
X0030018Y0002023D01*
X0030060Y0002090D01*
X0030096Y0002159D01*
X0030127Y0002232D01*
X0030150Y0002307D01*
X0030167Y0002384D01*
X0030177Y0002461D01*
X0030181Y0002540D01*
X0030177Y0002619D01*
X0030167Y0002696D01*
X0030150Y0002773D01*
X0030127Y0002848D01*
X0030096Y0002921D01*
X0030060Y0002990D01*
X0030018Y0003057D01*
X0029970Y0003119D01*
X0029917Y0003177D01*
X0029859Y0003230D01*
X0029797Y0003278D01*
X0029730Y0003320D01*
X0029661Y0003356D01*
X0029588Y0003387D01*
X0029513Y0003410D01*
X0029436Y0003427D01*
X0029359Y0003437D01*
X0029280Y0003441D01*
D02*
G37*
G36*
X0021660D02*
X0021581Y0003437D01*
X0021504Y0003427D01*
X0021427Y0003410D01*
X0021352Y0003387D01*
X0021279Y0003356D01*
X0021210Y0003320D01*
X0021143Y0003278D01*
X0021081Y0003230D01*
X0021023Y0003177D01*
X0020970Y0003119D01*
X0020922Y0003057D01*
X0020880Y0002990D01*
X0020844Y0002921D01*
X0020813Y0002848D01*
X0020790Y0002773D01*
X0020773Y0002696D01*
X0020763Y0002619D01*
X0020759Y0002540D01*
X0020763Y0002461D01*
X0020773Y0002384D01*
X0020790Y0002307D01*
X0020813Y0002232D01*
X0020844Y0002159D01*
X0020880Y0002090D01*
X0020922Y0002023D01*
X0020970Y0001961D01*
X0021023Y0001903D01*
X0021081Y0001850D01*
X0021143Y0001802D01*
X0021210Y0001760D01*
X0021279Y0001724D01*
X0021352Y0001693D01*
X0021427Y0001670D01*
X0021504Y0001653D01*
X0021581Y0001643D01*
X0021660Y0001639D01*
X0021739Y0001643D01*
X0021816Y0001653D01*
X0021893Y0001670D01*
X0021968Y0001693D01*
X0022041Y0001724D01*
X0022110Y0001760D01*
X0022177Y0001802D01*
X0022239Y0001850D01*
X0022297Y0001903D01*
X0022350Y0001961D01*
X0022398Y0002023D01*
X0022440Y0002090D01*
X0022476Y0002159D01*
X0022507Y0002232D01*
X0022530Y0002307D01*
X0022547Y0002384D01*
X0022557Y0002461D01*
X0022561Y0002540D01*
X0022557Y0002619D01*
X0022547Y0002696D01*
X0022530Y0002773D01*
X0022507Y0002848D01*
X0022476Y0002921D01*
X0022440Y0002990D01*
X0022398Y0003057D01*
X0022350Y0003119D01*
X0022297Y0003177D01*
X0022239Y0003230D01*
X0022177Y0003278D01*
X0022110Y0003320D01*
X0022041Y0003356D01*
X0021968Y0003387D01*
X0021893Y0003410D01*
X0021816Y0003427D01*
X0021739Y0003437D01*
X0021660Y0003441D01*
D02*
G37*
G36*
X0019120D02*
X0019041Y0003437D01*
X0018964Y0003427D01*
X0018887Y0003410D01*
X0018812Y0003387D01*
X0018739Y0003356D01*
X0018670Y0003320D01*
X0018603Y0003278D01*
X0018541Y0003230D01*
X0018483Y0003177D01*
X0018430Y0003119D01*
X0018382Y0003057D01*
X0018340Y0002990D01*
X0018304Y0002921D01*
X0018273Y0002848D01*
X0018250Y0002773D01*
X0018233Y0002696D01*
X0018223Y0002619D01*
X0018219Y0002540D01*
X0018223Y0002461D01*
X0018233Y0002384D01*
X0018250Y0002307D01*
X0018273Y0002232D01*
X0018304Y0002159D01*
X0018340Y0002090D01*
X0018382Y0002023D01*
X0018430Y0001961D01*
X0018483Y0001903D01*
X0018541Y0001850D01*
X0018603Y0001802D01*
X0018670Y0001760D01*
X0018739Y0001724D01*
X0018812Y0001693D01*
X0018887Y0001670D01*
X0018964Y0001653D01*
X0019041Y0001643D01*
X0019120Y0001639D01*
X0019199Y0001643D01*
X0019276Y0001653D01*
X0019353Y0001670D01*
X0019428Y0001693D01*
X0019501Y0001724D01*
X0019570Y0001760D01*
X0019637Y0001802D01*
X0019699Y0001850D01*
X0019757Y0001903D01*
X0019810Y0001961D01*
X0019858Y0002023D01*
X0019900Y0002090D01*
X0019936Y0002159D01*
X0019967Y0002232D01*
X0019990Y0002307D01*
X0020007Y0002384D01*
X0020017Y0002461D01*
X0020021Y0002540D01*
X0020017Y0002619D01*
X0020007Y0002696D01*
X0019990Y0002773D01*
X0019967Y0002848D01*
X0019936Y0002921D01*
X0019900Y0002990D01*
X0019858Y0003057D01*
X0019810Y0003119D01*
X0019757Y0003177D01*
X0019699Y0003230D01*
X0019637Y0003278D01*
X0019570Y0003320D01*
X0019501Y0003356D01*
X0019428Y0003387D01*
X0019353Y0003410D01*
X0019276Y0003427D01*
X0019199Y0003437D01*
X0019120Y0003441D01*
D02*
G37*
G36*
X0016580D02*
X0016501Y0003437D01*
X0016424Y0003427D01*
X0016347Y0003410D01*
X0016272Y0003387D01*
X0016199Y0003356D01*
X0016130Y0003320D01*
X0016063Y0003278D01*
X0016001Y0003230D01*
X0015943Y0003177D01*
X0015890Y0003119D01*
X0015842Y0003057D01*
X0015800Y0002990D01*
X0015764Y0002921D01*
X0015733Y0002848D01*
X0015710Y0002773D01*
X0015693Y0002696D01*
X0015683Y0002619D01*
X0015679Y0002540D01*
X0015683Y0002461D01*
X0015693Y0002384D01*
X0015710Y0002307D01*
X0015733Y0002232D01*
X0015764Y0002159D01*
X0015800Y0002090D01*
X0015842Y0002023D01*
X0015890Y0001961D01*
X0015943Y0001903D01*
X0016001Y0001850D01*
X0016063Y0001802D01*
X0016130Y0001760D01*
X0016199Y0001724D01*
X0016272Y0001693D01*
X0016347Y0001670D01*
X0016424Y0001653D01*
X0016501Y0001643D01*
X0016580Y0001639D01*
X0016659Y0001643D01*
X0016736Y0001653D01*
X0016813Y0001670D01*
X0016888Y0001693D01*
X0016961Y0001724D01*
X0017030Y0001760D01*
X0017097Y0001802D01*
X0017159Y0001850D01*
X0017217Y0001903D01*
X0017270Y0001961D01*
X0017318Y0002023D01*
X0017360Y0002090D01*
X0017396Y0002159D01*
X0017427Y0002232D01*
X0017450Y0002307D01*
X0017467Y0002384D01*
X0017477Y0002461D01*
X0017481Y0002540D01*
X0017477Y0002619D01*
X0017467Y0002696D01*
X0017450Y0002773D01*
X0017427Y0002848D01*
X0017396Y0002921D01*
X0017360Y0002990D01*
X0017318Y0003057D01*
X0017270Y0003119D01*
X0017217Y0003177D01*
X0017159Y0003230D01*
X0017097Y0003278D01*
X0017030Y0003320D01*
X0016961Y0003356D01*
X0016888Y0003387D01*
X0016813Y0003410D01*
X0016736Y0003427D01*
X0016659Y0003437D01*
X0016580Y0003441D01*
D02*
G37*
G36*
X0014040D02*
X0013961Y0003437D01*
X0013884Y0003427D01*
X0013807Y0003410D01*
X0013732Y0003387D01*
X0013659Y0003356D01*
X0013590Y0003320D01*
X0013523Y0003278D01*
X0013461Y0003230D01*
X0013403Y0003177D01*
X0013350Y0003119D01*
X0013302Y0003057D01*
X0013260Y0002990D01*
X0013224Y0002921D01*
X0013193Y0002848D01*
X0013170Y0002773D01*
X0013153Y0002696D01*
X0013143Y0002619D01*
X0013139Y0002540D01*
X0013143Y0002461D01*
X0013153Y0002384D01*
X0013170Y0002307D01*
X0013193Y0002232D01*
X0013224Y0002159D01*
X0013260Y0002090D01*
X0013302Y0002023D01*
X0013350Y0001961D01*
X0013403Y0001903D01*
X0013461Y0001850D01*
X0013523Y0001802D01*
X0013590Y0001760D01*
X0013659Y0001724D01*
X0013732Y0001693D01*
X0013807Y0001670D01*
X0013884Y0001653D01*
X0013961Y0001643D01*
X0014040Y0001639D01*
X0014119Y0001643D01*
X0014196Y0001653D01*
X0014273Y0001670D01*
X0014348Y0001693D01*
X0014421Y0001724D01*
X0014490Y0001760D01*
X0014557Y0001802D01*
X0014619Y0001850D01*
X0014677Y0001903D01*
X0014730Y0001961D01*
X0014778Y0002023D01*
X0014820Y0002090D01*
X0014856Y0002159D01*
X0014887Y0002232D01*
X0014910Y0002307D01*
X0014927Y0002384D01*
X0014937Y0002461D01*
X0014941Y0002540D01*
X0014937Y0002619D01*
X0014927Y0002696D01*
X0014910Y0002773D01*
X0014887Y0002848D01*
X0014856Y0002921D01*
X0014820Y0002990D01*
X0014778Y0003057D01*
X0014730Y0003119D01*
X0014677Y0003177D01*
X0014619Y0003230D01*
X0014557Y0003278D01*
X0014490Y0003320D01*
X0014421Y0003356D01*
X0014348Y0003387D01*
X0014273Y0003410D01*
X0014196Y0003427D01*
X0014119Y0003437D01*
X0014040Y0003441D01*
D02*
G37*
G36*
X0027661Y0002140D02*
X0027140D01*
Y0001619D01*
X0027165Y0001629D01*
X0027242Y0001670D01*
X0027316Y0001717D01*
X0027386Y0001770D01*
X0027451Y0001829D01*
X0027510Y0001894D01*
X0027563Y0001964D01*
X0027610Y0002038D01*
X0027651Y0002115D01*
X0027661Y0002140D01*
D02*
G37*
G36*
X0026340D02*
X0025819D01*
X0025829Y0002115D01*
X0025870Y0002038D01*
X0025917Y0001964D01*
X0025970Y0001894D01*
X0026029Y0001829D01*
X0026094Y0001770D01*
X0026164Y0001717D01*
X0026238Y0001670D01*
X0026315Y0001629D01*
X0026340Y0001619D01*
Y0002140D01*
D02*
G37*
G36*
X0025121D02*
X0024600D01*
Y0001619D01*
X0024625Y0001629D01*
X0024702Y0001670D01*
X0024776Y0001717D01*
X0024846Y0001770D01*
X0024911Y0001829D01*
X0024970Y0001894D01*
X0025023Y0001964D01*
X0025070Y0002038D01*
X0025111Y0002115D01*
X0025121Y0002140D01*
D02*
G37*
G36*
X0023800D02*
X0023279D01*
X0023289Y0002115D01*
X0023330Y0002038D01*
X0023377Y0001964D01*
X0023430Y0001894D01*
X0023489Y0001829D01*
X0023554Y0001770D01*
X0023624Y0001717D01*
X0023698Y0001670D01*
X0023775Y0001629D01*
X0023800Y0001619D01*
Y0002140D01*
D02*
G37*
%LPD*%
D12*
X0046403Y0021425D02*
X0048084D01*
X0045575Y0020597D02*
X0046403Y0021425D01*
X0045575Y0018315D02*
Y0020597D01*
X0046548Y0021075D02*
X0048275D01*
X0045925Y0020452D02*
X0046548Y0021075D01*
X0045925Y0018170D02*
Y0020452D01*
X0044175Y0021193D02*
X0045807Y0022825D01*
X0044175Y0018895D02*
Y0021193D01*
X0045807Y0022825D02*
X0046032D01*
X0044525Y0021048D02*
X0045952Y0022475D01*
X0046425D01*
X0044525Y0018750D02*
Y0021048D01*
X0044875Y0020903D02*
X0046097Y0022125D01*
X0044875Y0018605D02*
Y0020903D01*
X0045225Y0020758D02*
X0046242Y0021775D01*
X0045225Y0018460D02*
Y0020758D01*
X0046693Y0020725D02*
X0048650D01*
X0046275Y0020307D02*
X0046693Y0020725D01*
X0046275Y0018025D02*
Y0020307D01*
X0046242Y0021775D02*
X0047750D01*
X0046097Y0022125D02*
X0047050D01*
X0045100Y0022825D02*
X0045100D01*
X0043825Y0021550D02*
X0045100Y0022825D01*
X0043825Y0019050D02*
Y0021550D01*
X0046032Y0022825D02*
X0046857Y0023650D01*
X0048650Y0020725D02*
X0050300Y0022375D01*
X0048275Y0021075D02*
X0049875Y0022675D01*
X0048084Y0021425D02*
X0049450Y0022791D01*
X0047750Y0021775D02*
X0048950Y0022975D01*
X0047050Y0022125D02*
X0047400Y0022475D01*
X0046425D02*
X0046925Y0022975D01*
X0043325Y0017550D02*
X0044525Y0018750D01*
X0043470Y0017200D02*
X0044875Y0018605D01*
X0043615Y0016850D02*
X0045225Y0018460D01*
X0049450Y0022791D02*
Y0023175D01*
X0046857Y0023650D02*
X0047425D01*
X0019000Y0052200D02*
X0019275Y0051925D01*
X0001925Y0052200D02*
X0019000D01*
X0001350Y0051625D02*
X0001925Y0052200D01*
X0002050Y0013175D02*
X0003525Y0014650D01*
X0002050Y0009075D02*
Y0013175D01*
Y0009075D02*
X0010050Y0001075D01*
X0027875Y0050800D02*
X0029420D01*
X0020650Y0043575D02*
X0027875Y0050800D01*
X0020650Y0042800D02*
Y0043575D01*
X0020650Y0020160D02*
Y0042800D01*
X0021350Y0043275D02*
X0026650Y0048575D01*
X0021350Y0020450D02*
Y0043275D01*
X0026650Y0048575D02*
X0037355D01*
X0021000Y0043420D02*
X0026530Y0048950D01*
X0021000Y0020305D02*
Y0043420D01*
X0026530Y0048950D02*
X0032650D01*
X0029420Y0050800D02*
X0029425D01*
X0032650Y0048950D02*
X0034500Y0050800D01*
X0037355Y0048575D02*
X0039580Y0050800D01*
X0015700Y0004450D02*
X0033325D01*
X0042750D02*
X0044650Y0002550D01*
X0035500Y0004450D02*
X0042750D01*
X0003500Y0016650D02*
X0015700Y0004450D01*
X0051350Y0040925D02*
X0053975Y0038300D01*
X0026025Y0040925D02*
X0051350D01*
X0021700Y0036600D02*
X0026025Y0040925D01*
X0021700Y0020625D02*
Y0036600D01*
X0053975Y0029350D02*
Y0038300D01*
X0044050Y0015800D02*
X0046275Y0018025D01*
X0039575Y0015800D02*
X0044050D01*
X0023050Y0015775D02*
X0037625D01*
X0038100Y0015300D01*
X0038050D02*
X0038100D01*
X0046700D02*
X0053975Y0022575D01*
X0039975Y0015300D02*
X0046700D01*
X0049875Y0022675D02*
Y0024400D01*
X0048975Y0023650D02*
X0049450Y0023175D01*
X0048425Y0023650D02*
X0048975D01*
X0048425Y0023578D02*
Y0023650D01*
Y0023575D02*
X0048428Y0023578D01*
X0050300Y0022375D02*
X0050300D01*
X0053975Y0022575D02*
Y0023900D01*
X0027000Y0016150D02*
X0043905D01*
X0023175Y0016150D02*
X0027000D01*
X0026250Y0016500D02*
X0043760D01*
X0023320Y0016500D02*
X0027175D01*
X0034500Y0010725D02*
X0039575Y0015800D01*
X0023825Y0016850D02*
X0043615D01*
X0023465Y0016850D02*
X0025725D01*
X0023610Y0017200D02*
X0043470D01*
X0023755Y0017550D02*
X0043325D01*
X0043422Y0017647D01*
X0043180Y0017900D02*
X0044175Y0018895D01*
X0023900Y0017900D02*
X0043175D01*
X0043244Y0017969D01*
X0043025Y0018250D02*
X0043825Y0019050D01*
X0043025Y0018250D02*
X0043035D01*
X0024075D02*
X0043025D01*
X0021700Y0020625D02*
X0024075Y0018250D01*
X0022950Y0050790D02*
Y0050800D01*
X0018700Y0048900D02*
X0021060D01*
X0022950Y0050790D01*
X0001750Y0047125D02*
X0003550Y0048925D01*
X0017875Y0050795D02*
X0017880Y0050800D01*
X0017875Y0046975D02*
Y0050795D01*
Y0046975D02*
X0020300Y0044550D01*
X0020300Y0045600D02*
X0025500Y0050800D01*
X0020300Y0045575D02*
Y0045600D01*
X0019225Y0019600D02*
Y0043775D01*
X0019025Y0043975D02*
X0019225Y0043775D01*
Y0019600D02*
X0023050Y0015775D01*
X0043760Y0016500D02*
X0045575Y0018315D01*
X0043905Y0016150D02*
X0045925Y0018170D01*
X0020300Y0020015D02*
Y0044550D01*
X0019950Y0019870D02*
Y0044400D01*
X0015340Y0049010D02*
X0019950Y0044400D01*
X0019600Y0019725D02*
Y0044250D01*
X0013075Y0050775D02*
X0019600Y0044250D01*
Y0019725D02*
X0023175Y0016150D01*
X0019950Y0019870D02*
X0023320Y0016500D01*
X0020300Y0020015D02*
X0023465Y0016850D01*
X0020650Y0020160D02*
X0023610Y0017200D01*
X0021000Y0020305D02*
X0023755Y0017550D01*
X0021350Y0020450D02*
X0023900Y0017900D01*
X0034500Y0002540D02*
Y0010725D01*
X0001750Y0031400D02*
Y0047125D01*
Y0031400D02*
X0003500Y0029650D01*
X0001350Y0029800D02*
Y0051625D01*
Y0029800D02*
X0003500Y0027650D01*
X0010050Y0001075D02*
X0045735Y0001075D01*
X0047200Y0002540D01*
X0004500Y0050100D02*
X0005175Y0050775D01*
X0004500Y0044725D02*
Y0050100D01*
X0003500Y0027650D02*
Y0027796D01*
X0012875Y0050775D02*
X0013075D01*
X0015340Y0049010D02*
Y0050800D01*
X0012800D02*
X0012850D01*
X0012875Y0050775D01*
X0049875Y0024400D02*
X0049875Y0024400D01*
D21*
X0065000Y0040600D02*
G03*
X0052300Y0053300I-0012700J0000000D01*
G01*
Y0000000D02*
G03*
X0065000Y0012700I0000000J0012700D01*
G01*
X0000000Y0000000D02*
X0052300D01*
X0000000D02*
Y0053300D01*
X0052300D01*
X0065000Y0012700D02*
Y0040600D01*
D56*
X0055000Y0003775D02*
D03*
D65*
X0018375Y0011675D02*
X0022250Y0007800D01*
X0018375Y0011675D02*
Y0012600D01*
Y0012625D01*
D68*
X0003500Y0010650D02*
D03*
Y0014650D02*
D03*
Y0023650D02*
D03*
Y0027650D02*
D03*
Y0036650D02*
D03*
X0044660Y0002540D02*
D03*
X0047200D02*
D03*
X0024200D02*
D03*
X0026740D02*
D03*
X0005180Y0050800D02*
D03*
X0010260D02*
D03*
X0012800D02*
D03*
X0015340D02*
D03*
X0017880D02*
D03*
X0022960D02*
D03*
X0039580D02*
D03*
X0034500D02*
D03*
X0029420D02*
D03*
D69*
X0003500Y0016650D02*
D03*
Y0029650D02*
D03*
D70*
X0034500Y0002540D02*
D03*
X0025500Y0050800D02*
D03*
D71*
X0062650Y0022270D02*
D03*
Y0031030D02*
D03*
D72*
X0051550Y0030550D02*
D03*
Y0031475D02*
D03*
X0050700Y0032325D02*
D03*
X0060150Y0025575D02*
D03*
X0056900Y0024425D02*
D03*
X0060225Y0023875D02*
D03*
X0059225Y0026050D02*
D03*
X0044075Y0022575D02*
D03*
X0051625Y0032325D02*
D03*
X0052575D02*
D03*
X0052450Y0031350D02*
D03*
X0053175Y0023700D02*
D03*
X0045850Y0023550D02*
D03*
X0045100Y0022825D02*
D03*
X0047400Y0022475D02*
D03*
X0046925Y0022975D02*
D03*
X0052600Y0021950D02*
D03*
X0053475Y0029975D02*
D03*
X0005300Y0011850D02*
D03*
X0003100Y0031000D02*
D03*
X0025050Y0036750D02*
D03*
X0024950Y0033700D02*
D03*
Y0030350D02*
D03*
X0025450Y0049550D02*
D03*
X0019650Y0048350D02*
D03*
X0020300Y0052050D02*
D03*
X0001950Y0049700D02*
D03*
X0004000Y0046750D02*
D03*
X0006000Y0038900D02*
D03*
X0004750Y0036650D02*
D03*
X0010200Y0001750D02*
D03*
X0017300Y0047800D02*
D03*
X0042850Y0018825D02*
D03*
X0041300Y0018800D02*
D03*
X0039100D02*
D03*
X0036900D02*
D03*
X0034500D02*
D03*
X0032350Y0018850D02*
D03*
X0040050Y0022400D02*
D03*
X0036925D02*
D03*
X0033975D02*
D03*
X0031100D02*
D03*
X0032950Y0019850D02*
D03*
X0028450Y0022400D02*
D03*
X0052000Y0036900D02*
D03*
X0048950D02*
D03*
X0045600D02*
D03*
X0042450D02*
D03*
X0039100D02*
D03*
X0035625Y0036925D02*
D03*
X0032000Y0036900D02*
D03*
X0028450Y0036950D02*
D03*
X0039950Y0034000D02*
D03*
X0036000D02*
D03*
X0032000D02*
D03*
X0028450D02*
D03*
X0036000Y0031100D02*
D03*
X0032000Y0031150D02*
D03*
X0028450Y0031050D02*
D03*
X0006275Y0042050D02*
D03*
X0005675Y0045675D02*
D03*
X0005000Y0044075D02*
D03*
X0004525Y0039525D02*
D03*
X0000550Y0002925D02*
D03*
X0014175Y0009800D02*
D03*
X0011775Y0011900D02*
D03*
X0009400Y0010000D02*
D03*
X0017425Y0004975D02*
D03*
X0033850Y0005175D02*
D03*
X0030650Y0005025D02*
D03*
X0028050Y0005050D02*
D03*
X0025400Y0005025D02*
D03*
X0020975D02*
D03*
X0016125Y0005000D02*
D03*
X0017425Y0006325D02*
D03*
Y0007700D02*
D03*
X0021175Y0010250D02*
D03*
X0021150Y0011650D02*
D03*
X0017400Y0010250D02*
D03*
Y0011650D02*
D03*
X0062075Y0017000D02*
D03*
X0055575Y0041150D02*
D03*
X0032400Y0049525D02*
D03*
X0038125Y0048450D02*
D03*
X0034875Y0048025D02*
D03*
X0031325Y0048050D02*
D03*
X0027925Y0048025D02*
D03*
X0023900Y0045075D02*
D03*
X0024400Y0038350D02*
D03*
X0047650Y0017100D02*
D03*
X0047125Y0014875D02*
D03*
X0049175Y0014600D02*
D03*
X0051575Y0016950D02*
D03*
X0053425Y0018575D02*
D03*
X0050425Y0013275D02*
D03*
X0046200Y0012975D02*
D03*
X0037450Y0014900D02*
D03*
X0035475Y0015250D02*
D03*
X0046950Y0001375D02*
D03*
X0035050Y0003750D02*
D03*
X0033925Y0003775D02*
D03*
X0033275Y0001700D02*
D03*
X0030525D02*
D03*
X0033325Y0004450D02*
D03*
X0035500D02*
D03*
X0061100Y0035050D02*
D03*
X0058050Y0035175D02*
D03*
X0025550Y0041250D02*
D03*
X0029550Y0041500D02*
D03*
X0033000D02*
D03*
X0036500D02*
D03*
X0040125D02*
D03*
X0043775D02*
D03*
X0047700D02*
D03*
X0051850Y0041275D02*
D03*
X0052400Y0039025D02*
D03*
X0045000Y0038225D02*
D03*
X0033100Y0038275D02*
D03*
X0058425Y0033625D02*
D03*
X0029650Y0027475D02*
D03*
X0032250D02*
D03*
X0034950D02*
D03*
X0037775D02*
D03*
X0045850Y0024425D02*
D03*
X0044325Y0024575D02*
D03*
X0043550Y0034450D02*
D03*
X0044950Y0034500D02*
D03*
X0040950Y0029850D02*
D03*
X0043450Y0032525D02*
D03*
X0053475Y0034425D02*
D03*
Y0033525D02*
D03*
Y0032200D02*
D03*
X0054500Y0030250D02*
D03*
X0055600Y0029775D02*
D03*
X0056025Y0028900D02*
D03*
X0046450Y0015825D02*
D03*
X0044850Y0015850D02*
D03*
X0038100Y0015300D02*
D03*
X0039975D02*
D03*
X0048375Y0019650D02*
D03*
X0048900Y0018275D02*
D03*
X0050225Y0019675D02*
D03*
X0053475Y0022825D02*
D03*
X0052125Y0023625D02*
D03*
X0051500Y0021625D02*
D03*
X0051650Y0022650D02*
D03*
X0053475Y0031075D02*
D03*
X0052650Y0030525D02*
D03*
X0051750Y0024450D02*
D03*
X0052600Y0024600D02*
D03*
X0053400Y0024675D02*
D03*
X0051150Y0024975D02*
D03*
X0055175Y0028025D02*
D03*
X0060875Y0030175D02*
D03*
Y0023175D02*
D03*
X0060225Y0024725D02*
D03*
X0056975Y0025375D02*
D03*
X0058600D02*
D03*
X0059400D02*
D03*
X0057450Y0026100D02*
D03*
X0058375Y0026050D02*
D03*
X0038125Y0006650D02*
D03*
X0040675D02*
D03*
X0048927Y0022975D02*
D03*
X0048425Y0023650D02*
D03*
X0047425D02*
D03*
X0050300Y0022375D02*
D03*
X0052500Y0050675D02*
D03*
X0018700Y0048900D02*
D03*
X0020300Y0045575D02*
D03*
X0019025Y0043975D02*
D03*
X0053975Y0023900D02*
D03*
X0045475Y0027525D02*
D03*
X0020850Y0007550D02*
D03*
Y0006450D02*
D03*
X0053975Y0029350D02*
D03*
X0001925Y0048075D02*
D03*
X0003650Y0048050D02*
D03*
X0058400Y0010250D02*
D03*
X0017450Y0008975D02*
D03*
X0052750Y0020600D02*
D03*
X0026950Y0025075D02*
D03*
X0021200Y0016875D02*
D03*
X0036475Y0019850D02*
D03*
X0049475Y0032675D02*
D03*
X0033125Y0008150D02*
D03*
X0035275D02*
D03*
X0035300Y0006650D02*
D03*
X0030575Y0008150D02*
D03*
X0028300D02*
D03*
X0025825D02*
D03*
X0023500D02*
D03*
X0036250Y0006650D02*
D03*
X0033050D02*
D03*
X0030650D02*
D03*
X0028275D02*
D03*
X0025850D02*
D03*
X0023500D02*
D03*
X0050650Y0049375D02*
D03*
X0049000Y0050775D02*
D03*
X0048925Y0031650D02*
D03*
X0049475Y0032000D02*
D03*
X0040175Y0003850D02*
D03*
X0036250Y0005125D02*
D03*
X0036425Y0003875D02*
D03*
X0055875Y0049700D02*
D03*
X0059700Y0006450D02*
D03*
X0056875Y0004100D02*
D03*
X0061550Y0004700D02*
D03*
X0002375Y0044100D02*
D03*
Y0041575D02*
D03*
Y0039500D02*
D03*
X0002500Y0037750D02*
D03*
X0002400Y0026500D02*
D03*
X0002650Y0009425D02*
D03*
Y0011725D02*
D03*
X0001500Y0020900D02*
D03*
Y0017450D02*
D03*
Y0014000D02*
D03*
Y0011700D02*
D03*
Y0009400D02*
D03*
X0012725Y0001700D02*
D03*
X0015150D02*
D03*
X0017675D02*
D03*
X0020600D02*
D03*
X0022900D02*
D03*
X0025450D02*
D03*
X0028150D02*
D03*
X0035800D02*
D03*
X0038225D02*
D03*
X0040650D02*
D03*
X0043475D02*
D03*
X0045900Y0002025D02*
D03*
X0046025Y0051500D02*
D03*
X0043300D02*
D03*
X0040950D02*
D03*
X0038225D02*
D03*
X0035875D02*
D03*
X0033150D02*
D03*
X0030800D02*
D03*
X0024150D02*
D03*
X0021800D02*
D03*
X0016725D02*
D03*
X0014000D02*
D03*
X0011650D02*
D03*
X0008925D02*
D03*
X0006575D02*
D03*
X0003825D02*
D03*
X0042675Y0003725D02*
D03*
X0042875Y0005750D02*
D03*
X0042475Y0007450D02*
D03*
X0040225Y0008150D02*
D03*
X0041375Y0006125D02*
D03*
X0038850D02*
D03*
X0058400Y0047800D02*
D03*
X0054700Y0047300D02*
D03*
X0047650Y0047050D02*
D03*
X0044000D02*
D03*
X0040350D02*
D03*
X0036725D02*
D03*
X0033075D02*
D03*
X0029450D02*
D03*
X0025850Y0047025D02*
D03*
X0056500Y0019800D02*
D03*
X0054800D02*
D03*
X0051850Y0019675D02*
D03*
X0046800Y0018250D02*
D03*
X0046775Y0020100D02*
D03*
X0043275Y0019850D02*
D03*
X0041250D02*
D03*
X0029225Y0019800D02*
D03*
X0027375D02*
D03*
X0027325Y0021800D02*
D03*
X0002400Y0035375D02*
D03*
Y0020975D02*
D03*
X0004425Y0018950D02*
D03*
X0006275Y0017000D02*
D03*
Y0014850D02*
D03*
X0007750Y0013400D02*
D03*
X0003500Y0022450D02*
D03*
X0006350Y0019150D02*
D03*
X0007800Y0017300D02*
D03*
X0021300Y0007000D02*
D03*
X0022325Y0010950D02*
D03*
X0021175Y0015575D02*
D03*
X0031100Y0019800D02*
D03*
X0038100Y0025075D02*
D03*
X0003500Y0018175D02*
D03*
X0002400Y0032900D02*
D03*
X0004625Y0041150D02*
D03*
X0015975Y0010950D02*
D03*
X0016000Y0007000D02*
D03*
X0051300Y0047125D02*
D03*
X0027350Y0049500D02*
D03*
X0027500Y0051500D02*
D03*
X0047350Y0049600D02*
D03*
X0043950D02*
D03*
X0040550D02*
D03*
X0037125Y0049150D02*
D03*
X0033625D02*
D03*
X0030100Y0049500D02*
D03*
X0058475Y0044425D02*
D03*
X0055225Y0044225D02*
D03*
X0051300Y0044125D02*
D03*
X0047250D02*
D03*
X0043675D02*
D03*
X0040125D02*
D03*
X0036550D02*
D03*
X0033000D02*
D03*
X0029475D02*
D03*
X0025925D02*
D03*
X0056850Y0051925D02*
D03*
X0059625Y0050425D02*
D03*
X0062200Y0047825D02*
D03*
X0063800Y0044775D02*
D03*
X0057525Y0041650D02*
D03*
X0060975Y0045450D02*
D03*
X0060950Y0041675D02*
D03*
X0002600Y0046500D02*
D03*
X0002400Y0024800D02*
D03*
X0009525Y0013400D02*
D03*
X0012775D02*
D03*
X0016000D02*
D03*
X0014325Y0011900D02*
D03*
X0009175Y0011875D02*
D03*
X0027350Y0023975D02*
D03*
X0024225Y0025100D02*
D03*
X0032800Y0015250D02*
D03*
X0051025Y0023700D02*
D03*
X0030200Y0018850D02*
D03*
X0027950Y0018825D02*
D03*
X0024525Y0018800D02*
D03*
X0022250Y0020850D02*
D03*
Y0023025D02*
D03*
Y0026625D02*
D03*
X0022200Y0030000D02*
D03*
X0022225Y0033250D02*
D03*
X0022250Y0036350D02*
D03*
X0021875Y0037575D02*
D03*
Y0040300D02*
D03*
X0021900Y0043075D02*
D03*
X0023050Y0047025D02*
D03*
X0020850D02*
D03*
X0020900Y0044950D02*
D03*
X0018700Y0025325D02*
D03*
Y0027800D02*
D03*
Y0031500D02*
D03*
Y0033950D02*
D03*
Y0036400D02*
D03*
Y0038825D02*
D03*
Y0041200D02*
D03*
X0018150Y0044025D02*
D03*
X0016075Y0047025D02*
D03*
X0023300Y0049500D02*
D03*
X0020000Y0049600D02*
D03*
X0007525Y0011850D02*
D03*
X0007800Y0014850D02*
D03*
Y0019725D02*
D03*
Y0024600D02*
D03*
Y0029475D02*
D03*
Y0034375D02*
D03*
Y0039250D02*
D03*
Y0044125D02*
D03*
X0006475Y0049600D02*
D03*
X0010250D02*
D03*
X0013475D02*
D03*
X0016575D02*
D03*
X0018450Y0047150D02*
D03*
X0013550Y0047025D02*
D03*
X0010300D02*
D03*
X0007100Y0047050D02*
D03*
X0033925Y0013375D02*
D03*
X0031375Y0013350D02*
D03*
X0021200Y0013400D02*
D03*
X0023825Y0013375D02*
D03*
X0026350Y0013350D02*
D03*
X0028825D02*
D03*
X0029900Y0015250D02*
D03*
X0026950D02*
D03*
X0044500Y0014700D02*
D03*
X0041800D02*
D03*
X0039375Y0014625D02*
D03*
X0036275Y0013425D02*
D03*
X0035725Y0010875D02*
D03*
X0048875Y0002975D02*
D03*
X0047075Y0003800D02*
D03*
X0044600Y0003875D02*
D03*
X0041225Y0003850D02*
D03*
X0038325D02*
D03*
X0031925Y0003800D02*
D03*
X0029375D02*
D03*
X0026725D02*
D03*
X0024200D02*
D03*
X0017400Y0003825D02*
D03*
X0014150Y0003800D02*
D03*
X0011525D02*
D03*
X0013150Y0006200D02*
D03*
X0010250Y0006150D02*
D03*
X0004625Y0037850D02*
D03*
Y0035325D02*
D03*
X0004975Y0032850D02*
D03*
X0004750Y0030500D02*
D03*
X0004725Y0028325D02*
D03*
X0004750Y0026100D02*
D03*
Y0023650D02*
D03*
X0004825Y0020800D02*
D03*
X0004925Y0016200D02*
D03*
Y0013825D02*
D03*
X0004700Y0010650D02*
D03*
X0004750Y0008350D02*
D03*
X0006800Y0006200D02*
D03*
X0008400Y0004450D02*
D03*
X0010075Y0003025D02*
D03*
X0004300Y0002225D02*
D03*
X0002500Y0003675D02*
D03*
X0007175Y0002175D02*
D03*
X0005475Y0003825D02*
D03*
X0003825Y0005450D02*
D03*
X0002250Y0007100D02*
D03*
X0018700Y0023300D02*
D03*
Y0021350D02*
D03*
Y0019400D02*
D03*
Y0017450D02*
D03*
Y0015525D02*
D03*
Y0013600D02*
D03*
X0020975Y0003800D02*
D03*
X0037725Y0008150D02*
D03*
X0043000D02*
D03*
X0045200Y0006075D02*
D03*
X0047600D02*
D03*
Y0008475D02*
D03*
Y0010875D02*
D03*
X0042825D02*
D03*
X0038450Y0010925D02*
D03*
X0033275Y0010875D02*
D03*
X0028500Y0010850D02*
D03*
X0023700Y0010825D02*
D03*
X0024700Y0027450D02*
D03*
X0024525Y0023175D02*
D03*
X0024500Y0020775D02*
D03*
X0023800Y0015250D02*
D03*
X0016575Y0015500D02*
D03*
Y0020275D02*
D03*
X0016600Y0025050D02*
D03*
X0016700Y0029875D02*
D03*
Y0034600D02*
D03*
Y0039375D02*
D03*
X0015875Y0044125D02*
D03*
X0011900D02*
D03*
Y0039275D02*
D03*
Y0034450D02*
D03*
Y0029650D02*
D03*
Y0024850D02*
D03*
Y0020050D02*
D03*
Y0015225D02*
D03*
X0011225Y0010050D02*
D03*
X0011375Y0008000D02*
D03*
X0013625D02*
D03*
X0008600Y0008200D02*
D03*
X0006850Y0010000D02*
D03*
X0056775Y0001300D02*
D03*
X0059500Y0002825D02*
D03*
X0064275Y0010175D02*
D03*
X0063225Y0007125D02*
D03*
X0061525Y0009875D02*
D03*
X0061775Y0013550D02*
D03*
X0057950Y0013450D02*
D03*
X0054375D02*
D03*
X0041900Y0013025D02*
D03*
X0050800Y0009850D02*
D03*
Y0006275D02*
D03*
X0050700Y0002975D02*
D03*
X0053475Y0003100D02*
D03*
X0053450Y0000550D02*
D03*
X0050675D02*
D03*
X0047900D02*
D03*
X0045125D02*
D03*
X0042350D02*
D03*
X0039575D02*
D03*
X0036800D02*
D03*
X0034025D02*
D03*
X0031250D02*
D03*
X0028475D02*
D03*
X0025700D02*
D03*
X0022925D02*
D03*
X0020150D02*
D03*
X0017375D02*
D03*
X0014600D02*
D03*
X0011800D02*
D03*
X0009025D02*
D03*
X0006250D02*
D03*
X0003475D02*
D03*
X0000550D02*
D03*
X0000575Y0005375D02*
D03*
X0000550Y0007925D02*
D03*
Y0010700D02*
D03*
Y0013475D02*
D03*
Y0016250D02*
D03*
Y0019025D02*
D03*
Y0021800D02*
D03*
Y0024575D02*
D03*
Y0027350D02*
D03*
Y0030125D02*
D03*
Y0032900D02*
D03*
Y0035675D02*
D03*
Y0038625D02*
D03*
Y0041400D02*
D03*
Y0044175D02*
D03*
Y0046950D02*
D03*
Y0049725D02*
D03*
X0053625Y0052750D02*
D03*
X0050325D02*
D03*
X0046950D02*
D03*
X0043525D02*
D03*
X0040100D02*
D03*
X0036600D02*
D03*
X0033250D02*
D03*
X0029825D02*
D03*
X0026450D02*
D03*
X0023100D02*
D03*
X0019725D02*
D03*
X0016350D02*
D03*
X0013125D02*
D03*
X0009900D02*
D03*
X0006675D02*
D03*
X0003525D02*
D03*
X0000550D02*
D03*
X0003500Y0048900D02*
D03*
X0056475Y0006400D02*
D03*
Y0007575D02*
D03*
Y0008725D02*
D03*
Y0009875D02*
D03*
Y0011025D02*
D03*
X0053875Y0006425D02*
D03*
Y0007575D02*
D03*
Y0008725D02*
D03*
Y0009875D02*
D03*
Y0011025D02*
D03*
X0049875Y0024400D02*
D03*
X0039000Y0019875D02*
D03*
X0041375Y0030900D02*
D03*
X0048250Y0034700D02*
D03*
X0046100Y0034475D02*
D03*
X0047200Y0034625D02*
D03*
X0050250Y0034450D02*
D03*
X0049350Y0034675D02*
D03*
X0051300Y0034450D02*
D03*
X0052325Y0034475D02*
D03*
X0053050Y0032975D02*
D03*
X0052875Y0033900D02*
D03*
X0051825D02*
D03*
X0050750D02*
D03*
X0049725D02*
D03*
X0047750Y0034050D02*
D03*
X0046725Y0033875D02*
D03*
X0040925Y0028500D02*
D03*
X0043450Y0033375D02*
D03*
X0044300Y0032075D02*
D03*
X0043650Y0031750D02*
D03*
X0042350Y0031725D02*
D03*
X0046375Y0029025D02*
D03*
X0047000D02*
D03*
X0049325D02*
D03*
X0042525Y0032925D02*
D03*
X0045500Y0033875D02*
D03*
X0029700Y0025075D02*
D03*
X0056575Y0035100D02*
D03*
X0034825Y0019875D02*
D03*
X0056025Y0038275D02*
D03*
X0053475Y0035500D02*
D03*
X0054475Y0032275D02*
D03*
X0053225Y0038275D02*
D03*
X0051025Y0038250D02*
D03*
X0054475Y0022750D02*
D03*
X0044275Y0033875D02*
D03*
X0055900Y0026050D02*
D03*
X0060225Y0028175D02*
D03*
X0055125Y0027250D02*
D03*
X0059275Y0028125D02*
D03*
X0055125Y0026050D02*
D03*
X0026300Y0040375D02*
D03*
X0048650Y0016450D02*
D03*
X0054750Y0016825D02*
D03*
X0059150Y0022825D02*
D03*
X0058350Y0016825D02*
D03*
X0058075Y0019125D02*
D03*
X0058000Y0022800D02*
D03*
X0060650Y0014725D02*
D03*
X0060675Y0018225D02*
D03*
X0059175Y0030975D02*
D03*
X0054475Y0036700D02*
D03*
X0061100Y0038050D02*
D03*
X0059175Y0029550D02*
D03*
X0058025D02*
D03*
X0059150Y0024375D02*
D03*
X0058000Y0024400D02*
D03*
X0057900Y0025525D02*
D03*
X0056025Y0025350D02*
D03*
X0058275Y0028125D02*
D03*
X0057225Y0028075D02*
D03*
X0057550Y0027250D02*
D03*
X0055075Y0028850D02*
D03*
X0054650Y0029425D02*
D03*
X0056700Y0026100D02*
D03*
X0055850Y0022825D02*
D03*
X0055900Y0024375D02*
D03*
X0055050Y0024400D02*
D03*
X0043350Y0021825D02*
D03*
X0042025D02*
D03*
X0032375Y0025075D02*
D03*
X0042025Y0023200D02*
D03*
X0035175Y0025075D02*
D03*
X0042000Y0024575D02*
D03*
X0040675Y0025075D02*
D03*
X0030925Y0028700D02*
D03*
X0055650Y0032325D02*
D03*
X0040350Y0027500D02*
D03*
X0042675Y0033900D02*
D03*
X0056900Y0032350D02*
D03*
X0040975Y0032425D02*
D03*
X0039650Y0030850D02*
D03*
X0038975Y0028850D02*
D03*
X0036250Y0028800D02*
D03*
X0030850Y0038275D02*
D03*
X0035125Y0038200D02*
D03*
X0037025Y0038225D02*
D03*
X0055175Y0025275D02*
D03*
X0056825Y0023475D02*
D03*
X0056800Y0022025D02*
D03*
X0051300Y0020700D02*
D03*
X0056225Y0028050D02*
D03*
X0056800Y0029550D02*
D03*
Y0030975D02*
D03*
X0055575Y0031050D02*
D03*
X0054625Y0023850D02*
D03*
X0055900Y0027250D02*
D03*
X0056725Y0027200D02*
D03*
X0058375Y0027250D02*
D03*
X0059225Y0027225D02*
D03*
X0060025Y0027375D02*
D03*
X0028450Y0028650D02*
D03*
X0045150Y0024600D02*
D03*
X0043175Y0024575D02*
D03*
X0027425Y0031275D02*
D03*
X0027325Y0030025D02*
D03*
X0027375Y0027475D02*
D03*
X0043375Y0023250D02*
D03*
X0057075Y0033600D02*
D03*
X0064450Y0034825D02*
D03*
Y0037050D02*
D03*
Y0039350D02*
D03*
Y0041600D02*
D03*
Y0018100D02*
D03*
Y0015675D02*
D03*
Y0013400D02*
D03*
X0041275Y0020575D02*
D03*
X0043275D02*
D03*
X0049425Y0020750D02*
D03*
X0054950Y0020575D02*
D03*
X0056800D02*
D03*
X0055475Y0021575D02*
D03*
X0049825Y0039025D02*
D03*
X0046500Y0039050D02*
D03*
X0043175Y0039075D02*
D03*
X0040025Y0039050D02*
D03*
X0036625D02*
D03*
X0033425D02*
D03*
X0030350Y0039075D02*
D03*
X0027450D02*
D03*
X0027425Y0032825D02*
D03*
Y0034075D02*
D03*
X0027450Y0036000D02*
D03*
Y0038000D02*
D03*
X0023650Y0039375D02*
D03*
X0057200Y0014725D02*
D03*
X0053000D02*
D03*
X0037775Y0013050D02*
D03*
X0057000Y0018075D02*
D03*
X0050275D02*
D03*
X0030100Y0040375D02*
D03*
X0034300D02*
D03*
X0038200D02*
D03*
X0041850D02*
D03*
X0045700D02*
D03*
X0049550Y0040400D02*
D03*
X0033475Y0028775D02*
D03*
X0029075Y0038300D02*
D03*
X0053725Y0021575D02*
D03*
X0055700Y0033525D02*
D03*
X0041325Y0038200D02*
D03*
X0043050D02*
D03*
X0046975D02*
D03*
X0048975Y0038225D02*
D03*
X0056600Y0036775D02*
D03*
X0054675Y0038275D02*
D03*
X0044825Y0023550D02*
D03*
X0039075Y0038300D02*
D03*
X0057900Y0038075D02*
D03*
X0054475Y0035075D02*
D03*
X0058025Y0030975D02*
D03*
X0054475Y0033525D02*
D03*
X0053475Y0036700D02*
D03*
X0056750Y0039025D02*
D03*
X0054025D02*
D03*
X0054475Y0031175D02*
D03*
X0064400Y0023175D02*
D03*
X0063200D02*
D03*
X0062000D02*
D03*
Y0030125D02*
D03*
X0063200D02*
D03*
X0064450D02*
D03*
X0060225Y0029025D02*
D03*
Y0029825D02*
D03*
Y0022925D02*
D03*
X0064450Y0032625D02*
D03*
X0063200Y0032575D02*
D03*
X0062000D02*
D03*
X0060800D02*
D03*
Y0020725D02*
D03*
X0062000D02*
D03*
X0063200D02*
D03*
X0064400D02*
D03*
X0060250Y0022125D02*
D03*
Y0021325D02*
D03*
X0060225Y0030575D02*
D03*
Y0031375D02*
D03*
X0060250Y0032125D02*
D03*
X0063900Y0033400D02*
D03*
X0062650Y0033375D02*
D03*
X0061400D02*
D03*
Y0019875D02*
D03*
X0062650D02*
D03*
X0063900D02*
D03*
X0058000Y0021075D02*
D03*
X0059175Y0032425D02*
D03*
X0058025Y0032375D02*
D03*
X0059900Y0033525D02*
D03*
X0059150Y0021075D02*
D03*
X0059800Y0019975D02*
D03*
X0048475Y0026600D02*
D03*
X0047275Y0027200D02*
D03*
X0048475D02*
D03*
X0047875D02*
D03*
X0049075D02*
D03*
X0047875Y0026600D02*
D03*
X0049075D02*
D03*
X0047275D02*
D03*
X0049075Y0026000D02*
D03*
X0048475D02*
D03*
X0049075Y0025400D02*
D03*
X0048475D02*
D03*
X0047875D02*
D03*
X0047275D02*
D03*
Y0026000D02*
D03*
X0047875D02*
D03*
D73*
X0019275Y0051925D02*
D03*
X0022250Y0007800D02*
D03*
X0004500Y0044725D02*
D03*
X0018375Y0012600D02*
D03*
D74*
X0051325Y0025575D02*
D03*
X0052000D02*
D03*
X0053750Y0027550D02*
D03*
X0052100Y0030100D02*
D03*
X0051550Y0029425D02*
D03*
X0053750Y0026575D02*
D03*
X0052925Y0029400D02*
D03*
X0052550Y0029775D02*
D03*
X0051550Y0027050D02*
D03*
X0052675Y0028275D02*
D03*
X0050650Y0025550D02*
D03*
X0053250Y0028900D02*
D03*
X0051925Y0028050D02*
D03*
X0053425Y0028350D02*
D03*
X0053350Y0025575D02*
D03*
X0054075D02*
D03*
X0052675Y0026425D02*
D03*
X0052650Y0027150D02*
D03*
X0052675Y0025300D02*
D03*
M02*
