G04*
G04 #@! TF.GenerationSoftware,Altium Limited,Altium Designer,19.1.5 (86)*
G04*
G04 Layer_Color=10275833*
%FSAX43Y43*%
%MOMM*%
G71*
G01*
G75*
%ADD10C,0.150*%
%ADD11C,0.100*%
%ADD21C,0.050*%
D10*
X0054000Y0025925D02*
Y0025508D01*
X0054083Y0025425D01*
X0054250D01*
X0054333Y0025508D01*
Y0025925D01*
X0054833Y0025425D02*
X0054500D01*
X0054833Y0025758D01*
Y0025842D01*
X0054750Y0025925D01*
X0054583D01*
X0054500Y0025842D01*
D11*
X0043276Y0030541D02*
Y0030941D01*
X0043476D01*
X0043543Y0030874D01*
Y0030741D01*
X0043476Y0030674D01*
X0043276D01*
X0043409D02*
X0043543Y0030541D01*
X0043676D02*
X0043809D01*
X0043743D01*
Y0030941D01*
X0043676Y0030874D01*
X0044009D02*
X0044076Y0030941D01*
X0044209D01*
X0044276Y0030874D01*
Y0030808D01*
X0044209Y0030741D01*
X0044276Y0030674D01*
Y0030608D01*
X0044209Y0030541D01*
X0044076D01*
X0044009Y0030608D01*
Y0030674D01*
X0044076Y0030741D01*
X0044009Y0030808D01*
Y0030874D01*
X0044076Y0030741D02*
X0044209D01*
X0045225Y0030350D02*
X0044825D01*
Y0030083D01*
X0045158Y0029950D02*
X0045225Y0029883D01*
Y0029750D01*
X0045158Y0029684D01*
X0045092D01*
X0045025Y0029750D01*
X0044958Y0029684D01*
X0044892D01*
X0044825Y0029750D01*
Y0029883D01*
X0044892Y0029950D01*
X0044958D01*
X0045025Y0029883D01*
X0045092Y0029950D01*
X0045158D01*
X0045025Y0029883D02*
Y0029750D01*
X0020242Y0007108D02*
X0020175Y0007175D01*
X0020042D01*
X0019975Y0007108D01*
Y0006842D01*
X0020042Y0006775D01*
X0020175D01*
X0020242Y0006842D01*
X0020641Y0006775D02*
X0020375D01*
X0020641Y0007042D01*
Y0007108D01*
X0020575Y0007175D01*
X0020442D01*
X0020375Y0007108D01*
X0020775D02*
X0020841Y0007175D01*
X0020975D01*
X0021041Y0007108D01*
Y0007042D01*
X0020975Y0006975D01*
X0020908D01*
X0020975D01*
X0021041Y0006908D01*
Y0006842D01*
X0020975Y0006775D01*
X0020841D01*
X0020775Y0006842D01*
X0017317Y0007133D02*
X0017250Y0007200D01*
X0017117D01*
X0017050Y0007133D01*
Y0006867D01*
X0017117Y0006800D01*
X0017250D01*
X0017317Y0006867D01*
X0017716Y0006800D02*
X0017450D01*
X0017716Y0007067D01*
Y0007133D01*
X0017650Y0007200D01*
X0017517D01*
X0017450Y0007133D01*
X0018116Y0006800D02*
X0017850D01*
X0018116Y0007067D01*
Y0007133D01*
X0018050Y0007200D01*
X0017916D01*
X0017850Y0007133D01*
X0017392Y0011083D02*
X0017325Y0011150D01*
X0017192D01*
X0017125Y0011083D01*
Y0010817D01*
X0017192Y0010750D01*
X0017325D01*
X0017392Y0010817D01*
X0017791Y0010750D02*
X0017525D01*
X0017791Y0011017D01*
Y0011083D01*
X0017725Y0011150D01*
X0017592D01*
X0017525Y0011083D01*
X0017925Y0010750D02*
X0018058D01*
X0017991D01*
Y0011150D01*
X0017925Y0011083D01*
X0020467Y0011058D02*
X0020400Y0011125D01*
X0020267D01*
X0020200Y0011058D01*
Y0010792D01*
X0020267Y0010725D01*
X0020400D01*
X0020467Y0010792D01*
X0020866Y0010725D02*
X0020600D01*
X0020866Y0010992D01*
Y0011058D01*
X0020800Y0011125D01*
X0020667D01*
X0020600Y0011058D01*
X0021000D02*
X0021066Y0011125D01*
X0021200D01*
X0021266Y0011058D01*
Y0010792D01*
X0021200Y0010725D01*
X0021066D01*
X0021000Y0010792D01*
Y0011058D01*
X0004550Y0045875D02*
Y0046175D01*
X0004700D01*
X0004750Y0046125D01*
Y0046025D01*
X0004700Y0045975D01*
X0004550D01*
X0004650D02*
X0004750Y0045875D01*
X0005050Y0046175D02*
X0004950Y0046125D01*
X0004850Y0046025D01*
Y0045925D01*
X0004900Y0045875D01*
X0005000D01*
X0005050Y0045925D01*
Y0045975D01*
X0005000Y0046025D01*
X0004850D01*
X0004575Y0045250D02*
Y0045550D01*
X0004725D01*
X0004775Y0045500D01*
Y0045400D01*
X0004725Y0045350D01*
X0004575D01*
X0004675D02*
X0004775Y0045250D01*
X0005075Y0045550D02*
X0004875D01*
Y0045400D01*
X0004975Y0045450D01*
X0005025D01*
X0005075Y0045400D01*
Y0045300D01*
X0005025Y0045250D01*
X0004925D01*
X0004875Y0045300D01*
X0055442Y0026783D02*
X0055375Y0026850D01*
X0055242D01*
X0055175Y0026783D01*
Y0026517D01*
X0055242Y0026450D01*
X0055375D01*
X0055442Y0026517D01*
X0055575Y0026783D02*
X0055642Y0026850D01*
X0055775D01*
X0055841Y0026783D01*
Y0026717D01*
X0055775Y0026650D01*
X0055841Y0026583D01*
Y0026517D01*
X0055775Y0026450D01*
X0055642D01*
X0055575Y0026517D01*
Y0026583D01*
X0055642Y0026650D01*
X0055575Y0026717D01*
Y0026783D01*
X0055642Y0026650D02*
X0055775D01*
X0058033Y0026433D02*
X0058100Y0026500D01*
Y0026633D01*
X0058033Y0026700D01*
X0057767D01*
X0057700Y0026633D01*
Y0026500D01*
X0057767Y0026433D01*
Y0026300D02*
X0057700Y0026233D01*
Y0026100D01*
X0057767Y0026034D01*
X0058033D01*
X0058100Y0026100D01*
Y0026233D01*
X0058033Y0026300D01*
X0057967D01*
X0057900Y0026233D01*
Y0026034D01*
X0059833Y0026583D02*
X0059900Y0026650D01*
Y0026783D01*
X0059833Y0026850D01*
X0059567D01*
X0059500Y0026783D01*
Y0026650D01*
X0059567Y0026583D01*
X0059500Y0026450D02*
Y0026317D01*
Y0026383D01*
X0059900D01*
X0059833Y0026450D01*
Y0026117D02*
X0059900Y0026050D01*
Y0025917D01*
X0059833Y0025850D01*
X0059567D01*
X0059500Y0025917D01*
Y0026050D01*
X0059567Y0026117D01*
X0059833D01*
X0052167Y0029342D02*
X0052100Y0029275D01*
Y0029142D01*
X0052167Y0029075D01*
X0052433D01*
X0052500Y0029142D01*
Y0029275D01*
X0052433Y0029342D01*
X0052500Y0029475D02*
Y0029608D01*
Y0029542D01*
X0052100D01*
X0052167Y0029475D01*
X0051450Y0028375D02*
X0051050D01*
Y0028108D01*
Y0027975D02*
Y0027842D01*
Y0027908D01*
X0051450D01*
X0051383Y0027975D01*
X0053775Y0028875D02*
X0054175D01*
Y0028675D01*
X0054108Y0028608D01*
X0053975D01*
X0053908Y0028675D01*
Y0028875D01*
Y0028742D02*
X0053775Y0028608D01*
Y0028275D02*
X0054175D01*
X0053975Y0028475D01*
Y0028209D01*
X0052417Y0029067D02*
X0052350Y0029000D01*
Y0028867D01*
X0052417Y0028800D01*
X0052683D01*
X0052750Y0028867D01*
Y0029000D01*
X0052683Y0029067D01*
X0052750Y0029466D02*
Y0029200D01*
X0052483Y0029466D01*
X0052417D01*
X0052350Y0029400D01*
Y0029267D01*
X0052417Y0029200D01*
X0054708Y0028783D02*
X0054775Y0028850D01*
Y0028983D01*
X0054708Y0029050D01*
X0054442D01*
X0054375Y0028983D01*
Y0028850D01*
X0054442Y0028783D01*
X0054375Y0028650D02*
Y0028517D01*
Y0028583D01*
X0054775D01*
X0054708Y0028650D01*
X0054375Y0028117D02*
X0054775D01*
X0054575Y0028317D01*
Y0028050D01*
X0050992Y0030233D02*
X0050925Y0030300D01*
X0050792D01*
X0050725Y0030233D01*
Y0029967D01*
X0050792Y0029900D01*
X0050925D01*
X0050992Y0029967D01*
X0051125Y0029900D02*
X0051258D01*
X0051192D01*
Y0030300D01*
X0051125Y0030233D01*
X0051725Y0030300D02*
X0051591Y0030233D01*
X0051458Y0030100D01*
Y0029967D01*
X0051525Y0029900D01*
X0051658D01*
X0051725Y0029967D01*
Y0030033D01*
X0051658Y0030100D01*
X0051458D01*
X0045158Y0028308D02*
X0045225Y0028375D01*
Y0028508D01*
X0045158Y0028575D01*
X0044892D01*
X0044825Y0028508D01*
Y0028375D01*
X0044892Y0028308D01*
X0044825Y0028175D02*
Y0028042D01*
Y0028108D01*
X0045225D01*
X0045158Y0028175D01*
X0045225Y0027842D02*
Y0027575D01*
X0045158D01*
X0044892Y0027842D01*
X0044825D01*
X0045283Y0025608D02*
X0045350Y0025675D01*
Y0025808D01*
X0045283Y0025875D01*
X0045017D01*
X0044950Y0025808D01*
Y0025675D01*
X0045017Y0025608D01*
X0044950Y0025475D02*
Y0025342D01*
Y0025408D01*
X0045350D01*
X0045283Y0025475D01*
Y0025142D02*
X0045350Y0025075D01*
Y0024942D01*
X0045283Y0024875D01*
X0045217D01*
X0045150Y0024942D01*
X0045083Y0024875D01*
X0045017D01*
X0044950Y0024942D01*
Y0025075D01*
X0045017Y0025142D01*
X0045083D01*
X0045150Y0025075D01*
X0045217Y0025142D01*
X0045283D01*
X0045150Y0025075D02*
Y0024942D01*
X0058450Y0026850D02*
Y0026450D01*
X0058717D01*
X0059116Y0026850D02*
X0058850D01*
Y0026650D01*
X0058983Y0026717D01*
X0059050D01*
X0059116Y0026650D01*
Y0026517D01*
X0059050Y0026450D01*
X0058917D01*
X0058850Y0026517D01*
X0044050Y0028450D02*
X0043550D01*
Y0028117D01*
X0044050Y0027950D02*
Y0027617D01*
X0043967D01*
X0043633Y0027950D01*
X0043550D01*
X0054708Y0024933D02*
X0054775Y0025000D01*
Y0025133D01*
X0054708Y0025200D01*
X0054442D01*
X0054375Y0025133D01*
Y0025000D01*
X0054442Y0024933D01*
X0054375Y0024800D02*
Y0024667D01*
Y0024733D01*
X0054775D01*
X0054708Y0024800D01*
X0054775Y0024200D02*
Y0024467D01*
X0054575D01*
X0054642Y0024334D01*
Y0024267D01*
X0054575Y0024200D01*
X0054442D01*
X0054375Y0024267D01*
Y0024400D01*
X0054442Y0024467D01*
X0053775Y0025050D02*
X0054175D01*
Y0024850D01*
X0054108Y0024783D01*
X0053975D01*
X0053908Y0024850D01*
Y0025050D01*
Y0024917D02*
X0053775Y0024783D01*
X0054108Y0024650D02*
X0054175Y0024583D01*
Y0024450D01*
X0054108Y0024384D01*
X0054042D01*
X0053975Y0024450D01*
Y0024517D01*
Y0024450D01*
X0053908Y0024384D01*
X0053842D01*
X0053775Y0024450D01*
Y0024583D01*
X0053842Y0024650D01*
D21*
X0065000Y0040600D02*
G03*
X0052300Y0053300I-0012700J0000000D01*
G01*
Y0000000D02*
G03*
X0065000Y0012700I0000000J0012700D01*
G01*
X0000000Y0000000D02*
X0052300D01*
X0000000D02*
Y0053300D01*
X0052300D01*
X0065000Y0012700D02*
Y0040600D01*
M02*
