G04*
G04 #@! TF.GenerationSoftware,Altium Limited,Altium Designer,19.1.5 (86)*
G04*
G04 Layer_Color=65535*
%FSAX43Y43*%
%MOMM*%
G71*
G01*
G75*
%ADD10C,0.150*%
%ADD11C,0.100*%
%ADD12C,0.200*%
%ADD13C,0.015*%
%ADD14C,0.025*%
%ADD15C,0.028*%
%ADD16C,0.300*%
%ADD17C,0.350*%
%ADD18C,0.250*%
%ADD19C,0.450*%
%ADD20C,0.400*%
%ADD21C,0.050*%
D10*
X0052000Y0027975D02*
G03*
X0052000Y0027975I-0000100J0000000D01*
G01*
X0050675Y0028650D02*
G03*
X0050675Y0028650I-0000150J0000000D01*
G01*
X0052550Y0027350D02*
X0052800D01*
X0052550Y0027025D02*
Y0027350D01*
Y0027025D02*
X0052800D01*
Y0027350D01*
X0042750Y0034125D02*
X0055800D01*
X0042750Y0023625D02*
X0055800D01*
X0042750D02*
Y0034125D01*
X0055800Y0023625D02*
Y0026100D01*
Y0027225D02*
Y0034125D01*
D11*
X0053975Y0027300D02*
G03*
X0053975Y0027300I-0000050J0000000D01*
G01*
X0026700Y0038975D02*
X0027850D01*
X0056150Y0019225D02*
X0057300D01*
Y0020375D01*
X0026700Y0019225D02*
X0027850D01*
X0026700D02*
Y0020375D01*
X0026700Y0037825D02*
Y0038975D01*
X0056150Y0038925D02*
X0057300D01*
Y0037775D02*
Y0038925D01*
X0050175Y0028500D02*
X0050375Y0028300D01*
X0049875Y0028500D02*
X0050175D01*
X0045975D02*
X0046475D01*
X0045975Y0028000D02*
Y0028500D01*
Y0024100D02*
Y0024600D01*
Y0024100D02*
X0046475D01*
X0049875D02*
X0050375D01*
Y0024550D01*
Y0028000D02*
Y0028300D01*
D12*
X0000950Y0018650D02*
X0006050D01*
Y0008650D02*
Y0018650D01*
X0000950Y0008650D02*
Y0018650D01*
Y0008650D02*
X0006050D01*
X0000950Y0016650D02*
X0002000D01*
Y0010650D02*
Y0016650D01*
X0000950Y0010650D02*
X0002000D01*
X0000950Y0015400D02*
X0002000D01*
X0000950Y0011900D02*
X0002000D01*
X0000950Y0031650D02*
X0006050D01*
Y0021650D02*
Y0031650D01*
X0000950Y0021650D02*
Y0031650D01*
Y0021650D02*
X0006050D01*
X0000950Y0029650D02*
X0002000D01*
Y0023650D02*
Y0029650D01*
X0000950Y0023650D02*
X0002000D01*
X0000950Y0028400D02*
X0002000D01*
X0000950Y0024900D02*
X0002000D01*
X0000950Y0044650D02*
X0006050D01*
Y0034650D02*
Y0044650D01*
X0000950Y0034650D02*
Y0044650D01*
Y0034650D02*
X0006050D01*
X0000950Y0042650D02*
X0002000D01*
Y0036650D02*
Y0042650D01*
X0000950Y0036650D02*
X0002000D01*
X0000950Y0041400D02*
X0002000D01*
X0000950Y0037900D02*
X0002000D01*
X0049975Y0028825D02*
X0050175D01*
X0050075D01*
Y0029425D01*
X0049975Y0029325D01*
X0046675Y0032175D02*
X0046842D01*
X0046758D01*
Y0032675D01*
X0046675Y0032592D01*
X0052850Y0037275D02*
X0052750Y0037375D01*
X0052550D01*
X0052450Y0037275D01*
Y0037175D01*
X0052550Y0037075D01*
X0052750D01*
X0052850Y0036975D01*
Y0036875D01*
X0052750Y0036775D01*
X0052550D01*
X0052450Y0036875D01*
X0053050Y0037375D02*
Y0036775D01*
Y0037075D01*
X0053150Y0037175D01*
X0053350D01*
X0053450Y0037075D01*
Y0036775D01*
X0053650D02*
X0053850D01*
X0053750D01*
Y0037175D01*
X0053650D01*
X0054449Y0036775D02*
X0054249D01*
X0054149Y0036875D01*
Y0037075D01*
X0054249Y0037175D01*
X0054449D01*
X0054549Y0037075D01*
Y0036975D01*
X0054149D01*
X0054749Y0036775D02*
X0054949D01*
X0054849D01*
Y0037375D01*
X0054749D01*
X0055649D02*
Y0036775D01*
X0055349D01*
X0055249Y0036875D01*
Y0037075D01*
X0055349Y0037175D01*
X0055649D01*
D13*
X0046765Y0014039D02*
X0047192D01*
X0043336D02*
X0043900D01*
X0039709D02*
X0040197D01*
X0038582D02*
X0039024D01*
X0046659Y0014054D02*
X0047284D01*
X0043215D02*
X0044022D01*
X0039633D02*
X0040304D01*
X0038582D02*
X0039039D01*
X0046598Y0014070D02*
X0047360D01*
X0043138D02*
X0044129D01*
X0039572D02*
X0040365D01*
X0038582D02*
X0039054D01*
X0047756Y0014085D02*
X0048518D01*
X0046522D02*
X0047406D01*
X0043077D02*
X0044190D01*
X0039511D02*
X0040441D01*
X0038582D02*
X0039054D01*
X0047756Y0014100D02*
X0048518D01*
X0046476D02*
X0047451D01*
X0043016D02*
X0044266D01*
X0039466D02*
X0040487D01*
X0038582D02*
X0039069D01*
X0037088D02*
X0037850D01*
X0035244D02*
X0036006D01*
X0033400D02*
X0034162D01*
X0047756Y0014115D02*
X0048518D01*
X0046445D02*
X0047497D01*
X0042971D02*
X0044312D01*
X0039435D02*
X0040532D01*
X0038582D02*
X0039085D01*
X0037088D02*
X0037850D01*
X0035244D02*
X0036006D01*
X0033400D02*
X0034162D01*
X0047756Y0014130D02*
X0048518D01*
X0046400D02*
X0047527D01*
X0042925D02*
X0044358D01*
X0039389D02*
X0040578D01*
X0038582D02*
X0039085D01*
X0037088D02*
X0037850D01*
X0035244D02*
X0036006D01*
X0033400D02*
X0034162D01*
X0047756Y0014146D02*
X0048518D01*
X0046354D02*
X0047573D01*
X0042895D02*
X0044403D01*
X0039359D02*
X0040624D01*
X0038582D02*
X0039100D01*
X0037088D02*
X0037850D01*
X0035244D02*
X0036006D01*
X0033400D02*
X0034162D01*
X0047756Y0014161D02*
X0048518D01*
X0046324D02*
X0047604D01*
X0042849D02*
X0044449D01*
X0039328D02*
X0040654D01*
X0038582D02*
X0039115D01*
X0037088D02*
X0037850D01*
X0035244D02*
X0036006D01*
X0033400D02*
X0034162D01*
X0047756Y0014176D02*
X0048518D01*
X0046293D02*
X0047634D01*
X0042818D02*
X0044479D01*
X0039298D02*
X0040685D01*
X0038582D02*
X0039130D01*
X0037088D02*
X0037850D01*
X0035244D02*
X0036006D01*
X0033400D02*
X0034162D01*
X0047756Y0014191D02*
X0048518D01*
X0046263D02*
X0047649D01*
X0042788D02*
X0044510D01*
X0039267D02*
X0040715D01*
X0038582D02*
X0039130D01*
X0037088D02*
X0037850D01*
X0035244D02*
X0036006D01*
X0033400D02*
X0034162D01*
X0047756Y0014207D02*
X0048518D01*
X0046247D02*
X0047680D01*
X0042757D02*
X0044556D01*
X0039252D02*
X0040746D01*
X0038582D02*
X0039145D01*
X0037088D02*
X0037850D01*
X0035244D02*
X0036006D01*
X0033400D02*
X0034162D01*
X0047756Y0014222D02*
X0048518D01*
X0046217D02*
X0047710D01*
X0042727D02*
X0044571D01*
X0039222D02*
X0040776D01*
X0038582D02*
X0039161D01*
X0037088D02*
X0037850D01*
X0035244D02*
X0036006D01*
X0033400D02*
X0034162D01*
X0047756Y0014237D02*
X0048518D01*
X0046186D02*
X0047726D01*
X0042696D02*
X0044601D01*
X0039206D02*
X0040807D01*
X0038582D02*
X0039161D01*
X0037088D02*
X0037850D01*
X0035244D02*
X0036006D01*
X0033400D02*
X0034162D01*
X0047756Y0014252D02*
X0048518D01*
X0046171D02*
X0047741D01*
X0042681D02*
X0044632D01*
X0038582D02*
X0040822D01*
X0037088D02*
X0037850D01*
X0035244D02*
X0036006D01*
X0033400D02*
X0034162D01*
X0046141Y0014268D02*
X0048518D01*
X0042651D02*
X0044662D01*
X0038582D02*
X0040852D01*
X0037088D02*
X0037850D01*
X0035244D02*
X0036006D01*
X0033400D02*
X0034162D01*
X0046125Y0014283D02*
X0048518D01*
X0042635D02*
X0044678D01*
X0038582D02*
X0040883D01*
X0037088D02*
X0037850D01*
X0035244D02*
X0036006D01*
X0033400D02*
X0034162D01*
X0046110Y0014298D02*
X0048518D01*
X0042605D02*
X0044708D01*
X0038582D02*
X0040898D01*
X0037088D02*
X0037850D01*
X0035244D02*
X0036006D01*
X0033400D02*
X0034162D01*
X0046080Y0014313D02*
X0048518D01*
X0042590D02*
X0044723D01*
X0038582D02*
X0040913D01*
X0037088D02*
X0037850D01*
X0035244D02*
X0036006D01*
X0033400D02*
X0034162D01*
X0046064Y0014329D02*
X0048518D01*
X0042559D02*
X0044754D01*
X0038582D02*
X0040944D01*
X0037088D02*
X0037850D01*
X0035244D02*
X0036006D01*
X0033400D02*
X0034162D01*
X0046049Y0014344D02*
X0048518D01*
X0042544D02*
X0044769D01*
X0038582D02*
X0040959D01*
X0037088D02*
X0037850D01*
X0035244D02*
X0036006D01*
X0033400D02*
X0034162D01*
X0046034Y0014359D02*
X0048518D01*
X0042529D02*
X0044769D01*
X0038582D02*
X0040974D01*
X0037088D02*
X0037850D01*
X0035244D02*
X0036006D01*
X0033400D02*
X0034162D01*
X0046019Y0014374D02*
X0048518D01*
X0042514D02*
X0044754D01*
X0038582D02*
X0040990D01*
X0037088D02*
X0037850D01*
X0035244D02*
X0036006D01*
X0033400D02*
X0034162D01*
X0046003Y0014390D02*
X0048518D01*
X0042483D02*
X0044754D01*
X0038582D02*
X0041020D01*
X0037088D02*
X0037850D01*
X0035244D02*
X0036006D01*
X0033400D02*
X0034162D01*
X0045988Y0014405D02*
X0048518D01*
X0042468D02*
X0044739D01*
X0038582D02*
X0041035D01*
X0037088D02*
X0037850D01*
X0035244D02*
X0036006D01*
X0033400D02*
X0034162D01*
X0045973Y0014420D02*
X0048518D01*
X0042453D02*
X0044739D01*
X0038582D02*
X0041050D01*
X0037088D02*
X0037850D01*
X0035244D02*
X0036006D01*
X0033400D02*
X0034162D01*
X0045958Y0014435D02*
X0048518D01*
X0042437D02*
X0044723D01*
X0038582D02*
X0041066D01*
X0037088D02*
X0037850D01*
X0035244D02*
X0036006D01*
X0033400D02*
X0034162D01*
X0045943Y0014451D02*
X0048518D01*
X0042422D02*
X0044723D01*
X0038582D02*
X0041081D01*
X0037088D02*
X0037850D01*
X0035244D02*
X0036006D01*
X0033400D02*
X0034162D01*
X0045927Y0014466D02*
X0048518D01*
X0042407D02*
X0044708D01*
X0038582D02*
X0041096D01*
X0037088D02*
X0037850D01*
X0035244D02*
X0036006D01*
X0033400D02*
X0034162D01*
X0045912Y0014481D02*
X0048518D01*
X0042392D02*
X0044708D01*
X0038582D02*
X0041111D01*
X0037088D02*
X0037850D01*
X0035244D02*
X0036006D01*
X0033400D02*
X0034162D01*
X0045897Y0014496D02*
X0048518D01*
X0042376D02*
X0044693D01*
X0038582D02*
X0041127D01*
X0037088D02*
X0037850D01*
X0035244D02*
X0036006D01*
X0033400D02*
X0034162D01*
X0045897Y0014511D02*
X0048518D01*
X0042361D02*
X0044693D01*
X0038582D02*
X0041142D01*
X0037088D02*
X0037850D01*
X0035244D02*
X0036006D01*
X0033400D02*
X0034162D01*
X0045882Y0014527D02*
X0048518D01*
X0042361D02*
X0044678D01*
X0038582D02*
X0041142D01*
X0037088D02*
X0037850D01*
X0035244D02*
X0036006D01*
X0033400D02*
X0034162D01*
X0045866Y0014542D02*
X0048518D01*
X0042346D02*
X0044678D01*
X0038582D02*
X0041157D01*
X0037088D02*
X0037850D01*
X0035244D02*
X0036006D01*
X0033400D02*
X0034162D01*
X0045851Y0014557D02*
X0048518D01*
X0042331D02*
X0044662D01*
X0038582D02*
X0041172D01*
X0037088D02*
X0037850D01*
X0035244D02*
X0036006D01*
X0033400D02*
X0034162D01*
X0045851Y0014572D02*
X0048518D01*
X0042315D02*
X0044662D01*
X0038582D02*
X0041188D01*
X0037088D02*
X0037850D01*
X0035244D02*
X0036006D01*
X0033400D02*
X0034162D01*
X0045836Y0014588D02*
X0048518D01*
X0042300D02*
X0044647D01*
X0038582D02*
X0041203D01*
X0037088D02*
X0037850D01*
X0035244D02*
X0036006D01*
X0033400D02*
X0034162D01*
X0045821Y0014603D02*
X0048518D01*
X0042300D02*
X0044647D01*
X0038582D02*
X0041218D01*
X0037088D02*
X0037850D01*
X0035244D02*
X0036006D01*
X0033400D02*
X0034162D01*
X0045821Y0014618D02*
X0048518D01*
X0042285D02*
X0044632D01*
X0038582D02*
X0041218D01*
X0037088D02*
X0037850D01*
X0035244D02*
X0036006D01*
X0033400D02*
X0034162D01*
X0045805Y0014633D02*
X0048518D01*
X0042270D02*
X0044632D01*
X0038582D02*
X0041233D01*
X0037088D02*
X0037850D01*
X0035244D02*
X0036006D01*
X0033400D02*
X0034162D01*
X0045790Y0014649D02*
X0048518D01*
X0042254D02*
X0044617D01*
X0038582D02*
X0041249D01*
X0037088D02*
X0037850D01*
X0035244D02*
X0036006D01*
X0033400D02*
X0034162D01*
X0047299Y0014664D02*
X0048518D01*
X0045790D02*
X0047284D01*
X0043702D02*
X0044617D01*
X0042254D02*
X0043672D01*
X0039801D02*
X0041249D01*
X0038582D02*
X0039770D01*
X0037088D02*
X0037850D01*
X0035244D02*
X0036006D01*
X0033400D02*
X0034162D01*
X0047406Y0014679D02*
X0048518D01*
X0045775D02*
X0047086D01*
X0043916D02*
X0044601D01*
X0042239D02*
X0043489D01*
X0040014D02*
X0041264D01*
X0038582D02*
X0039648D01*
X0037088D02*
X0037850D01*
X0035244D02*
X0036006D01*
X0033400D02*
X0034162D01*
X0047467Y0014694D02*
X0048518D01*
X0045775D02*
X0047009D01*
X0044007D02*
X0044601D01*
X0042224D02*
X0043413D01*
X0040090D02*
X0041279D01*
X0038582D02*
X0039587D01*
X0037088D02*
X0037850D01*
X0035244D02*
X0036006D01*
X0033400D02*
X0034162D01*
X0047512Y0014710D02*
X0048518D01*
X0045760D02*
X0046948D01*
X0044068D02*
X0044586D01*
X0042224D02*
X0043352D01*
X0040167D02*
X0041279D01*
X0038582D02*
X0039542D01*
X0037088D02*
X0037850D01*
X0035244D02*
X0036006D01*
X0033400D02*
X0034162D01*
X0047543Y0014725D02*
X0048518D01*
X0045760D02*
X0046887D01*
X0044129D02*
X0044571D01*
X0042209D02*
X0043306D01*
X0040228D02*
X0041294D01*
X0038582D02*
X0039511D01*
X0037088D02*
X0037850D01*
X0035244D02*
X0036006D01*
X0033400D02*
X0034162D01*
X0047588Y0014740D02*
X0048518D01*
X0045744D02*
X0046857D01*
X0044175D02*
X0044571D01*
X0042209D02*
X0043276D01*
X0040258D02*
X0041310D01*
X0038582D02*
X0039481D01*
X0037088D02*
X0037850D01*
X0035244D02*
X0036006D01*
X0033400D02*
X0034162D01*
X0047619Y0014755D02*
X0048518D01*
X0045744D02*
X0046811D01*
X0044205D02*
X0044556D01*
X0042193D02*
X0043230D01*
X0040304D02*
X0041310D01*
X0038582D02*
X0039450D01*
X0037088D02*
X0037850D01*
X0035244D02*
X0036006D01*
X0033400D02*
X0034162D01*
X0047649Y0014771D02*
X0048518D01*
X0045729D02*
X0046781D01*
X0044236D02*
X0044556D01*
X0042193D02*
X0043199D01*
X0040334D02*
X0041325D01*
X0038582D02*
X0039435D01*
X0037088D02*
X0037850D01*
X0035244D02*
X0036006D01*
X0033400D02*
X0034162D01*
X0047665Y0014786D02*
X0048518D01*
X0045729D02*
X0046750D01*
X0044266D02*
X0044540D01*
X0042178D02*
X0043169D01*
X0040365D02*
X0041325D01*
X0038582D02*
X0039420D01*
X0037088D02*
X0037850D01*
X0035244D02*
X0036006D01*
X0033400D02*
X0034162D01*
X0047695Y0014801D02*
X0048518D01*
X0045714D02*
X0046735D01*
X0044297D02*
X0044540D01*
X0042178D02*
X0043154D01*
X0040395D02*
X0041340D01*
X0038582D02*
X0039405D01*
X0037088D02*
X0037850D01*
X0035244D02*
X0036006D01*
X0033400D02*
X0034162D01*
X0047710Y0014816D02*
X0048518D01*
X0045714D02*
X0046705D01*
X0044327D02*
X0044525D01*
X0042163D02*
X0043123D01*
X0040410D02*
X0041340D01*
X0038582D02*
X0039374D01*
X0037088D02*
X0037850D01*
X0035244D02*
X0036006D01*
X0033400D02*
X0034162D01*
X0047741Y0014832D02*
X0048518D01*
X0045699D02*
X0046689D01*
X0044342D02*
X0044525D01*
X0042163D02*
X0043108D01*
X0040441D02*
X0041355D01*
X0038582D02*
X0039374D01*
X0037088D02*
X0037850D01*
X0035244D02*
X0036006D01*
X0033400D02*
X0034162D01*
X0047741Y0014847D02*
X0048518D01*
X0045699D02*
X0046659D01*
X0044373D02*
X0044510D01*
X0042148D02*
X0043093D01*
X0040456D02*
X0041355D01*
X0038582D02*
X0039359D01*
X0037088D02*
X0037850D01*
X0035244D02*
X0036006D01*
X0033400D02*
X0034162D01*
X0047756Y0014862D02*
X0048518D01*
X0045699D02*
X0046644D01*
X0044388D02*
X0044510D01*
X0042148D02*
X0043062D01*
X0040471D02*
X0041371D01*
X0038582D02*
X0039344D01*
X0037088D02*
X0037850D01*
X0035244D02*
X0036006D01*
X0033400D02*
X0034162D01*
X0047756Y0014877D02*
X0048518D01*
X0045683D02*
X0046628D01*
X0044403D02*
X0044495D01*
X0042133D02*
X0043047D01*
X0040487D02*
X0041371D01*
X0038582D02*
X0039344D01*
X0037088D02*
X0037850D01*
X0035244D02*
X0036006D01*
X0033400D02*
X0034162D01*
X0047756Y0014892D02*
X0048518D01*
X0045683D02*
X0046613D01*
X0044434D02*
X0044495D01*
X0042133D02*
X0043032D01*
X0040502D02*
X0041386D01*
X0038582D02*
X0039344D01*
X0037088D02*
X0037850D01*
X0035244D02*
X0036006D01*
X0033400D02*
X0034162D01*
X0047756Y0014908D02*
X0048518D01*
X0045668D02*
X0046598D01*
X0044449D02*
X0044479D01*
X0042117D02*
X0043016D01*
X0040517D02*
X0041386D01*
X0038582D02*
X0039344D01*
X0037088D02*
X0037850D01*
X0035244D02*
X0036006D01*
X0033400D02*
X0034162D01*
X0047756Y0014923D02*
X0048518D01*
X0045668D02*
X0046583D01*
X0042117D02*
X0043001D01*
X0040532D02*
X0041401D01*
X0038582D02*
X0039344D01*
X0037088D02*
X0037850D01*
X0035244D02*
X0036006D01*
X0033400D02*
X0034162D01*
X0047756Y0014938D02*
X0048518D01*
X0045668D02*
X0046567D01*
X0042117D02*
X0042986D01*
X0040548D02*
X0041401D01*
X0038582D02*
X0039344D01*
X0037088D02*
X0037850D01*
X0035244D02*
X0036006D01*
X0033400D02*
X0034162D01*
X0047756Y0014953D02*
X0048518D01*
X0045653D02*
X0046552D01*
X0042102D02*
X0042971D01*
X0040563D02*
X0041416D01*
X0038582D02*
X0039344D01*
X0037088D02*
X0037850D01*
X0035244D02*
X0036006D01*
X0033400D02*
X0034162D01*
X0047756Y0014969D02*
X0048518D01*
X0045653D02*
X0046537D01*
X0042102D02*
X0042955D01*
X0040578D02*
X0041416D01*
X0038582D02*
X0039344D01*
X0037088D02*
X0037850D01*
X0035244D02*
X0036006D01*
X0033400D02*
X0034162D01*
X0047756Y0014984D02*
X0048518D01*
X0045653D02*
X0046537D01*
X0042102D02*
X0042940D01*
X0040578D02*
X0041416D01*
X0038582D02*
X0039344D01*
X0037088D02*
X0037850D01*
X0035244D02*
X0036006D01*
X0033400D02*
X0034162D01*
X0047756Y0014999D02*
X0048518D01*
X0045638D02*
X0046522D01*
X0042087D02*
X0042940D01*
X0040593D02*
X0041431D01*
X0038582D02*
X0039344D01*
X0037088D02*
X0037850D01*
X0035244D02*
X0036006D01*
X0033400D02*
X0034162D01*
X0047756Y0015014D02*
X0048518D01*
X0045638D02*
X0046506D01*
X0042087D02*
X0042925D01*
X0040609D02*
X0041431D01*
X0038582D02*
X0039344D01*
X0037088D02*
X0037850D01*
X0035244D02*
X0036006D01*
X0033400D02*
X0034162D01*
X0047756Y0015030D02*
X0048518D01*
X0045638D02*
X0046506D01*
X0042087D02*
X0042910D01*
X0040609D02*
X0041447D01*
X0038582D02*
X0039344D01*
X0037088D02*
X0037850D01*
X0035244D02*
X0036006D01*
X0033400D02*
X0034162D01*
X0047756Y0015045D02*
X0048518D01*
X0045638D02*
X0046491D01*
X0042072D02*
X0042910D01*
X0040624D02*
X0041447D01*
X0038582D02*
X0039344D01*
X0037088D02*
X0037850D01*
X0035244D02*
X0036006D01*
X0033400D02*
X0034162D01*
X0047756Y0015060D02*
X0048518D01*
X0045622D02*
X0046476D01*
X0042072D02*
X0042895D01*
X0040624D02*
X0041447D01*
X0038582D02*
X0039344D01*
X0037088D02*
X0037850D01*
X0035244D02*
X0036006D01*
X0033400D02*
X0034162D01*
X0047756Y0015075D02*
X0048518D01*
X0045622D02*
X0046476D01*
X0042072D02*
X0042895D01*
X0040639D02*
X0041447D01*
X0038582D02*
X0039344D01*
X0037088D02*
X0037850D01*
X0035244D02*
X0036006D01*
X0033400D02*
X0034162D01*
X0047756Y0015091D02*
X0048518D01*
X0045622D02*
X0046461D01*
X0042056D02*
X0042879D01*
X0040639D02*
X0041462D01*
X0038582D02*
X0039344D01*
X0037088D02*
X0037850D01*
X0035244D02*
X0036006D01*
X0033400D02*
X0034162D01*
X0047756Y0015106D02*
X0048518D01*
X0045622D02*
X0046461D01*
X0042056D02*
X0042879D01*
X0040654D02*
X0041462D01*
X0038582D02*
X0039344D01*
X0037088D02*
X0037850D01*
X0035244D02*
X0036006D01*
X0033400D02*
X0034162D01*
X0047756Y0015121D02*
X0048518D01*
X0045607D02*
X0046445D01*
X0042056D02*
X0042864D01*
X0040654D02*
X0041462D01*
X0038582D02*
X0039344D01*
X0037088D02*
X0037850D01*
X0035244D02*
X0036006D01*
X0033400D02*
X0034162D01*
X0047756Y0015136D02*
X0048518D01*
X0045607D02*
X0046445D01*
X0042056D02*
X0042864D01*
X0040669D02*
X0041477D01*
X0038582D02*
X0039344D01*
X0037088D02*
X0037850D01*
X0035244D02*
X0036006D01*
X0033400D02*
X0034162D01*
X0047756Y0015152D02*
X0048518D01*
X0045607D02*
X0046445D01*
X0042041D02*
X0042849D01*
X0040669D02*
X0041477D01*
X0038582D02*
X0039344D01*
X0037088D02*
X0037850D01*
X0035244D02*
X0036006D01*
X0033400D02*
X0034162D01*
X0047756Y0015167D02*
X0048518D01*
X0045607D02*
X0046430D01*
X0042041D02*
X0042849D01*
X0040669D02*
X0041477D01*
X0038582D02*
X0039344D01*
X0037088D02*
X0037850D01*
X0035244D02*
X0036006D01*
X0033400D02*
X0034162D01*
X0047756Y0015182D02*
X0048518D01*
X0045607D02*
X0046430D01*
X0042041D02*
X0042849D01*
X0040685D02*
X0041492D01*
X0038582D02*
X0039344D01*
X0037088D02*
X0037850D01*
X0035244D02*
X0036006D01*
X0033400D02*
X0034162D01*
X0047756Y0015197D02*
X0048518D01*
X0045592D02*
X0046415D01*
X0042041D02*
X0042834D01*
X0040685D02*
X0041492D01*
X0038582D02*
X0039344D01*
X0037088D02*
X0037850D01*
X0035244D02*
X0036006D01*
X0033400D02*
X0034162D01*
X0047756Y0015213D02*
X0048518D01*
X0045592D02*
X0046415D01*
X0042041D02*
X0042834D01*
X0040685D02*
X0041492D01*
X0038582D02*
X0039344D01*
X0037088D02*
X0037850D01*
X0035244D02*
X0036006D01*
X0033400D02*
X0034162D01*
X0047756Y0015228D02*
X0048518D01*
X0045592D02*
X0046415D01*
X0042026D02*
X0042834D01*
X0040700D02*
X0041492D01*
X0038582D02*
X0039344D01*
X0037088D02*
X0037850D01*
X0035244D02*
X0036006D01*
X0033400D02*
X0034162D01*
X0047756Y0015243D02*
X0048518D01*
X0045592D02*
X0046400D01*
X0042026D02*
X0042818D01*
X0040700D02*
X0041492D01*
X0038582D02*
X0039344D01*
X0037088D02*
X0037850D01*
X0035244D02*
X0036006D01*
X0033400D02*
X0034162D01*
X0047756Y0015258D02*
X0048518D01*
X0045592D02*
X0046400D01*
X0042026D02*
X0042818D01*
X0040700D02*
X0041508D01*
X0038582D02*
X0039344D01*
X0037088D02*
X0037850D01*
X0035244D02*
X0036006D01*
X0033400D02*
X0034162D01*
X0047756Y0015273D02*
X0048518D01*
X0045592D02*
X0046400D01*
X0042026D02*
X0042818D01*
X0040715D02*
X0041508D01*
X0038582D02*
X0039344D01*
X0037088D02*
X0037850D01*
X0035244D02*
X0036006D01*
X0033400D02*
X0034162D01*
X0047756Y0015289D02*
X0048518D01*
X0045577D02*
X0046400D01*
X0042026D02*
X0042803D01*
X0040715D02*
X0041508D01*
X0038582D02*
X0039344D01*
X0037088D02*
X0037850D01*
X0035244D02*
X0036006D01*
X0033400D02*
X0034162D01*
X0047756Y0015304D02*
X0048518D01*
X0045577D02*
X0046384D01*
X0042026D02*
X0042803D01*
X0040715D02*
X0041508D01*
X0038582D02*
X0039344D01*
X0037088D02*
X0037850D01*
X0035244D02*
X0036006D01*
X0033400D02*
X0034162D01*
X0047756Y0015319D02*
X0048518D01*
X0045577D02*
X0046384D01*
X0042011D02*
X0042803D01*
X0040715D02*
X0041508D01*
X0038582D02*
X0039344D01*
X0037088D02*
X0037850D01*
X0035244D02*
X0036006D01*
X0033400D02*
X0034162D01*
X0047756Y0015334D02*
X0048518D01*
X0045577D02*
X0046384D01*
X0042011D02*
X0042803D01*
X0040730D02*
X0041523D01*
X0038582D02*
X0039344D01*
X0037088D02*
X0037850D01*
X0035244D02*
X0036006D01*
X0033400D02*
X0034162D01*
X0047756Y0015350D02*
X0048518D01*
X0045577D02*
X0046384D01*
X0042011D02*
X0042803D01*
X0040730D02*
X0041523D01*
X0038582D02*
X0039344D01*
X0037088D02*
X0037850D01*
X0035244D02*
X0036006D01*
X0033400D02*
X0034162D01*
X0047756Y0015365D02*
X0048518D01*
X0045577D02*
X0046384D01*
X0042011D02*
X0042803D01*
X0040730D02*
X0041523D01*
X0038582D02*
X0039344D01*
X0037088D02*
X0037850D01*
X0035244D02*
X0036006D01*
X0033400D02*
X0034162D01*
X0047756Y0015380D02*
X0048518D01*
X0045577D02*
X0046369D01*
X0042011D02*
X0042788D01*
X0040730D02*
X0041523D01*
X0038582D02*
X0039344D01*
X0037088D02*
X0037850D01*
X0035244D02*
X0036006D01*
X0033400D02*
X0034162D01*
X0047756Y0015395D02*
X0048518D01*
X0045577D02*
X0046369D01*
X0042011D02*
X0042788D01*
X0040730D02*
X0041523D01*
X0038582D02*
X0039344D01*
X0037088D02*
X0037850D01*
X0035244D02*
X0036006D01*
X0033400D02*
X0034162D01*
X0047756Y0015411D02*
X0048518D01*
X0045577D02*
X0046369D01*
X0042011D02*
X0042788D01*
X0040730D02*
X0041523D01*
X0038582D02*
X0039344D01*
X0037088D02*
X0037850D01*
X0035244D02*
X0036006D01*
X0033400D02*
X0034162D01*
X0047756Y0015426D02*
X0048518D01*
X0045577D02*
X0046369D01*
X0042011D02*
X0042788D01*
X0040746D02*
X0041523D01*
X0038582D02*
X0039344D01*
X0037088D02*
X0037850D01*
X0035244D02*
X0036006D01*
X0033400D02*
X0034162D01*
X0047756Y0015441D02*
X0048518D01*
X0045562D02*
X0046369D01*
X0042011D02*
X0042788D01*
X0040746D02*
X0041538D01*
X0038582D02*
X0039344D01*
X0037088D02*
X0037850D01*
X0035244D02*
X0036006D01*
X0033400D02*
X0034162D01*
X0047756Y0015456D02*
X0048518D01*
X0045562D02*
X0046369D01*
X0041995D02*
X0045074D01*
X0040746D02*
X0041538D01*
X0038582D02*
X0039344D01*
X0037088D02*
X0037850D01*
X0035244D02*
X0036006D01*
X0033400D02*
X0034162D01*
X0047756Y0015472D02*
X0048518D01*
X0045562D02*
X0046369D01*
X0041995D02*
X0045074D01*
X0040746D02*
X0041538D01*
X0038582D02*
X0039344D01*
X0037088D02*
X0037850D01*
X0035244D02*
X0036006D01*
X0033400D02*
X0034162D01*
X0047756Y0015487D02*
X0048518D01*
X0045562D02*
X0046354D01*
X0041995D02*
X0045074D01*
X0040746D02*
X0041538D01*
X0038582D02*
X0039344D01*
X0037088D02*
X0037850D01*
X0035244D02*
X0036006D01*
X0033400D02*
X0034162D01*
X0047756Y0015502D02*
X0048518D01*
X0045562D02*
X0046354D01*
X0041995D02*
X0045074D01*
X0040746D02*
X0041538D01*
X0038582D02*
X0039344D01*
X0037088D02*
X0037850D01*
X0035244D02*
X0036006D01*
X0033400D02*
X0034162D01*
X0047756Y0015517D02*
X0048518D01*
X0045562D02*
X0046354D01*
X0041995D02*
X0045089D01*
X0040746D02*
X0041538D01*
X0038582D02*
X0039344D01*
X0037088D02*
X0037850D01*
X0035244D02*
X0036006D01*
X0033400D02*
X0034162D01*
X0047756Y0015533D02*
X0048518D01*
X0045562D02*
X0046354D01*
X0041995D02*
X0045089D01*
X0040746D02*
X0041538D01*
X0038582D02*
X0039344D01*
X0037088D02*
X0037850D01*
X0035244D02*
X0036006D01*
X0033400D02*
X0034162D01*
X0047756Y0015548D02*
X0048518D01*
X0045562D02*
X0046354D01*
X0041995D02*
X0045089D01*
X0040746D02*
X0041538D01*
X0038582D02*
X0039344D01*
X0037088D02*
X0037850D01*
X0035244D02*
X0036006D01*
X0033400D02*
X0034162D01*
X0047756Y0015563D02*
X0048518D01*
X0045562D02*
X0046354D01*
X0041995D02*
X0045089D01*
X0040761D02*
X0041538D01*
X0038582D02*
X0039344D01*
X0037088D02*
X0037850D01*
X0035244D02*
X0036006D01*
X0033400D02*
X0034162D01*
X0047756Y0015578D02*
X0048518D01*
X0045562D02*
X0046354D01*
X0041995D02*
X0045089D01*
X0040761D02*
X0041538D01*
X0038582D02*
X0039344D01*
X0037088D02*
X0037850D01*
X0035244D02*
X0036006D01*
X0033400D02*
X0034162D01*
X0047756Y0015594D02*
X0048518D01*
X0045562D02*
X0046354D01*
X0041995D02*
X0045104D01*
X0040761D02*
X0041553D01*
X0038582D02*
X0039344D01*
X0037088D02*
X0037850D01*
X0035244D02*
X0036006D01*
X0033400D02*
X0034162D01*
X0047756Y0015609D02*
X0048518D01*
X0045562D02*
X0046354D01*
X0041995D02*
X0045104D01*
X0040761D02*
X0041553D01*
X0038582D02*
X0039344D01*
X0037088D02*
X0037850D01*
X0035244D02*
X0036006D01*
X0033400D02*
X0034162D01*
X0047756Y0015624D02*
X0048518D01*
X0045562D02*
X0046354D01*
X0041995D02*
X0045104D01*
X0040761D02*
X0041553D01*
X0038582D02*
X0039344D01*
X0037088D02*
X0037850D01*
X0035244D02*
X0036006D01*
X0033400D02*
X0034162D01*
X0047756Y0015639D02*
X0048518D01*
X0045562D02*
X0046354D01*
X0041995D02*
X0045104D01*
X0040761D02*
X0041553D01*
X0038582D02*
X0039344D01*
X0037088D02*
X0037850D01*
X0035244D02*
X0036006D01*
X0033400D02*
X0034162D01*
X0047756Y0015654D02*
X0048518D01*
X0045562D02*
X0046354D01*
X0041995D02*
X0045104D01*
X0040761D02*
X0041553D01*
X0038582D02*
X0039344D01*
X0037088D02*
X0037850D01*
X0035244D02*
X0036006D01*
X0033400D02*
X0034162D01*
X0047756Y0015670D02*
X0048518D01*
X0045562D02*
X0046354D01*
X0041995D02*
X0045104D01*
X0040761D02*
X0041553D01*
X0038582D02*
X0039344D01*
X0037088D02*
X0037850D01*
X0035244D02*
X0036006D01*
X0033400D02*
X0034162D01*
X0047756Y0015685D02*
X0048518D01*
X0045562D02*
X0046354D01*
X0041995D02*
X0045120D01*
X0040761D02*
X0041553D01*
X0038582D02*
X0039344D01*
X0037088D02*
X0037850D01*
X0035244D02*
X0036006D01*
X0033400D02*
X0034162D01*
X0047756Y0015700D02*
X0048518D01*
X0045562D02*
X0046354D01*
X0041995D02*
X0045120D01*
X0040761D02*
X0041553D01*
X0038582D02*
X0039344D01*
X0037088D02*
X0037850D01*
X0035244D02*
X0036006D01*
X0033400D02*
X0034162D01*
X0047756Y0015715D02*
X0048518D01*
X0045562D02*
X0046354D01*
X0041995D02*
X0045120D01*
X0040761D02*
X0041553D01*
X0038582D02*
X0039344D01*
X0037088D02*
X0037850D01*
X0035244D02*
X0036006D01*
X0033400D02*
X0034162D01*
X0047756Y0015731D02*
X0048518D01*
X0045562D02*
X0046354D01*
X0041995D02*
X0045120D01*
X0040761D02*
X0041553D01*
X0038582D02*
X0039344D01*
X0037088D02*
X0037850D01*
X0035244D02*
X0036006D01*
X0033400D02*
X0034162D01*
X0047756Y0015746D02*
X0048518D01*
X0045562D02*
X0046354D01*
X0041995D02*
X0045120D01*
X0040761D02*
X0041553D01*
X0038582D02*
X0039344D01*
X0037088D02*
X0037850D01*
X0035244D02*
X0036006D01*
X0033400D02*
X0034162D01*
X0047756Y0015761D02*
X0048518D01*
X0045562D02*
X0046354D01*
X0041995D02*
X0045120D01*
X0040761D02*
X0041553D01*
X0038582D02*
X0039344D01*
X0037088D02*
X0037850D01*
X0035244D02*
X0036006D01*
X0033400D02*
X0034162D01*
X0047756Y0015776D02*
X0048518D01*
X0045562D02*
X0046354D01*
X0041995D02*
X0045120D01*
X0040761D02*
X0041553D01*
X0038582D02*
X0039344D01*
X0037088D02*
X0037850D01*
X0035244D02*
X0036006D01*
X0033400D02*
X0034162D01*
X0047756Y0015792D02*
X0048518D01*
X0045562D02*
X0046354D01*
X0041995D02*
X0045135D01*
X0040761D02*
X0041553D01*
X0038582D02*
X0039344D01*
X0037088D02*
X0037850D01*
X0035244D02*
X0036006D01*
X0033400D02*
X0034162D01*
X0047756Y0015807D02*
X0048518D01*
X0045562D02*
X0046354D01*
X0041995D02*
X0045135D01*
X0040761D02*
X0041553D01*
X0038582D02*
X0039344D01*
X0037088D02*
X0037850D01*
X0035244D02*
X0036006D01*
X0033400D02*
X0034162D01*
X0047756Y0015822D02*
X0048518D01*
X0045562D02*
X0046354D01*
X0041995D02*
X0045135D01*
X0040761D02*
X0041553D01*
X0038582D02*
X0039344D01*
X0037088D02*
X0037850D01*
X0035244D02*
X0036006D01*
X0033400D02*
X0034162D01*
X0047756Y0015837D02*
X0048518D01*
X0045577D02*
X0046354D01*
X0041995D02*
X0045135D01*
X0040761D02*
X0041553D01*
X0038582D02*
X0039344D01*
X0037088D02*
X0037850D01*
X0035244D02*
X0036006D01*
X0033400D02*
X0034162D01*
X0047756Y0015853D02*
X0048518D01*
X0045577D02*
X0046369D01*
X0042011D02*
X0045135D01*
X0040761D02*
X0041553D01*
X0038582D02*
X0039344D01*
X0037088D02*
X0037850D01*
X0035244D02*
X0036006D01*
X0033400D02*
X0034162D01*
X0047756Y0015868D02*
X0048518D01*
X0045577D02*
X0046369D01*
X0042011D02*
X0045135D01*
X0040761D02*
X0041553D01*
X0038582D02*
X0039344D01*
X0037088D02*
X0037850D01*
X0035244D02*
X0036006D01*
X0033400D02*
X0034162D01*
X0047756Y0015883D02*
X0048518D01*
X0045577D02*
X0046369D01*
X0042011D02*
X0045135D01*
X0040761D02*
X0041553D01*
X0038582D02*
X0039344D01*
X0037088D02*
X0037850D01*
X0035244D02*
X0036006D01*
X0033400D02*
X0034162D01*
X0047756Y0015898D02*
X0048518D01*
X0045577D02*
X0046369D01*
X0042011D02*
X0045135D01*
X0040746D02*
X0041553D01*
X0038582D02*
X0039344D01*
X0037088D02*
X0037850D01*
X0035244D02*
X0036006D01*
X0033400D02*
X0034162D01*
X0047756Y0015914D02*
X0048518D01*
X0045577D02*
X0046369D01*
X0042011D02*
X0045135D01*
X0040746D02*
X0041553D01*
X0038582D02*
X0039344D01*
X0037088D02*
X0037850D01*
X0035244D02*
X0036006D01*
X0033400D02*
X0034162D01*
X0047756Y0015929D02*
X0048518D01*
X0045577D02*
X0046369D01*
X0042011D02*
X0045135D01*
X0040746D02*
X0041538D01*
X0038582D02*
X0039344D01*
X0037088D02*
X0037850D01*
X0035244D02*
X0036006D01*
X0033400D02*
X0034162D01*
X0047756Y0015944D02*
X0048518D01*
X0045577D02*
X0046369D01*
X0042011D02*
X0045135D01*
X0040746D02*
X0041538D01*
X0038582D02*
X0039344D01*
X0037088D02*
X0037850D01*
X0035244D02*
X0036006D01*
X0033400D02*
X0034162D01*
X0047756Y0015959D02*
X0048518D01*
X0045577D02*
X0046384D01*
X0042011D02*
X0045135D01*
X0040746D02*
X0041538D01*
X0038582D02*
X0039344D01*
X0037088D02*
X0037850D01*
X0035244D02*
X0036006D01*
X0033400D02*
X0034162D01*
X0047756Y0015975D02*
X0048518D01*
X0045592D02*
X0046384D01*
X0042026D02*
X0045135D01*
X0040746D02*
X0041538D01*
X0038582D02*
X0039344D01*
X0037088D02*
X0037850D01*
X0035244D02*
X0036006D01*
X0033400D02*
X0034162D01*
X0047756Y0015990D02*
X0048518D01*
X0045592D02*
X0046384D01*
X0042026D02*
X0045135D01*
X0040746D02*
X0041538D01*
X0038582D02*
X0039344D01*
X0037088D02*
X0037850D01*
X0035244D02*
X0036006D01*
X0033400D02*
X0034162D01*
X0047756Y0016005D02*
X0048518D01*
X0045592D02*
X0046384D01*
X0042026D02*
X0045135D01*
X0040746D02*
X0041538D01*
X0038582D02*
X0039344D01*
X0037088D02*
X0037850D01*
X0035244D02*
X0036006D01*
X0033400D02*
X0034162D01*
X0047756Y0016020D02*
X0048518D01*
X0045592D02*
X0046384D01*
X0042026D02*
X0045120D01*
X0040730D02*
X0041538D01*
X0038582D02*
X0039344D01*
X0037088D02*
X0037850D01*
X0035244D02*
X0036006D01*
X0033400D02*
X0034162D01*
X0047756Y0016035D02*
X0048518D01*
X0045592D02*
X0046400D01*
X0044373D02*
X0045120D01*
X0042026D02*
X0042818D01*
X0040730D02*
X0041538D01*
X0038582D02*
X0039344D01*
X0037088D02*
X0037850D01*
X0035244D02*
X0036006D01*
X0033400D02*
X0034162D01*
X0047756Y0016051D02*
X0048518D01*
X0045607D02*
X0046400D01*
X0044373D02*
X0045120D01*
X0042026D02*
X0042818D01*
X0040730D02*
X0041523D01*
X0038582D02*
X0039344D01*
X0037088D02*
X0037850D01*
X0035244D02*
X0036006D01*
X0033400D02*
X0034162D01*
X0047756Y0016066D02*
X0048518D01*
X0045607D02*
X0046400D01*
X0044373D02*
X0045120D01*
X0042041D02*
X0042834D01*
X0040730D02*
X0041523D01*
X0038582D02*
X0039344D01*
X0037088D02*
X0037850D01*
X0035244D02*
X0036006D01*
X0033400D02*
X0034162D01*
X0047756Y0016081D02*
X0048518D01*
X0045607D02*
X0046400D01*
X0044358D02*
X0045120D01*
X0042041D02*
X0042834D01*
X0040715D02*
X0041523D01*
X0038582D02*
X0039344D01*
X0037088D02*
X0037850D01*
X0035244D02*
X0036006D01*
X0033400D02*
X0034162D01*
X0047756Y0016096D02*
X0048518D01*
X0045607D02*
X0046415D01*
X0044358D02*
X0045120D01*
X0042041D02*
X0042834D01*
X0040715D02*
X0041523D01*
X0038582D02*
X0039344D01*
X0037088D02*
X0037850D01*
X0035244D02*
X0036006D01*
X0033400D02*
X0034162D01*
X0047756Y0016112D02*
X0048518D01*
X0045607D02*
X0046415D01*
X0044358D02*
X0045120D01*
X0042041D02*
X0042834D01*
X0040715D02*
X0041523D01*
X0038582D02*
X0039344D01*
X0037088D02*
X0037850D01*
X0035244D02*
X0036006D01*
X0033400D02*
X0034162D01*
X0047756Y0016127D02*
X0048518D01*
X0045622D02*
X0046415D01*
X0044358D02*
X0045120D01*
X0042056D02*
X0042849D01*
X0040715D02*
X0041523D01*
X0038582D02*
X0039344D01*
X0037088D02*
X0037850D01*
X0035244D02*
X0036006D01*
X0033400D02*
X0034162D01*
X0047756Y0016142D02*
X0048518D01*
X0045622D02*
X0046430D01*
X0044358D02*
X0045120D01*
X0042056D02*
X0042849D01*
X0040700D02*
X0041508D01*
X0038582D02*
X0039344D01*
X0037088D02*
X0037850D01*
X0035244D02*
X0036006D01*
X0033400D02*
X0034162D01*
X0047756Y0016157D02*
X0048518D01*
X0045622D02*
X0046430D01*
X0044342D02*
X0045104D01*
X0042056D02*
X0042849D01*
X0040700D02*
X0041508D01*
X0038582D02*
X0039344D01*
X0037088D02*
X0037850D01*
X0035244D02*
X0036006D01*
X0033400D02*
X0034162D01*
X0047756Y0016173D02*
X0048518D01*
X0045622D02*
X0046445D01*
X0044342D02*
X0045104D01*
X0042056D02*
X0042864D01*
X0040700D02*
X0041508D01*
X0038582D02*
X0039344D01*
X0037088D02*
X0037850D01*
X0035244D02*
X0036006D01*
X0033400D02*
X0034162D01*
X0047756Y0016188D02*
X0048518D01*
X0045622D02*
X0046445D01*
X0044342D02*
X0045104D01*
X0042056D02*
X0042864D01*
X0040685D02*
X0041508D01*
X0038582D02*
X0039344D01*
X0037088D02*
X0037850D01*
X0035244D02*
X0036006D01*
X0033400D02*
X0034162D01*
X0047756Y0016203D02*
X0048518D01*
X0045638D02*
X0046445D01*
X0044342D02*
X0045104D01*
X0042072D02*
X0042864D01*
X0040685D02*
X0041508D01*
X0038582D02*
X0039344D01*
X0037088D02*
X0037850D01*
X0035244D02*
X0036006D01*
X0033400D02*
X0034162D01*
X0047756Y0016218D02*
X0048518D01*
X0045638D02*
X0046461D01*
X0044327D02*
X0045104D01*
X0042072D02*
X0042879D01*
X0040685D02*
X0041492D01*
X0038582D02*
X0039344D01*
X0037073D02*
X0037850D01*
X0035244D02*
X0036006D01*
X0033400D02*
X0034162D01*
X0047756Y0016234D02*
X0048518D01*
X0045638D02*
X0046461D01*
X0044327D02*
X0045089D01*
X0042072D02*
X0042879D01*
X0040669D02*
X0041492D01*
X0038582D02*
X0039344D01*
X0037073D02*
X0037850D01*
X0035244D02*
X0036006D01*
X0033400D02*
X0034162D01*
X0047756Y0016249D02*
X0048518D01*
X0045653D02*
X0046476D01*
X0044327D02*
X0045089D01*
X0042087D02*
X0042895D01*
X0040669D02*
X0041492D01*
X0038582D02*
X0039344D01*
X0037073D02*
X0037850D01*
X0035244D02*
X0036006D01*
X0033400D02*
X0034162D01*
X0047756Y0016264D02*
X0048518D01*
X0045653D02*
X0046476D01*
X0044312D02*
X0045089D01*
X0042087D02*
X0042895D01*
X0040654D02*
X0041492D01*
X0038582D02*
X0039344D01*
X0037073D02*
X0037850D01*
X0035244D02*
X0036006D01*
X0033400D02*
X0034162D01*
X0047756Y0016279D02*
X0048518D01*
X0045653D02*
X0046491D01*
X0044312D02*
X0045089D01*
X0042087D02*
X0042910D01*
X0040654D02*
X0041477D01*
X0038582D02*
X0039344D01*
X0037073D02*
X0037850D01*
X0035244D02*
X0036006D01*
X0033400D02*
X0034162D01*
X0047756Y0016295D02*
X0048518D01*
X0045668D02*
X0046491D01*
X0044312D02*
X0045074D01*
X0042102D02*
X0042910D01*
X0040639D02*
X0041477D01*
X0038582D02*
X0039344D01*
X0037073D02*
X0037850D01*
X0035244D02*
X0036006D01*
X0033400D02*
X0034162D01*
X0047756Y0016310D02*
X0048518D01*
X0045668D02*
X0046506D01*
X0044297D02*
X0045074D01*
X0042102D02*
X0042925D01*
X0040639D02*
X0041477D01*
X0038582D02*
X0039344D01*
X0037058D02*
X0037850D01*
X0035229D02*
X0036006D01*
X0033400D02*
X0034162D01*
X0047756Y0016325D02*
X0048518D01*
X0045668D02*
X0046506D01*
X0044297D02*
X0045074D01*
X0042102D02*
X0042925D01*
X0040624D02*
X0041462D01*
X0038582D02*
X0039344D01*
X0037058D02*
X0037850D01*
X0035229D02*
X0036006D01*
X0033400D02*
X0034162D01*
X0047756Y0016340D02*
X0048518D01*
X0045683D02*
X0046522D01*
X0044281D02*
X0045074D01*
X0042117D02*
X0042940D01*
X0040624D02*
X0041462D01*
X0038582D02*
X0039344D01*
X0037058D02*
X0037850D01*
X0035229D02*
X0036006D01*
X0033400D02*
X0034162D01*
X0047756Y0016356D02*
X0048518D01*
X0045683D02*
X0046537D01*
X0044281D02*
X0045059D01*
X0042117D02*
X0042940D01*
X0040609D02*
X0041462D01*
X0038582D02*
X0039344D01*
X0037058D02*
X0037835D01*
X0035229D02*
X0036006D01*
X0033400D02*
X0034162D01*
X0047756Y0016371D02*
X0048518D01*
X0045683D02*
X0046537D01*
X0044266D02*
X0045059D01*
X0042133D02*
X0042955D01*
X0040593D02*
X0041447D01*
X0038582D02*
X0039344D01*
X0037042D02*
X0037835D01*
X0035214D02*
X0036006D01*
X0033400D02*
X0034162D01*
X0047756Y0016386D02*
X0048518D01*
X0045699D02*
X0046552D01*
X0044266D02*
X0045059D01*
X0042133D02*
X0042955D01*
X0040593D02*
X0041447D01*
X0038582D02*
X0039344D01*
X0037042D02*
X0037835D01*
X0035214D02*
X0036006D01*
X0033400D02*
X0034162D01*
X0047756Y0016401D02*
X0048518D01*
X0045699D02*
X0046567D01*
X0044251D02*
X0045043D01*
X0042133D02*
X0042971D01*
X0040578D02*
X0041447D01*
X0038582D02*
X0039344D01*
X0037042D02*
X0037835D01*
X0035214D02*
X0036021D01*
X0033400D02*
X0034177D01*
X0047756Y0016416D02*
X0048518D01*
X0045714D02*
X0046583D01*
X0044236D02*
X0045043D01*
X0042148D02*
X0042986D01*
X0040563D02*
X0041431D01*
X0038582D02*
X0039344D01*
X0037027D02*
X0037835D01*
X0035198D02*
X0036021D01*
X0033400D02*
X0034177D01*
X0047756Y0016432D02*
X0048518D01*
X0045714D02*
X0046583D01*
X0044236D02*
X0045043D01*
X0042148D02*
X0043001D01*
X0040548D02*
X0041431D01*
X0038582D02*
X0039344D01*
X0037027D02*
X0037835D01*
X0035198D02*
X0036037D01*
X0033400D02*
X0034192D01*
X0047756Y0016447D02*
X0048518D01*
X0045714D02*
X0046598D01*
X0044220D02*
X0045028D01*
X0042163D02*
X0043001D01*
X0040548D02*
X0041416D01*
X0038582D02*
X0039344D01*
X0037012D02*
X0037835D01*
X0035183D02*
X0036037D01*
X0033400D02*
X0034208D01*
X0047756Y0016462D02*
X0048518D01*
X0045729D02*
X0046613D01*
X0044205D02*
X0045028D01*
X0042163D02*
X0043016D01*
X0040532D02*
X0041416D01*
X0038582D02*
X0039344D01*
X0037012D02*
X0037835D01*
X0035183D02*
X0036052D01*
X0033400D02*
X0034223D01*
X0047756Y0016477D02*
X0048518D01*
X0045729D02*
X0046628D01*
X0044190D02*
X0045028D01*
X0042178D02*
X0043032D01*
X0040517D02*
X0041416D01*
X0038582D02*
X0039344D01*
X0036997D02*
X0037820D01*
X0035168D02*
X0036067D01*
X0033400D02*
X0034238D01*
X0047756Y0016493D02*
X0048518D01*
X0045744D02*
X0046644D01*
X0044190D02*
X0045013D01*
X0042178D02*
X0043047D01*
X0040502D02*
X0041401D01*
X0038582D02*
X0039344D01*
X0036997D02*
X0037820D01*
X0035168D02*
X0036082D01*
X0033400D02*
X0034253D01*
X0047756Y0016508D02*
X0048518D01*
X0045744D02*
X0046674D01*
X0044175D02*
X0045013D01*
X0042193D02*
X0043062D01*
X0040487D02*
X0041401D01*
X0038582D02*
X0039344D01*
X0036981D02*
X0037820D01*
X0035153D02*
X0036097D01*
X0033400D02*
X0034269D01*
X0047741Y0016523D02*
X0048518D01*
X0045760D02*
X0046689D01*
X0044144D02*
X0044998D01*
X0042193D02*
X0043077D01*
X0040456D02*
X0041386D01*
X0038582D02*
X0039344D01*
X0036966D02*
X0037820D01*
X0035137D02*
X0036113D01*
X0033400D02*
X0034284D01*
X0047726Y0016538D02*
X0048518D01*
X0045760D02*
X0046705D01*
X0044129D02*
X0044998D01*
X0042209D02*
X0043093D01*
X0040441D02*
X0041386D01*
X0038582D02*
X0039359D01*
X0036951D02*
X0037820D01*
X0035122D02*
X0036128D01*
X0033400D02*
X0034299D01*
X0047710Y0016554D02*
X0048518D01*
X0045775D02*
X0046720D01*
X0044114D02*
X0044982D01*
X0042209D02*
X0043108D01*
X0040426D02*
X0041371D01*
X0038582D02*
X0039374D01*
X0036951D02*
X0037804D01*
X0035107D02*
X0036143D01*
X0033400D02*
X0034314D01*
X0047680Y0016569D02*
X0048518D01*
X0045790D02*
X0046750D01*
X0044098D02*
X0044982D01*
X0042224D02*
X0043138D01*
X0040395D02*
X0041371D01*
X0038582D02*
X0039389D01*
X0036936D02*
X0037804D01*
X0035092D02*
X0036158D01*
X0033400D02*
X0034345D01*
X0047665Y0016584D02*
X0048518D01*
X0045790D02*
X0046781D01*
X0044083D02*
X0044967D01*
X0042239D02*
X0043154D01*
X0040365D02*
X0041355D01*
X0038582D02*
X0039420D01*
X0036920D02*
X0037804D01*
X0035076D02*
X0036189D01*
X0033400D02*
X0034360D01*
X0047634Y0016599D02*
X0048518D01*
X0045805D02*
X0046796D01*
X0044053D02*
X0044967D01*
X0042239D02*
X0043184D01*
X0040349D02*
X0041355D01*
X0038582D02*
X0039435D01*
X0036890D02*
X0037804D01*
X0035061D02*
X0036204D01*
X0033400D02*
X0034391D01*
X0047604Y0016615D02*
X0048518D01*
X0045805D02*
X0046826D01*
X0044022D02*
X0044952D01*
X0042254D02*
X0043215D01*
X0040304D02*
X0041340D01*
X0038582D02*
X0039466D01*
X0036875D02*
X0037789D01*
X0035046D02*
X0036235D01*
X0033400D02*
X0034421D01*
X0047573Y0016630D02*
X0048518D01*
X0045821D02*
X0046857D01*
X0043992D02*
X0044952D01*
X0042254D02*
X0043245D01*
X0040273D02*
X0041325D01*
X0038582D02*
X0039481D01*
X0036844D02*
X0037789D01*
X0035015D02*
X0036265D01*
X0033400D02*
X0034436D01*
X0047543Y0016645D02*
X0048518D01*
X0045836D02*
X0046903D01*
X0043961D02*
X0044937D01*
X0042270D02*
X0043276D01*
X0040243D02*
X0041325D01*
X0038582D02*
X0039526D01*
X0036814D02*
X0037789D01*
X0034985D02*
X0036280D01*
X0033400D02*
X0034467D01*
X0047512Y0016660D02*
X0048518D01*
X0045836D02*
X0046948D01*
X0043916D02*
X0044921D01*
X0042285D02*
X0043306D01*
X0040182D02*
X0041310D01*
X0038582D02*
X0039557D01*
X0036783D02*
X0037774D01*
X0034954D02*
X0036326D01*
X0033400D02*
X0034513D01*
X0047467Y0016676D02*
X0048518D01*
X0045851D02*
X0047009D01*
X0043855D02*
X0044921D01*
X0042300D02*
X0043367D01*
X0040121D02*
X0041310D01*
X0038582D02*
X0039603D01*
X0036753D02*
X0037774D01*
X0034909D02*
X0036357D01*
X0033400D02*
X0034543D01*
X0047406Y0016691D02*
X0048518D01*
X0045866D02*
X0047070D01*
X0043794D02*
X0044906D01*
X0042300D02*
X0043428D01*
X0040045D02*
X0041294D01*
X0038582D02*
X0039679D01*
X0036677D02*
X0037774D01*
X0034848D02*
X0036418D01*
X0033400D02*
X0034604D01*
X0045866Y0016706D02*
X0048518D01*
X0042315D02*
X0044906D01*
X0038582D02*
X0041279D01*
X0033400D02*
X0037759D01*
X0045882Y0016721D02*
X0048518D01*
X0042331D02*
X0044891D01*
X0038582D02*
X0041264D01*
X0033400D02*
X0037759D01*
X0045897Y0016737D02*
X0048518D01*
X0042331D02*
X0044876D01*
X0038582D02*
X0041264D01*
X0033400D02*
X0037743D01*
X0045897Y0016752D02*
X0048518D01*
X0042346D02*
X0044860D01*
X0038582D02*
X0041249D01*
X0033400D02*
X0037743D01*
X0045912Y0016767D02*
X0048518D01*
X0042361D02*
X0044860D01*
X0038582D02*
X0041233D01*
X0033400D02*
X0037743D01*
X0045927Y0016782D02*
X0048518D01*
X0042376D02*
X0044845D01*
X0038582D02*
X0041233D01*
X0033400D02*
X0037728D01*
X0045943Y0016797D02*
X0048518D01*
X0042392D02*
X0044830D01*
X0038582D02*
X0041218D01*
X0033400D02*
X0037728D01*
X0045958Y0016813D02*
X0048518D01*
X0042407D02*
X0044815D01*
X0038582D02*
X0041203D01*
X0033400D02*
X0037713D01*
X0045958Y0016828D02*
X0048518D01*
X0042422D02*
X0044815D01*
X0038582D02*
X0041188D01*
X0033400D02*
X0037713D01*
X0045973Y0016843D02*
X0048518D01*
X0042437D02*
X0044800D01*
X0038582D02*
X0041172D01*
X0033400D02*
X0037698D01*
X0045988Y0016858D02*
X0048518D01*
X0042453D02*
X0044784D01*
X0038582D02*
X0041157D01*
X0033400D02*
X0037682D01*
X0046003Y0016874D02*
X0048518D01*
X0042453D02*
X0044769D01*
X0038582D02*
X0041142D01*
X0033400D02*
X0037682D01*
X0046019Y0016889D02*
X0048518D01*
X0042468D02*
X0044754D01*
X0038582D02*
X0041127D01*
X0033400D02*
X0037667D01*
X0046034Y0016904D02*
X0048518D01*
X0042498D02*
X0044739D01*
X0038582D02*
X0041127D01*
X0033400D02*
X0037667D01*
X0046049Y0016919D02*
X0048518D01*
X0042514D02*
X0044723D01*
X0038582D02*
X0041096D01*
X0033400D02*
X0037652D01*
X0046064Y0016935D02*
X0048518D01*
X0042529D02*
X0044708D01*
X0038582D02*
X0041081D01*
X0033400D02*
X0037637D01*
X0046080Y0016950D02*
X0048518D01*
X0042544D02*
X0044693D01*
X0038582D02*
X0041066D01*
X0033400D02*
X0037621D01*
X0046095Y0016965D02*
X0048518D01*
X0042559D02*
X0044678D01*
X0038582D02*
X0041050D01*
X0033400D02*
X0037621D01*
X0046110Y0016980D02*
X0048518D01*
X0042574D02*
X0044662D01*
X0038582D02*
X0041035D01*
X0033400D02*
X0037606D01*
X0046125Y0016996D02*
X0048518D01*
X0042590D02*
X0044647D01*
X0038582D02*
X0041020D01*
X0033400D02*
X0037591D01*
X0046156Y0017011D02*
X0048518D01*
X0042605D02*
X0044617D01*
X0038582D02*
X0041005D01*
X0035838D02*
X0037576D01*
X0033400D02*
X0035823D01*
X0046171Y0017026D02*
X0048518D01*
X0042635D02*
X0044601D01*
X0038582D02*
X0040990D01*
X0035854D02*
X0037561D01*
X0034086D02*
X0035808D01*
X0033400D02*
X0034071D01*
X0046186Y0017041D02*
X0048518D01*
X0042651D02*
X0044586D01*
X0038582D02*
X0040959D01*
X0035869D02*
X0037545D01*
X0034101D02*
X0035777D01*
X0033400D02*
X0034055D01*
X0046202Y0017057D02*
X0048518D01*
X0042666D02*
X0044571D01*
X0038582D02*
X0040944D01*
X0035884D02*
X0037530D01*
X0034116D02*
X0035762D01*
X0033400D02*
X0034055D01*
X0046232Y0017072D02*
X0048518D01*
X0042696D02*
X0044540D01*
X0038582D02*
X0040929D01*
X0035899D02*
X0037515D01*
X0034132D02*
X0035747D01*
X0033400D02*
X0034040D01*
X0046247Y0017087D02*
X0048518D01*
X0042712D02*
X0044525D01*
X0038582D02*
X0040898D01*
X0035915D02*
X0037500D01*
X0034147D02*
X0035732D01*
X0033400D02*
X0034040D01*
X0046278Y0017102D02*
X0048518D01*
X0042742D02*
X0044495D01*
X0038582D02*
X0040883D01*
X0035945D02*
X0037484D01*
X0034162D02*
X0035716D01*
X0033400D02*
X0034025D01*
X0046293Y0017118D02*
X0048518D01*
X0042757D02*
X0044479D01*
X0038582D02*
X0040852D01*
X0035960D02*
X0037469D01*
X0034177D02*
X0035701D01*
X0033400D02*
X0034010D01*
X0046324Y0017133D02*
X0048518D01*
X0042788D02*
X0044449D01*
X0038582D02*
X0040837D01*
X0035976D02*
X0037439D01*
X0034192D02*
X0035671D01*
X0033400D02*
X0034010D01*
X0046339Y0017148D02*
X0048518D01*
X0042818D02*
X0044419D01*
X0038582D02*
X0040807D01*
X0036006D02*
X0037423D01*
X0034223D02*
X0035656D01*
X0033400D02*
X0033994D01*
X0046369Y0017163D02*
X0048518D01*
X0042834D02*
X0044403D01*
X0038582D02*
X0040776D01*
X0036037D02*
X0037408D01*
X0034238D02*
X0035625D01*
X0033400D02*
X0033994D01*
X0046400Y0017178D02*
X0048518D01*
X0042864D02*
X0044373D01*
X0039359D02*
X0040746D01*
X0038582D02*
X0039344D01*
X0036052D02*
X0037378D01*
X0034269D02*
X0035595D01*
X0033400D02*
X0033979D01*
X0046430Y0017194D02*
X0048518D01*
X0042895D02*
X0044342D01*
X0039389D02*
X0040715D01*
X0038582D02*
X0039344D01*
X0036082D02*
X0037347D01*
X0034284D02*
X0035579D01*
X0033400D02*
X0033979D01*
X0047756Y0017209D02*
X0048518D01*
X0046461D02*
X0047741D01*
X0042940D02*
X0044297D01*
X0039405D02*
X0040685D01*
X0038582D02*
X0039344D01*
X0036113D02*
X0037332D01*
X0034314D02*
X0035549D01*
X0033400D02*
X0033964D01*
X0047756Y0017224D02*
X0048518D01*
X0046491D02*
X0047710D01*
X0042971D02*
X0044266D01*
X0039435D02*
X0040654D01*
X0038582D02*
X0039344D01*
X0036143D02*
X0037301D01*
X0034345D02*
X0035518D01*
X0033400D02*
X0033964D01*
X0047756Y0017239D02*
X0048518D01*
X0046522D02*
X0047665D01*
X0043001D02*
X0044236D01*
X0039466D02*
X0040609D01*
X0038582D02*
X0039344D01*
X0036189D02*
X0037271D01*
X0034375D02*
X0035473D01*
X0033400D02*
X0033949D01*
X0047756Y0017255D02*
X0048518D01*
X0046567D02*
X0047634D01*
X0043047D02*
X0044190D01*
X0039511D02*
X0040563D01*
X0038582D02*
X0039344D01*
X0036219D02*
X0037225D01*
X0034406D02*
X0035442D01*
X0033400D02*
X0033933D01*
X0047756Y0017270D02*
X0048518D01*
X0046613D02*
X0047588D01*
X0043093D02*
X0044129D01*
X0039542D02*
X0040517D01*
X0038582D02*
X0039344D01*
X0036265D02*
X0037195D01*
X0034436D02*
X0035396D01*
X0033400D02*
X0033933D01*
X0047756Y0017285D02*
X0048518D01*
X0046659D02*
X0047543D01*
X0043138D02*
X0044083D01*
X0039587D02*
X0040471D01*
X0038582D02*
X0039344D01*
X0036311D02*
X0037149D01*
X0034482D02*
X0035351D01*
X0047756Y0017300D02*
X0048518D01*
X0046720D02*
X0047482D01*
X0043199D02*
X0044022D01*
X0039633D02*
X0040410D01*
X0038582D02*
X0039344D01*
X0036372D02*
X0037103D01*
X0034528D02*
X0035290D01*
X0047756Y0017316D02*
X0048518D01*
X0046781D02*
X0047421D01*
X0043260D02*
X0043946D01*
X0039709D02*
X0040334D01*
X0038582D02*
X0039344D01*
X0036433D02*
X0037027D01*
X0034589D02*
X0035214D01*
X0047756Y0017331D02*
X0048518D01*
X0046872D02*
X0047329D01*
X0043367D02*
X0043839D01*
X0039786D02*
X0040228D01*
X0038582D02*
X0039344D01*
X0036524D02*
X0036936D01*
X0034680D02*
X0035122D01*
X0047756Y0017346D02*
X0048518D01*
X0038582D02*
X0039344D01*
X0047756Y0017361D02*
X0048518D01*
X0038582D02*
X0039344D01*
X0047756Y0017377D02*
X0048518D01*
X0038582D02*
X0039344D01*
X0047756Y0017392D02*
X0048518D01*
X0038582D02*
X0039344D01*
X0047756Y0017407D02*
X0048518D01*
X0038582D02*
X0039344D01*
X0047756Y0017422D02*
X0048518D01*
X0038582D02*
X0039344D01*
X0047756Y0017438D02*
X0048518D01*
X0038582D02*
X0039344D01*
X0047756Y0017453D02*
X0048518D01*
X0038582D02*
X0039344D01*
X0047756Y0017468D02*
X0048518D01*
X0038582D02*
X0039344D01*
X0047756Y0017483D02*
X0048518D01*
X0038582D02*
X0039344D01*
X0047756Y0017499D02*
X0048518D01*
X0038582D02*
X0039344D01*
X0047756Y0017514D02*
X0048518D01*
X0038582D02*
X0039344D01*
X0047756Y0017529D02*
X0048518D01*
X0038582D02*
X0039344D01*
X0047756Y0017544D02*
X0048518D01*
X0038582D02*
X0039344D01*
X0047756Y0017559D02*
X0048518D01*
X0038582D02*
X0039344D01*
X0047756Y0017575D02*
X0048518D01*
X0038582D02*
X0039344D01*
X0047756Y0017590D02*
X0048518D01*
X0038582D02*
X0039344D01*
X0047756Y0017605D02*
X0048518D01*
X0038582D02*
X0039344D01*
X0047756Y0017620D02*
X0048518D01*
X0038582D02*
X0039344D01*
X0047756Y0017636D02*
X0048518D01*
X0038582D02*
X0039344D01*
X0047756Y0017651D02*
X0048518D01*
X0038582D02*
X0039344D01*
X0047756Y0017666D02*
X0048518D01*
X0038582D02*
X0039344D01*
X0047756Y0017681D02*
X0048518D01*
X0038582D02*
X0039344D01*
X0047756Y0017697D02*
X0048518D01*
X0038582D02*
X0039344D01*
X0047756Y0017712D02*
X0048518D01*
X0038582D02*
X0039344D01*
X0047756Y0017727D02*
X0048518D01*
X0038582D02*
X0039344D01*
X0047756Y0017742D02*
X0048518D01*
X0038582D02*
X0039344D01*
X0047756Y0017758D02*
X0048518D01*
X0038582D02*
X0039344D01*
X0047756Y0017773D02*
X0048518D01*
X0038582D02*
X0039344D01*
X0047756Y0017788D02*
X0048518D01*
X0038582D02*
X0039344D01*
X0047756Y0017803D02*
X0048518D01*
X0038582D02*
X0039344D01*
X0047756Y0017819D02*
X0048518D01*
X0038582D02*
X0039344D01*
X0047756Y0017834D02*
X0048518D01*
X0038582D02*
X0039344D01*
X0047756Y0017849D02*
X0048518D01*
X0038582D02*
X0039344D01*
X0047756Y0017864D02*
X0048518D01*
X0038582D02*
X0039344D01*
X0047756Y0017880D02*
X0048518D01*
X0038582D02*
X0039344D01*
X0047756Y0017895D02*
X0048518D01*
X0038582D02*
X0039344D01*
X0047756Y0017910D02*
X0048518D01*
X0038582D02*
X0039344D01*
X0047756Y0017925D02*
X0048518D01*
X0038582D02*
X0039344D01*
X0047756Y0017940D02*
X0048518D01*
X0038582D02*
X0039344D01*
X0047756Y0017956D02*
X0048518D01*
X0038582D02*
X0039344D01*
X0047756Y0017971D02*
X0048518D01*
X0038582D02*
X0039344D01*
X0047756Y0017986D02*
X0048518D01*
X0038582D02*
X0039344D01*
X0047756Y0018001D02*
X0048518D01*
X0038582D02*
X0039344D01*
X0047756Y0018017D02*
X0048518D01*
X0038582D02*
X0039344D01*
X0047756Y0018032D02*
X0048518D01*
X0038582D02*
X0039344D01*
X0047756Y0018047D02*
X0048518D01*
X0038582D02*
X0039344D01*
X0047756Y0018062D02*
X0048518D01*
X0038582D02*
X0039344D01*
X0047756Y0018078D02*
X0048518D01*
X0038582D02*
X0039344D01*
X0047756Y0018093D02*
X0048518D01*
X0038582D02*
X0039344D01*
X0047756Y0018108D02*
X0048518D01*
X0038582D02*
X0039344D01*
X0047756Y0018123D02*
X0048518D01*
X0038582D02*
X0039344D01*
X0047756Y0018139D02*
X0048518D01*
X0038582D02*
X0039344D01*
X0047756Y0018154D02*
X0048518D01*
X0038582D02*
X0039344D01*
X0047756Y0018169D02*
X0048518D01*
X0038582D02*
X0039344D01*
X0047756Y0018184D02*
X0048518D01*
X0038582D02*
X0039344D01*
X0047756Y0018200D02*
X0048518D01*
X0038582D02*
X0039344D01*
X0047756Y0018215D02*
X0048518D01*
X0038582D02*
X0039344D01*
X0047756Y0018230D02*
X0048518D01*
X0038582D02*
X0039344D01*
X0047756Y0018245D02*
X0048518D01*
X0038582D02*
X0039344D01*
X0047756Y0018261D02*
X0048518D01*
X0038582D02*
X0039344D01*
X0047756Y0018276D02*
X0048518D01*
X0038582D02*
X0039344D01*
X0047756Y0018291D02*
X0048518D01*
X0038582D02*
X0039344D01*
X0047756Y0018306D02*
X0048518D01*
X0038582D02*
X0039344D01*
X0047756Y0018321D02*
X0048518D01*
X0038582D02*
X0039344D01*
X0047756Y0018337D02*
X0048518D01*
X0038582D02*
X0039344D01*
X0047756Y0018352D02*
X0048518D01*
X0038582D02*
X0039344D01*
X0047756Y0018367D02*
X0048518D01*
X0038582D02*
X0039344D01*
X0047756Y0018382D02*
X0048518D01*
X0038582D02*
X0039344D01*
X0047756Y0018398D02*
X0048518D01*
X0038582D02*
X0039344D01*
X0047756Y0018413D02*
X0048518D01*
X0038582D02*
X0039344D01*
X0047756Y0018428D02*
X0048518D01*
X0038582D02*
X0039344D01*
X0047756Y0018443D02*
X0048518D01*
X0038582D02*
X0039344D01*
X0047756Y0018459D02*
X0048518D01*
X0038582D02*
X0039344D01*
X0047756Y0018474D02*
X0048518D01*
X0038582D02*
X0039344D01*
X0047802Y0018489D02*
X0048518D01*
X0038627D02*
X0039344D01*
X0047863Y0018504D02*
X0048518D01*
X0038688D02*
X0039344D01*
X0047924Y0018520D02*
X0048518D01*
X0038749D02*
X0039344D01*
X0048000Y0018535D02*
X0048518D01*
X0038825D02*
X0039344D01*
X0048061Y0018550D02*
X0048518D01*
X0038886D02*
X0039344D01*
X0048122Y0018565D02*
X0048518D01*
X0038947D02*
X0039344D01*
X0048183Y0018581D02*
X0048518D01*
X0039008D02*
X0039344D01*
X0048259Y0018596D02*
X0048518D01*
X0039085D02*
X0039344D01*
X0048320Y0018611D02*
X0048518D01*
X0039145D02*
X0039344D01*
X0048381Y0018626D02*
X0048518D01*
X0039206D02*
X0039344D01*
X0048442Y0018642D02*
X0048518D01*
X0039267D02*
X0039344D01*
D14*
X0010600Y0036647D02*
Y0038324D01*
Y0039975D02*
Y0040000D01*
X0010625Y0036647D02*
Y0038298D01*
Y0039949D02*
Y0040000D01*
X0010651Y0036647D02*
Y0038273D01*
Y0039924D02*
Y0040000D01*
X0010676Y0036647D02*
Y0038247D01*
Y0039873D02*
Y0040000D01*
X0010702Y0036647D02*
Y0038222D01*
Y0039848D02*
Y0040000D01*
X0010727Y0036647D02*
Y0038197D01*
Y0039822D02*
Y0040000D01*
X0010752Y0036647D02*
Y0038171D01*
Y0039771D02*
Y0040000D01*
X0010778Y0036647D02*
Y0038146D01*
Y0039746D02*
Y0040000D01*
X0010803Y0036647D02*
Y0038120D01*
Y0039721D02*
Y0040000D01*
X0010829Y0036647D02*
Y0038095D01*
Y0039695D02*
Y0040000D01*
X0010854Y0036647D02*
Y0038070D01*
Y0039644D02*
Y0040000D01*
X0010879Y0036647D02*
Y0038044D01*
Y0039619D02*
Y0040000D01*
X0010905Y0036647D02*
Y0038019D01*
Y0039594D02*
Y0040000D01*
X0010930Y0036647D02*
Y0037993D01*
Y0039543D02*
Y0040000D01*
X0010956Y0036647D02*
Y0037968D01*
Y0039517D02*
Y0040000D01*
X0010981Y0036647D02*
Y0037943D01*
Y0039492D02*
Y0040000D01*
X0011006Y0036647D02*
Y0037917D01*
Y0039467D02*
Y0040000D01*
X0011032Y0036647D02*
Y0037892D01*
Y0039416D02*
Y0040000D01*
X0011057Y0036647D02*
Y0037866D01*
Y0039390D02*
Y0040000D01*
X0011083Y0036647D02*
Y0037841D01*
Y0039365D02*
Y0040000D01*
X0011108Y0036647D02*
Y0037816D01*
Y0039340D02*
Y0040000D01*
X0011133Y0036647D02*
Y0037790D01*
Y0039314D02*
Y0040000D01*
X0011159Y0036647D02*
Y0037765D01*
Y0039263D02*
Y0040000D01*
X0011184Y0036647D02*
Y0037739D01*
Y0039238D02*
Y0040000D01*
X0011210Y0036647D02*
Y0037714D01*
Y0039213D02*
Y0040000D01*
X0011235Y0036647D02*
Y0037689D01*
Y0039187D02*
Y0040000D01*
X0011260Y0036647D02*
Y0037663D01*
Y0039162D02*
Y0040000D01*
X0011286Y0036647D02*
Y0037663D01*
Y0039111D02*
Y0040000D01*
X0011311Y0036647D02*
Y0037638D01*
Y0039086D02*
Y0040000D01*
X0011337Y0036647D02*
Y0037612D01*
Y0039060D02*
Y0040000D01*
X0011362Y0036647D02*
Y0037587D01*
Y0039035D02*
Y0040000D01*
X0011387Y0036647D02*
Y0037562D01*
Y0039009D02*
Y0040000D01*
X0011413Y0036647D02*
Y0037536D01*
Y0038984D02*
Y0040000D01*
X0011438Y0036647D02*
Y0037511D01*
Y0038959D02*
Y0040000D01*
X0011464Y0036647D02*
Y0037511D01*
Y0038908D02*
Y0040000D01*
X0011489Y0036647D02*
Y0037485D01*
Y0038882D02*
Y0040000D01*
X0011514Y0036647D02*
Y0037460D01*
Y0038857D02*
Y0040000D01*
X0011540Y0036647D02*
Y0037435D01*
Y0038832D02*
Y0040000D01*
X0011565Y0036647D02*
Y0037409D01*
Y0038806D02*
Y0040000D01*
X0011591Y0036647D02*
Y0037384D01*
Y0038781D02*
Y0040000D01*
X0011616Y0036647D02*
Y0037384D01*
Y0038755D02*
Y0040000D01*
X0011641Y0036647D02*
Y0037358D01*
Y0038730D02*
Y0040000D01*
X0011667Y0036647D02*
Y0037333D01*
Y0038679D02*
Y0040000D01*
X0011692Y0036647D02*
Y0037308D01*
Y0038654D02*
Y0040000D01*
X0011718Y0036647D02*
Y0037308D01*
Y0038628D02*
Y0040000D01*
X0011743Y0036647D02*
Y0037282D01*
Y0038603D02*
Y0040000D01*
X0011768Y0036647D02*
Y0037257D01*
Y0038578D02*
Y0040000D01*
X0011794Y0036647D02*
Y0037231D01*
Y0038552D02*
Y0040000D01*
X0011819Y0036647D02*
Y0037231D01*
Y0038527D02*
Y0040000D01*
X0011845Y0036647D02*
Y0037206D01*
Y0038501D02*
Y0040000D01*
X0011870Y0036647D02*
Y0037181D01*
Y0038476D02*
Y0040000D01*
X0011895Y0036647D02*
Y0037181D01*
Y0038451D02*
Y0040000D01*
X0011921Y0036647D02*
Y0037155D01*
Y0038425D02*
Y0040000D01*
X0011946Y0036647D02*
Y0037130D01*
Y0038400D02*
Y0040000D01*
X0011972Y0036647D02*
Y0037130D01*
Y0038374D02*
Y0040000D01*
X0011997Y0036647D02*
Y0037104D01*
Y0038349D02*
Y0040000D01*
X0012022Y0036647D02*
Y0037079D01*
Y0038324D02*
Y0040000D01*
X0012048Y0036647D02*
Y0037079D01*
Y0038298D02*
Y0040000D01*
X0012073Y0036647D02*
Y0037054D01*
Y0038273D02*
Y0040000D01*
X0012099Y0036647D02*
Y0037028D01*
Y0038247D02*
Y0040000D01*
X0012124Y0036647D02*
Y0037028D01*
Y0038222D02*
Y0040000D01*
X0012149Y0036647D02*
Y0037003D01*
Y0038197D02*
Y0040000D01*
X0012175Y0036647D02*
Y0037003D01*
Y0038171D02*
Y0040000D01*
X0012200Y0036647D02*
Y0036977D01*
Y0038146D02*
Y0040000D01*
X0012226Y0036647D02*
Y0036952D01*
Y0038120D02*
Y0040000D01*
X0012251Y0036647D02*
Y0036952D01*
Y0038095D02*
Y0040000D01*
X0012276Y0036647D02*
Y0036927D01*
Y0038070D02*
Y0040000D01*
X0012302Y0036647D02*
Y0036927D01*
Y0038044D02*
Y0040000D01*
X0012327Y0036647D02*
Y0036901D01*
Y0038019D02*
Y0040000D01*
X0012353Y0036647D02*
Y0036901D01*
Y0037993D02*
Y0040000D01*
X0012378Y0036647D02*
Y0036876D01*
Y0037968D02*
Y0040000D01*
X0012403Y0018842D02*
Y0019553D01*
Y0034310D02*
Y0034996D01*
Y0036647D02*
Y0036876D01*
Y0037943D02*
Y0040000D01*
X0012429Y0018588D02*
Y0019756D01*
Y0034056D02*
Y0035225D01*
Y0036647D02*
Y0036850D01*
Y0037917D02*
Y0040000D01*
X0012454Y0014600D02*
Y0015413D01*
Y0016708D02*
Y0017496D01*
Y0018410D02*
Y0019883D01*
Y0020975D02*
Y0023338D01*
Y0024633D02*
Y0025420D01*
Y0026716D02*
Y0027402D01*
Y0028189D02*
Y0028976D01*
Y0029789D02*
Y0030399D01*
Y0030704D02*
Y0033040D01*
Y0033904D02*
Y0035377D01*
Y0036647D02*
Y0036850D01*
Y0037892D02*
Y0040000D01*
X0012480Y0014600D02*
Y0015413D01*
Y0016708D02*
Y0017496D01*
Y0018308D02*
Y0019985D01*
Y0020975D02*
Y0023338D01*
Y0024633D02*
Y0025420D01*
Y0026716D02*
Y0027402D01*
Y0028189D02*
Y0028976D01*
Y0029789D02*
Y0030399D01*
Y0030704D02*
Y0033040D01*
Y0033802D02*
Y0035453D01*
Y0036647D02*
Y0036825D01*
Y0037892D02*
Y0040000D01*
X0012505Y0014600D02*
Y0015413D01*
Y0016708D02*
Y0017496D01*
Y0018207D02*
Y0020086D01*
Y0020975D02*
Y0023338D01*
Y0024633D02*
Y0025420D01*
Y0026716D02*
Y0027402D01*
Y0028164D02*
Y0029002D01*
Y0029789D02*
Y0030399D01*
Y0030704D02*
Y0033040D01*
Y0033726D02*
Y0035530D01*
Y0036647D02*
Y0036825D01*
Y0037866D02*
Y0040000D01*
X0012530Y0014600D02*
Y0015413D01*
Y0016708D02*
Y0017496D01*
Y0018131D02*
Y0020163D01*
Y0020975D02*
Y0023338D01*
Y0024633D02*
Y0025420D01*
Y0026716D02*
Y0027402D01*
Y0028164D02*
Y0029002D01*
Y0029789D02*
Y0030399D01*
Y0030704D02*
Y0033040D01*
Y0033650D02*
Y0035606D01*
Y0036647D02*
Y0036800D01*
Y0037841D02*
Y0040000D01*
X0012556Y0014600D02*
Y0015413D01*
Y0016708D02*
Y0017496D01*
Y0018080D02*
Y0020213D01*
Y0020975D02*
Y0023338D01*
Y0024633D02*
Y0025420D01*
Y0026716D02*
Y0027402D01*
Y0028138D02*
Y0029027D01*
Y0029789D02*
Y0030399D01*
Y0030704D02*
Y0033040D01*
Y0033599D02*
Y0035657D01*
Y0036647D02*
Y0036800D01*
Y0037816D02*
Y0040000D01*
X0012581Y0014600D02*
Y0015413D01*
Y0016708D02*
Y0017496D01*
Y0018029D02*
Y0020264D01*
Y0020975D02*
Y0023338D01*
Y0024633D02*
Y0025420D01*
Y0026716D02*
Y0027402D01*
Y0028138D02*
Y0029053D01*
Y0029789D02*
Y0030399D01*
Y0030704D02*
Y0033040D01*
Y0033548D02*
Y0035707D01*
Y0036647D02*
Y0036800D01*
Y0037790D02*
Y0040000D01*
X0012607Y0014600D02*
Y0015413D01*
Y0016708D02*
Y0017496D01*
Y0017978D02*
Y0020315D01*
Y0020975D02*
Y0023338D01*
Y0024633D02*
Y0025420D01*
Y0026716D02*
Y0027402D01*
Y0028113D02*
Y0029053D01*
Y0029789D02*
Y0030399D01*
Y0030704D02*
Y0033040D01*
Y0033498D02*
Y0035733D01*
Y0036647D02*
Y0036774D01*
Y0037790D02*
Y0040000D01*
X0012632Y0014600D02*
Y0015413D01*
Y0016708D02*
Y0017496D01*
Y0017953D02*
Y0020366D01*
Y0020975D02*
Y0023338D01*
Y0024633D02*
Y0025420D01*
Y0026716D02*
Y0027402D01*
Y0028087D02*
Y0029078D01*
Y0029789D02*
Y0030399D01*
Y0030704D02*
Y0033040D01*
Y0033472D02*
Y0035758D01*
Y0036647D02*
Y0036774D01*
Y0037765D02*
Y0040000D01*
X0012657Y0014600D02*
Y0015413D01*
Y0016708D02*
Y0017496D01*
Y0017902D02*
Y0020391D01*
Y0020975D02*
Y0023338D01*
Y0024633D02*
Y0025420D01*
Y0026716D02*
Y0027402D01*
Y0028087D02*
Y0029078D01*
Y0029789D02*
Y0030399D01*
Y0030704D02*
Y0033040D01*
Y0033421D02*
Y0035784D01*
Y0036647D02*
Y0036749D01*
Y0037739D02*
Y0040000D01*
X0012683Y0014600D02*
Y0015413D01*
Y0016708D02*
Y0017496D01*
Y0017877D02*
Y0020442D01*
Y0020975D02*
Y0023338D01*
Y0024633D02*
Y0025420D01*
Y0026716D02*
Y0027402D01*
Y0028062D02*
Y0029103D01*
Y0029789D02*
Y0030399D01*
Y0030704D02*
Y0033040D01*
Y0033396D02*
Y0035809D01*
Y0036647D02*
Y0036749D01*
Y0037714D02*
Y0040000D01*
X0012708Y0014600D02*
Y0015413D01*
Y0016708D02*
Y0017496D01*
Y0017851D02*
Y0020467D01*
Y0020975D02*
Y0023338D01*
Y0024633D02*
Y0025420D01*
Y0026716D02*
Y0027402D01*
Y0028062D02*
Y0029129D01*
Y0029789D02*
Y0030399D01*
Y0030704D02*
Y0033040D01*
Y0033371D02*
Y0035834D01*
Y0036647D02*
Y0036749D01*
Y0037714D02*
Y0040000D01*
X0012734Y0014600D02*
Y0015413D01*
Y0016708D02*
Y0017496D01*
Y0017826D02*
Y0020493D01*
Y0020975D02*
Y0023338D01*
Y0024633D02*
Y0025420D01*
Y0026716D02*
Y0027402D01*
Y0028037D02*
Y0029129D01*
Y0029789D02*
Y0030399D01*
Y0030704D02*
Y0033040D01*
Y0033371D02*
Y0034590D01*
Y0034615D02*
Y0035860D01*
Y0036647D02*
Y0036723D01*
Y0037689D02*
Y0040000D01*
X0012759Y0014600D02*
Y0015413D01*
Y0016708D02*
Y0017496D01*
Y0017800D02*
Y0019045D01*
Y0019299D02*
Y0020518D01*
Y0020975D02*
Y0023338D01*
Y0024633D02*
Y0025420D01*
Y0026716D02*
Y0027402D01*
Y0028037D02*
Y0029154D01*
Y0029789D02*
Y0030399D01*
Y0030704D02*
Y0033040D01*
Y0033345D02*
Y0034310D01*
Y0034920D02*
Y0035860D01*
Y0036647D02*
Y0036723D01*
Y0037689D02*
Y0040000D01*
X0012784Y0014600D02*
Y0015413D01*
Y0016708D02*
Y0017496D01*
Y0017775D02*
Y0018867D01*
Y0019451D02*
Y0020544D01*
Y0020975D02*
Y0023338D01*
Y0024633D02*
Y0025420D01*
Y0026716D02*
Y0027402D01*
Y0028011D02*
Y0029154D01*
Y0029789D02*
Y0030399D01*
Y0030704D02*
Y0033040D01*
Y0033320D02*
Y0034209D01*
Y0034996D02*
Y0035885D01*
Y0036647D02*
Y0036723D01*
Y0037663D02*
Y0040000D01*
X0012810Y0014600D02*
Y0015413D01*
Y0016708D02*
Y0017496D01*
Y0017775D02*
Y0018766D01*
Y0019553D02*
Y0020569D01*
Y0022550D02*
Y0023338D01*
Y0024633D02*
Y0025420D01*
Y0026716D02*
Y0027402D01*
Y0027986D02*
Y0029180D01*
Y0029789D02*
Y0030399D01*
Y0032253D02*
Y0033040D01*
Y0033320D02*
Y0034158D01*
Y0035047D02*
Y0035885D01*
Y0036647D02*
Y0036723D01*
Y0037663D02*
Y0040000D01*
X0012835Y0014600D02*
Y0015413D01*
Y0016708D02*
Y0017496D01*
Y0017750D02*
Y0018715D01*
Y0019604D02*
Y0020594D01*
Y0022550D02*
Y0023338D01*
Y0024633D02*
Y0025420D01*
Y0026716D02*
Y0027402D01*
Y0027986D02*
Y0029180D01*
Y0029789D02*
Y0030399D01*
Y0032253D02*
Y0033040D01*
Y0033320D02*
Y0034107D01*
Y0035072D02*
Y0035911D01*
Y0036647D02*
Y0036698D01*
Y0037638D02*
Y0040000D01*
X0012861Y0014600D02*
Y0015413D01*
Y0016708D02*
Y0017496D01*
Y0017750D02*
Y0018664D01*
Y0019655D02*
Y0020620D01*
Y0022550D02*
Y0023338D01*
Y0024633D02*
Y0025420D01*
Y0026716D02*
Y0027402D01*
Y0027960D02*
Y0029205D01*
Y0029789D02*
Y0030399D01*
Y0032253D02*
Y0033040D01*
Y0033294D02*
Y0034082D01*
Y0035098D02*
Y0035911D01*
Y0036647D02*
Y0036698D01*
Y0037638D02*
Y0040000D01*
X0012886Y0014600D02*
Y0015413D01*
Y0016708D02*
Y0017496D01*
Y0017724D02*
Y0018639D01*
Y0019705D02*
Y0020645D01*
Y0022550D02*
Y0023338D01*
Y0024633D02*
Y0025420D01*
Y0026716D02*
Y0027402D01*
Y0027960D02*
Y0029230D01*
Y0029789D02*
Y0030399D01*
Y0032253D02*
Y0033040D01*
Y0033294D02*
Y0034082D01*
Y0035123D02*
Y0035911D01*
Y0036647D02*
Y0036698D01*
Y0037638D02*
Y0040000D01*
X0012911Y0014600D02*
Y0015413D01*
Y0016708D02*
Y0017496D01*
Y0017724D02*
Y0018613D01*
Y0019731D02*
Y0020645D01*
Y0022550D02*
Y0023338D01*
Y0024633D02*
Y0025420D01*
Y0026716D02*
Y0027402D01*
Y0027935D02*
Y0028545D01*
Y0028570D02*
Y0029230D01*
Y0029789D02*
Y0030399D01*
Y0032253D02*
Y0033040D01*
Y0033294D02*
Y0034082D01*
Y0035123D02*
Y0035911D01*
Y0036647D02*
Y0036698D01*
Y0037638D02*
Y0040000D01*
X0012937Y0014600D02*
Y0015413D01*
Y0016708D02*
Y0017496D01*
Y0017724D02*
Y0018588D01*
Y0019756D02*
Y0020671D01*
Y0022550D02*
Y0023338D01*
Y0024633D02*
Y0025420D01*
Y0026716D02*
Y0027402D01*
Y0027935D02*
Y0028519D01*
Y0028570D02*
Y0029256D01*
Y0029789D02*
Y0030399D01*
Y0032253D02*
Y0033040D01*
Y0033294D02*
Y0034082D01*
Y0035123D02*
Y0035911D01*
Y0036647D02*
Y0036698D01*
Y0037612D02*
Y0040000D01*
X0012962Y0014600D02*
Y0015413D01*
Y0016708D02*
Y0017496D01*
Y0017724D02*
Y0018588D01*
Y0019782D02*
Y0020671D01*
Y0022550D02*
Y0023338D01*
Y0024633D02*
Y0025420D01*
Y0026716D02*
Y0027402D01*
Y0027910D02*
Y0028519D01*
Y0028595D02*
Y0029256D01*
Y0029789D02*
Y0030399D01*
Y0032253D02*
Y0033040D01*
Y0033294D02*
Y0034082D01*
Y0035123D02*
Y0035936D01*
Y0036647D02*
Y0036673D01*
Y0037612D02*
Y0040000D01*
X0012988Y0014600D02*
Y0015413D01*
Y0016708D02*
Y0017496D01*
Y0017699D02*
Y0018562D01*
Y0019807D02*
Y0020696D01*
Y0022550D02*
Y0023338D01*
Y0024633D02*
Y0025420D01*
Y0026716D02*
Y0027402D01*
Y0027884D02*
Y0028494D01*
Y0028621D02*
Y0029281D01*
Y0029789D02*
Y0030399D01*
Y0032253D02*
Y0033040D01*
Y0033294D02*
Y0034107D01*
Y0035149D02*
Y0035936D01*
Y0036647D02*
Y0036673D01*
Y0037612D02*
Y0040000D01*
X0013013Y0014600D02*
Y0015413D01*
Y0016708D02*
Y0017496D01*
Y0017699D02*
Y0018562D01*
Y0019832D02*
Y0020696D01*
Y0022550D02*
Y0023338D01*
Y0024633D02*
Y0025420D01*
Y0026716D02*
Y0027402D01*
Y0027884D02*
Y0028494D01*
Y0028621D02*
Y0029281D01*
Y0029789D02*
Y0030399D01*
Y0032253D02*
Y0033040D01*
Y0033294D02*
Y0034158D01*
Y0036647D02*
Y0036673D01*
Y0037612D02*
Y0040000D01*
X0013038Y0014600D02*
Y0015413D01*
Y0016708D02*
Y0017496D01*
Y0019858D02*
Y0020721D01*
Y0022550D02*
Y0023338D01*
Y0024633D02*
Y0025420D01*
Y0026716D02*
Y0027402D01*
Y0027859D02*
Y0028468D01*
Y0028646D02*
Y0029307D01*
Y0029789D02*
Y0030399D01*
Y0032253D02*
Y0033040D01*
Y0033294D02*
Y0034209D01*
Y0036647D02*
Y0036673D01*
Y0037612D02*
Y0040000D01*
X0013064Y0014600D02*
Y0015413D01*
Y0016708D02*
Y0017496D01*
Y0019858D02*
Y0020721D01*
Y0022550D02*
Y0023338D01*
Y0024633D02*
Y0025420D01*
Y0026716D02*
Y0027402D01*
Y0027859D02*
Y0028443D01*
Y0028646D02*
Y0029332D01*
Y0029789D02*
Y0030399D01*
Y0032253D02*
Y0033040D01*
Y0033294D02*
Y0034310D01*
Y0037612D02*
Y0040000D01*
X0013089Y0014600D02*
Y0015413D01*
Y0016708D02*
Y0017496D01*
Y0019883D02*
Y0020721D01*
Y0022550D02*
Y0023338D01*
Y0024633D02*
Y0025420D01*
Y0026716D02*
Y0027402D01*
Y0027833D02*
Y0028443D01*
Y0028672D02*
Y0029332D01*
Y0029789D02*
Y0030399D01*
Y0032253D02*
Y0033040D01*
Y0033320D02*
Y0034437D01*
Y0037612D02*
Y0040000D01*
X0013115Y0014600D02*
Y0015413D01*
Y0016708D02*
Y0017496D01*
Y0019883D02*
Y0020747D01*
Y0022550D02*
Y0023338D01*
Y0024633D02*
Y0025420D01*
Y0026716D02*
Y0027402D01*
Y0027808D02*
Y0028418D01*
Y0028672D02*
Y0029357D01*
Y0029789D02*
Y0030399D01*
Y0032253D02*
Y0033040D01*
Y0033320D02*
Y0034641D01*
Y0037612D02*
Y0040000D01*
X0013140Y0014600D02*
Y0017496D01*
Y0019883D02*
Y0020747D01*
Y0021102D02*
Y0023338D01*
Y0024633D02*
Y0025420D01*
Y0026716D02*
Y0027402D01*
Y0027808D02*
Y0028418D01*
Y0028697D02*
Y0029357D01*
Y0029789D02*
Y0030399D01*
Y0030831D02*
Y0033040D01*
Y0033320D02*
Y0034844D01*
Y0037612D02*
Y0040000D01*
X0013165Y0014600D02*
Y0017496D01*
Y0019909D02*
Y0020747D01*
Y0021102D02*
Y0023338D01*
Y0024633D02*
Y0025420D01*
Y0026716D02*
Y0027402D01*
Y0027783D02*
Y0028392D01*
Y0028697D02*
Y0029383D01*
Y0029789D02*
Y0030399D01*
Y0030805D02*
Y0033040D01*
Y0033345D02*
Y0035047D01*
Y0037638D02*
Y0040000D01*
X0013191Y0014600D02*
Y0017496D01*
Y0019909D02*
Y0020747D01*
Y0021102D02*
Y0023338D01*
Y0024633D02*
Y0025420D01*
Y0026716D02*
Y0027402D01*
Y0027783D02*
Y0028367D01*
Y0028722D02*
Y0029408D01*
Y0029789D02*
Y0030399D01*
Y0030805D02*
Y0033040D01*
Y0033371D02*
Y0035199D01*
Y0037638D02*
Y0040000D01*
X0013216Y0014600D02*
Y0017496D01*
Y0019909D02*
Y0020747D01*
Y0021102D02*
Y0023338D01*
Y0024633D02*
Y0025420D01*
Y0026716D02*
Y0027402D01*
Y0027757D02*
Y0028367D01*
Y0028748D02*
Y0029408D01*
Y0029789D02*
Y0030399D01*
Y0030805D02*
Y0033040D01*
Y0033396D02*
Y0035326D01*
Y0037638D02*
Y0040000D01*
X0013242Y0014600D02*
Y0017496D01*
Y0019909D02*
Y0020747D01*
Y0021102D02*
Y0023338D01*
Y0024633D02*
Y0025420D01*
Y0026716D02*
Y0027402D01*
Y0027757D02*
Y0028341D01*
Y0028748D02*
Y0029434D01*
Y0029789D02*
Y0030399D01*
Y0030805D02*
Y0033040D01*
Y0033421D02*
Y0035428D01*
Y0037638D02*
Y0040000D01*
X0013267Y0014600D02*
Y0017496D01*
Y0019934D02*
Y0020747D01*
Y0021102D02*
Y0023338D01*
Y0024633D02*
Y0025420D01*
Y0026716D02*
Y0027402D01*
Y0027732D02*
Y0028341D01*
Y0028773D02*
Y0029434D01*
Y0029789D02*
Y0030399D01*
Y0030805D02*
Y0033040D01*
Y0033447D02*
Y0035504D01*
Y0037663D02*
Y0040000D01*
X0013292Y0014600D02*
Y0017496D01*
Y0019934D02*
Y0020747D01*
Y0021102D02*
Y0023338D01*
Y0024633D02*
Y0025420D01*
Y0026716D02*
Y0027402D01*
Y0027706D02*
Y0028316D01*
Y0028773D02*
Y0029459D01*
Y0029789D02*
Y0030399D01*
Y0030805D02*
Y0033040D01*
Y0033472D02*
Y0035580D01*
Y0037663D02*
Y0040000D01*
X0013318Y0014600D02*
Y0017496D01*
Y0019934D02*
Y0020747D01*
Y0021102D02*
Y0023338D01*
Y0024633D02*
Y0025420D01*
Y0026716D02*
Y0027402D01*
Y0027706D02*
Y0028291D01*
Y0028799D02*
Y0029459D01*
Y0029789D02*
Y0030399D01*
Y0030805D02*
Y0033040D01*
Y0033523D02*
Y0035631D01*
Y0037689D02*
Y0040000D01*
X0013343Y0014600D02*
Y0017496D01*
Y0019934D02*
Y0020747D01*
Y0021102D02*
Y0023338D01*
Y0024633D02*
Y0025420D01*
Y0026716D02*
Y0027402D01*
Y0027681D02*
Y0028291D01*
Y0028799D02*
Y0029484D01*
Y0029789D02*
Y0030399D01*
Y0030805D02*
Y0033040D01*
Y0033574D02*
Y0035682D01*
Y0037689D02*
Y0040000D01*
X0013369Y0014600D02*
Y0017496D01*
Y0019934D02*
Y0020747D01*
Y0021102D02*
Y0023338D01*
Y0024633D02*
Y0025420D01*
Y0026716D02*
Y0027402D01*
Y0027681D02*
Y0028265D01*
Y0028824D02*
Y0029510D01*
Y0029789D02*
Y0030399D01*
Y0030805D02*
Y0033040D01*
Y0033650D02*
Y0035707D01*
Y0037714D02*
Y0040000D01*
X0013394Y0014600D02*
Y0017496D01*
Y0019909D02*
Y0020747D01*
Y0021102D02*
Y0023338D01*
Y0024633D02*
Y0025420D01*
Y0026716D02*
Y0027402D01*
Y0027656D02*
Y0028265D01*
Y0028849D02*
Y0029510D01*
Y0029789D02*
Y0030399D01*
Y0030805D02*
Y0033040D01*
Y0033726D02*
Y0035733D01*
Y0037739D02*
Y0040000D01*
X0013419Y0014600D02*
Y0017496D01*
Y0019909D02*
Y0020747D01*
Y0021102D02*
Y0023338D01*
Y0024633D02*
Y0025420D01*
Y0026716D02*
Y0027402D01*
Y0027656D02*
Y0028240D01*
Y0028849D02*
Y0029535D01*
Y0029789D02*
Y0030399D01*
Y0030805D02*
Y0033040D01*
Y0033828D02*
Y0035784D01*
Y0037765D02*
Y0040000D01*
X0013445Y0014600D02*
Y0017496D01*
Y0019909D02*
Y0020747D01*
Y0021102D02*
Y0023338D01*
Y0024633D02*
Y0025420D01*
Y0026716D02*
Y0027402D01*
Y0027630D02*
Y0028214D01*
Y0028875D02*
Y0029535D01*
Y0029789D02*
Y0030399D01*
Y0030805D02*
Y0033040D01*
Y0033955D02*
Y0035784D01*
Y0037790D02*
Y0040000D01*
X0013470Y0014600D02*
Y0017496D01*
Y0019909D02*
Y0020747D01*
Y0021102D02*
Y0023338D01*
Y0024633D02*
Y0025420D01*
Y0026716D02*
Y0027402D01*
Y0027605D02*
Y0028214D01*
Y0028875D02*
Y0029561D01*
Y0029789D02*
Y0030399D01*
Y0030805D02*
Y0033040D01*
Y0034107D02*
Y0035809D01*
Y0037816D02*
Y0040000D01*
X0013496Y0014600D02*
Y0015413D01*
Y0016708D02*
Y0017496D01*
Y0019883D02*
Y0020747D01*
Y0021102D02*
Y0023338D01*
Y0024633D02*
Y0025420D01*
Y0026716D02*
Y0027402D01*
Y0027605D02*
Y0028189D01*
Y0028900D02*
Y0029561D01*
Y0029789D02*
Y0030399D01*
Y0030805D02*
Y0033040D01*
Y0034285D02*
Y0035834D01*
Y0037866D02*
Y0040000D01*
X0013521Y0014600D02*
Y0015413D01*
Y0016708D02*
Y0017496D01*
Y0019883D02*
Y0020721D01*
Y0022550D02*
Y0023338D01*
Y0024633D02*
Y0025420D01*
Y0026716D02*
Y0027402D01*
Y0027579D02*
Y0028189D01*
Y0028900D02*
Y0029586D01*
Y0029789D02*
Y0030399D01*
Y0032253D02*
Y0033040D01*
Y0034488D02*
Y0035834D01*
Y0037892D02*
Y0040000D01*
X0013546Y0014600D02*
Y0015413D01*
Y0016708D02*
Y0017496D01*
Y0019883D02*
Y0020721D01*
Y0022550D02*
Y0023338D01*
Y0024633D02*
Y0025420D01*
Y0026716D02*
Y0027402D01*
Y0027579D02*
Y0028164D01*
Y0028926D02*
Y0029611D01*
Y0029789D02*
Y0030399D01*
Y0032253D02*
Y0033040D01*
Y0034666D02*
Y0035860D01*
Y0037943D02*
Y0040000D01*
X0013572Y0014600D02*
Y0015413D01*
Y0016708D02*
Y0017496D01*
Y0019858D02*
Y0020721D01*
Y0022550D02*
Y0023338D01*
Y0024633D02*
Y0025420D01*
Y0026716D02*
Y0027402D01*
Y0027554D02*
Y0028138D01*
Y0028951D02*
Y0029611D01*
Y0029789D02*
Y0030399D01*
Y0032253D02*
Y0033040D01*
Y0034818D02*
Y0035860D01*
Y0037993D02*
Y0040000D01*
X0013597Y0014600D02*
Y0015413D01*
Y0016708D02*
Y0017496D01*
Y0019832D02*
Y0020696D01*
Y0022550D02*
Y0023338D01*
Y0024633D02*
Y0025420D01*
Y0026716D02*
Y0027402D01*
Y0027554D02*
Y0028138D01*
Y0028951D02*
Y0029637D01*
Y0029789D02*
Y0030399D01*
Y0032253D02*
Y0033040D01*
Y0034945D02*
Y0035860D01*
Y0036647D02*
Y0036673D01*
Y0038070D02*
Y0040000D01*
X0013623Y0014600D02*
Y0015413D01*
Y0016708D02*
Y0017496D01*
Y0017724D02*
Y0018562D01*
Y0019832D02*
Y0020696D01*
Y0022550D02*
Y0023338D01*
Y0024633D02*
Y0025420D01*
Y0026716D02*
Y0027402D01*
Y0027529D02*
Y0028113D01*
Y0028976D02*
Y0029637D01*
Y0029789D02*
Y0030399D01*
Y0032253D02*
Y0033040D01*
Y0034996D02*
Y0035860D01*
Y0036647D02*
Y0036673D01*
Y0038146D02*
Y0040000D01*
X0013648Y0014600D02*
Y0015413D01*
Y0016708D02*
Y0017496D01*
Y0017724D02*
Y0018562D01*
Y0019807D02*
Y0020696D01*
Y0022550D02*
Y0023338D01*
Y0024633D02*
Y0025420D01*
Y0026716D02*
Y0027402D01*
Y0027503D02*
Y0028113D01*
Y0028976D02*
Y0029662D01*
Y0029789D02*
Y0030399D01*
Y0032253D02*
Y0033040D01*
Y0035047D02*
Y0035860D01*
Y0036647D02*
Y0036698D01*
Y0038247D02*
Y0040000D01*
X0013673Y0014600D02*
Y0015413D01*
Y0016708D02*
Y0017496D01*
Y0017724D02*
Y0018588D01*
Y0019782D02*
Y0020671D01*
Y0022550D02*
Y0023338D01*
Y0024633D02*
Y0025420D01*
Y0026716D02*
Y0027402D01*
Y0027503D02*
Y0028087D01*
Y0029002D02*
Y0029688D01*
Y0029789D02*
Y0030399D01*
Y0032253D02*
Y0033040D01*
Y0035072D02*
Y0035860D01*
Y0036647D02*
Y0036698D01*
Y0038349D02*
Y0040000D01*
X0013699Y0014600D02*
Y0015413D01*
Y0016708D02*
Y0017496D01*
Y0017724D02*
Y0018588D01*
Y0019756D02*
Y0020671D01*
Y0022550D02*
Y0023338D01*
Y0024633D02*
Y0025420D01*
Y0026716D02*
Y0027402D01*
Y0027478D02*
Y0028062D01*
Y0029002D02*
Y0029688D01*
Y0029789D02*
Y0030399D01*
Y0032253D02*
Y0033040D01*
Y0033345D02*
Y0034107D01*
Y0035072D02*
Y0035860D01*
Y0036647D02*
Y0036723D01*
Y0038527D02*
Y0040000D01*
X0013724Y0014600D02*
Y0015413D01*
Y0016708D02*
Y0017496D01*
Y0017750D02*
Y0018613D01*
Y0019705D02*
Y0020645D01*
Y0022550D02*
Y0023338D01*
Y0024633D02*
Y0025420D01*
Y0026716D02*
Y0027402D01*
Y0027478D02*
Y0028062D01*
Y0029027D02*
Y0029713D01*
Y0029789D02*
Y0030399D01*
Y0032253D02*
Y0033040D01*
Y0033345D02*
Y0034133D01*
Y0035072D02*
Y0035860D01*
Y0036647D02*
Y0036723D01*
Y0038882D02*
Y0040000D01*
X0013750Y0014600D02*
Y0015413D01*
Y0016708D02*
Y0017496D01*
Y0017750D02*
Y0018639D01*
Y0019680D02*
Y0020620D01*
Y0022550D02*
Y0023338D01*
Y0024633D02*
Y0025420D01*
Y0026716D02*
Y0027402D01*
Y0027452D02*
Y0028037D01*
Y0029027D02*
Y0029713D01*
Y0029789D02*
Y0030399D01*
Y0032253D02*
Y0033040D01*
Y0033345D02*
Y0034133D01*
Y0035072D02*
Y0035860D01*
Y0036647D02*
Y0036749D01*
Y0039314D02*
Y0040000D01*
X0013775Y0014600D02*
Y0015413D01*
Y0016708D02*
Y0017496D01*
Y0017750D02*
Y0018689D01*
Y0019629D02*
Y0020594D01*
Y0022550D02*
Y0023338D01*
Y0024633D02*
Y0025420D01*
Y0026716D02*
Y0027402D01*
Y0027427D02*
Y0028037D01*
Y0029053D02*
Y0029738D01*
Y0029789D02*
Y0030399D01*
Y0032253D02*
Y0033040D01*
Y0033371D02*
Y0034158D01*
Y0035047D02*
Y0035860D01*
Y0036647D02*
Y0036749D01*
Y0039543D02*
Y0040000D01*
X0013800Y0014600D02*
Y0015413D01*
Y0016708D02*
Y0017496D01*
Y0017775D02*
Y0018740D01*
Y0019553D02*
Y0020594D01*
Y0022550D02*
Y0023338D01*
Y0024633D02*
Y0025420D01*
Y0026716D02*
Y0027402D01*
Y0027427D02*
Y0028011D01*
Y0029078D02*
Y0029738D01*
Y0029789D02*
Y0030399D01*
Y0032253D02*
Y0033040D01*
Y0033371D02*
Y0034183D01*
Y0035022D02*
Y0035834D01*
Y0036647D02*
Y0036774D01*
Y0039644D02*
Y0040000D01*
X0013826Y0014600D02*
Y0015413D01*
Y0016708D02*
Y0017496D01*
Y0017800D02*
Y0018816D01*
Y0019477D02*
Y0020569D01*
Y0021026D02*
Y0023338D01*
Y0023617D02*
Y0026462D01*
Y0026716D02*
Y0027986D01*
Y0029078D02*
Y0029764D01*
Y0029789D02*
Y0030399D01*
Y0030729D02*
Y0033040D01*
Y0033371D02*
Y0034209D01*
Y0034971D02*
Y0035834D01*
Y0036647D02*
Y0036800D01*
Y0039746D02*
Y0040000D01*
X0013851Y0014600D02*
Y0015413D01*
Y0016708D02*
Y0017496D01*
Y0017800D02*
Y0018943D01*
Y0019350D02*
Y0020544D01*
Y0021001D02*
Y0023338D01*
Y0023592D02*
Y0026462D01*
Y0026716D02*
Y0027986D01*
Y0029103D02*
Y0030399D01*
Y0030729D02*
Y0033040D01*
Y0033396D02*
Y0034285D01*
Y0034895D02*
Y0035809D01*
Y0036647D02*
Y0036825D01*
Y0039797D02*
Y0040000D01*
X0013877Y0014600D02*
Y0015413D01*
Y0016708D02*
Y0017496D01*
Y0017826D02*
Y0020518D01*
Y0021001D02*
Y0023338D01*
Y0023592D02*
Y0026462D01*
Y0026716D02*
Y0027960D01*
Y0029103D02*
Y0030399D01*
Y0030729D02*
Y0033040D01*
Y0033396D02*
Y0034412D01*
Y0034742D02*
Y0035809D01*
Y0036647D02*
Y0036825D01*
Y0039848D02*
Y0040000D01*
X0013902Y0014600D02*
Y0015413D01*
Y0016708D02*
Y0017496D01*
Y0017851D02*
Y0020493D01*
Y0021001D02*
Y0023338D01*
Y0023592D02*
Y0026462D01*
Y0026716D02*
Y0027960D01*
Y0029129D02*
Y0030399D01*
Y0030729D02*
Y0033040D01*
Y0033421D02*
Y0035784D01*
Y0036647D02*
Y0036850D01*
Y0039873D02*
Y0040000D01*
X0013927Y0014600D02*
Y0015413D01*
Y0016708D02*
Y0017496D01*
Y0017877D02*
Y0020442D01*
Y0021001D02*
Y0023338D01*
Y0023592D02*
Y0026462D01*
Y0026716D02*
Y0027935D01*
Y0029129D02*
Y0030399D01*
Y0030729D02*
Y0033040D01*
Y0033421D02*
Y0035758D01*
Y0036647D02*
Y0036876D01*
Y0039924D02*
Y0040000D01*
X0013953Y0014600D02*
Y0015413D01*
Y0016708D02*
Y0017496D01*
Y0017902D02*
Y0020417D01*
Y0021001D02*
Y0023338D01*
Y0023592D02*
Y0026462D01*
Y0026716D02*
Y0027910D01*
Y0029154D02*
Y0030399D01*
Y0030729D02*
Y0033040D01*
Y0033447D02*
Y0035733D01*
Y0036647D02*
Y0036901D01*
Y0039949D02*
Y0040000D01*
X0013978Y0014600D02*
Y0015413D01*
Y0016708D02*
Y0017496D01*
Y0017927D02*
Y0020366D01*
Y0021001D02*
Y0023338D01*
Y0023592D02*
Y0026462D01*
Y0026716D02*
Y0027910D01*
Y0029180D02*
Y0030399D01*
Y0030729D02*
Y0033040D01*
Y0033472D02*
Y0035707D01*
Y0036647D02*
Y0036927D01*
Y0039949D02*
Y0040000D01*
X0014004Y0014600D02*
Y0015413D01*
Y0016708D02*
Y0017496D01*
Y0017978D02*
Y0020315D01*
Y0021001D02*
Y0023338D01*
Y0023592D02*
Y0026462D01*
Y0026716D02*
Y0027884D01*
Y0029180D02*
Y0030399D01*
Y0030729D02*
Y0033040D01*
Y0033498D02*
Y0035657D01*
Y0036647D02*
Y0036952D01*
Y0039975D02*
Y0040000D01*
X0014029Y0014600D02*
Y0015413D01*
Y0016708D02*
Y0017496D01*
Y0018029D02*
Y0020264D01*
Y0021001D02*
Y0023338D01*
Y0023592D02*
Y0026462D01*
Y0026716D02*
Y0027884D01*
Y0029205D02*
Y0030399D01*
Y0030729D02*
Y0033040D01*
Y0033523D02*
Y0035631D01*
Y0036647D02*
Y0036977D01*
X0014054Y0014600D02*
Y0015413D01*
Y0016708D02*
Y0017496D01*
Y0018080D02*
Y0020213D01*
Y0021001D02*
Y0023338D01*
Y0023592D02*
Y0026462D01*
Y0026716D02*
Y0027859D01*
Y0029205D02*
Y0030399D01*
Y0030729D02*
Y0033040D01*
Y0033574D02*
Y0035580D01*
Y0036647D02*
Y0037028D01*
X0014080Y0014600D02*
Y0015413D01*
Y0016708D02*
Y0017496D01*
Y0018131D02*
Y0020163D01*
Y0021001D02*
Y0023338D01*
Y0023592D02*
Y0026462D01*
Y0026716D02*
Y0027833D01*
Y0029230D02*
Y0030399D01*
Y0030729D02*
Y0033040D01*
Y0033625D02*
Y0035530D01*
Y0036647D02*
Y0037054D01*
X0014105Y0014600D02*
Y0015413D01*
Y0016708D02*
Y0017496D01*
Y0018207D02*
Y0020086D01*
Y0021001D02*
Y0023338D01*
Y0023592D02*
Y0026462D01*
Y0026716D02*
Y0027833D01*
Y0029230D02*
Y0030399D01*
Y0030729D02*
Y0033040D01*
Y0033675D02*
Y0035479D01*
Y0036647D02*
Y0037104D01*
X0014131Y0014600D02*
Y0015413D01*
Y0016708D02*
Y0017496D01*
Y0018283D02*
Y0019985D01*
Y0021001D02*
Y0023338D01*
Y0023592D02*
Y0026462D01*
Y0026716D02*
Y0027808D01*
Y0029256D02*
Y0030399D01*
Y0030729D02*
Y0033040D01*
Y0033752D02*
Y0035403D01*
Y0036647D02*
Y0037155D01*
X0014156Y0014600D02*
Y0015413D01*
Y0016708D02*
Y0017496D01*
Y0018385D02*
Y0019883D01*
Y0021001D02*
Y0023338D01*
Y0023592D02*
Y0026462D01*
Y0026716D02*
Y0027808D01*
Y0029256D02*
Y0030399D01*
Y0030729D02*
Y0033040D01*
Y0033828D02*
Y0035301D01*
Y0036647D02*
Y0037206D01*
X0014181Y0014625D02*
Y0015387D01*
Y0016734D02*
Y0017496D01*
Y0018512D02*
Y0019756D01*
Y0021026D02*
Y0023312D01*
Y0023617D02*
Y0026462D01*
Y0026716D02*
Y0027783D01*
Y0029307D02*
Y0030373D01*
Y0030729D02*
Y0033040D01*
Y0033955D02*
Y0035174D01*
Y0036647D02*
Y0037282D01*
X0014207Y0018715D02*
Y0019553D01*
Y0034158D02*
Y0035022D01*
Y0036647D02*
Y0037333D01*
X0014232Y0036647D02*
Y0037435D01*
X0014258Y0036647D02*
Y0037536D01*
X0014283Y0036647D02*
Y0037663D01*
X0014308Y0036647D02*
Y0037816D01*
X0014334Y0036647D02*
Y0038044D01*
X0014359Y0036647D02*
Y0038324D01*
X0014385Y0036647D02*
Y0038679D01*
Y0039975D02*
Y0040000D01*
X0014410Y0036647D02*
Y0038908D01*
Y0039975D02*
Y0040000D01*
X0014435Y0036647D02*
Y0039035D01*
Y0039975D02*
Y0040000D01*
X0014461Y0036647D02*
Y0039111D01*
Y0039949D02*
Y0040000D01*
X0014486Y0036647D02*
Y0039187D01*
Y0039949D02*
Y0040000D01*
X0014512Y0036647D02*
Y0039213D01*
Y0039924D02*
Y0040000D01*
X0014537Y0036647D02*
Y0039238D01*
Y0039924D02*
Y0040000D01*
X0014562Y0036647D02*
Y0039263D01*
Y0039898D02*
Y0040000D01*
X0014588Y0036647D02*
Y0039289D01*
Y0039898D02*
Y0040000D01*
X0014613Y0036647D02*
Y0039314D01*
Y0039873D02*
Y0040000D01*
X0014639Y0036647D02*
Y0039314D01*
Y0039873D02*
Y0040000D01*
X0014664Y0036647D02*
Y0039340D01*
Y0039848D02*
Y0040000D01*
X0014689Y0036647D02*
Y0039340D01*
Y0039848D02*
Y0040000D01*
X0014715Y0036647D02*
Y0039340D01*
Y0039822D02*
Y0040000D01*
X0014740Y0036647D02*
Y0039340D01*
Y0039797D02*
Y0040000D01*
X0014766Y0036647D02*
Y0039340D01*
Y0039797D02*
Y0040000D01*
X0014791Y0036647D02*
Y0039340D01*
Y0039771D02*
Y0040000D01*
X0014816Y0036647D02*
Y0039340D01*
Y0039746D02*
Y0040000D01*
X0014842Y0036647D02*
Y0039340D01*
Y0039746D02*
Y0040000D01*
X0014867Y0036647D02*
Y0039314D01*
Y0039721D02*
Y0040000D01*
X0014893Y0036647D02*
Y0039314D01*
Y0039695D02*
Y0040000D01*
X0014918Y0036647D02*
Y0039289D01*
Y0039670D02*
Y0040000D01*
X0014943Y0036647D02*
Y0039289D01*
Y0039670D02*
Y0040000D01*
X0014969Y0036647D02*
Y0039263D01*
Y0039644D02*
Y0040000D01*
X0014994Y0036647D02*
Y0039263D01*
Y0039619D02*
Y0040000D01*
X0015020Y0036647D02*
Y0039238D01*
Y0039594D02*
Y0040000D01*
X0015045Y0036647D02*
Y0039213D01*
Y0039568D02*
Y0040000D01*
X0015070Y0036647D02*
Y0039213D01*
Y0039543D02*
Y0040000D01*
X0015096Y0036647D02*
Y0039187D01*
Y0039517D02*
Y0040000D01*
X0015121Y0036647D02*
Y0039162D01*
Y0039492D02*
Y0040000D01*
X0015147Y0036647D02*
Y0039162D01*
Y0039467D02*
Y0040000D01*
X0015172Y0036647D02*
Y0039136D01*
Y0039441D02*
Y0040000D01*
X0015197Y0036647D02*
Y0039111D01*
Y0039416D02*
Y0040000D01*
X0015223Y0036647D02*
Y0039086D01*
Y0039390D02*
Y0040000D01*
X0015248Y0036647D02*
Y0039086D01*
Y0039365D02*
Y0040000D01*
X0015274Y0036647D02*
Y0039060D01*
Y0039340D02*
Y0040000D01*
X0015299Y0036647D02*
Y0039035D01*
Y0039314D02*
Y0040000D01*
X0015324Y0036647D02*
Y0039009D01*
Y0039289D02*
Y0040000D01*
X0015350Y0036647D02*
Y0038984D01*
Y0039263D02*
Y0040000D01*
X0015375Y0036647D02*
Y0038959D01*
Y0039213D02*
Y0040000D01*
X0015401Y0036647D02*
Y0038908D01*
Y0039187D02*
Y0040000D01*
X0015426Y0036647D02*
Y0038882D01*
Y0039162D02*
Y0040000D01*
X0015451Y0036647D02*
Y0038857D01*
Y0039136D02*
Y0040000D01*
X0015477Y0036647D02*
Y0038832D01*
Y0039086D02*
Y0040000D01*
X0015502Y0036647D02*
Y0038806D01*
Y0039060D02*
Y0040000D01*
X0015528Y0036647D02*
Y0038755D01*
Y0039035D02*
Y0040000D01*
X0015553Y0036647D02*
Y0038730D01*
Y0038984D02*
Y0040000D01*
X0015578Y0036647D02*
Y0038679D01*
Y0038959D02*
Y0040000D01*
X0015604Y0036647D02*
Y0038654D01*
Y0038908D02*
Y0040000D01*
X0015629Y0036647D02*
Y0038603D01*
Y0038882D02*
Y0040000D01*
X0015655Y0036647D02*
Y0038578D01*
Y0038832D02*
Y0040000D01*
X0015680Y0036647D02*
Y0038527D01*
Y0038806D02*
Y0040000D01*
X0015705Y0036647D02*
Y0038501D01*
Y0038755D02*
Y0040000D01*
X0015731Y0036647D02*
Y0038451D01*
Y0038730D02*
Y0040000D01*
X0015756Y0036647D02*
Y0038425D01*
Y0038679D02*
Y0040000D01*
X0015782Y0036647D02*
Y0038374D01*
Y0038654D02*
Y0040000D01*
X0015807Y0036647D02*
Y0038349D01*
Y0038603D02*
Y0040000D01*
X0015832Y0036647D02*
Y0038298D01*
Y0038552D02*
Y0040000D01*
X0015858Y0036647D02*
Y0038247D01*
Y0038501D02*
Y0040000D01*
X0015883Y0036647D02*
Y0038222D01*
Y0038476D02*
Y0040000D01*
X0015909Y0036647D02*
Y0038171D01*
Y0038425D02*
Y0040000D01*
X0015934Y0036647D02*
Y0038146D01*
Y0038374D02*
Y0040000D01*
X0015959Y0036647D02*
Y0038095D01*
Y0038324D02*
Y0040000D01*
X0015985Y0036647D02*
Y0038070D01*
Y0038273D02*
Y0040000D01*
X0016010Y0036647D02*
Y0038019D01*
Y0038247D02*
Y0040000D01*
X0025597Y0028158D02*
Y0028208D01*
Y0027421D02*
Y0028132D01*
Y0027370D02*
Y0027396D01*
X0025572Y0027142D02*
Y0028386D01*
X0025547Y0027015D02*
Y0028589D01*
X0025521Y0026862D02*
Y0028716D01*
X0025496Y0026735D02*
Y0028818D01*
X0025470Y0026634D02*
Y0028920D01*
X0025445Y0026532D02*
Y0029021D01*
X0025420Y0026456D02*
Y0029123D01*
X0025394Y0026380D02*
Y0029199D01*
X0025369Y0026303D02*
Y0029275D01*
X0025343Y0026227D02*
Y0029351D01*
X0025318Y0026151D02*
Y0029428D01*
X0025293Y0026075D02*
Y0029478D01*
X0025267Y0026024D02*
Y0029555D01*
X0025242Y0025948D02*
Y0029605D01*
X0025216Y0025897D02*
Y0029682D01*
X0025191Y0025846D02*
Y0029732D01*
X0025166Y0025795D02*
Y0029783D01*
X0025140Y0025745D02*
Y0029834D01*
X0025115Y0025694D02*
Y0029885D01*
X0025089Y0025643D02*
Y0029936D01*
X0025064Y0028132D02*
Y0029986D01*
Y0025592D02*
Y0027421D01*
X0025039Y0028361D02*
Y0030037D01*
Y0025541D02*
Y0027243D01*
X0025013Y0028513D02*
Y0030063D01*
Y0025491D02*
Y0027065D01*
X0024988Y0028640D02*
Y0030113D01*
Y0025465D02*
Y0026913D01*
X0024962Y0028767D02*
Y0030164D01*
Y0025414D02*
Y0026811D01*
X0024937Y0028843D02*
Y0030215D01*
Y0025364D02*
Y0026710D01*
X0024912Y0028945D02*
Y0030240D01*
Y0025313D02*
Y0026634D01*
X0024886Y0029021D02*
Y0030291D01*
Y0025287D02*
Y0026532D01*
X0024861Y0029097D02*
Y0030317D01*
Y0025237D02*
Y0026456D01*
X0024835Y0029174D02*
Y0030317D01*
Y0025211D02*
Y0026405D01*
X0024810Y0029250D02*
Y0030291D01*
Y0025186D02*
Y0026329D01*
X0024785Y0029301D02*
Y0030266D01*
Y0025211D02*
Y0026253D01*
X0024759Y0029377D02*
Y0030266D01*
Y0025237D02*
Y0026202D01*
X0024734Y0029428D02*
Y0030240D01*
Y0025237D02*
Y0026126D01*
X0024708Y0029478D02*
Y0030215D01*
Y0025262D02*
Y0026075D01*
X0024683Y0029555D02*
Y0030215D01*
Y0025287D02*
Y0026024D01*
X0024658Y0029580D02*
Y0030190D01*
Y0025287D02*
Y0025973D01*
X0024632Y0029631D02*
Y0030164D01*
Y0025313D02*
Y0025922D01*
X0024607Y0029682D02*
Y0030164D01*
Y0025338D02*
Y0025872D01*
X0024581Y0029732D02*
Y0030139D01*
Y0028158D02*
Y0028183D01*
Y0027396D02*
Y0028132D01*
Y0025338D02*
Y0025821D01*
X0024556Y0029783D02*
Y0030113D01*
Y0027192D02*
Y0028361D01*
Y0025364D02*
Y0025770D01*
X0024531Y0029834D02*
Y0030088D01*
Y0027065D02*
Y0028488D01*
Y0025389D02*
Y0025745D01*
X0024505Y0029885D02*
Y0030088D01*
Y0026964D02*
Y0028615D01*
Y0025414D02*
Y0025694D01*
X0024480Y0029910D02*
Y0030063D01*
Y0026862D02*
Y0028716D01*
Y0025414D02*
Y0025643D01*
X0024454Y0029961D02*
Y0030037D01*
Y0026761D02*
Y0028818D01*
Y0025440D02*
Y0025618D01*
X0024429Y0029986D02*
Y0030037D01*
Y0026684D02*
Y0028894D01*
Y0025465D02*
Y0025567D01*
X0024404Y0026608D02*
Y0028970D01*
Y0025465D02*
Y0025516D01*
X0024378Y0026532D02*
Y0029047D01*
X0024353Y0026456D02*
Y0029097D01*
X0024327Y0026405D02*
Y0029174D01*
X0024302Y0026354D02*
Y0029224D01*
X0024277Y0026278D02*
Y0029275D01*
X0024251Y0026227D02*
Y0029326D01*
X0024226Y0026176D02*
Y0029402D01*
X0024200Y0026126D02*
Y0029428D01*
X0024175Y0026075D02*
Y0029504D01*
X0024150Y0028183D02*
Y0029529D01*
Y0028132D02*
Y0028158D01*
Y0026024D02*
Y0027421D01*
X0024124Y0028310D02*
Y0029580D01*
Y0025999D02*
Y0027243D01*
X0024099Y0028462D02*
Y0029631D01*
Y0025948D02*
Y0027116D01*
X0024073Y0028564D02*
Y0029682D01*
Y0025897D02*
Y0026989D01*
X0024048Y0028666D02*
Y0029707D01*
Y0025846D02*
Y0026913D01*
X0024023Y0028742D02*
Y0029732D01*
Y0025821D02*
Y0026811D01*
X0023997Y0028818D02*
Y0029732D01*
Y0025770D02*
Y0026735D01*
X0023972Y0028894D02*
Y0029707D01*
Y0025770D02*
Y0026684D01*
X0023946Y0028970D02*
Y0029682D01*
Y0025795D02*
Y0026608D01*
X0023921Y0029021D02*
Y0029682D01*
Y0025821D02*
Y0026557D01*
X0023896Y0029072D02*
Y0029656D01*
Y0025821D02*
Y0026481D01*
X0023870Y0029123D02*
Y0029631D01*
Y0025846D02*
Y0026430D01*
X0023845Y0029174D02*
Y0029631D01*
Y0025872D02*
Y0026380D01*
X0023819Y0029224D02*
Y0029605D01*
Y0025897D02*
Y0026329D01*
X0023794Y0029275D02*
Y0029580D01*
Y0025897D02*
Y0026278D01*
X0023769Y0029326D02*
Y0029555D01*
Y0025922D02*
Y0026227D01*
X0023743Y0029377D02*
Y0029555D01*
Y0025948D02*
Y0026176D01*
X0023718Y0029428D02*
Y0029529D01*
Y0025948D02*
Y0026151D01*
X0023692Y0029478D02*
Y0029504D01*
Y0025973D02*
Y0026100D01*
X0023667Y0025999D02*
Y0026075D01*
X0023642Y0031434D02*
Y0032501D01*
Y0023103D02*
Y0025440D01*
Y0023052D02*
Y0023078D01*
X0023616Y0031434D02*
Y0032501D01*
Y0022874D02*
Y0025440D01*
X0023591Y0031434D02*
Y0032501D01*
Y0027446D02*
Y0028107D01*
Y0022747D02*
Y0025440D01*
X0023565Y0031434D02*
Y0032501D01*
Y0027294D02*
Y0028285D01*
Y0022646D02*
Y0025440D01*
X0023540Y0031434D02*
Y0032501D01*
Y0027167D02*
Y0028412D01*
Y0022570D02*
Y0025440D01*
X0023515Y0031434D02*
Y0032501D01*
Y0027065D02*
Y0028513D01*
Y0022493D02*
Y0025440D01*
X0023489Y0031434D02*
Y0032501D01*
Y0026989D02*
Y0028589D01*
Y0022443D02*
Y0025440D01*
X0023464Y0031434D02*
Y0032501D01*
Y0026913D02*
Y0028666D01*
Y0022392D02*
Y0025440D01*
X0023438Y0031434D02*
Y0032501D01*
Y0026837D02*
Y0028742D01*
Y0022341D02*
Y0025440D01*
X0023413Y0031434D02*
Y0032501D01*
Y0026786D02*
Y0028793D01*
Y0022316D02*
Y0025440D01*
X0023388Y0031434D02*
Y0032501D01*
Y0026710D02*
Y0028869D01*
Y0022265D02*
Y0025440D01*
X0023362Y0031434D02*
Y0032501D01*
Y0026659D02*
Y0028920D01*
Y0022239D02*
Y0025440D01*
X0023337Y0031434D02*
Y0032501D01*
Y0026608D02*
Y0028970D01*
Y0022189D02*
Y0025440D01*
X0023311Y0031434D02*
Y0032501D01*
Y0026557D02*
Y0029021D01*
Y0022163D02*
Y0025440D01*
X0023286Y0031434D02*
Y0032501D01*
Y0027878D02*
Y0029072D01*
Y0026507D02*
Y0027827D01*
Y0022138D02*
Y0025440D01*
X0023261Y0031434D02*
Y0032501D01*
Y0028158D02*
Y0029097D01*
Y0026456D02*
Y0027421D01*
Y0022112D02*
Y0025440D01*
X0023235Y0031434D02*
Y0032501D01*
Y0028285D02*
Y0029148D01*
Y0026430D02*
Y0027294D01*
Y0022087D02*
Y0025440D01*
X0023210Y0031434D02*
Y0032501D01*
Y0028386D02*
Y0029174D01*
Y0026380D02*
Y0027192D01*
Y0022062D02*
Y0025440D01*
X0023184Y0031434D02*
Y0032501D01*
Y0028462D02*
Y0029148D01*
Y0026354D02*
Y0027091D01*
Y0022036D02*
Y0025440D01*
X0023159Y0031434D02*
Y0032501D01*
Y0028539D02*
Y0029148D01*
Y0026354D02*
Y0027015D01*
Y0022036D02*
Y0025440D01*
X0023134Y0031434D02*
Y0032501D01*
Y0028615D02*
Y0029123D01*
Y0026380D02*
Y0026964D01*
Y0022011D02*
Y0025440D01*
X0023108Y0031434D02*
Y0032501D01*
Y0028691D02*
Y0029097D01*
Y0026380D02*
Y0026888D01*
Y0021985D02*
Y0025440D01*
X0023083Y0031434D02*
Y0032501D01*
Y0028742D02*
Y0029097D01*
Y0026405D02*
Y0026837D01*
Y0021985D02*
Y0025440D01*
X0023057Y0031434D02*
Y0032501D01*
Y0028793D02*
Y0029072D01*
Y0026430D02*
Y0026786D01*
Y0021960D02*
Y0025440D01*
X0023032Y0031434D02*
Y0032501D01*
Y0028843D02*
Y0029047D01*
Y0026430D02*
Y0026735D01*
Y0021935D02*
Y0025440D01*
X0023007Y0031434D02*
Y0032501D01*
Y0028894D02*
Y0029021D01*
Y0026456D02*
Y0026684D01*
Y0021935D02*
Y0025440D01*
X0022981Y0031434D02*
Y0032501D01*
Y0028945D02*
Y0029021D01*
Y0026481D02*
Y0026634D01*
Y0021909D02*
Y0025440D01*
X0022956Y0031434D02*
Y0032501D01*
Y0028970D02*
Y0028996D01*
Y0026481D02*
Y0026583D01*
Y0021909D02*
Y0025440D01*
X0022930Y0031434D02*
Y0032501D01*
Y0026507D02*
Y0026557D01*
Y0021884D02*
Y0025440D01*
X0022905Y0031434D02*
Y0032501D01*
Y0021884D02*
Y0025440D01*
X0022880Y0031434D02*
Y0032501D01*
Y0021884D02*
Y0025440D01*
X0022854Y0031434D02*
Y0032501D01*
Y0024373D02*
Y0025440D01*
Y0021858D02*
Y0023357D01*
X0022829Y0031434D02*
Y0032501D01*
Y0024373D02*
Y0025440D01*
Y0021858D02*
Y0023205D01*
X0022803Y0031434D02*
Y0032501D01*
Y0024373D02*
Y0025440D01*
Y0021858D02*
Y0023128D01*
X0022778Y0031434D02*
Y0032501D01*
Y0024373D02*
Y0025440D01*
Y0021833D02*
Y0023078D01*
X0022753Y0031434D02*
Y0032501D01*
Y0024373D02*
Y0025440D01*
Y0021833D02*
Y0023027D01*
Y0017744D02*
Y0017947D01*
X0022727Y0031434D02*
Y0032501D01*
Y0024373D02*
Y0025440D01*
Y0021833D02*
Y0023001D01*
Y0017667D02*
Y0018023D01*
X0022702Y0031434D02*
Y0032501D01*
Y0024373D02*
Y0025440D01*
Y0021833D02*
Y0022976D01*
Y0017617D02*
Y0018048D01*
X0022676Y0031434D02*
Y0032501D01*
Y0024373D02*
Y0025440D01*
Y0021808D02*
Y0022951D01*
Y0017947D02*
Y0018099D01*
Y0017591D02*
Y0017744D01*
X0022651Y0031434D02*
Y0032501D01*
Y0027523D02*
Y0027954D01*
Y0024373D02*
Y0025440D01*
Y0021808D02*
Y0022925D01*
Y0020131D02*
Y0020157D01*
Y0019674D02*
Y0020106D01*
Y0019623D02*
Y0019649D01*
Y0017998D02*
Y0018125D01*
Y0017566D02*
Y0017693D01*
X0022626Y0031434D02*
Y0032501D01*
Y0027370D02*
Y0028132D01*
Y0024373D02*
Y0025440D01*
Y0021808D02*
Y0022925D01*
Y0019369D02*
Y0020334D01*
Y0018048D02*
Y0018150D01*
Y0017540D02*
Y0017642D01*
X0022600Y0031434D02*
Y0032501D01*
Y0027243D02*
Y0028259D01*
Y0024373D02*
Y0025440D01*
Y0021808D02*
Y0022900D01*
Y0019242D02*
Y0020461D01*
Y0018074D02*
Y0018175D01*
Y0017515D02*
Y0017617D01*
X0022575Y0031434D02*
Y0032501D01*
Y0027142D02*
Y0028361D01*
Y0024373D02*
Y0025440D01*
Y0021808D02*
Y0022900D01*
Y0019115D02*
Y0020538D01*
Y0018099D02*
Y0018175D01*
Y0017794D02*
Y0018023D01*
Y0017515D02*
Y0017591D01*
X0022549Y0031434D02*
Y0032501D01*
Y0027065D02*
Y0028437D01*
Y0024373D02*
Y0025440D01*
Y0021782D02*
Y0022874D01*
Y0019039D02*
Y0020614D01*
Y0018099D02*
Y0018201D01*
Y0017744D02*
Y0018023D01*
Y0017490D02*
Y0017566D01*
X0022524Y0031434D02*
Y0032501D01*
Y0026989D02*
Y0028513D01*
Y0024373D02*
Y0025440D01*
Y0021782D02*
Y0022874D01*
Y0018988D02*
Y0020665D01*
Y0018125D02*
Y0018201D01*
Y0017718D02*
Y0018023D01*
Y0017490D02*
Y0017566D01*
X0022499Y0031434D02*
Y0032501D01*
Y0026938D02*
Y0028564D01*
Y0024373D02*
Y0025440D01*
Y0021782D02*
Y0022874D01*
Y0018912D02*
Y0020715D01*
Y0018125D02*
Y0018226D01*
Y0017947D02*
Y0018023D01*
Y0017693D02*
Y0017794D01*
Y0017464D02*
Y0017540D01*
X0022473Y0031434D02*
Y0032501D01*
Y0026888D02*
Y0028615D01*
Y0024373D02*
Y0025440D01*
Y0021782D02*
Y0022849D01*
Y0018861D02*
Y0020766D01*
Y0018150D02*
Y0018226D01*
Y0017947D02*
Y0018023D01*
Y0017693D02*
Y0017769D01*
Y0017464D02*
Y0017540D01*
X0022448Y0031434D02*
Y0032501D01*
Y0026837D02*
Y0028666D01*
Y0024373D02*
Y0025440D01*
Y0021782D02*
Y0022849D01*
Y0018836D02*
Y0020817D01*
Y0018150D02*
Y0018226D01*
Y0017947D02*
Y0018023D01*
Y0017693D02*
Y0017769D01*
Y0017464D02*
Y0017540D01*
X0022422Y0031434D02*
Y0032501D01*
Y0026786D02*
Y0028716D01*
Y0024373D02*
Y0025440D01*
Y0021782D02*
Y0022849D01*
Y0018785D02*
Y0020842D01*
Y0018150D02*
Y0018226D01*
Y0017947D02*
Y0018023D01*
Y0017693D02*
Y0017769D01*
Y0017464D02*
Y0017515D01*
X0022397Y0031434D02*
Y0032501D01*
Y0026761D02*
Y0028742D01*
Y0024373D02*
Y0025440D01*
Y0021782D02*
Y0022849D01*
Y0018760D02*
Y0020893D01*
Y0018175D02*
Y0018226D01*
Y0017921D02*
Y0018023D01*
Y0017871D02*
Y0017896D01*
Y0017693D02*
Y0017845D01*
Y0017464D02*
Y0017515D01*
X0022372Y0031434D02*
Y0032501D01*
Y0026710D02*
Y0028793D01*
Y0024373D02*
Y0025440D01*
Y0021782D02*
Y0022849D01*
Y0018734D02*
Y0020919D01*
Y0018150D02*
Y0018226D01*
Y0017718D02*
Y0018023D01*
Y0017464D02*
Y0017515D01*
X0022346Y0031434D02*
Y0032501D01*
Y0026684D02*
Y0028818D01*
Y0024373D02*
Y0025440D01*
Y0021782D02*
Y0022849D01*
Y0018709D02*
Y0020944D01*
Y0018175D02*
Y0018226D01*
Y0017769D02*
Y0018023D01*
Y0017464D02*
Y0017515D01*
X0022321Y0031434D02*
Y0032501D01*
Y0026659D02*
Y0028869D01*
Y0024373D02*
Y0025440D01*
Y0021782D02*
Y0022849D01*
Y0018683D02*
Y0020969D01*
Y0018150D02*
Y0018226D01*
Y0017947D02*
Y0018023D01*
Y0017769D02*
Y0017871D01*
Y0017464D02*
Y0017515D01*
X0022295Y0031434D02*
Y0032501D01*
Y0026608D02*
Y0028894D01*
Y0024373D02*
Y0025440D01*
Y0021757D02*
Y0022849D01*
Y0018658D02*
Y0020995D01*
Y0018150D02*
Y0018226D01*
Y0017947D02*
Y0018023D01*
Y0017744D02*
Y0017845D01*
Y0017464D02*
Y0017540D01*
X0022270Y0031434D02*
Y0032501D01*
Y0026583D02*
Y0028920D01*
Y0024373D02*
Y0025440D01*
Y0021782D02*
Y0022849D01*
Y0018633D02*
Y0021020D01*
Y0018150D02*
Y0018226D01*
Y0017947D02*
Y0018023D01*
Y0017718D02*
Y0017820D01*
Y0017464D02*
Y0017540D01*
X0022245Y0031434D02*
Y0032501D01*
Y0026557D02*
Y0028945D01*
Y0024373D02*
Y0025440D01*
Y0021782D02*
Y0022849D01*
Y0018607D02*
Y0021020D01*
Y0018125D02*
Y0018226D01*
Y0017947D02*
Y0018023D01*
Y0017718D02*
Y0017794D01*
Y0017464D02*
Y0017540D01*
X0022219Y0031434D02*
Y0032501D01*
Y0026532D02*
Y0028970D01*
Y0024373D02*
Y0025440D01*
Y0021757D02*
Y0022849D01*
Y0018607D02*
Y0021046D01*
Y0018125D02*
Y0018201D01*
Y0017947D02*
Y0018023D01*
Y0017693D02*
Y0017794D01*
Y0017490D02*
Y0017566D01*
X0022194Y0031434D02*
Y0032501D01*
Y0026507D02*
Y0028996D01*
Y0024373D02*
Y0025440D01*
Y0021782D02*
Y0022849D01*
Y0018582D02*
Y0021071D01*
Y0018099D02*
Y0018201D01*
Y0017947D02*
Y0018023D01*
Y0017693D02*
Y0017769D01*
Y0017490D02*
Y0017566D01*
X0022168Y0031434D02*
Y0032501D01*
Y0026481D02*
Y0029021D01*
Y0024373D02*
Y0025440D01*
Y0021782D02*
Y0022849D01*
Y0018582D02*
Y0021071D01*
Y0018099D02*
Y0018175D01*
Y0017947D02*
Y0018023D01*
Y0017667D02*
Y0017744D01*
Y0017515D02*
Y0017591D01*
X0022143Y0031434D02*
Y0032501D01*
Y0026456D02*
Y0029047D01*
Y0024373D02*
Y0025440D01*
Y0021782D02*
Y0022849D01*
Y0018556D02*
Y0021096D01*
Y0018074D02*
Y0018175D01*
Y0017515D02*
Y0017617D01*
X0022118Y0031434D02*
Y0032501D01*
Y0026430D02*
Y0029072D01*
Y0024373D02*
Y0025440D01*
Y0021782D02*
Y0022849D01*
Y0018556D02*
Y0021096D01*
Y0018048D02*
Y0018150D01*
Y0017540D02*
Y0017642D01*
X0022092Y0031434D02*
Y0032501D01*
Y0026405D02*
Y0029097D01*
Y0024373D02*
Y0025440D01*
Y0021782D02*
Y0022874D01*
Y0018531D02*
Y0021122D01*
Y0017998D02*
Y0018125D01*
Y0017566D02*
Y0017693D01*
X0022067Y0031434D02*
Y0032501D01*
Y0026380D02*
Y0029123D01*
Y0024373D02*
Y0025440D01*
Y0021782D02*
Y0022874D01*
Y0019953D02*
Y0021122D01*
Y0018531D02*
Y0019674D01*
Y0017947D02*
Y0018099D01*
Y0017591D02*
Y0017744D01*
X0022041Y0031434D02*
Y0032501D01*
Y0026380D02*
Y0029148D01*
Y0024373D02*
Y0025440D01*
Y0021782D02*
Y0022874D01*
Y0020055D02*
Y0021147D01*
Y0018531D02*
Y0019572D01*
Y0017617D02*
Y0018048D01*
X0022016Y0031434D02*
Y0032501D01*
Y0026354D02*
Y0029148D01*
Y0024373D02*
Y0025440D01*
Y0021782D02*
Y0022874D01*
Y0020106D02*
Y0021147D01*
Y0018506D02*
Y0019522D01*
Y0017667D02*
Y0018023D01*
X0021991Y0031434D02*
Y0032501D01*
Y0026329D02*
Y0029174D01*
Y0024373D02*
Y0025440D01*
Y0021808D02*
Y0022900D01*
Y0020157D02*
Y0021147D01*
Y0018506D02*
Y0019496D01*
Y0017744D02*
Y0017947D01*
X0021965Y0031434D02*
Y0032501D01*
Y0026329D02*
Y0029199D01*
Y0024373D02*
Y0025440D01*
Y0021808D02*
Y0022900D01*
Y0020182D02*
Y0021173D01*
Y0018506D02*
Y0019471D01*
X0021940Y0031434D02*
Y0032501D01*
Y0027777D02*
Y0029199D01*
Y0027700D02*
Y0027751D01*
Y0026303D02*
Y0027675D01*
Y0024373D02*
Y0025440D01*
Y0021808D02*
Y0022925D01*
Y0020207D02*
Y0021173D01*
Y0018506D02*
Y0019445D01*
X0021914Y0031434D02*
Y0032501D01*
Y0027980D02*
Y0029224D01*
Y0026278D02*
Y0027548D01*
Y0024373D02*
Y0025440D01*
Y0021808D02*
Y0022925D01*
Y0020207D02*
Y0021173D01*
Y0018480D02*
Y0019420D01*
X0021889Y0031434D02*
Y0032501D01*
Y0028056D02*
Y0029224D01*
Y0026278D02*
Y0027472D01*
Y0024373D02*
Y0025440D01*
Y0021833D02*
Y0022951D01*
Y0020233D02*
Y0021173D01*
Y0018480D02*
Y0019420D01*
X0021864Y0031434D02*
Y0032501D01*
Y0028107D02*
Y0029250D01*
Y0026253D02*
Y0027396D01*
Y0024373D02*
Y0025440D01*
Y0021833D02*
Y0022976D01*
Y0020258D02*
Y0021198D01*
Y0018480D02*
Y0019395D01*
X0021838Y0031434D02*
Y0032501D01*
Y0028158D02*
Y0029275D01*
Y0026253D02*
Y0027345D01*
Y0024373D02*
Y0025440D01*
Y0021833D02*
Y0023001D01*
Y0020258D02*
Y0021198D01*
Y0018480D02*
Y0019395D01*
X0021813Y0031434D02*
Y0032501D01*
Y0028183D02*
Y0029275D01*
Y0026227D02*
Y0027319D01*
Y0024373D02*
Y0025440D01*
Y0021858D02*
Y0023027D01*
Y0020258D02*
Y0021198D01*
Y0018480D02*
Y0019395D01*
X0021787Y0031434D02*
Y0032501D01*
Y0028208D02*
Y0029301D01*
Y0026227D02*
Y0027294D01*
Y0024373D02*
Y0025440D01*
Y0021858D02*
Y0023078D01*
Y0020284D02*
Y0021198D01*
Y0018480D02*
Y0019395D01*
X0021762Y0031434D02*
Y0032501D01*
Y0028259D02*
Y0029301D01*
Y0026202D02*
Y0027269D01*
Y0024373D02*
Y0025440D01*
Y0021884D02*
Y0023128D01*
Y0020284D02*
Y0021198D01*
Y0018480D02*
Y0019369D01*
X0021737Y0031434D02*
Y0032501D01*
Y0028285D02*
Y0029301D01*
Y0026202D02*
Y0027243D01*
Y0024373D02*
Y0025440D01*
Y0021884D02*
Y0023205D01*
Y0020284D02*
Y0021198D01*
Y0018480D02*
Y0019395D01*
X0021711Y0031434D02*
Y0032501D01*
Y0028285D02*
Y0029326D01*
Y0026176D02*
Y0027218D01*
Y0021884D02*
Y0025440D01*
Y0020284D02*
Y0021198D01*
Y0018480D02*
Y0019395D01*
X0021686Y0031434D02*
Y0032501D01*
Y0028310D02*
Y0029326D01*
Y0026176D02*
Y0027192D01*
Y0021909D02*
Y0025440D01*
Y0020309D02*
Y0021198D01*
Y0018480D02*
Y0019395D01*
X0021660Y0031434D02*
Y0032501D01*
Y0028335D02*
Y0029351D01*
Y0026176D02*
Y0027167D01*
Y0021909D02*
Y0025440D01*
Y0020309D02*
Y0021198D01*
Y0018480D02*
Y0019395D01*
X0021635Y0031434D02*
Y0032501D01*
Y0028361D02*
Y0029351D01*
Y0026151D02*
Y0027167D01*
Y0021935D02*
Y0025440D01*
Y0018480D02*
Y0019395D01*
X0021610Y0031434D02*
Y0032501D01*
Y0028361D02*
Y0029351D01*
Y0026151D02*
Y0027142D01*
Y0021960D02*
Y0025440D01*
Y0018480D02*
Y0019395D01*
X0021584Y0031434D02*
Y0032501D01*
Y0028386D02*
Y0029377D01*
Y0026151D02*
Y0027116D01*
Y0021960D02*
Y0025440D01*
Y0018480D02*
Y0019395D01*
X0021559Y0031434D02*
Y0032501D01*
Y0028386D02*
Y0029377D01*
Y0026126D02*
Y0027116D01*
Y0021985D02*
Y0025440D01*
Y0018480D02*
Y0019395D01*
X0021533Y0031434D02*
Y0032501D01*
Y0028412D02*
Y0029377D01*
Y0026126D02*
Y0027091D01*
Y0022011D02*
Y0025440D01*
Y0018480D02*
Y0019395D01*
X0021508Y0031434D02*
Y0032501D01*
Y0028412D02*
Y0029377D01*
Y0026126D02*
Y0027091D01*
Y0022036D02*
Y0025440D01*
Y0018480D02*
Y0019395D01*
X0021483Y0031434D02*
Y0032501D01*
Y0028437D02*
Y0029402D01*
Y0026126D02*
Y0027065D01*
Y0022036D02*
Y0025440D01*
Y0018480D02*
Y0019395D01*
X0021457Y0031434D02*
Y0032501D01*
Y0028437D02*
Y0029402D01*
Y0026100D02*
Y0027065D01*
Y0022062D02*
Y0025440D01*
Y0018480D02*
Y0019547D01*
X0021432Y0031434D02*
Y0032501D01*
Y0028437D02*
Y0029402D01*
Y0026100D02*
Y0027065D01*
Y0022087D02*
Y0025440D01*
Y0018480D02*
Y0019750D01*
X0021406Y0031434D02*
Y0032501D01*
Y0028462D02*
Y0029402D01*
Y0026100D02*
Y0027040D01*
Y0022112D02*
Y0025440D01*
Y0018480D02*
Y0019928D01*
X0021381Y0031434D02*
Y0032501D01*
Y0028462D02*
Y0029402D01*
Y0026100D02*
Y0027040D01*
Y0022138D02*
Y0025440D01*
Y0018480D02*
Y0020055D01*
X0021356Y0031434D02*
Y0032501D01*
Y0028462D02*
Y0029428D01*
Y0026100D02*
Y0027040D01*
Y0022163D02*
Y0025440D01*
Y0018480D02*
Y0020182D01*
X0021330Y0031434D02*
Y0032501D01*
Y0028488D02*
Y0029428D01*
Y0026100D02*
Y0027040D01*
Y0022214D02*
Y0025440D01*
Y0018480D02*
Y0020284D01*
X0021305Y0031434D02*
Y0032501D01*
Y0028488D02*
Y0029428D01*
Y0026075D02*
Y0027040D01*
Y0022239D02*
Y0025440D01*
Y0018480D02*
Y0020385D01*
X0021279Y0031434D02*
Y0032501D01*
Y0028488D02*
Y0029428D01*
Y0026075D02*
Y0027015D01*
Y0022265D02*
Y0025440D01*
Y0018480D02*
Y0020461D01*
X0021254Y0031434D02*
Y0032501D01*
Y0028488D02*
Y0029428D01*
Y0026075D02*
Y0027015D01*
Y0022316D02*
Y0025440D01*
Y0018480D02*
Y0020538D01*
X0021229Y0031434D02*
Y0032501D01*
Y0028488D02*
Y0029428D01*
Y0026075D02*
Y0027015D01*
Y0022341D02*
Y0025440D01*
Y0018480D02*
Y0020614D01*
X0021203Y0031434D02*
Y0032501D01*
Y0028488D02*
Y0029428D01*
Y0026075D02*
Y0027015D01*
Y0022392D02*
Y0025440D01*
Y0018480D02*
Y0020690D01*
X0021178Y0031434D02*
Y0032501D01*
Y0028513D02*
Y0029453D01*
Y0026075D02*
Y0027015D01*
Y0022443D02*
Y0025440D01*
Y0018480D02*
Y0020741D01*
X0021152Y0031434D02*
Y0032501D01*
Y0028513D02*
Y0029428D01*
Y0026075D02*
Y0027015D01*
Y0022493D02*
Y0025440D01*
Y0018480D02*
Y0020792D01*
X0021127Y0031434D02*
Y0032501D01*
Y0028513D02*
Y0029453D01*
Y0026075D02*
Y0027015D01*
Y0022570D02*
Y0025440D01*
Y0018480D02*
Y0020842D01*
X0021102Y0031434D02*
Y0032501D01*
Y0028513D02*
Y0029453D01*
Y0026075D02*
Y0027015D01*
Y0022646D02*
Y0025440D01*
Y0018480D02*
Y0020893D01*
X0021076Y0031434D02*
Y0032501D01*
Y0028513D02*
Y0029453D01*
Y0026075D02*
Y0027015D01*
Y0022646D02*
Y0025440D01*
Y0018480D02*
Y0020919D01*
X0021051Y0031434D02*
Y0032501D01*
Y0028513D02*
Y0029453D01*
Y0026049D02*
Y0027015D01*
Y0022620D02*
Y0025440D01*
Y0018480D02*
Y0020969D01*
X0021025Y0031434D02*
Y0032501D01*
Y0028513D02*
Y0029453D01*
Y0026075D02*
Y0027015D01*
Y0022595D02*
Y0025440D01*
Y0018480D02*
Y0020995D01*
X0021000Y0031434D02*
Y0032501D01*
Y0028513D02*
Y0029453D01*
Y0026049D02*
Y0027015D01*
Y0022595D02*
Y0025440D01*
Y0018480D02*
Y0021020D01*
X0020975Y0031434D02*
Y0032501D01*
Y0028513D02*
Y0029453D01*
Y0026049D02*
Y0027015D01*
Y0022570D02*
Y0025440D01*
Y0018480D02*
Y0021046D01*
X0020949Y0031434D02*
Y0032501D01*
Y0028513D02*
Y0029453D01*
Y0026075D02*
Y0027015D01*
Y0022570D02*
Y0025440D01*
Y0018480D02*
Y0021096D01*
X0020924Y0031434D02*
Y0032501D01*
Y0028513D02*
Y0029453D01*
Y0026049D02*
Y0027015D01*
Y0023738D02*
Y0025440D01*
Y0022544D02*
Y0023713D01*
Y0019420D02*
Y0021096D01*
Y0018480D02*
Y0019395D01*
X0020898Y0031434D02*
Y0032501D01*
Y0028513D02*
Y0029453D01*
Y0026049D02*
Y0027015D01*
Y0024373D02*
Y0025440D01*
Y0022544D02*
Y0023687D01*
Y0019522D02*
Y0021122D01*
Y0018480D02*
Y0019395D01*
X0020873Y0031434D02*
Y0032501D01*
Y0028513D02*
Y0029453D01*
Y0026075D02*
Y0027015D01*
Y0024373D02*
Y0025440D01*
Y0022519D02*
Y0023687D01*
Y0019598D02*
Y0021147D01*
Y0018480D02*
Y0019369D01*
X0020848Y0031434D02*
Y0032501D01*
Y0028513D02*
Y0029453D01*
Y0026075D02*
Y0027015D01*
Y0024373D02*
Y0025440D01*
Y0022493D02*
Y0023662D01*
Y0019699D02*
Y0021173D01*
Y0018480D02*
Y0019395D01*
X0020822Y0031434D02*
Y0032501D01*
Y0028488D02*
Y0029428D01*
Y0026075D02*
Y0027015D01*
Y0024373D02*
Y0025440D01*
Y0022493D02*
Y0023662D01*
Y0019776D02*
Y0021198D01*
Y0018480D02*
Y0019395D01*
X0020797Y0031434D02*
Y0032501D01*
Y0028513D02*
Y0029453D01*
Y0026075D02*
Y0027015D01*
Y0024373D02*
Y0025440D01*
Y0022468D02*
Y0023636D01*
Y0019877D02*
Y0021198D01*
Y0018480D02*
Y0019395D01*
X0020771Y0031434D02*
Y0032501D01*
Y0028488D02*
Y0029428D01*
Y0026075D02*
Y0027015D01*
Y0024373D02*
Y0025440D01*
Y0022468D02*
Y0023611D01*
Y0019953D02*
Y0021223D01*
Y0018480D02*
Y0019369D01*
X0020746Y0031434D02*
Y0032501D01*
Y0028488D02*
Y0029428D01*
Y0026075D02*
Y0027015D01*
Y0024373D02*
Y0025440D01*
Y0022443D02*
Y0023611D01*
Y0020055D02*
Y0021249D01*
Y0018480D02*
Y0019395D01*
X0020721Y0031434D02*
Y0032501D01*
Y0028488D02*
Y0029428D01*
Y0026075D02*
Y0027015D01*
Y0024373D02*
Y0025440D01*
Y0022443D02*
Y0023586D01*
Y0020131D02*
Y0021249D01*
Y0018480D02*
Y0019369D01*
X0020695Y0031434D02*
Y0032501D01*
Y0028488D02*
Y0029428D01*
Y0026075D02*
Y0027015D01*
Y0024373D02*
Y0025440D01*
Y0022417D02*
Y0023586D01*
Y0020182D02*
Y0021274D01*
Y0018480D02*
Y0019395D01*
X0020670Y0031434D02*
Y0032501D01*
Y0028488D02*
Y0029428D01*
Y0026075D02*
Y0027040D01*
Y0024373D02*
Y0025440D01*
Y0022392D02*
Y0023560D01*
Y0020233D02*
Y0021274D01*
Y0018480D02*
Y0019395D01*
X0020644Y0031434D02*
Y0032501D01*
Y0028462D02*
Y0029428D01*
Y0026075D02*
Y0027040D01*
Y0024373D02*
Y0025440D01*
Y0022392D02*
Y0023560D01*
Y0020284D02*
Y0021274D01*
Y0018480D02*
Y0019369D01*
X0020619Y0031434D02*
Y0032501D01*
Y0028462D02*
Y0029428D01*
Y0026100D02*
Y0027040D01*
Y0024373D02*
Y0025440D01*
Y0022366D02*
Y0023535D01*
Y0020309D02*
Y0021300D01*
Y0018480D02*
Y0019395D01*
X0020594Y0031434D02*
Y0032501D01*
Y0028462D02*
Y0029402D01*
Y0026100D02*
Y0027040D01*
Y0024373D02*
Y0025440D01*
Y0022366D02*
Y0023535D01*
Y0020334D02*
Y0021300D01*
Y0018480D02*
Y0019395D01*
X0020568Y0031434D02*
Y0032501D01*
Y0028462D02*
Y0029402D01*
Y0026100D02*
Y0027040D01*
Y0024373D02*
Y0025440D01*
Y0022341D02*
Y0023509D01*
Y0020360D02*
Y0021300D01*
Y0018480D02*
Y0019395D01*
X0020543Y0031434D02*
Y0032501D01*
Y0028437D02*
Y0029402D01*
Y0026100D02*
Y0027065D01*
Y0024373D02*
Y0025440D01*
Y0022341D02*
Y0023509D01*
Y0020385D02*
Y0021325D01*
Y0018480D02*
Y0019395D01*
X0020517Y0031434D02*
Y0032501D01*
Y0028437D02*
Y0029402D01*
Y0026100D02*
Y0027065D01*
Y0024373D02*
Y0025440D01*
Y0022316D02*
Y0023484D01*
Y0020411D02*
Y0021325D01*
Y0018480D02*
Y0019395D01*
X0020492Y0031434D02*
Y0032501D01*
Y0028437D02*
Y0029402D01*
Y0026126D02*
Y0027065D01*
Y0024373D02*
Y0025440D01*
Y0022290D02*
Y0023459D01*
Y0020411D02*
Y0021325D01*
Y0018480D02*
Y0019395D01*
X0020467Y0031434D02*
Y0032501D01*
Y0028412D02*
Y0029377D01*
Y0026126D02*
Y0027091D01*
Y0024373D02*
Y0025440D01*
Y0022290D02*
Y0023459D01*
Y0020436D02*
Y0021325D01*
Y0018480D02*
Y0019420D01*
X0020441Y0031434D02*
Y0032501D01*
Y0028412D02*
Y0029377D01*
Y0026126D02*
Y0027091D01*
Y0024373D02*
Y0025440D01*
Y0022265D02*
Y0023433D01*
Y0020436D02*
Y0021325D01*
Y0018480D02*
Y0019420D01*
X0020416Y0031434D02*
Y0032501D01*
Y0028386D02*
Y0029377D01*
Y0026126D02*
Y0027116D01*
Y0024373D02*
Y0025440D01*
Y0022265D02*
Y0023433D01*
Y0020436D02*
Y0021350D01*
Y0018480D02*
Y0019420D01*
X0020390Y0031434D02*
Y0032501D01*
Y0028386D02*
Y0029377D01*
Y0026151D02*
Y0027116D01*
Y0024373D02*
Y0025440D01*
Y0022239D02*
Y0023408D01*
Y0020436D02*
Y0021350D01*
Y0018480D02*
Y0019445D01*
X0020365Y0031434D02*
Y0032501D01*
Y0028361D02*
Y0029351D01*
Y0026151D02*
Y0027142D01*
Y0024373D02*
Y0025440D01*
Y0022214D02*
Y0023408D01*
Y0020461D02*
Y0021350D01*
Y0018480D02*
Y0019445D01*
X0020340Y0031434D02*
Y0032501D01*
Y0028361D02*
Y0029351D01*
Y0026151D02*
Y0027142D01*
Y0024373D02*
Y0025440D01*
Y0022214D02*
Y0023382D01*
Y0020436D02*
Y0021350D01*
Y0018480D02*
Y0019445D01*
X0020314Y0031434D02*
Y0032501D01*
Y0028335D02*
Y0029351D01*
Y0026176D02*
Y0027167D01*
Y0024373D02*
Y0025440D01*
Y0022189D02*
Y0023382D01*
Y0020436D02*
Y0021350D01*
Y0018480D02*
Y0019471D01*
X0020289Y0029783D02*
Y0032501D01*
Y0028310D02*
Y0029326D01*
Y0026176D02*
Y0027167D01*
Y0024373D02*
Y0025440D01*
Y0022189D02*
Y0023357D01*
Y0020436D02*
Y0021350D01*
Y0018480D02*
Y0019471D01*
X0020263Y0029783D02*
Y0032501D01*
Y0028310D02*
Y0029326D01*
Y0026176D02*
Y0027192D01*
Y0024373D02*
Y0025440D01*
Y0022163D02*
Y0023357D01*
Y0020436D02*
Y0021350D01*
Y0018480D02*
Y0019496D01*
X0020238Y0029783D02*
Y0032501D01*
Y0028285D02*
Y0029326D01*
Y0026202D02*
Y0027218D01*
Y0024373D02*
Y0025440D01*
Y0022163D02*
Y0023332D01*
Y0020436D02*
Y0021350D01*
Y0018480D02*
Y0019522D01*
X0020213Y0029783D02*
Y0032501D01*
Y0028259D02*
Y0029301D01*
Y0026202D02*
Y0027243D01*
Y0024373D02*
Y0025440D01*
Y0022138D02*
Y0023306D01*
Y0020436D02*
Y0021350D01*
Y0018480D02*
Y0019522D01*
X0020187Y0029783D02*
Y0032501D01*
Y0028234D02*
Y0029301D01*
Y0026227D02*
Y0027269D01*
Y0024373D02*
Y0025440D01*
Y0022138D02*
Y0023306D01*
Y0020411D02*
Y0021350D01*
Y0018480D02*
Y0019547D01*
X0020162Y0029783D02*
Y0032501D01*
Y0028183D02*
Y0029275D01*
Y0026227D02*
Y0027294D01*
Y0024373D02*
Y0025440D01*
Y0022112D02*
Y0023281D01*
Y0020411D02*
Y0021350D01*
Y0018480D02*
Y0019572D01*
X0020136Y0029783D02*
Y0032501D01*
Y0028158D02*
Y0029275D01*
Y0026253D02*
Y0027345D01*
Y0024373D02*
Y0025440D01*
Y0022087D02*
Y0023281D01*
Y0020385D02*
Y0021350D01*
Y0018480D02*
Y0019598D01*
X0020111Y0029783D02*
Y0032501D01*
Y0028107D02*
Y0029250D01*
Y0026253D02*
Y0027396D01*
Y0024373D02*
Y0025440D01*
Y0022087D02*
Y0023255D01*
Y0020360D02*
Y0021350D01*
Y0018480D02*
Y0019649D01*
X0020086Y0029783D02*
Y0032501D01*
Y0028056D02*
Y0029250D01*
Y0026278D02*
Y0027446D01*
Y0024373D02*
Y0025440D01*
Y0022062D02*
Y0023255D01*
Y0020334D02*
Y0021350D01*
Y0018480D02*
Y0019674D01*
X0020060Y0029783D02*
Y0032501D01*
Y0028005D02*
Y0029224D01*
Y0026278D02*
Y0027497D01*
Y0024373D02*
Y0025440D01*
Y0022062D02*
Y0023230D01*
Y0020309D02*
Y0021325D01*
Y0018480D02*
Y0019725D01*
X0020035Y0029783D02*
Y0032501D01*
Y0027878D02*
Y0029224D01*
Y0026303D02*
Y0027650D01*
Y0024373D02*
Y0025440D01*
Y0022036D02*
Y0023230D01*
Y0020258D02*
Y0021325D01*
Y0018480D02*
Y0019776D01*
X0020009Y0029783D02*
Y0032501D01*
Y0026303D02*
Y0029199D01*
Y0024373D02*
Y0025440D01*
Y0022036D02*
Y0023205D01*
Y0020157D02*
Y0021325D01*
Y0018480D02*
Y0019877D01*
X0019984Y0029783D02*
Y0032501D01*
Y0026329D02*
Y0029174D01*
Y0024373D02*
Y0025440D01*
Y0022011D02*
Y0023205D01*
Y0018480D02*
Y0021325D01*
X0019959Y0029783D02*
Y0032501D01*
Y0026354D02*
Y0029148D01*
Y0024373D02*
Y0025440D01*
Y0021985D02*
Y0023179D01*
Y0018480D02*
Y0021300D01*
X0019933Y0029783D02*
Y0032501D01*
Y0026354D02*
Y0029148D01*
Y0024373D02*
Y0025440D01*
Y0021985D02*
Y0023179D01*
Y0018480D02*
Y0021300D01*
X0019908Y0029783D02*
Y0032501D01*
Y0026380D02*
Y0029123D01*
Y0024373D02*
Y0025440D01*
Y0021960D02*
Y0023154D01*
Y0018480D02*
Y0021300D01*
X0019882Y0029783D02*
Y0032501D01*
Y0026405D02*
Y0029097D01*
Y0024373D02*
Y0025440D01*
Y0021960D02*
Y0023128D01*
Y0018480D02*
Y0021274D01*
X0019857Y0029783D02*
Y0032501D01*
Y0026430D02*
Y0029072D01*
Y0024373D02*
Y0025440D01*
Y0021935D02*
Y0023128D01*
Y0018480D02*
Y0021274D01*
X0019832Y0029783D02*
Y0032501D01*
Y0026456D02*
Y0029072D01*
Y0024373D02*
Y0025440D01*
Y0021909D02*
Y0023103D01*
Y0018480D02*
Y0021274D01*
X0019806Y0029783D02*
Y0032501D01*
Y0026481D02*
Y0029047D01*
Y0024373D02*
Y0025440D01*
Y0021909D02*
Y0023103D01*
Y0018480D02*
Y0021249D01*
X0019781Y0029783D02*
Y0032501D01*
Y0026507D02*
Y0029021D01*
Y0024373D02*
Y0025440D01*
Y0021884D02*
Y0023078D01*
Y0018480D02*
Y0021249D01*
X0019755Y0029783D02*
Y0032501D01*
Y0026532D02*
Y0028996D01*
Y0024373D02*
Y0025440D01*
Y0021884D02*
Y0023078D01*
Y0018455D02*
Y0021223D01*
X0019730Y0029783D02*
Y0032501D01*
Y0026557D02*
Y0028970D01*
Y0024373D02*
Y0025440D01*
Y0021858D02*
Y0023052D01*
Y0018480D02*
Y0021198D01*
X0019705Y0029783D02*
Y0032501D01*
Y0026583D02*
Y0028920D01*
Y0024373D02*
Y0025440D01*
Y0021858D02*
Y0023027D01*
Y0019344D02*
Y0021198D01*
Y0018455D02*
Y0019318D01*
X0019679Y0029783D02*
Y0032501D01*
Y0026608D02*
Y0028894D01*
Y0024373D02*
Y0025440D01*
Y0021833D02*
Y0023027D01*
Y0019369D02*
Y0021173D01*
Y0018455D02*
Y0019318D01*
X0019654Y0029783D02*
Y0032501D01*
Y0026634D02*
Y0028869D01*
Y0024373D02*
Y0025440D01*
Y0021833D02*
Y0023001D01*
Y0019369D02*
Y0021147D01*
Y0018455D02*
Y0019318D01*
X0019628Y0029783D02*
Y0032501D01*
Y0026684D02*
Y0028843D01*
Y0024373D02*
Y0025440D01*
Y0021808D02*
Y0023001D01*
Y0019395D02*
Y0021122D01*
Y0018455D02*
Y0019318D01*
X0019603Y0029783D02*
Y0032501D01*
Y0026710D02*
Y0028793D01*
Y0024373D02*
Y0025440D01*
Y0021782D02*
Y0022976D01*
Y0019420D02*
Y0021096D01*
Y0018455D02*
Y0019318D01*
X0019578Y0029783D02*
Y0032501D01*
Y0026761D02*
Y0028767D01*
Y0024373D02*
Y0025440D01*
Y0021782D02*
Y0022976D01*
Y0019471D02*
Y0021071D01*
Y0018455D02*
Y0019318D01*
X0019552Y0029783D02*
Y0032501D01*
Y0026786D02*
Y0028716D01*
Y0024373D02*
Y0025440D01*
Y0021757D02*
Y0022951D01*
Y0019496D02*
Y0021046D01*
Y0018429D02*
Y0019293D01*
X0019527Y0029783D02*
Y0032501D01*
Y0026837D02*
Y0028691D01*
Y0024373D02*
Y0025440D01*
Y0021757D02*
Y0022951D01*
Y0019522D02*
Y0021020D01*
Y0018429D02*
Y0019293D01*
X0019501Y0029783D02*
Y0032501D01*
Y0026888D02*
Y0028640D01*
Y0024373D02*
Y0025440D01*
Y0021731D02*
Y0022925D01*
Y0019572D02*
Y0020969D01*
Y0018429D02*
Y0019293D01*
X0019476Y0029783D02*
Y0032501D01*
Y0026938D02*
Y0028589D01*
Y0024373D02*
Y0025440D01*
Y0021731D02*
Y0022925D01*
Y0019623D02*
Y0020944D01*
Y0018429D02*
Y0019293D01*
X0019451Y0029783D02*
Y0032501D01*
Y0026989D02*
Y0028513D01*
Y0024373D02*
Y0025440D01*
Y0021706D02*
Y0022900D01*
Y0019674D02*
Y0020893D01*
Y0018404D02*
Y0019268D01*
X0019425Y0029783D02*
Y0032501D01*
Y0027065D02*
Y0028462D01*
Y0024373D02*
Y0025440D01*
Y0021681D02*
Y0022900D01*
Y0019725D02*
Y0020842D01*
Y0018404D02*
Y0019268D01*
X0019400Y0029783D02*
Y0032501D01*
Y0027116D02*
Y0028386D01*
Y0024373D02*
Y0025440D01*
Y0021681D02*
Y0022874D01*
Y0019801D02*
Y0020792D01*
Y0018404D02*
Y0019268D01*
X0019374Y0027218D02*
Y0028285D01*
Y0019877D02*
Y0020715D01*
X0019349Y0027319D02*
Y0028183D01*
Y0019953D02*
Y0020639D01*
X0019324Y0028005D02*
Y0028031D01*
Y0027497D02*
Y0027980D01*
Y0020080D02*
Y0020512D01*
X0019019Y0028945D02*
Y0028996D01*
X0018993Y0028894D02*
Y0029021D01*
Y0026507D02*
Y0026557D01*
X0018968Y0028869D02*
Y0029047D01*
Y0026481D02*
Y0026583D01*
X0018943Y0028818D02*
Y0029047D01*
Y0026481D02*
Y0026634D01*
X0018917Y0028767D02*
Y0029072D01*
Y0026456D02*
Y0026684D01*
X0018892Y0028716D02*
Y0029097D01*
Y0026430D02*
Y0026735D01*
X0018866Y0028640D02*
Y0029123D01*
Y0026405D02*
Y0026786D01*
X0018841Y0028589D02*
Y0029123D01*
Y0026405D02*
Y0026862D01*
X0018816Y0028539D02*
Y0029148D01*
Y0026380D02*
Y0026913D01*
X0018790Y0028462D02*
Y0029174D01*
Y0026354D02*
Y0026989D01*
X0018765Y0028386D02*
Y0029148D01*
Y0026354D02*
Y0027065D01*
X0018739Y0028285D02*
Y0029123D01*
Y0026329D02*
Y0027167D01*
X0018714Y0028158D02*
Y0029072D01*
Y0026380D02*
Y0027269D01*
X0018689Y0028031D02*
Y0029021D01*
Y0026430D02*
Y0027421D01*
X0018663Y0026481D02*
Y0028970D01*
X0018638Y0026507D02*
Y0028945D01*
X0018612Y0026557D02*
Y0028894D01*
X0018587Y0026608D02*
Y0028843D01*
X0018562Y0026684D02*
Y0028767D01*
X0018536Y0026735D02*
Y0028716D01*
X0018511Y0026811D02*
Y0028640D01*
X0018485Y0026888D02*
Y0028564D01*
X0018460Y0026964D02*
Y0028488D01*
X0018435Y0027040D02*
Y0028412D01*
X0018409Y0027142D02*
Y0028310D01*
X0018384Y0027269D02*
Y0028158D01*
X0018358Y0027980D02*
Y0028005D01*
Y0027497D02*
Y0027954D01*
Y0027446D02*
Y0027472D01*
X0018308Y0029478D02*
Y0029504D01*
X0018282Y0029428D02*
Y0029529D01*
X0018257Y0029377D02*
Y0029529D01*
Y0025999D02*
Y0026075D01*
X0018231Y0029351D02*
Y0029555D01*
Y0025973D02*
Y0026100D01*
X0018206Y0029301D02*
Y0029580D01*
Y0025948D02*
Y0026151D01*
X0018181Y0029250D02*
Y0029605D01*
Y0025948D02*
Y0026202D01*
X0018155Y0029199D02*
Y0029605D01*
Y0025922D02*
Y0026253D01*
X0018130Y0029148D02*
Y0029631D01*
Y0025897D02*
Y0026278D01*
X0018104Y0029097D02*
Y0029656D01*
Y0025897D02*
Y0026354D01*
X0018079Y0029047D02*
Y0029656D01*
Y0025872D02*
Y0026405D01*
X0018054Y0028996D02*
Y0029682D01*
Y0025846D02*
Y0026456D01*
X0018028Y0028945D02*
Y0029707D01*
Y0025821D02*
Y0026507D01*
X0018003Y0028869D02*
Y0029732D01*
Y0025821D02*
Y0026583D01*
X0017977Y0028818D02*
Y0029732D01*
Y0025795D02*
Y0026634D01*
X0017952Y0028742D02*
Y0029707D01*
Y0025770D02*
Y0026710D01*
X0017927Y0028640D02*
Y0029682D01*
Y0025770D02*
Y0026786D01*
X0017901Y0028564D02*
Y0029631D01*
Y0025821D02*
Y0026888D01*
X0017876Y0028462D02*
Y0029580D01*
Y0025846D02*
Y0026989D01*
X0017850Y0028335D02*
Y0029555D01*
Y0025897D02*
Y0027116D01*
X0017825Y0028183D02*
Y0029504D01*
Y0025948D02*
Y0027243D01*
X0017800Y0027980D02*
Y0029453D01*
Y0027446D02*
Y0027472D01*
Y0025999D02*
Y0027421D01*
X0017774Y0026049D02*
Y0029402D01*
X0017749Y0026100D02*
Y0029377D01*
X0017723Y0026151D02*
Y0029326D01*
X0017698Y0026176D02*
Y0029250D01*
X0017673Y0026253D02*
Y0029199D01*
X0017647Y0026303D02*
Y0029148D01*
X0017622Y0026380D02*
Y0029072D01*
X0017596Y0026430D02*
Y0029021D01*
X0017571Y0026507D02*
Y0028945D01*
X0017546Y0029961D02*
Y0030037D01*
Y0026583D02*
Y0028869D01*
X0017520Y0029936D02*
Y0030063D01*
Y0026659D02*
Y0028793D01*
Y0025465D02*
Y0025516D01*
X0017495Y0029885D02*
Y0030088D01*
Y0026735D02*
Y0028716D01*
Y0025465D02*
Y0025567D01*
X0017469Y0029834D02*
Y0030088D01*
Y0026837D02*
Y0028615D01*
Y0025440D02*
Y0025618D01*
X0017444Y0029809D02*
Y0030113D01*
Y0026938D02*
Y0028513D01*
Y0025414D02*
Y0025643D01*
X0017419Y0029758D02*
Y0030139D01*
Y0027065D02*
Y0028386D01*
Y0025414D02*
Y0025694D01*
X0017393Y0029707D02*
Y0030139D01*
Y0027243D02*
Y0028208D01*
Y0025389D02*
Y0025745D01*
X0017368Y0029656D02*
Y0030164D01*
Y0027421D02*
Y0027980D01*
Y0025364D02*
Y0025795D01*
X0017342Y0029605D02*
Y0030190D01*
Y0025338D02*
Y0025846D01*
X0017317Y0029580D02*
Y0030190D01*
Y0025338D02*
Y0025897D01*
X0017292Y0029504D02*
Y0030215D01*
Y0025313D02*
Y0025948D01*
X0017266Y0029453D02*
Y0030240D01*
Y0025287D02*
Y0025999D01*
X0017241Y0029402D02*
Y0030266D01*
Y0025287D02*
Y0026049D01*
X0017215Y0029351D02*
Y0030266D01*
Y0025262D02*
Y0026100D01*
X0017190Y0029275D02*
Y0030291D01*
Y0025237D02*
Y0026151D01*
X0017165Y0029224D02*
Y0030317D01*
Y0025237D02*
Y0026227D01*
X0017139Y0029148D02*
Y0030317D01*
Y0025211D02*
Y0026303D01*
X0017114Y0029097D02*
Y0030291D01*
Y0025186D02*
Y0026354D01*
X0017088Y0029021D02*
Y0030240D01*
Y0025211D02*
Y0026430D01*
X0017063Y0028945D02*
Y0030215D01*
Y0025237D02*
Y0026507D01*
X0017038Y0028843D02*
Y0030164D01*
Y0025287D02*
Y0026608D01*
X0017012Y0028742D02*
Y0030113D01*
Y0025338D02*
Y0026710D01*
X0016987Y0028640D02*
Y0030088D01*
Y0025364D02*
Y0026811D01*
X0016961Y0028513D02*
Y0030037D01*
Y0025414D02*
Y0026938D01*
X0016936Y0028412D02*
Y0029986D01*
Y0025465D02*
Y0027040D01*
X0016911Y0028234D02*
Y0029936D01*
Y0028183D02*
Y0028208D01*
Y0027243D02*
Y0027269D01*
Y0025491D02*
Y0027218D01*
X0016885Y0027878D02*
Y0029910D01*
Y0027802D02*
Y0027853D01*
Y0027751D02*
Y0027777D01*
Y0027650D02*
Y0027675D01*
Y0027599D02*
Y0027624D01*
Y0025541D02*
Y0027573D01*
X0016860Y0025592D02*
Y0029859D01*
X0016834Y0025643D02*
Y0029809D01*
X0016809Y0025694D02*
Y0029758D01*
X0016784Y0025745D02*
Y0029707D01*
X0016758Y0025795D02*
Y0029656D01*
X0016733Y0025872D02*
Y0029580D01*
X0016707Y0025922D02*
Y0029529D01*
X0016682Y0025999D02*
Y0029453D01*
X0016657Y0026049D02*
Y0029402D01*
X0016631Y0026126D02*
Y0029326D01*
X0016606Y0026202D02*
Y0029250D01*
X0016580Y0026253D02*
Y0029199D01*
X0016555Y0026354D02*
Y0029097D01*
X0016530Y0026430D02*
Y0029021D01*
X0016504Y0026532D02*
Y0028920D01*
X0016479Y0026608D02*
Y0028843D01*
X0016453Y0026735D02*
Y0028716D01*
X0016428Y0026837D02*
Y0028615D01*
X0016403Y0026989D02*
Y0028437D01*
X0016377Y0028259D02*
Y0028285D01*
Y0027167D02*
Y0028234D01*
X0016352Y0027929D02*
Y0027980D01*
Y0027548D02*
Y0027904D01*
Y0027472D02*
Y0027523D01*
D15*
X0047423Y0012345D02*
X0047474D01*
X0047423Y0012319D02*
X0047499D01*
X0047398Y0012294D02*
X0047499D01*
X0047372Y0012269D02*
X0047525D01*
X0047372Y0012243D02*
X0047525D01*
X0047347Y0012218D02*
X0047550D01*
X0047347Y0012192D02*
X0047550D01*
X0047322Y0012167D02*
X0047576D01*
X0047296Y0012142D02*
X0047601D01*
X0047296Y0012116D02*
X0047601D01*
X0047271Y0012091D02*
X0047626D01*
X0047245Y0012065D02*
X0047626D01*
X0047245Y0012040D02*
X0047652D01*
X0047220Y0012015D02*
X0047652D01*
X0047220Y0011989D02*
X0047677D01*
X0047195Y0011964D02*
X0047677D01*
X0047169Y0011938D02*
X0047703D01*
X0047169Y0011913D02*
X0047703D01*
X0047144Y0011888D02*
X0047728D01*
X0047144Y0011862D02*
X0047728D01*
X0047118Y0011837D02*
X0047753D01*
X0047093Y0011811D02*
X0047753D01*
X0047093Y0011786D02*
X0047779D01*
X0047068Y0011761D02*
X0047779D01*
X0047068Y0011735D02*
X0047804D01*
X0047042Y0011710D02*
X0047804D01*
X0047017Y0011684D02*
X0047830D01*
X0047017Y0011659D02*
X0047830D01*
X0046991Y0011634D02*
X0047855D01*
X0046966Y0011608D02*
X0047855D01*
X0046966Y0011583D02*
X0047880D01*
X0046941Y0011557D02*
X0047880D01*
X0046941Y0011532D02*
X0047906D01*
X0046915Y0011507D02*
X0047906D01*
X0046890Y0011481D02*
X0047931D01*
X0046890Y0011456D02*
X0047957D01*
X0046864Y0011430D02*
X0047957D01*
X0046864Y0011405D02*
X0047982D01*
X0046839Y0011380D02*
X0047982D01*
X0046814Y0011354D02*
X0048007D01*
X0046814Y0011329D02*
X0048007D01*
X0046788Y0011303D02*
X0048033D01*
X0046763Y0011278D02*
X0048033D01*
X0046763Y0011253D02*
X0048058D01*
X0046737Y0011227D02*
X0048058D01*
X0046737Y0011202D02*
X0048084D01*
X0046712Y0011176D02*
X0048084D01*
X0046687Y0011151D02*
X0048109D01*
X0046687Y0011126D02*
X0048109D01*
X0046661Y0011100D02*
X0048134D01*
X0046661Y0011075D02*
X0048134D01*
X0046636Y0011049D02*
X0048160D01*
X0046610Y0011024D02*
X0048160D01*
X0046610Y0010999D02*
X0048185D01*
X0046585Y0010973D02*
X0048185D01*
X0046560Y0010948D02*
X0048211D01*
X0046560Y0010922D02*
X0048211D01*
X0046534Y0010897D02*
X0048236D01*
X0046534Y0010872D02*
X0048236D01*
X0046509Y0010846D02*
X0048261D01*
X0046483Y0010821D02*
X0048261D01*
X0046483Y0010795D02*
X0048287D01*
X0046458Y0010770D02*
X0048312D01*
X0046458Y0010745D02*
X0048312D01*
X0046433Y0010719D02*
X0048338D01*
X0046407Y0010694D02*
X0048338D01*
X0046407Y0010668D02*
X0048363D01*
X0046382Y0010643D02*
X0048363D01*
X0046382Y0010618D02*
X0048388D01*
X0046356Y0010592D02*
X0048388D01*
X0046331Y0010567D02*
X0048414D01*
X0046331Y0010541D02*
X0048414D01*
X0046306Y0010516D02*
X0048439D01*
X0046280Y0010491D02*
X0048439D01*
X0046280Y0010465D02*
X0048465D01*
X0046255Y0010440D02*
X0048465D01*
X0046255Y0010414D02*
X0048490D01*
X0046229Y0010389D02*
X0048490D01*
X0046204Y0010364D02*
X0048515D01*
X0046204Y0010338D02*
X0048515D01*
X0046179Y0010313D02*
X0048541D01*
X0046179Y0010287D02*
X0048541D01*
X0046153Y0010262D02*
X0048566D01*
X0046128Y0010237D02*
X0048566D01*
X0046128Y0010211D02*
X0048592D01*
X0046102Y0010186D02*
X0048592D01*
X0046077Y0010160D02*
X0048617D01*
X0046077Y0010135D02*
X0048617D01*
X0046052Y0010110D02*
X0048642D01*
X0046052Y0010084D02*
X0048668D01*
X0046026Y0010059D02*
X0048668D01*
X0046001Y0010033D02*
X0048693D01*
X0046001Y0010008D02*
X0048693D01*
X0045975Y0009983D02*
X0048719D01*
X0045975Y0009957D02*
X0048719D01*
X0045950Y0009932D02*
X0048744D01*
X0045925Y0009906D02*
X0048744D01*
X0045925Y0009881D02*
X0048744D01*
X0045899Y0009856D02*
X0048769D01*
X0045874Y0009830D02*
X0048769D01*
X0045874Y0009805D02*
X0048769D01*
X0045848Y0009779D02*
X0048744D01*
X0045848Y0009754D02*
X0048744D01*
X0045823Y0009729D02*
X0048744D01*
X0045798Y0009703D02*
X0048719D01*
X0045798Y0009678D02*
X0048719D01*
X0045772Y0009652D02*
X0048693D01*
X0045772Y0009627D02*
X0048693D01*
X0045747Y0009602D02*
X0048668D01*
X0045721Y0009576D02*
X0048642D01*
X0045721Y0009551D02*
X0048617D01*
X0045696Y0009525D02*
X0048592D01*
X0045696Y0009500D02*
X0048541D01*
X0045671Y0009475D02*
X0048515D01*
X0045645Y0009449D02*
X0048465D01*
X0045645Y0009424D02*
X0048414D01*
X0045620Y0009398D02*
X0048363D01*
X0045594Y0009373D02*
X0048312D01*
X0045594Y0009348D02*
X0048236D01*
X0045569Y0009322D02*
X0048160D01*
X0045569Y0009297D02*
X0048058D01*
X0045544Y0009271D02*
X0047931D01*
X0045518Y0009246D02*
X0047804D01*
X0045518Y0009221D02*
X0047601D01*
X0045493Y0009195D02*
X0047296D01*
X0045493Y0009170D02*
X0046788D01*
X0045467Y0009144D02*
X0046610D01*
X0045442Y0009119D02*
X0046483D01*
X0045442Y0009094D02*
X0046382D01*
X0045417Y0009068D02*
X0046306D01*
X0045391Y0009043D02*
X0046229D01*
X0045391Y0009017D02*
X0046153D01*
X0045366Y0008992D02*
X0046102D01*
X0045366Y0008967D02*
X0046052D01*
X0045340Y0008941D02*
X0046001D01*
X0045315Y0008916D02*
X0045950D01*
X0045315Y0008890D02*
X0045925D01*
X0045290Y0008865D02*
X0045874D01*
X0045290Y0008840D02*
X0045848D01*
X0045290Y0008814D02*
X0045798D01*
X0045315Y0008789D02*
X0045772D01*
X0045366Y0008763D02*
X0045747D01*
X0045391Y0008738D02*
X0045721D01*
X0045442Y0008713D02*
X0045696D01*
X0045467Y0008687D02*
X0045671D01*
X0045518Y0008662D02*
X0045645D01*
X0045544Y0008636D02*
X0045620D01*
X0044909Y0008255D02*
X0044959D01*
X0044909Y0008230D02*
X0044985D01*
X0044883Y0008205D02*
X0045036D01*
X0049582D02*
X0049608D01*
X0044858Y0008179D02*
X0045061D01*
X0049506D02*
X0049633D01*
X0044858Y0008154D02*
X0045112D01*
X0049455D02*
X0049633D01*
X0044832Y0008128D02*
X0045163D01*
X0049379D02*
X0049658D01*
X0044832Y0008103D02*
X0045188D01*
X0049303D02*
X0049658D01*
X0044807Y0008078D02*
X0045239D01*
X0049227D02*
X0049684D01*
X0044782Y0008052D02*
X0045239D01*
X0049227D02*
X0049684D01*
X0044782Y0008027D02*
X0045239D01*
X0049227D02*
X0049709D01*
X0044756Y0008001D02*
X0045213D01*
X0049201D02*
X0049735D01*
X0044756Y0007976D02*
X0045213D01*
X0049201D02*
X0049735D01*
X0044731Y0007951D02*
X0045188D01*
X0049176D02*
X0049760D01*
X0044705Y0007925D02*
X0045188D01*
X0049176D02*
X0049760D01*
X0044705Y0007900D02*
X0045163D01*
X0049150D02*
X0049785D01*
X0044680Y0007874D02*
X0045163D01*
X0049125D02*
X0049785D01*
X0044680Y0007849D02*
X0045137D01*
X0049125D02*
X0049811D01*
X0044655Y0007824D02*
X0045137D01*
X0049100D02*
X0049811D01*
X0044629Y0007798D02*
X0045137D01*
X0049100D02*
X0049836D01*
X0044629Y0007773D02*
X0045112D01*
X0049074D02*
X0049836D01*
X0044604Y0007747D02*
X0045112D01*
X0049049D02*
X0049862D01*
X0044604Y0007722D02*
X0045086D01*
X0049049D02*
X0049862D01*
X0044578Y0007697D02*
X0045086D01*
X0049023D02*
X0049887D01*
X0044553Y0007671D02*
X0045061D01*
X0048998D02*
X0049912D01*
X0044553Y0007646D02*
X0045061D01*
X0045975D02*
X0046026D01*
X0048973D02*
X0049912D01*
X0044528Y0007620D02*
X0045036D01*
X0045975D02*
X0046052D01*
X0048973D02*
X0049938D01*
X0044528Y0007595D02*
X0045036D01*
X0045950D02*
X0046077D01*
X0048947D02*
X0049938D01*
X0044502Y0007570D02*
X0045036D01*
X0045950D02*
X0046102D01*
X0048922D02*
X0049963D01*
X0044477Y0007544D02*
X0045010D01*
X0045925D02*
X0046128D01*
X0048896D02*
X0049963D01*
X0044477Y0007519D02*
X0045010D01*
X0045925D02*
X0046153D01*
X0048871D02*
X0049989D01*
X0044451Y0007493D02*
X0045010D01*
X0045899D02*
X0046179D01*
X0048846D02*
X0049989D01*
X0044451Y0007468D02*
X0044985D01*
X0045874D02*
X0046001D01*
X0046052D02*
X0046204D01*
X0048846D02*
X0050014D01*
X0044426Y0007443D02*
X0044985D01*
X0045848D02*
X0046001D01*
X0046077D02*
X0046255D01*
X0048820D02*
X0050014D01*
X0044401Y0007417D02*
X0044959D01*
X0045848D02*
X0045975D01*
X0046102D02*
X0046280D01*
X0048795D02*
X0050039D01*
X0044401Y0007392D02*
X0044959D01*
X0045823D02*
X0045975D01*
X0046128D02*
X0046306D01*
X0048744D02*
X0050065D01*
X0044375Y0007366D02*
X0044959D01*
X0045798D02*
X0045975D01*
X0046153D02*
X0046356D01*
X0048719D02*
X0050065D01*
X0044375Y0007341D02*
X0044934D01*
X0045772D02*
X0045950D01*
X0046179D02*
X0046382D01*
X0048693D02*
X0050090D01*
X0044350Y0007316D02*
X0044934D01*
X0045747D02*
X0045950D01*
X0046204D02*
X0046433D01*
X0048668D02*
X0050090D01*
X0044324Y0007290D02*
X0044934D01*
X0045721D02*
X0045925D01*
X0046229D02*
X0046458D01*
X0048642D02*
X0050116D01*
X0044324Y0007265D02*
X0044934D01*
X0045721D02*
X0045899D01*
X0046280D02*
X0046509D01*
X0048617D02*
X0050116D01*
X0044299Y0007239D02*
X0044934D01*
X0045696D02*
X0045899D01*
X0046280D02*
X0046534D01*
X0048566D02*
X0050141D01*
X0044299Y0007214D02*
X0044909D01*
X0045671D02*
X0045874D01*
X0046255D02*
X0046382D01*
X0046433D02*
X0046585D01*
X0048541D02*
X0050141D01*
X0044274Y0007189D02*
X0044909D01*
X0045645D02*
X0045874D01*
X0046229D02*
X0046356D01*
X0046483D02*
X0046636D01*
X0048490D02*
X0050166D01*
X0044248Y0007163D02*
X0044909D01*
X0045620D02*
X0045848D01*
X0046229D02*
X0046356D01*
X0046534D02*
X0046687D01*
X0048465D02*
X0050166D01*
X0044248Y0007138D02*
X0044909D01*
X0045569D02*
X0045823D01*
X0046204D02*
X0046331D01*
X0046585D02*
X0046737D01*
X0048414D02*
X0050192D01*
X0044223Y0007112D02*
X0044909D01*
X0045569D02*
X0045798D01*
X0046204D02*
X0046331D01*
X0046636D02*
X0046814D01*
X0048363D02*
X0050192D01*
X0044223Y0007087D02*
X0044909D01*
X0045569D02*
X0045772D01*
X0046179D02*
X0046306D01*
X0046636D02*
X0046864D01*
X0048338D02*
X0050217D01*
X0044197Y0007062D02*
X0044934D01*
X0045594D02*
X0045772D01*
X0046179D02*
X0046306D01*
X0046636D02*
X0046941D01*
X0048338D02*
X0050243D01*
X0044172Y0007036D02*
X0044934D01*
X0045594D02*
X0045772D01*
X0046153D02*
X0046306D01*
X0046636D02*
X0046966D01*
X0048338D02*
X0050243D01*
X0044172Y0007011D02*
X0044934D01*
X0045620D02*
X0045798D01*
X0046153D02*
X0046280D01*
X0046661D02*
X0046941D01*
X0048338D02*
X0050268D01*
X0044147Y0006985D02*
X0044934D01*
X0045620D02*
X0045798D01*
X0046153D02*
X0046280D01*
X0046661D02*
X0046915D01*
X0048312D02*
X0050268D01*
X0044147Y0006960D02*
X0044934D01*
X0045620D02*
X0045798D01*
X0046153D02*
X0046280D01*
X0046712D02*
X0046915D01*
X0048312D02*
X0050293D01*
X0044121Y0006935D02*
X0044934D01*
X0045645D02*
X0045823D01*
X0046153D02*
X0046280D01*
X0046737D02*
X0046890D01*
X0048338D02*
X0050293D01*
X0044096Y0006909D02*
X0044934D01*
X0045645D02*
X0045823D01*
X0046153D02*
X0046280D01*
X0046737D02*
X0046864D01*
X0048388D02*
X0050319D01*
X0044096Y0006884D02*
X0044934D01*
X0045645D02*
X0045823D01*
X0046179D02*
X0046306D01*
X0046712D02*
X0046839D01*
X0048439D02*
X0050319D01*
X0044070Y0006858D02*
X0044959D01*
X0045671D02*
X0045823D01*
X0046179D02*
X0046306D01*
X0046687D02*
X0046814D01*
X0048465D02*
X0050344D01*
X0044070Y0006833D02*
X0044959D01*
X0045671D02*
X0045823D01*
X0046179D02*
X0046331D01*
X0046661D02*
X0046788D01*
X0048515D02*
X0050344D01*
X0044045Y0006808D02*
X0044959D01*
X0045671D02*
X0045823D01*
X0046179D02*
X0046331D01*
X0046636D02*
X0046763D01*
X0048566D02*
X0050370D01*
X0044020Y0006782D02*
X0044959D01*
X0045671D02*
X0045848D01*
X0046204D02*
X0046331D01*
X0046585D02*
X0046737D01*
X0048617D02*
X0050395D01*
X0044020Y0006757D02*
X0044959D01*
X0045696D02*
X0045848D01*
X0046204D02*
X0046356D01*
X0046560D02*
X0046737D01*
X0048642D02*
X0050395D01*
X0043994Y0006731D02*
X0044959D01*
X0045696D02*
X0045848D01*
X0046204D02*
X0046356D01*
X0046534D02*
X0046712D01*
X0048693D02*
X0050420D01*
X0043994Y0006706D02*
X0044985D01*
X0045696D02*
X0045848D01*
X0046204D02*
X0046382D01*
X0046509D02*
X0046687D01*
X0048744D02*
X0050420D01*
X0043969Y0006681D02*
X0044985D01*
X0045696D02*
X0045848D01*
X0046229D02*
X0046382D01*
X0046483D02*
X0046636D01*
X0048769D02*
X0050446D01*
X0043943Y0006655D02*
X0044985D01*
X0045696D02*
X0045848D01*
X0046229D02*
X0046407D01*
X0046458D02*
X0046610D01*
X0048820D02*
X0050446D01*
X0043943Y0006630D02*
X0044985D01*
X0045696D02*
X0045848D01*
X0046229D02*
X0046407D01*
X0046433D02*
X0046585D01*
X0048871D02*
X0050471D01*
X0043918Y0006604D02*
X0045010D01*
X0045696D02*
X0045848D01*
X0046229D02*
X0046560D01*
X0047626D02*
X0047728D01*
X0048922D02*
X0050471D01*
X0043918Y0006579D02*
X0045010D01*
X0045696D02*
X0045848D01*
X0046255D02*
X0046534D01*
X0047576D02*
X0047753D01*
X0048947D02*
X0050497D01*
X0043893Y0006554D02*
X0045010D01*
X0045696D02*
X0045848D01*
X0046255D02*
X0046509D01*
X0047550D02*
X0047804D01*
X0048998D02*
X0050497D01*
X0043867Y0006528D02*
X0045010D01*
X0045696D02*
X0045848D01*
X0046255D02*
X0046483D01*
X0047499D02*
X0047830D01*
X0049049D02*
X0050522D01*
X0043867Y0006503D02*
X0045036D01*
X0045696D02*
X0045848D01*
X0046280D02*
X0046458D01*
X0047474D02*
X0047880D01*
X0049100D02*
X0050522D01*
X0043842Y0006477D02*
X0045036D01*
X0045696D02*
X0045848D01*
X0046255D02*
X0046433D01*
X0047449D02*
X0047931D01*
X0049125D02*
X0050547D01*
X0043842Y0006452D02*
X0045036D01*
X0045671D02*
X0045848D01*
X0046229D02*
X0046407D01*
X0047423D02*
X0047957D01*
X0049176D02*
X0050573D01*
X0043816Y0006427D02*
X0045036D01*
X0045671D02*
X0045848D01*
X0046229D02*
X0046356D01*
X0047398D02*
X0048007D01*
X0049227D02*
X0050573D01*
X0043791Y0006401D02*
X0045061D01*
X0045671D02*
X0045848D01*
X0046204D02*
X0046331D01*
X0047372D02*
X0048033D01*
X0049252D02*
X0050598D01*
X0043791Y0006376D02*
X0045061D01*
X0045645D02*
X0045848D01*
X0046204D02*
X0046306D01*
X0047347D02*
X0048084D01*
X0049303D02*
X0050598D01*
X0043766Y0006350D02*
X0045061D01*
X0045645D02*
X0045848D01*
X0046179D02*
X0046306D01*
X0047322D02*
X0047423D01*
X0047449D02*
X0048134D01*
X0049354D02*
X0050624D01*
X0043766Y0006325D02*
X0045086D01*
X0045645D02*
X0045874D01*
X0046153D02*
X0046280D01*
X0047296D02*
X0047398D01*
X0047449D02*
X0048160D01*
X0049404D02*
X0050624D01*
X0043740Y0006300D02*
X0045086D01*
X0045620D02*
X0045874D01*
X0046153D02*
X0046255D01*
X0047271D02*
X0047398D01*
X0047474D02*
X0048211D01*
X0049430D02*
X0050649D01*
X0043715Y0006274D02*
X0045086D01*
X0045645D02*
X0045899D01*
X0046128D02*
X0046229D01*
X0047271D02*
X0047372D01*
X0047474D02*
X0048236D01*
X0049481D02*
X0050649D01*
X0043715Y0006249D02*
X0045086D01*
X0045671D02*
X0045899D01*
X0046128D02*
X0046229D01*
X0047245D02*
X0047347D01*
X0047474D02*
X0048287D01*
X0049531D02*
X0050674D01*
X0043689Y0006223D02*
X0045112D01*
X0045696D02*
X0045925D01*
X0046102D02*
X0046204D01*
X0047220D02*
X0047322D01*
X0047474D02*
X0048338D01*
X0049557D02*
X0050674D01*
X0043689Y0006198D02*
X0045112D01*
X0045721D02*
X0045925D01*
X0046102D02*
X0046204D01*
X0047195D02*
X0047296D01*
X0047449D02*
X0048363D01*
X0049608D02*
X0050700D01*
X0043664Y0006173D02*
X0045112D01*
X0045721D02*
X0045950D01*
X0046077D02*
X0046179D01*
X0047169D02*
X0047296D01*
X0047449D02*
X0048414D01*
X0049658D02*
X0050725D01*
X0043639Y0006147D02*
X0045137D01*
X0045747D02*
X0045950D01*
X0046077D02*
X0046179D01*
X0047144D02*
X0047271D01*
X0047423D02*
X0048439D01*
X0049709D02*
X0050725D01*
X0043639Y0006122D02*
X0045137D01*
X0045747D02*
X0045975D01*
X0046052D02*
X0046153D01*
X0047144D02*
X0047245D01*
X0047398D02*
X0048490D01*
X0049735D02*
X0050751D01*
X0043613Y0006096D02*
X0045137D01*
X0045772D02*
X0046001D01*
X0046052D02*
X0046153D01*
X0047118D02*
X0047220D01*
X0047347D02*
X0048541D01*
X0049785D02*
X0050751D01*
X0043613Y0006071D02*
X0045163D01*
X0045772D02*
X0046001D01*
X0046052D02*
X0046153D01*
X0047093D02*
X0047195D01*
X0047296D02*
X0048566D01*
X0049836D02*
X0050776D01*
X0043588Y0006046D02*
X0045163D01*
X0045798D02*
X0046128D01*
X0047068D02*
X0048617D01*
X0049862D02*
X0050776D01*
X0043562Y0006020D02*
X0045163D01*
X0045798D02*
X0046128D01*
X0047042D02*
X0048642D01*
X0049912D02*
X0050801D01*
X0043562Y0005995D02*
X0045188D01*
X0045798D02*
X0046128D01*
X0047042D02*
X0048693D01*
X0049963D02*
X0050801D01*
X0043537Y0005969D02*
X0045188D01*
X0045823D02*
X0046128D01*
X0046585D02*
X0046737D01*
X0047017D02*
X0048744D01*
X0050014D02*
X0050827D01*
X0043537Y0005944D02*
X0045188D01*
X0045823D02*
X0046128D01*
X0046509D02*
X0046839D01*
X0046991D02*
X0047118D01*
X0047169D02*
X0048769D01*
X0050039D02*
X0050827D01*
X0043512Y0005919D02*
X0045213D01*
X0045290D02*
X0045391D01*
X0045823D02*
X0046128D01*
X0046458D02*
X0046890D01*
X0046966D02*
X0047093D01*
X0047169D02*
X0048820D01*
X0050090D02*
X0050852D01*
X0043486Y0005893D02*
X0045213D01*
X0045239D02*
X0045442D01*
X0045823D02*
X0046128D01*
X0046407D02*
X0046915D01*
X0046941D02*
X0047068D01*
X0047169D02*
X0048846D01*
X0050141D02*
X0050878D01*
X0043486Y0005868D02*
X0045467D01*
X0045823D02*
X0046128D01*
X0046382D02*
X0046534D01*
X0046763D02*
X0047068D01*
X0047169D02*
X0048896D01*
X0050166D02*
X0050878D01*
X0043461Y0005842D02*
X0045467D01*
X0045848D02*
X0046128D01*
X0046356D02*
X0046483D01*
X0046814D02*
X0047042D01*
X0047169D02*
X0048947D01*
X0050217D02*
X0050903D01*
X0043461Y0005817D02*
X0045290D01*
X0045366D02*
X0045493D01*
X0045848D02*
X0046128D01*
X0046306D02*
X0046433D01*
X0046864D02*
X0047017D01*
X0047169D02*
X0048973D01*
X0050268D02*
X0050903D01*
X0043435Y0005792D02*
X0045290D01*
X0045391D02*
X0045493D01*
X0045848D02*
X0046128D01*
X0046280D02*
X0046407D01*
X0046864D02*
X0046991D01*
X0047144D02*
X0049023D01*
X0050319D02*
X0050928D01*
X0043410Y0005766D02*
X0045290D01*
X0045417D02*
X0045518D01*
X0045848D02*
X0046128D01*
X0046280D02*
X0046382D01*
X0046864D02*
X0046966D01*
X0047144D02*
X0049049D01*
X0050344D02*
X0050928D01*
X0043410Y0005741D02*
X0045290D01*
X0045442D02*
X0045518D01*
X0045848D02*
X0046128D01*
X0046255D02*
X0046356D01*
X0046864D02*
X0046966D01*
X0047118D02*
X0049100D01*
X0050395D02*
X0050954D01*
X0043385Y0005715D02*
X0045290D01*
X0045467D02*
X0045518D01*
X0045848D02*
X0046128D01*
X0046229D02*
X0046331D01*
X0046839D02*
X0046941D01*
X0047068D02*
X0049150D01*
X0050446D02*
X0050954D01*
X0043385Y0005690D02*
X0045290D01*
X0045467D02*
X0045544D01*
X0045848D02*
X0046128D01*
X0046204D02*
X0046306D01*
X0046814D02*
X0046915D01*
X0047017D02*
X0049176D01*
X0050497D02*
X0050979D01*
X0043359Y0005665D02*
X0045290D01*
X0045467D02*
X0045544D01*
X0045848D02*
X0046153D01*
X0046179D02*
X0046280D01*
X0046814D02*
X0046890D01*
X0046915D02*
X0049227D01*
X0050522D02*
X0050979D01*
X0043334Y0005639D02*
X0045290D01*
X0045493D02*
X0045544D01*
X0045848D02*
X0046153D01*
X0046179D02*
X0046255D01*
X0046788D02*
X0049252D01*
X0050573D02*
X0051005D01*
X0043334Y0005614D02*
X0045290D01*
X0045493D02*
X0045544D01*
X0045848D02*
X0046255D01*
X0046763D02*
X0049303D01*
X0050624D02*
X0051005D01*
X0043308Y0005588D02*
X0045290D01*
X0045493D02*
X0045569D01*
X0045848D02*
X0046229D01*
X0046712D02*
X0049354D01*
X0050649D02*
X0051030D01*
X0043308Y0005563D02*
X0045290D01*
X0045493D02*
X0045569D01*
X0045848D02*
X0046229D01*
X0046687D02*
X0049379D01*
X0050700D02*
X0051055D01*
X0043283Y0005538D02*
X0045290D01*
X0045493D02*
X0045569D01*
X0045848D02*
X0046229D01*
X0046636D02*
X0049430D01*
X0050751D02*
X0051055D01*
X0043258Y0005512D02*
X0045315D01*
X0045493D02*
X0045569D01*
X0045823D02*
X0046255D01*
X0046585D02*
X0049455D01*
X0050801D02*
X0051081D01*
X0043258Y0005487D02*
X0045315D01*
X0045493D02*
X0045569D01*
X0045823D02*
X0046280D01*
X0046483D02*
X0049506D01*
X0050827D02*
X0051081D01*
X0043232Y0005461D02*
X0045315D01*
X0045518D02*
X0045569D01*
X0045823D02*
X0049557D01*
X0050878D02*
X0051106D01*
X0043232Y0005436D02*
X0045340D01*
X0045518D02*
X0045569D01*
X0045823D02*
X0049582D01*
X0050928D02*
X0051106D01*
X0043207Y0005411D02*
X0045340D01*
X0045518D02*
X0045569D01*
X0045798D02*
X0049633D01*
X0050954D02*
X0051132D01*
X0043181Y0005385D02*
X0045366D01*
X0045518D02*
X0045594D01*
X0045798D02*
X0049658D01*
X0051005D02*
X0051132D01*
X0043181Y0005360D02*
X0045417D01*
X0045518D02*
X0045594D01*
X0045798D02*
X0049709D01*
X0051055D02*
X0051157D01*
X0043156Y0005334D02*
X0045594D01*
X0045772D02*
X0049760D01*
X0051106D02*
X0051157D01*
X0043156Y0005309D02*
X0045594D01*
X0045747D02*
X0049785D01*
X0051132D02*
X0051157D01*
X0043131Y0005284D02*
X0045594D01*
X0045721D02*
X0049836D01*
X0043105Y0005258D02*
X0049862D01*
X0043105Y0005233D02*
X0049912D01*
X0043080Y0005207D02*
X0049963D01*
X0043080Y0005182D02*
X0049989D01*
X0043054Y0005157D02*
X0050039D01*
X0043029Y0005131D02*
X0050065D01*
X0043029Y0005106D02*
X0050116D01*
X0043004Y0005080D02*
X0050166D01*
X0043004Y0005055D02*
X0050192D01*
X0042978Y0005030D02*
X0050243D01*
X0042953Y0005004D02*
X0050268D01*
X0042953Y0004979D02*
X0050319D01*
X0042927Y0004953D02*
X0050370D01*
X0042927Y0004928D02*
X0050395D01*
X0042902Y0004903D02*
X0050446D01*
X0042877Y0004877D02*
X0050471D01*
X0042877Y0004852D02*
X0050522D01*
X0042851Y0004826D02*
X0050573D01*
X0042851Y0004801D02*
X0050598D01*
X0042826Y0004776D02*
X0050649D01*
X0042800Y0004750D02*
X0050674D01*
X0042800Y0004725D02*
X0050725D01*
X0042775Y0004699D02*
X0050776D01*
X0042775Y0004674D02*
X0050801D01*
D16*
X0000550Y0003950D02*
Y0004850D01*
X0001150Y0003950D01*
Y0004850D01*
X0001600Y0003950D02*
X0001900D01*
X0002050Y0004100D01*
Y0004400D01*
X0001900Y0004550D01*
X0001600D01*
X0001450Y0004400D01*
Y0004100D01*
X0001600Y0003950D01*
X0002499Y0004700D02*
Y0004550D01*
X0002349D01*
X0002649D01*
X0002499D01*
Y0004100D01*
X0002649Y0003950D01*
X0004599Y0004850D02*
X0003999D01*
Y0004400D01*
X0004299D01*
X0003999D01*
Y0003950D01*
X0005498Y0004700D02*
X0005348Y0004850D01*
X0005049D01*
X0004899Y0004700D01*
Y0004100D01*
X0005049Y0003950D01*
X0005348D01*
X0005498Y0004100D01*
X0006398Y0004700D02*
X0006248Y0004850D01*
X0005948D01*
X0005798Y0004700D01*
Y0004100D01*
X0005948Y0003950D01*
X0006248D01*
X0006398Y0004100D01*
X0007748Y0004550D02*
X0008048D01*
X0008198Y0004400D01*
Y0003950D01*
X0007748D01*
X0007598Y0004100D01*
X0007748Y0004250D01*
X0008198D01*
X0008497Y0003650D02*
Y0004550D01*
X0008947D01*
X0009097Y0004400D01*
Y0004100D01*
X0008947Y0003950D01*
X0008497D01*
X0009397Y0003650D02*
Y0004550D01*
X0009847D01*
X0009997Y0004400D01*
Y0004100D01*
X0009847Y0003950D01*
X0009397D01*
X0010297Y0004550D02*
Y0003950D01*
Y0004250D01*
X0010447Y0004400D01*
X0010597Y0004550D01*
X0010747D01*
X0011347Y0003950D02*
X0011646D01*
X0011796Y0004100D01*
Y0004400D01*
X0011646Y0004550D01*
X0011347D01*
X0011197Y0004400D01*
Y0004100D01*
X0011347Y0003950D01*
X0012096Y0004550D02*
X0012396Y0003950D01*
X0012696Y0004550D01*
X0013446Y0003950D02*
X0013146D01*
X0012996Y0004100D01*
Y0004400D01*
X0013146Y0004550D01*
X0013446D01*
X0013596Y0004400D01*
Y0004250D01*
X0012996D01*
X0014495Y0004850D02*
Y0003950D01*
X0014046D01*
X0013896Y0004100D01*
Y0004400D01*
X0014046Y0004550D01*
X0014495D01*
X0015845Y0003950D02*
Y0004700D01*
Y0004400D01*
X0015695D01*
X0015995D01*
X0015845D01*
Y0004700D01*
X0015995Y0004850D01*
X0016595Y0003950D02*
X0016895D01*
X0017045Y0004100D01*
Y0004400D01*
X0016895Y0004550D01*
X0016595D01*
X0016445Y0004400D01*
Y0004100D01*
X0016595Y0003950D01*
X0017345Y0004550D02*
Y0003950D01*
Y0004250D01*
X0017495Y0004400D01*
X0017644Y0004550D01*
X0017794D01*
X0019144D02*
Y0003950D01*
Y0004250D01*
X0019294Y0004400D01*
X0019444Y0004550D01*
X0019594D01*
X0020494Y0003950D02*
X0020194D01*
X0020044Y0004100D01*
Y0004400D01*
X0020194Y0004550D01*
X0020494D01*
X0020643Y0004400D01*
Y0004250D01*
X0020044D01*
X0020943Y0003950D02*
X0021393D01*
X0021543Y0004100D01*
X0021393Y0004250D01*
X0021093D01*
X0020943Y0004400D01*
X0021093Y0004550D01*
X0021543D01*
X0021993D02*
X0022293D01*
X0022443Y0004400D01*
Y0003950D01*
X0021993D01*
X0021843Y0004100D01*
X0021993Y0004250D01*
X0022443D01*
X0022743Y0003950D02*
X0023043D01*
X0022893D01*
Y0004850D01*
X0022743D01*
X0023942Y0003950D02*
X0023643D01*
X0023493Y0004100D01*
Y0004400D01*
X0023643Y0004550D01*
X0023942D01*
X0024092Y0004400D01*
Y0004250D01*
X0023493D01*
X0001150Y0006350D02*
X0000550D01*
Y0005900D01*
X0000850D01*
X0000550D01*
Y0005450D01*
X0001600D02*
X0001900D01*
X0002050Y0005600D01*
Y0005900D01*
X0001900Y0006050D01*
X0001600D01*
X0001450Y0005900D01*
Y0005600D01*
X0001600Y0005450D01*
X0002349Y0006050D02*
Y0005450D01*
Y0005750D01*
X0002499Y0005900D01*
X0002649Y0006050D01*
X0002799D01*
X0004749Y0006350D02*
X0004149D01*
Y0005450D01*
X0004749D01*
X0004149Y0005900D02*
X0004449D01*
X0005049Y0006050D02*
X0005348Y0005450D01*
X0005648Y0006050D01*
X0006098D02*
X0006398D01*
X0006548Y0005900D01*
Y0005450D01*
X0006098D01*
X0005948Y0005600D01*
X0006098Y0005750D01*
X0006548D01*
X0006848Y0005450D02*
X0007148D01*
X0006998D01*
Y0006350D01*
X0006848D01*
X0007598Y0006050D02*
Y0005600D01*
X0007748Y0005450D01*
X0008198D01*
Y0006050D01*
X0008647D02*
X0008947D01*
X0009097Y0005900D01*
Y0005450D01*
X0008647D01*
X0008497Y0005600D01*
X0008647Y0005750D01*
X0009097D01*
X0009547Y0006200D02*
Y0006050D01*
X0009397D01*
X0009697D01*
X0009547D01*
Y0005600D01*
X0009697Y0005450D01*
X0010147D02*
X0010447D01*
X0010297D01*
Y0006050D01*
X0010147D01*
X0011047Y0005450D02*
X0011347D01*
X0011496Y0005600D01*
Y0005900D01*
X0011347Y0006050D01*
X0011047D01*
X0010897Y0005900D01*
Y0005600D01*
X0011047Y0005450D01*
X0011796D02*
Y0006050D01*
X0012246D01*
X0012396Y0005900D01*
Y0005450D01*
X0013746D02*
X0014046D01*
X0014196Y0005600D01*
Y0005900D01*
X0014046Y0006050D01*
X0013746D01*
X0013596Y0005900D01*
Y0005600D01*
X0013746Y0005450D01*
X0014495D02*
Y0006050D01*
X0014945D01*
X0015095Y0005900D01*
Y0005450D01*
X0015395D02*
X0015695D01*
X0015545D01*
Y0006350D01*
X0015395D01*
X0016145Y0006050D02*
Y0005600D01*
X0016295Y0005450D01*
X0016745D01*
Y0005300D01*
X0016595Y0005150D01*
X0016445D01*
X0016745Y0005450D02*
Y0006050D01*
X0006500Y0017500D02*
X0007033D01*
X0007300Y0017233D01*
X0007033Y0016967D01*
X0006500D01*
X0006900D01*
Y0017500D01*
X0007300Y0016167D02*
Y0016700D01*
X0006900D01*
X0007033Y0016434D01*
Y0016300D01*
X0006900Y0016167D01*
X0006633D01*
X0006500Y0016300D01*
Y0016567D01*
X0006633Y0016700D01*
X0006500Y0015101D02*
X0007033D01*
X0007300Y0014834D01*
X0007033Y0014568D01*
X0006500D01*
X0006900D01*
Y0015101D01*
X0007300Y0013768D02*
X0007166Y0014034D01*
X0006900Y0014301D01*
X0006633D01*
X0006500Y0014168D01*
Y0013901D01*
X0006633Y0013768D01*
X0006767D01*
X0006900Y0013901D01*
Y0014301D01*
X0007300Y0030500D02*
X0006500D01*
Y0030100D01*
X0006633Y0029967D01*
X0007166D01*
X0007300Y0030100D01*
Y0030500D01*
X0006633Y0029700D02*
X0006500Y0029567D01*
Y0029300D01*
X0006633Y0029167D01*
X0007166D01*
X0007300Y0029300D01*
Y0029567D01*
X0007166Y0029700D01*
X0007033D01*
X0006900Y0029567D01*
Y0029167D01*
X0007300Y0028101D02*
X0006500D01*
Y0027701D01*
X0006633Y0027568D01*
X0007166D01*
X0007300Y0027701D01*
Y0028101D01*
X0006500Y0027301D02*
Y0027034D01*
Y0027168D01*
X0007300D01*
X0007166Y0027301D01*
Y0026635D02*
X0007300Y0026501D01*
Y0026235D01*
X0007166Y0026101D01*
X0006633D01*
X0006500Y0026235D01*
Y0026501D01*
X0006633Y0026635D01*
X0007166D01*
Y0043467D02*
X0007300Y0043600D01*
Y0043867D01*
X0007166Y0044000D01*
X0007033D01*
X0006900Y0043867D01*
Y0043600D01*
X0006767Y0043467D01*
X0006633D01*
X0006500Y0043600D01*
Y0043867D01*
X0006633Y0044000D01*
X0007166Y0042667D02*
X0007300Y0042800D01*
Y0043067D01*
X0007166Y0043200D01*
X0006633D01*
X0006500Y0043067D01*
Y0042800D01*
X0006633Y0042667D01*
X0007300Y0042401D02*
X0006500D01*
Y0041867D01*
X0007166Y0040268D02*
X0007300Y0040401D01*
Y0040668D01*
X0007166Y0040801D01*
X0007033D01*
X0006900Y0040668D01*
Y0040401D01*
X0006767Y0040268D01*
X0006633D01*
X0006500Y0040401D01*
Y0040668D01*
X0006633Y0040801D01*
X0007300Y0040001D02*
X0006500D01*
Y0039601D01*
X0006633Y0039468D01*
X0007166D01*
X0007300Y0039601D01*
Y0040001D01*
X0006500Y0039202D02*
X0007033D01*
X0007300Y0038935D01*
X0007033Y0038668D01*
X0006500D01*
X0006900D01*
Y0039202D01*
X0032221Y0001745D02*
X0031798D01*
X0032010D01*
Y0000687D01*
X0031798Y0000475D01*
X0031587D01*
X0031375Y0000687D01*
X0033279Y0000475D02*
Y0001745D01*
X0032645Y0001110D01*
X0033491D01*
X0009096Y0001745D02*
X0008673D01*
X0008885D01*
Y0000687D01*
X0008673Y0000475D01*
X0008462D01*
X0008250Y0000687D01*
X0009520Y0001533D02*
X0009731Y0001745D01*
X0010154D01*
X0010366Y0001533D01*
Y0001321D01*
X0010154Y0001110D01*
X0009943D01*
X0010154D01*
X0010366Y0000898D01*
Y0000687D01*
X0010154Y0000475D01*
X0009731D01*
X0009520Y0000687D01*
X0047071Y0049270D02*
X0046648D01*
X0046860D01*
Y0048212D01*
X0046648Y0048000D01*
X0046437D01*
X0046225Y0048212D01*
X0047495Y0048000D02*
X0047918D01*
X0047706D01*
Y0049270D01*
X0047495Y0049058D01*
X0025021Y0049270D02*
X0024598D01*
X0024810D01*
Y0048212D01*
X0024598Y0048000D01*
X0024387D01*
X0024175Y0048212D01*
X0026291Y0048000D02*
X0025445D01*
X0026291Y0048846D01*
Y0049058D01*
X0026079Y0049270D01*
X0025656D01*
X0025445Y0049058D01*
X0046100Y0029900D02*
Y0029067D01*
X0046267Y0028900D01*
X0046600D01*
X0046766Y0029067D01*
Y0029900D01*
X0047100Y0028900D02*
X0047433D01*
X0047266D01*
Y0029900D01*
X0047100Y0029733D01*
D17*
X0002033Y0048566D02*
X0001800Y0048800D01*
X0001333D01*
X0001100Y0048566D01*
Y0048333D01*
X0001333Y0048100D01*
X0001800D01*
X0002033Y0047867D01*
Y0047633D01*
X0001800Y0047400D01*
X0001333D01*
X0001100Y0047633D01*
X0003199Y0047400D02*
X0002733D01*
X0002500Y0047633D01*
Y0048100D01*
X0002733Y0048333D01*
X0003199D01*
X0003433Y0048100D01*
Y0047867D01*
X0002500D01*
X0003899Y0047400D02*
Y0048333D01*
X0004599D01*
X0004832Y0048100D01*
Y0047400D01*
X0005299D02*
X0005998D01*
X0006232Y0047633D01*
X0005998Y0047867D01*
X0005532D01*
X0005299Y0048100D01*
X0005532Y0048333D01*
X0006232D01*
X0006931Y0047400D02*
X0007398D01*
X0007631Y0047633D01*
Y0048100D01*
X0007398Y0048333D01*
X0006931D01*
X0006698Y0048100D01*
Y0047633D01*
X0006931Y0047400D01*
X0008098Y0048333D02*
Y0047400D01*
Y0047867D01*
X0008331Y0048100D01*
X0008564Y0048333D01*
X0008798D01*
X0009497Y0047400D02*
X0010197D01*
X0010430Y0047633D01*
X0010197Y0047867D01*
X0009731D01*
X0009497Y0048100D01*
X0009731Y0048333D01*
X0010430D01*
X0050596Y0013895D02*
X0049750D01*
Y0013260D01*
X0050173D01*
X0049750D01*
Y0012625D01*
X0051020Y0013471D02*
Y0012625D01*
Y0013048D01*
X0051231Y0013260D01*
X0051443Y0013471D01*
X0051654D01*
X0052924Y0012625D02*
X0052501D01*
X0052289Y0012837D01*
Y0013260D01*
X0052501Y0013471D01*
X0052924D01*
X0053136Y0013260D01*
Y0013048D01*
X0052289D01*
X0054405Y0012202D02*
Y0013471D01*
X0053770D01*
X0053559Y0013260D01*
Y0012837D01*
X0053770Y0012625D01*
X0054405D01*
X0056098Y0013895D02*
Y0012625D01*
X0056733D01*
X0056944Y0012837D01*
Y0013048D01*
X0056733Y0013260D01*
X0056098D01*
X0056733D01*
X0056944Y0013471D01*
Y0013683D01*
X0056733Y0013895D01*
X0056098D01*
X0057579Y0013471D02*
X0058002D01*
X0058214Y0013260D01*
Y0012625D01*
X0057579D01*
X0057368Y0012837D01*
X0057579Y0013048D01*
X0058214D01*
X0058637Y0012625D02*
Y0013471D01*
X0059272D01*
X0059484Y0013260D01*
Y0012625D01*
X0060753Y0013895D02*
Y0012625D01*
X0060118D01*
X0059907Y0012837D01*
Y0013260D01*
X0060118Y0013471D01*
X0060753D01*
X0061176D02*
X0061388D01*
Y0013260D01*
X0061176D01*
Y0013471D01*
Y0012837D02*
X0061388D01*
Y0012625D01*
X0061176D01*
Y0012837D01*
X0016475Y0009750D02*
X0017475D01*
Y0009250D01*
X0017308Y0009084D01*
X0016975D01*
X0016808Y0009250D01*
Y0009750D01*
Y0009417D02*
X0016475Y0009084D01*
Y0008084D02*
Y0008750D01*
X0017141Y0008084D01*
X0017308D01*
X0017475Y0008250D01*
Y0008584D01*
X0017308Y0008750D01*
X0020900Y0009775D02*
X0021900D01*
Y0009275D01*
X0021733Y0009109D01*
X0021400D01*
X0021233Y0009275D01*
Y0009775D01*
Y0009442D02*
X0020900Y0009109D01*
Y0008775D02*
Y0008442D01*
Y0008609D01*
X0021900D01*
X0021733Y0008775D01*
X0001000Y0046300D02*
X0001333D01*
X0001167D01*
Y0045300D01*
X0001000D01*
X0001333D01*
X0002500D02*
X0001833D01*
X0002500Y0045966D01*
Y0046133D01*
X0002333Y0046300D01*
X0002000D01*
X0001833Y0046133D01*
X0003499D02*
X0003333Y0046300D01*
X0002999D01*
X0002833Y0046133D01*
Y0045467D01*
X0002999Y0045300D01*
X0003333D01*
X0003499Y0045467D01*
X0001000Y0033300D02*
Y0032300D01*
X0001500D01*
X0001666Y0032467D01*
Y0033133D01*
X0001500Y0033300D01*
X0001000D01*
X0002000D02*
X0002333D01*
X0002166D01*
Y0032300D01*
X0002000D01*
X0002333D01*
X0003333Y0033300D02*
X0002999D01*
X0002833Y0033133D01*
Y0032467D01*
X0002999Y0032300D01*
X0003333D01*
X0003499Y0032467D01*
Y0033133D01*
X0003333Y0033300D01*
X0003832Y0032133D02*
X0004499D01*
X0004832Y0033300D02*
Y0032300D01*
X0005332D01*
X0005499Y0032467D01*
Y0033133D01*
X0005332Y0033300D01*
X0004832D01*
X0005832Y0032467D02*
X0005998Y0032300D01*
X0006332D01*
X0006498Y0032467D01*
Y0033133D01*
X0006332Y0033300D01*
X0005998D01*
X0005832Y0033133D01*
Y0032966D01*
X0005998Y0032800D01*
X0006498D01*
X0006831Y0032133D02*
X0007498D01*
X0007831Y0033300D02*
Y0032300D01*
X0008331D01*
X0008498Y0032467D01*
Y0033133D01*
X0008331Y0033300D01*
X0007831D01*
X0008831Y0032300D02*
X0009164D01*
X0008997D01*
Y0033300D01*
X0008831Y0033133D01*
X0009664D02*
X0009830Y0033300D01*
X0010164D01*
X0010330Y0033133D01*
Y0032467D01*
X0010164Y0032300D01*
X0009830D01*
X0009664Y0032467D01*
Y0033133D01*
X0001000Y0019300D02*
Y0019966D01*
X0001333Y0020300D01*
X0001666Y0019966D01*
Y0019300D01*
Y0019800D01*
X0001000D01*
X0002000Y0019300D02*
Y0020300D01*
X0002666Y0019300D01*
Y0020300D01*
X0002999Y0019300D02*
Y0019966D01*
X0003333Y0020300D01*
X0003666Y0019966D01*
Y0019300D01*
Y0019800D01*
X0002999D01*
X0003999Y0019133D02*
X0004665D01*
X0004999Y0019300D02*
Y0019966D01*
X0005332Y0020300D01*
X0005665Y0019966D01*
Y0019300D01*
Y0019800D01*
X0004999D01*
X0006665Y0020300D02*
X0005998D01*
Y0019800D01*
X0006332Y0019966D01*
X0006498D01*
X0006665Y0019800D01*
Y0019467D01*
X0006498Y0019300D01*
X0006165D01*
X0005998Y0019467D01*
X0006998Y0019133D02*
X0007665D01*
X0007998Y0019300D02*
Y0019966D01*
X0008331Y0020300D01*
X0008664Y0019966D01*
Y0019300D01*
Y0019800D01*
X0007998D01*
X0009664Y0020300D02*
X0009331Y0020133D01*
X0008997Y0019800D01*
Y0019467D01*
X0009164Y0019300D01*
X0009497D01*
X0009664Y0019467D01*
Y0019633D01*
X0009497Y0019800D01*
X0008997D01*
D18*
X0028475Y0021025D02*
X0028808D01*
X0028642D01*
Y0022025D01*
X0028475Y0021858D01*
X0048550Y0050375D02*
X0048883D01*
X0048717D01*
Y0051375D01*
X0048550Y0051208D01*
X0032850Y0002200D02*
X0033183D01*
X0033017D01*
Y0003200D01*
X0032850Y0003033D01*
X0026925Y0050325D02*
X0027258D01*
X0027092D01*
Y0051325D01*
X0026925Y0051158D01*
X0009750Y0002200D02*
X0010083D01*
X0009917D01*
Y0003200D01*
X0009750Y0003033D01*
X0052100Y0025150D02*
Y0024567D01*
X0052217Y0024450D01*
X0052450D01*
X0052567Y0024567D01*
Y0025150D01*
X0052800Y0025033D02*
X0052916Y0025150D01*
X0053150D01*
X0053266Y0025033D01*
Y0024917D01*
X0053150Y0024800D01*
X0053033D01*
X0053150D01*
X0053266Y0024683D01*
Y0024567D01*
X0053150Y0024450D01*
X0052916D01*
X0052800Y0024567D01*
X0039800Y0010100D02*
X0039925Y0010225D01*
Y0010475D01*
X0039800Y0010600D01*
X0039675D01*
X0039550Y0010475D01*
Y0010225D01*
X0039425Y0010100D01*
X0039300D01*
X0039175Y0010225D01*
Y0010475D01*
X0039300Y0010600D01*
X0039925Y0009850D02*
X0039175Y0009350D01*
X0039925D02*
X0039175Y0009850D01*
Y0009100D02*
Y0008851D01*
Y0008976D01*
X0039925D01*
X0039800Y0009100D01*
X0039175Y0007976D02*
Y0008476D01*
X0039675Y0007976D01*
X0039800D01*
X0039925Y0008101D01*
Y0008351D01*
X0039800Y0008476D01*
X0039925Y0007226D02*
X0039800Y0007476D01*
X0039550Y0007726D01*
X0039300D01*
X0039175Y0007601D01*
Y0007351D01*
X0039300Y0007226D01*
X0039425D01*
X0039550Y0007351D01*
Y0007726D01*
X0039175Y0006976D02*
Y0006726D01*
Y0006851D01*
X0039925D01*
X0039800Y0006976D01*
X0054483Y0002416D02*
X0054350Y0002550D01*
X0054083D01*
X0053950Y0002416D01*
Y0001883D01*
X0054083Y0001750D01*
X0054350D01*
X0054483Y0001883D01*
Y0002150D01*
X0054217D01*
X0054750Y0001750D02*
Y0002550D01*
X0055283Y0001750D01*
Y0002550D01*
X0055549D02*
Y0001750D01*
X0055949D01*
X0056083Y0001883D01*
Y0002416D01*
X0055949Y0002550D01*
X0055549D01*
X0042450Y0009475D02*
X0041700Y0008975D01*
X0042450D02*
X0041700Y0009475D01*
X0042450Y0008725D02*
Y0008225D01*
Y0008475D01*
X0041700D01*
Y0007975D02*
X0042200D01*
X0042450Y0007726D01*
X0042200Y0007476D01*
X0041700D01*
X0042075D01*
Y0007975D01*
X0042450Y0007226D02*
X0041700D01*
Y0006726D01*
X0040925Y0010350D02*
X0041050Y0010475D01*
Y0010725D01*
X0040925Y0010850D01*
X0040800D01*
X0040675Y0010725D01*
Y0010475D01*
X0040550Y0010350D01*
X0040425D01*
X0040300Y0010475D01*
Y0010725D01*
X0040425Y0010850D01*
X0041050Y0010100D02*
X0040300Y0009600D01*
X0041050D02*
X0040300Y0010100D01*
Y0009350D02*
Y0009101D01*
Y0009226D01*
X0041050D01*
X0040925Y0009350D01*
X0040300Y0008226D02*
Y0008726D01*
X0040800Y0008226D01*
X0040925D01*
X0041050Y0008351D01*
Y0008601D01*
X0040925Y0008726D01*
X0041050Y0007476D02*
X0040925Y0007726D01*
X0040675Y0007976D01*
X0040425D01*
X0040300Y0007851D01*
Y0007601D01*
X0040425Y0007476D01*
X0040550D01*
X0040675Y0007601D01*
Y0007976D01*
X0040300Y0006726D02*
Y0007226D01*
X0040800Y0006726D01*
X0040925D01*
X0041050Y0006851D01*
Y0007101D01*
X0040925Y0007226D01*
X0057050Y0006775D02*
X0056783D01*
X0056650Y0006641D01*
Y0006108D01*
X0056783Y0005975D01*
X0057050D01*
X0057183Y0006108D01*
Y0006641D01*
X0057050Y0006775D01*
X0057583Y0006641D02*
Y0006508D01*
X0057450D01*
X0057716D01*
X0057583D01*
Y0006108D01*
X0057716Y0005975D01*
X0058116Y0006775D02*
Y0005975D01*
Y0006375D01*
X0058249Y0006508D01*
X0058516D01*
X0058649Y0006375D01*
Y0005975D01*
X0059316D02*
X0059049D01*
X0058916Y0006108D01*
Y0006375D01*
X0059049Y0006508D01*
X0059316D01*
X0059449Y0006375D01*
Y0006242D01*
X0058916D01*
X0059716Y0006508D02*
Y0005975D01*
Y0006242D01*
X0059849Y0006375D01*
X0059982Y0006508D01*
X0060116D01*
X0038500Y0008000D02*
Y0008500D01*
X0038125D01*
Y0008250D01*
Y0008500D01*
X0037750D01*
Y0007750D02*
X0038500D01*
Y0007375D01*
X0038375Y0007250D01*
X0038125D01*
X0038000Y0007375D01*
Y0007750D01*
Y0007500D02*
X0037750Y0007250D01*
Y0007000D02*
Y0006751D01*
Y0006876D01*
X0038500D01*
X0038375Y0007000D01*
X0037375Y0008200D02*
Y0008700D01*
X0037000D01*
Y0008450D01*
Y0008700D01*
X0036625D01*
Y0007950D02*
X0037375D01*
Y0007575D01*
X0037250Y0007450D01*
X0037000D01*
X0036875Y0007575D01*
Y0007950D01*
Y0007700D02*
X0036625Y0007450D01*
X0037250Y0007200D02*
X0037375Y0007076D01*
Y0006826D01*
X0037250Y0006701D01*
X0036750D01*
X0036625Y0006826D01*
Y0007076D01*
X0036750Y0007200D01*
X0037250D01*
X0056675Y0008300D02*
Y0009100D01*
X0057075D01*
X0057208Y0008966D01*
Y0008700D01*
X0057075Y0008567D01*
X0056675D01*
X0056942D02*
X0057208Y0008300D01*
X0057875D02*
Y0009100D01*
X0057475Y0008700D01*
X0058008D01*
X0058274Y0008433D02*
X0058408Y0008300D01*
X0058674D01*
X0058808Y0008433D01*
Y0008966D01*
X0058674Y0009100D01*
X0058408D01*
X0058274Y0008966D01*
Y0008833D01*
X0058408Y0008700D01*
X0058808D01*
X0059074Y0008966D02*
X0059208Y0009100D01*
X0059474D01*
X0059607Y0008966D01*
Y0008433D01*
X0059474Y0008300D01*
X0059208D01*
X0059074Y0008433D01*
Y0008966D01*
X0056675Y0010675D02*
Y0011475D01*
X0057075D01*
X0057208Y0011341D01*
Y0011075D01*
X0057075Y0010942D01*
X0056675D01*
X0056942D02*
X0057208Y0010675D01*
X0057475Y0010808D02*
X0057608Y0010675D01*
X0057875D01*
X0058008Y0010808D01*
Y0011341D01*
X0057875Y0011475D01*
X0057608D01*
X0057475Y0011341D01*
Y0011208D01*
X0057608Y0011075D01*
X0058008D01*
X0058274Y0010675D02*
X0058541D01*
X0058408D01*
Y0011475D01*
X0058274Y0011341D01*
X0059474Y0011475D02*
X0058941D01*
Y0011075D01*
X0059208Y0011208D01*
X0059341D01*
X0059474Y0011075D01*
Y0010808D01*
X0059341Y0010675D01*
X0059074D01*
X0058941Y0010808D01*
X0056675Y0009475D02*
Y0010275D01*
X0057075D01*
X0057208Y0010141D01*
Y0009875D01*
X0057075Y0009742D01*
X0056675D01*
X0056942D02*
X0057208Y0009475D01*
X0057475Y0010141D02*
X0057608Y0010275D01*
X0057875D01*
X0058008Y0010141D01*
Y0010008D01*
X0057875Y0009875D01*
X0058008Y0009742D01*
Y0009608D01*
X0057875Y0009475D01*
X0057608D01*
X0057475Y0009608D01*
Y0009742D01*
X0057608Y0009875D01*
X0057475Y0010008D01*
Y0010141D01*
X0057608Y0009875D02*
X0057875D01*
X0058808Y0010275D02*
X0058541Y0010141D01*
X0058274Y0009875D01*
Y0009608D01*
X0058408Y0009475D01*
X0058674D01*
X0058808Y0009608D01*
Y0009742D01*
X0058674Y0009875D01*
X0058274D01*
X0059074Y0010141D02*
X0059208Y0010275D01*
X0059474D01*
X0059607Y0010141D01*
Y0010008D01*
X0059474Y0009875D01*
X0059607Y0009742D01*
Y0009608D01*
X0059474Y0009475D01*
X0059208D01*
X0059074Y0009608D01*
Y0009742D01*
X0059208Y0009875D01*
X0059074Y0010008D01*
Y0010141D01*
X0059208Y0009875D02*
X0059474D01*
X0056675Y0007125D02*
Y0007925D01*
X0057075D01*
X0057208Y0007791D01*
Y0007525D01*
X0057075Y0007392D01*
X0056675D01*
X0056942D02*
X0057208Y0007125D01*
X0057875D02*
Y0007925D01*
X0057475Y0007525D01*
X0058008D01*
X0058274Y0007791D02*
X0058408Y0007925D01*
X0058674D01*
X0058808Y0007791D01*
Y0007658D01*
X0058674Y0007525D01*
X0058541D01*
X0058674D01*
X0058808Y0007392D01*
Y0007258D01*
X0058674Y0007125D01*
X0058408D01*
X0058274Y0007258D01*
X0059474Y0007125D02*
Y0007925D01*
X0059074Y0007525D01*
X0059607D01*
X0048242Y0030642D02*
Y0031108D01*
X0048125Y0031225D01*
X0047892D01*
X0047775Y0031108D01*
Y0030642D01*
X0047892Y0030525D01*
X0048125D01*
X0048008Y0030758D02*
X0048242Y0030525D01*
X0048125D02*
X0048242Y0030642D01*
X0048475Y0030525D02*
X0048708D01*
X0048591D01*
Y0031225D01*
X0048475Y0031108D01*
D19*
X0024300Y0045500D02*
X0024050Y0045750D01*
X0023550D01*
X0023300Y0045500D01*
Y0045250D01*
X0023550Y0045000D01*
X0024050D01*
X0024300Y0044750D01*
Y0044500D01*
X0024050Y0044250D01*
X0023550D01*
X0023300Y0044500D01*
X0024800Y0045750D02*
X0025799Y0044250D01*
Y0045750D02*
X0024800Y0044250D01*
X0026299D02*
X0026799D01*
X0026549D01*
Y0045750D01*
X0026299Y0045500D01*
X0028548Y0044250D02*
X0027549D01*
X0028548Y0045250D01*
Y0045500D01*
X0028298Y0045750D01*
X0027799D01*
X0027549Y0045500D01*
X0030048Y0045750D02*
X0029548Y0045500D01*
X0029048Y0045000D01*
Y0044500D01*
X0029298Y0044250D01*
X0029798D01*
X0030048Y0044500D01*
Y0044750D01*
X0029798Y0045000D01*
X0029048D01*
X0030548Y0045250D02*
X0031547Y0044250D01*
X0031047Y0044750D01*
X0031547Y0045250D01*
X0030548Y0044250D01*
X0032047D02*
Y0045750D01*
X0032547Y0045250D01*
X0033047Y0045750D01*
Y0044250D01*
X0033547Y0045750D02*
Y0044250D01*
X0034296D01*
X0034546Y0044500D01*
Y0044750D01*
X0034296Y0045000D01*
X0033547D01*
X0034296D01*
X0034546Y0045250D01*
Y0045500D01*
X0034296Y0045750D01*
X0033547D01*
X0036046Y0044250D02*
X0035046D01*
X0036046Y0045250D01*
Y0045500D01*
X0035796Y0045750D01*
X0035296D01*
X0035046Y0045500D01*
X0036546Y0045250D02*
X0037545Y0044250D01*
X0037046Y0044750D01*
X0037545Y0045250D01*
X0036546Y0044250D01*
X0038045D02*
Y0045250D01*
X0038545Y0045750D01*
X0039045Y0045250D01*
Y0044250D01*
Y0045000D01*
X0038045D01*
X0040544Y0045500D02*
X0040294Y0045750D01*
X0039795D01*
X0039545Y0045500D01*
Y0045250D01*
X0039795Y0045000D01*
X0040294D01*
X0040544Y0044750D01*
Y0044500D01*
X0040294Y0044250D01*
X0039795D01*
X0039545Y0044500D01*
X0042544Y0044250D02*
Y0045250D01*
X0042794D01*
X0043044Y0045000D01*
Y0044250D01*
Y0045000D01*
X0043294Y0045250D01*
X0043543Y0045000D01*
Y0044250D01*
X0044043Y0045750D02*
Y0044250D01*
X0044793D01*
X0045043Y0044500D01*
Y0044750D01*
Y0045000D01*
X0044793Y0045250D01*
X0044043D01*
X0046293Y0044250D02*
X0045793D01*
X0045543Y0044500D01*
Y0045000D01*
X0045793Y0045250D01*
X0046293D01*
X0046542Y0045000D01*
Y0044750D01*
X0045543D01*
X0048042Y0045750D02*
Y0044250D01*
X0047292D01*
X0047042Y0044500D01*
Y0045000D01*
X0047292Y0045250D01*
X0048042D01*
X0050041Y0044250D02*
X0050791D01*
X0051041Y0044500D01*
X0050791Y0044750D01*
X0050291D01*
X0050041Y0045000D01*
X0050291Y0045250D01*
X0051041D01*
X0051541Y0045750D02*
Y0044250D01*
Y0045000D01*
X0051791Y0045250D01*
X0052291D01*
X0052541Y0045000D01*
Y0044250D01*
X0053040D02*
X0053540D01*
X0053290D01*
Y0045250D01*
X0053040D01*
X0055040Y0044250D02*
X0054540D01*
X0054290Y0044500D01*
Y0045000D01*
X0054540Y0045250D01*
X0055040D01*
X0055290Y0045000D01*
Y0044750D01*
X0054290D01*
X0055789Y0044250D02*
X0056289D01*
X0056039D01*
Y0045750D01*
X0055789D01*
X0058039D02*
Y0044250D01*
X0057289D01*
X0057039Y0044500D01*
Y0045000D01*
X0057289Y0045250D01*
X0058039D01*
D20*
X0031000Y0041250D02*
Y0042520D01*
X0031635D01*
X0031846Y0042308D01*
Y0041885D01*
X0031635Y0041673D01*
X0031000D01*
X0033116Y0042308D02*
X0032904Y0042520D01*
X0032481D01*
X0032270Y0042308D01*
Y0041462D01*
X0032481Y0041250D01*
X0032904D01*
X0033116Y0041462D01*
X0033539Y0042520D02*
Y0041250D01*
X0034174D01*
X0034386Y0041462D01*
Y0041673D01*
X0034174Y0041885D01*
X0033539D01*
X0034174D01*
X0034386Y0042096D01*
Y0042308D01*
X0034174Y0042520D01*
X0033539D01*
X0034809Y0041038D02*
X0035655D01*
X0036925Y0042520D02*
X0036078D01*
Y0041250D01*
X0036925D01*
X0036078Y0041885D02*
X0036502D01*
X0038194Y0042520D02*
X0037348D01*
Y0041885D01*
X0037771Y0042096D01*
X0037983D01*
X0038194Y0041885D01*
Y0041462D01*
X0037983Y0041250D01*
X0037560D01*
X0037348Y0041462D01*
X0038618Y0042308D02*
X0038829Y0042520D01*
X0039252D01*
X0039464Y0042308D01*
Y0042096D01*
X0039252Y0041885D01*
X0039464Y0041673D01*
Y0041462D01*
X0039252Y0041250D01*
X0038829D01*
X0038618Y0041462D01*
Y0041673D01*
X0038829Y0041885D01*
X0038618Y0042096D01*
Y0042308D01*
X0038829Y0041885D02*
X0039252D01*
X0039887Y0042308D02*
X0040099Y0042520D01*
X0040522D01*
X0040734Y0042308D01*
Y0042096D01*
X0040522Y0041885D01*
X0040734Y0041673D01*
Y0041462D01*
X0040522Y0041250D01*
X0040099D01*
X0039887Y0041462D01*
Y0041673D01*
X0040099Y0041885D01*
X0039887Y0042096D01*
Y0042308D01*
X0040099Y0041885D02*
X0040522D01*
X0041157Y0042520D02*
Y0041673D01*
X0041580Y0041250D01*
X0042003Y0041673D01*
Y0042520D01*
X0042426Y0042308D02*
X0042638Y0042520D01*
X0043061D01*
X0043273Y0042308D01*
Y0041462D01*
X0043061Y0041250D01*
X0042638D01*
X0042426Y0041462D01*
Y0042308D01*
X0043696Y0041250D02*
X0044119D01*
X0043907D01*
Y0042520D01*
X0043696Y0042308D01*
X0044754Y0041250D02*
Y0042096D01*
X0045177Y0042520D01*
X0045600Y0042096D01*
Y0041250D01*
Y0041885D01*
X0044754D01*
X0047928Y0041250D02*
Y0042520D01*
X0047293Y0041885D01*
X0048139D01*
X0048563Y0042308D02*
X0048774Y0042520D01*
X0049197D01*
X0049409Y0042308D01*
Y0042096D01*
X0049197Y0041885D01*
X0049409Y0041673D01*
Y0041462D01*
X0049197Y0041250D01*
X0048774D01*
X0048563Y0041462D01*
Y0041673D01*
X0048774Y0041885D01*
X0048563Y0042096D01*
Y0042308D01*
X0048774Y0041885D02*
X0049197D01*
X0049832Y0041250D02*
X0050255D01*
X0050044D01*
Y0042520D01*
X0049832Y0042308D01*
X0050890Y0041462D02*
X0051102Y0041250D01*
X0051525D01*
X0051737Y0041462D01*
Y0042308D01*
X0051525Y0042520D01*
X0051102D01*
X0050890Y0042308D01*
Y0042096D01*
X0051102Y0041885D01*
X0051737D01*
X0046283Y0035791D02*
X0046050Y0036025D01*
X0045583D01*
X0045350Y0035791D01*
Y0035558D01*
X0045583Y0035325D01*
X0046050D01*
X0046283Y0035092D01*
Y0034858D01*
X0046050Y0034625D01*
X0045583D01*
X0045350Y0034858D01*
X0046750Y0036025D02*
X0047683Y0034625D01*
Y0036025D02*
X0046750Y0034625D01*
X0048149D02*
X0048616D01*
X0048382D01*
Y0036025D01*
X0048149Y0035791D01*
X0050248Y0034625D02*
X0049315D01*
X0050248Y0035558D01*
Y0035791D01*
X0050015Y0036025D01*
X0049549D01*
X0049315Y0035791D01*
X0051648Y0036025D02*
X0051181Y0035791D01*
X0050715Y0035325D01*
Y0034858D01*
X0050948Y0034625D01*
X0051415D01*
X0051648Y0034858D01*
Y0035092D01*
X0051415Y0035325D01*
X0050715D01*
X0052114Y0034625D02*
X0052581D01*
X0052348D01*
Y0036025D01*
X0052114Y0035791D01*
X0053281Y0034625D02*
X0054214Y0035558D01*
X0055613Y0034625D02*
X0054680D01*
X0055613Y0035558D01*
Y0035791D01*
X0055380Y0036025D01*
X0054914D01*
X0054680Y0035791D01*
X0060600Y0033225D02*
Y0034158D01*
X0061067Y0034625D01*
X0061533Y0034158D01*
Y0033225D01*
Y0033925D01*
X0060600D01*
X0062000Y0033225D02*
Y0034625D01*
X0062933Y0033225D01*
Y0034625D01*
X0063399D02*
X0064332D01*
X0063866D01*
Y0033225D01*
D21*
X0065000Y0040600D02*
G03*
X0052300Y0053300I-0012700J0000000D01*
G01*
Y0000000D02*
G03*
X0065000Y0012700I0000000J0012700D01*
G01*
X0000000Y0000000D02*
X0052300D01*
X0000000D02*
Y0053300D01*
X0052300D01*
X0065000Y0012700D02*
Y0040600D01*
M02*
