G04*
G04 #@! TF.GenerationSoftware,Altium Limited,Altium Designer,19.1.5 (86)*
G04*
G04 Layer_Color=13741180*
%FSAX43Y43*%
%MOMM*%
G71*
G01*
G75*
%ADD10C,0.150*%
%ADD18C,0.250*%
%ADD21C,0.050*%
%ADD76C,0.254*%
%ADD77C,0.152*%
D10*
X-0009925Y-0000900D02*
X-0010258D01*
X-0010425Y-0001067D01*
Y-0001733D01*
X-0010258Y-0001900D01*
X-0009925D01*
X-0009759Y-0001733D01*
Y-0001067D01*
X-0009925Y-0000900D01*
X-0009425Y-0001234D02*
Y-0001900D01*
Y-0001567D01*
X-0009259Y-0001400D01*
X-0009092Y-0001234D01*
X-0008925D01*
X-0008426Y-0001900D02*
X-0008092D01*
X-0008259D01*
Y-0001234D01*
X-0008426D01*
X-0007259Y-0002233D02*
X-0007093D01*
X-0006926Y-0002067D01*
Y-0001234D01*
X-0007426D01*
X-0007593Y-0001400D01*
Y-0001733D01*
X-0007426Y-0001900D01*
X-0006926D01*
X-0006593D02*
X-0006260D01*
X-0006426D01*
Y-0001234D01*
X-0006593D01*
X-0005760Y-0001900D02*
Y-0001234D01*
X-0005260D01*
X-0005093Y-0001400D01*
Y-0001900D01*
X-0004427D02*
X-0004760Y-0001567D01*
Y-0001234D01*
X-0004427Y-0000900D01*
X-0003927Y-0001067D02*
X-0003760Y-0000900D01*
X-0003427D01*
X-0003261Y-0001067D01*
Y-0001733D01*
X-0003427Y-0001900D01*
X-0003760D01*
X-0003927Y-0001733D01*
Y-0001067D01*
X-0002927Y-0001400D02*
Y-0001234D01*
X-0002761D01*
Y-0001400D01*
X-0002927D01*
Y-0001733D02*
X-0002761D01*
Y-0001900D01*
X-0002927Y-0002067D01*
X-0002761Y-0001900D02*
X-0002927D01*
Y-0001733D01*
X-0002094Y-0001067D02*
X-0001928Y-0000900D01*
X-0001595D01*
X-0001428Y-0001067D01*
Y-0001733D01*
X-0001595Y-0001900D01*
X-0001928D01*
X-0002094Y-0001733D01*
Y-0001067D01*
X-0001095Y-0001900D02*
X-0000761Y-0001567D01*
Y-0001234D01*
X-0001095Y-0000900D01*
D18*
X0062025Y0056125D02*
Y0057649D01*
X0062787D01*
X0063041Y0057395D01*
Y0056887D01*
X0062787Y0056633D01*
X0062025D01*
X0062533D02*
X0063041Y0056125D01*
X0065072D02*
X0065580D01*
X0065326D01*
Y0057649D01*
X0065072Y0057395D01*
X0067357Y0056125D02*
X0066342D01*
X0067357Y0057141D01*
Y0057395D01*
X0067103Y0057649D01*
X0066596D01*
X0066342Y0057395D01*
X0067865Y0056125D02*
Y0056379D01*
X0068119D01*
Y0056125D01*
X0067865D01*
X0069135Y0057649D02*
X0070150D01*
Y0057395D01*
X0069135Y0056379D01*
Y0056125D01*
X0070658Y0057395D02*
X0070912Y0057649D01*
X0071420D01*
X0071674Y0057395D01*
Y0056379D01*
X0071420Y0056125D01*
X0070912D01*
X0070658Y0056379D01*
Y0057395D01*
X0072182Y0056125D02*
Y0057141D01*
X0072436D01*
X0072690Y0056887D01*
Y0056125D01*
Y0056887D01*
X0072943Y0057141D01*
X0073197Y0056887D01*
Y0056125D01*
X0073705D02*
Y0057141D01*
X0073959D01*
X0074213Y0056887D01*
Y0056125D01*
Y0056887D01*
X0074467Y0057141D01*
X0074721Y0056887D01*
Y0056125D01*
D21*
X0065000Y0040600D02*
G03*
X0052300Y0053300I-0012700J0000000D01*
G01*
Y0000000D02*
G03*
X0065000Y0012700I0000000J0012700D01*
G01*
X0000000Y0000000D02*
X0052300D01*
X0000000D02*
Y0053300D01*
X0052300D01*
X0065000Y0012700D02*
Y0040600D01*
D76*
X0000000Y-0005050D02*
X0001524Y-0004542D01*
X0000000Y-0005050D02*
X0001524Y-0005558D01*
X0063476D02*
X0065000Y-0005050D01*
X0063476Y-0004542D02*
X0065000Y-0005050D01*
X0000000D02*
X0026736D01*
X0037451D02*
X0065000D01*
X0000000Y-0005304D02*
Y-0000279D01*
X0065000Y-0005304D02*
Y0000000D01*
X-0005025Y0053300D02*
X-0004517Y0051776D01*
X-0005533D02*
X-0005025Y0053300D01*
X-0005533Y0001524D02*
X-0005025Y0000000D01*
X-0004517Y0001524D01*
X-0005025Y0031601D02*
Y0053300D01*
Y0000000D02*
Y0020886D01*
X-0005279Y0053300D02*
X-0000279D01*
X-0005279Y0000000D02*
X-0000279D01*
X0061280Y0049580D02*
X0061999Y0051017D01*
X0061280Y0049580D02*
X0062717Y0050299D01*
X0061280Y0049580D02*
X0066852Y0055152D01*
Y0055033D02*
Y0055152D01*
D77*
X0028158Y-0004441D02*
X0027650Y-0004695D01*
X0027142Y-0005202D01*
Y-0005710D01*
X0027396Y-0005964D01*
X0027904D01*
X0028158Y-0005710D01*
Y-0005456D01*
X0027904Y-0005202D01*
X0027142D01*
X0029681Y-0004441D02*
X0028666D01*
Y-0005202D01*
X0029174Y-0004948D01*
X0029427D01*
X0029681Y-0005202D01*
Y-0005710D01*
X0029427Y-0005964D01*
X0028920D01*
X0028666Y-0005710D01*
X0030189Y-0005964D02*
Y-0005710D01*
X0030443D01*
Y-0005964D01*
X0030189D01*
X0031459Y-0004695D02*
X0031713Y-0004441D01*
X0032221D01*
X0032474Y-0004695D01*
Y-0005710D01*
X0032221Y-0005964D01*
X0031713D01*
X0031459Y-0005710D01*
Y-0004695D01*
X0032982D02*
X0033236Y-0004441D01*
X0033744D01*
X0033998Y-0004695D01*
Y-0005710D01*
X0033744Y-0005964D01*
X0033236D01*
X0032982Y-0005710D01*
Y-0004695D01*
X0034506Y-0005964D02*
Y-0004948D01*
X0034760D01*
X0035014Y-0005202D01*
Y-0005964D01*
Y-0005202D01*
X0035268Y-0004948D01*
X0035521Y-0005202D01*
Y-0005964D01*
X0036029D02*
Y-0004948D01*
X0036283D01*
X0036537Y-0005202D01*
Y-0005964D01*
Y-0005202D01*
X0036791Y-0004948D01*
X0037045Y-0005202D01*
Y-0005964D01*
X-0005634Y0022308D02*
Y0021292D01*
X-0004873D01*
X-0005127Y0021800D01*
Y0022054D01*
X-0004873Y0022308D01*
X-0004365D01*
X-0004111Y0022054D01*
Y0021546D01*
X-0004365Y0021292D01*
X-0005380Y0022816D02*
X-0005634Y0023070D01*
Y0023577D01*
X-0005380Y0023831D01*
X-0005127D01*
X-0004873Y0023577D01*
Y0023324D01*
Y0023577D01*
X-0004619Y0023831D01*
X-0004365D01*
X-0004111Y0023577D01*
Y0023070D01*
X-0004365Y0022816D01*
X-0004111Y0024339D02*
X-0004365D01*
Y0024593D01*
X-0004111D01*
Y0024339D01*
X-0005380Y0025609D02*
X-0005634Y0025863D01*
Y0026371D01*
X-0005380Y0026624D01*
X-0005127D01*
X-0004873Y0026371D01*
Y0026117D01*
Y0026371D01*
X-0004619Y0026624D01*
X-0004365D01*
X-0004111Y0026371D01*
Y0025863D01*
X-0004365Y0025609D01*
X-0005380Y0027132D02*
X-0005634Y0027386D01*
Y0027894D01*
X-0005380Y0028148D01*
X-0004365D01*
X-0004111Y0027894D01*
Y0027386D01*
X-0004365Y0027132D01*
X-0005380D01*
X-0004111Y0028656D02*
X-0005127D01*
Y0028910D01*
X-0004873Y0029164D01*
X-0004111D01*
X-0004873D01*
X-0005127Y0029418D01*
X-0004873Y0029671D01*
X-0004111D01*
Y0030179D02*
X-0005127D01*
Y0030433D01*
X-0004873Y0030687D01*
X-0004111D01*
X-0004873D01*
X-0005127Y0030941D01*
X-0004873Y0031195D01*
X-0004111D01*
M02*
