M48
;Layer_Color=9474304
;FILE_FORMAT=4:3
METRIC
;TYPE=PLATED
T1F00S00C0.200
T2F00S00C0.250
T3F00S00C0.300
T4F00S00C0.700
T5F00S00C0.900
%
T01
X0050650Y0025550
X0051325Y0025575
X0052000
X0052675Y0025300
X0053350Y0025575
X0054075
X0053750Y0026575
Y0027550
X0053425Y0028350
X0053250Y0028900
X0052925Y0029400
X0052550Y0029775
X0052100Y0030100
X0051550Y0029425
X0051925Y0028050
X0052675Y0028275
X0052650Y0027150
X0052675Y0026425
X0051550Y0027050
T02
X0000550Y0000550
Y0002925
X0000575Y0005375
X0000550Y0007925
X0001500Y0009400
X0002650Y0009425
Y0011725
X0001500Y0011700
X0000550Y0010700
Y0013475
X0001500Y0014000
X0000550Y0016250
X0001500Y0017450
X0000550Y0019025
X0003500Y0018175
X0004425Y0018950
X0006350Y0019150
X0006275Y0017000
X0007800Y0017300
Y0014850
X0007750Y0013400
X0009525
X0009175Y0011875
X0007525Y0011850
X0005300
X0004700Y0010650
X0004750Y0008350
X0006850Y0010000
X0009400
X0011225Y0010050
X0011375Y0008000
X0013625
X0013150Y0006200
X0010250Y0006150
X0010075Y0003025
X0010200Y0001750
X0009025Y0000550
X0011800
X0012725Y0001700
X0015150
X0014600Y0000550
X0017375
X0017675Y0001700
X0017400Y0003825
X0017425Y0004975
X0016125Y0005000
X0016000Y0007000
X0017425Y0006325
Y0007700
X0017450Y0008975
X0017400Y0010250
Y0011650
X0015975Y0010950
X0016000Y0013400
X0016575Y0015500
X0018700Y0015525
Y0017450
Y0019400
X0021200Y0016875
X0021175Y0015575
X0021200Y0013400
X0021150Y0011650
X0021175Y0010250
X0022325Y0010950
X0023700Y0010825
X0023825Y0013375
X0023800Y0015250
X0026950
X0026350Y0013350
X0028825
X0031375
X0033925Y0013375
X0036275Y0013425
X0037775Y0013050
X0037450Y0014900
X0038100Y0015300
X0039375Y0014625
X0039100Y0018800
X0036900
X0034500
X0032350Y0018850
X0030200
X0027950Y0018825
X0024525Y0018800
X0029900Y0015250
X0032800
X0035475
X0035725Y0010875
X0033275
X0033125Y0008150
X0033050Y0006650
X0035300
X0036250
Y0005125
X0036425Y0003875
X0035050Y0003750
X0033925Y0003775
X0033325Y0004450
X0033850Y0005175
X0035500Y0004450
X0035800Y0001700
X0036800Y0000550
X0038225Y0001700
X0038325Y0003850
X0038850Y0006125
X0038125Y0006650
X0037725Y0008150
X0035275
X0030575
X0030650Y0006650
Y0005025
X0029375Y0003800
X0031925
X0033275Y0001700
X0034025Y0000550
X0031250
X0030525Y0001700
X0028150
X0028475Y0000550
X0025700
X0025450Y0001700
X0022900
X0022925Y0000550
X0020150
X0020600Y0001700
X0020975Y0003800
Y0005025
X0020850Y0006450
X0021300Y0007000
X0020850Y0007550
X0023500Y0008150
Y0006650
X0025850
X0025825Y0008150
X0028300
X0028275Y0006650
X0028050Y0005050
X0026725Y0003800
X0024200
X0025400Y0005025
X0028500Y0010850
X0038450Y0010925
X0039575Y0000550
X0014150Y0003800
X0011525
X0008400Y0004450
X0006800Y0006200
X0005475Y0003825
X0004300Y0002225
X0003475Y0000550
X0006250
X0007175Y0002175
X0002500Y0003675
X0003825Y0005450
X0002250Y0007100
X0008600Y0008200
X0011775Y0011900
X0012775Y0013400
X0011900Y0015225
X0014325Y0011900
X0014175Y0009800
X0018700Y0013600
X0006275Y0014850
X0004925Y0013825
Y0016200
X0039975Y0015300
X0041800Y0014700
X0041900Y0013025
X0042825Y0010875
X0043000Y0008150
X0042475Y0007450
X0042875Y0005750
X0041375Y0006125
X0040675Y0006650
X0040225Y0008150
X0040175Y0003850
X0041225
X0042675Y0003725
X0044600Y0003875
X0047075Y0003800
X0046950Y0001375
X0045900Y0002025
X0045125Y0000550
X0047900
X0050675
X0050700Y0002975
X0048875
X0047600Y0006075
X0045200
X0047600Y0008475
Y0010875
X0046200Y0012975
X0047125Y0014875
X0046450Y0015825
X0044850Y0015850
X0044500Y0014700
X0049175Y0014600
X0048650Y0016450
X0047650Y0017100
X0046800Y0018250
X0048900Y0018275
X0050275Y0018075
X0051575Y0016950
X0054750Y0016825
X0053425Y0018575
X0057000Y0018075
X0058075Y0019125
X0058350Y0016825
X0057200Y0014725
X0057950Y0013450
X0054375
X0053000Y0014725
X0050425Y0013275
X0050800Y0009850
X0053875Y0009875
Y0011025
Y0008725
Y0007575
Y0006425
X0056475Y0006400
Y0007575
Y0008725
Y0009875
Y0011025
X0058400Y0010250
X0061525Y0009875
X0064275Y0010175
X0064450Y0013400
Y0015675
Y0018100
X0062075Y0017000
X0060675Y0018225
X0060650Y0014725
X0061775Y0013550
X0063225Y0007125
X0061550Y0004700
X0059700Y0006450
X0059500Y0002825
X0056875Y0004100
X0056775Y0001300
X0053450Y0000550
X0053475Y0003100
X0050800Y0006275
X0043475Y0001700
X0042350Y0000550
X0040650Y0001700
X0041300Y0018800
X0042850Y0018825
X0043275Y0019850
Y0020575
X0043350Y0021825
X0042025
Y0023200
X0043375Y0023250
X0044075Y0022575
X0045100Y0022825
X0044825Y0023550
X0045850
Y0024425
X0045150Y0024600
X0044325Y0024575
X0043175
X0042000
X0040675Y0025075
X0040350Y0027500
X0040925Y0028500
X0040950Y0029850
X0041375Y0030900
X0042350Y0031725
X0043650Y0031750
X0044300Y0032075
X0043450Y0032525
Y0033375
X0043550Y0034450
X0044275Y0033875
X0045500
X0044950Y0034500
X0046100Y0034475
X0046725Y0033875
X0047750Y0034050
X0047200Y0034625
X0048250Y0034700
X0049350Y0034675
X0050250Y0034450
X0050750Y0033900
X0049725
X0048850Y0034025
X0049475Y0032675
Y0032000
X0048925Y0031650
X0047500Y0031825
X0047675Y0029025
X0047000
X0046375
X0048675
X0049325
X0049075Y0027200
X0048475
X0047875
X0047275
Y0026600
Y0026000
Y0025400
X0047875
X0048475
Y0026000
Y0026600
X0047875
Y0026000
X0049075
Y0026600
Y0025400
X0049875Y0024400
X0050525Y0024550
X0051150Y0024975
X0051750Y0024450
X0052600Y0024600
X0053400Y0024675
X0053175Y0023700
X0053975Y0023900
X0054625Y0023850
X0055050Y0024400
X0055900Y0024375
X0056900Y0024425
X0056975Y0025375
X0056025Y0025350
X0055900Y0026050
X0055125
X0055175Y0025275
X0055125Y0027250
X0055900
X0056725Y0027200
X0057550Y0027250
X0058375
X0059225Y0027225
X0059275Y0028125
X0060225Y0028175
Y0029025
Y0029825
Y0030575
Y0031375
X0060250Y0032125
X0060800Y0032575
X0062000
X0063200
X0064450Y0032625
X0063900Y0033400
X0062650Y0033375
X0061400
X0059900Y0033525
X0058425Y0033625
X0057075Y0033600
X0056900Y0032350
X0058025Y0032375
X0059175Y0032425
Y0030975
X0058025
X0056800
X0055575Y0031050
X0054475Y0031175
X0054500Y0030250
X0054650Y0029425
X0053975Y0029350
X0053475Y0029975
Y0031075
Y0032200
X0052575Y0032325
X0051625
X0051550Y0031475
Y0030550
X0052650Y0030525
X0052450Y0031350
X0053050Y0032975
X0053475Y0033525
Y0034425
Y0035500
Y0036700
X0054475
Y0035075
Y0033525
X0055700
X0055650Y0032325
X0054475Y0032275
X0052875Y0033900
X0051825
X0051300Y0034450
X0052325Y0034475
X0052000Y0036900
X0051025Y0038250
X0049825Y0039025
X0048975Y0038225
X0048950Y0036900
X0046975Y0038200
X0046500Y0039050
X0045700Y0040375
X0045000Y0038225
X0045600Y0036900
X0042450
X0043050Y0038200
X0043175Y0039075
X0041850Y0040375
X0041325Y0038200
X0040025Y0039050
X0040125Y0041500
Y0044125
X0040350Y0047050
X0040550Y0049600
X0040950Y0051500
X0040100Y0052750
X0043525
X0043300Y0051500
X0043950Y0049600
X0044000Y0047050
X0043675Y0044125
X0043775Y0041500
X0047700
X0049550Y0040400
X0051850Y0041275
X0052400Y0039025
X0053225Y0038275
X0054675
X0056025
X0056750Y0039025
X0057900Y0038075
X0056600Y0036775
X0056575Y0035100
X0058050Y0035175
X0061100Y0035050
Y0038050
X0060950Y0041675
X0057525Y0041650
X0055575Y0041150
X0055225Y0044225
X0058475Y0044425
X0058400Y0047800
X0062200Y0047825
X0060975Y0045450
X0063800Y0044775
X0064450Y0041600
Y0039350
Y0037050
Y0034825
Y0030125
X0063200
X0062000
X0060875Y0030175
X0059175Y0029550
X0058025
X0056800
X0056025Y0028900
X0055075Y0028850
X0055175Y0028025
X0056225Y0028050
X0057225Y0028075
X0058275Y0028125
X0058375Y0026050
X0059225
X0059400Y0025375
X0058600
X0057900Y0025525
X0057450Y0026100
X0056700
X0056825Y0023475
X0056800Y0022025
Y0020575
X0056500Y0019800
X0054800
X0054950Y0020575
X0055475Y0021575
X0055850Y0022825
X0054475Y0022750
X0053475Y0022825
X0053725Y0021575
X0052600Y0021950
X0051500Y0021625
X0051300Y0020700
X0052750Y0020600
X0051850Y0019675
X0050225
X0048375Y0019650
X0046775Y0020100
X0047400Y0022475
X0046925Y0022975
X0047925Y0023075
X0047425Y0023650
X0048425
X0048927Y0022975
X0050300Y0022375
X0051650Y0022650
X0052125Y0023625
X0051025Y0023700
X0049425Y0020750
X0041275Y0020575
X0041250Y0019850
X0040050Y0022400
X0045475Y0027525
X0042525Y0032925
X0042675Y0033900
X0039950Y0034000
X0040975Y0032425
X0050700Y0032325
X0055600Y0029775
X0060025Y0027375
X0060150Y0025575
X0060225Y0024725
Y0023875
Y0022925
X0060250Y0022125
Y0021325
X0060800Y0020725
X0062000
X0063200
X0064400
X0063900Y0019875
X0062650
X0061400
X0059800Y0019975
X0059150Y0021075
X0058000
Y0022800
X0059150Y0022825
X0059150Y0024375
X0058000Y0024400
X0060875Y0023175
X0062000
X0063200
X0064400
X0054025Y0039025
X0051300Y0044125
Y0047125
X0050650Y0049375
X0049000Y0050775
X0047350Y0049600
X0047650Y0047050
X0047250Y0044125
X0046025Y0051500
X0046950Y0052750
X0050325
X0053625
X0052500Y0050675
X0055875Y0049700
X0056850Y0051925
X0059625Y0050425
X0054700Y0047300
X0038125Y0048450
X0037125Y0049150
X0036725Y0047050
X0034875Y0048025
X0033625Y0049150
X0032400Y0049525
X0030100Y0049500
X0031325Y0048050
X0033075Y0047050
X0033000Y0044125
Y0041500
X0034300Y0040375
X0033425Y0039050
X0033100Y0038275
X0035125Y0038200
X0035625Y0036925
X0037025Y0038225
X0036625Y0039050
X0036500Y0041500
X0036550Y0044125
X0038200Y0040375
X0039075Y0038300
X0039100Y0036900
X0036000Y0034000
Y0031100
X0036250Y0028800
X0034950Y0027475
X0035175Y0025075
X0032375
X0032250Y0027475
X0033475Y0028775
X0030925Y0028700
X0029650Y0027475
X0027375
X0028450Y0028650
Y0031050
X0027425Y0031275
X0027325Y0030025
X0024950Y0030350
X0022200Y0030000
X0022225Y0033250
X0022250Y0036350
X0021875Y0037575
Y0040300
X0023650Y0039375
X0024400Y0038350
X0025050Y0036750
X0024950Y0033700
X0027425Y0034075
X0028450Y0034000
X0027425Y0032825
X0027450Y0036000
X0028450Y0036950
X0029075Y0038300
X0030850Y0038275
X0030350Y0039075
X0030100Y0040375
X0029550Y0041500
X0029475Y0044125
X0029450Y0047050
X0027925Y0048025
X0027350Y0049500
X0025450Y0049550
X0023300Y0049500
X0023050Y0047025
X0020850
X0020300Y0045575
X0020900Y0044950
X0019025Y0043975
X0018150Y0044025
X0015875Y0044125
X0016075Y0047025
X0017300Y0047800
X0018450Y0047150
X0018700Y0048900
X0019650Y0048350
X0020000Y0049600
X0020300Y0052050
X0019725Y0052750
X0021800Y0051500
X0024150
X0023100Y0052750
X0026450
X0027500Y0051500
X0030800
X0029825Y0052750
X0033250
X0033150Y0051500
X0035875
X0036600Y0052750
X0038225Y0051500
X0025850Y0047025
X0025925Y0044125
X0023900Y0045075
X0021900Y0043075
X0018700Y0041200
Y0038825
Y0036400
Y0033950
Y0031500
X0016700Y0029875
X0018700Y0027800
Y0025325
Y0023300
Y0021350
X0016575Y0020275
X0016600Y0025050
X0011900Y0024850
X0007800Y0024600
X0004750Y0023650
X0003500Y0022450
X0002400Y0020975
X0001500Y0020900
X0000550Y0021800
Y0024575
X0002400Y0024800
Y0026500
X0000550Y0027350
Y0030125
X0002325Y0029825
X0003100Y0031000
X0004750Y0030500
X0004725Y0028325
X0004750Y0026100
X0004825Y0020800
X0007800Y0019725
X0011900Y0020050
Y0029650
X0007800Y0029475
Y0034375
X0004625Y0035325
X0004750Y0036650
X0004625Y0037850
X0004525Y0039525
X0004625Y0041150
X0006275Y0042050
X0005000Y0044075
X0005675Y0045675
X0004000Y0046750
X0003650Y0048050
X0003500Y0048900
X0001950Y0049700
X0000550Y0049725
Y0046950
X0001925Y0048075
X0002600Y0046500
X0002375Y0044100
X0000550Y0044175
Y0041400
X0002375Y0041575
Y0039500
X0002500Y0037750
X0002400Y0035375
X0000550Y0035675
Y0032900
X0002400
X0004975Y0032850
X0006000Y0038900
X0007800Y0039250
X0011900Y0039275
Y0034450
X0016700Y0034600
Y0039375
X0011900Y0044125
X0007800
X0007100Y0047050
X0006475Y0049600
X0006575Y0051500
X0006675Y0052750
X0003525
X0003825Y0051500
X0000550Y0052750
X0009900
X0008925Y0051500
X0011650
X0014000
X0013125Y0052750
X0016350
X0016725Y0051500
X0016575Y0049600
X0013475
X0013550Y0047025
X0010300
X0010250Y0049600
X0000550Y0038625
X0027450Y0039075
Y0038000
X0026300Y0040375
X0025550Y0041250
X0032000Y0036900
Y0034000
Y0031150
X0039650Y0030850
X0038975Y0028850
X0037775Y0027475
X0038100Y0025075
X0036925Y0022400
X0033975
X0031100
X0031100Y0019800
X0029225
X0027375
X0027325Y0021800
X0028450Y0022400
X0027350Y0023975
X0026950Y0025075
X0024225Y0025100
X0024525Y0023175
X0022250Y0023025
Y0020850
X0024500Y0020775
X0024700Y0027450
X0022250Y0026625
X0029700Y0025075
X0032950Y0019850
X0034825Y0019875
X0036475Y0019850
X0039000Y0019875
T03
X0022250Y0007800
X0018375Y0012600
X0045450Y0030800
Y0031575
X0045075Y0032275
X0050825Y0031350
Y0030550
X0062650Y0031030
Y0022270
X0019275Y0051925
X0004500Y0044725
T04
X0003500Y0010650
Y0012650
Y0014650
Y0016650
Y0023650
Y0025650
Y0027650
Y0029650
Y0036650
Y0038650
Y0040650
Y0042650
T05
X0011500Y0002540
X0014040
X0016580
X0019120
X0021660
X0024200
X0026740
X0029280
X0034500
X0037040
X0039580
X0042120
X0044660
X0047200
X0055000Y0003775
X0047200Y0050800
X0044660
X0042120
X0039580
X0037040
X0034500
X0031960
X0029420
X0025500
X0022960
X0020420
X0017880
X0015340
X0012800
X0010260
X0007720
X0005180
X0002640
M30
