%TF.GenerationSoftware,KiCad,Pcbnew,10.0.5*%
%TF.CreationDate,2026-07-29T09:26:40-04:00*%
%TF.ProjectId,main,6d61696e-2e6b-4696-9361-645f70636258,rev?*%
%TF.SameCoordinates,Original*%
%TF.FileFunction,Legend,Top*%
%TF.FilePolarity,Positive*%
%FSLAX46Y46*%
G04 Gerber Fmt 4.6, Leading zero omitted, Abs format (unit mm)*
G04 Created by KiCad (PCBNEW 10.0.5) date 2026-07-29 09:26:40*
%MOMM*%
%LPD*%
G01*
G04 APERTURE LIST*
%ADD10C,0.100000*%
%ADD11C,0.120000*%
%ADD12C,0.010000*%
G04 APERTURE END LIST*
D10*
X89911027Y-90762475D02*
X90244360Y-91762475D01*
X90244360Y-91762475D02*
X90577693Y-90762475D01*
X90911027Y-91762475D02*
X90911027Y-90762475D01*
X91387217Y-91762475D02*
X91387217Y-90762475D01*
X91387217Y-90762475D02*
X91768169Y-90762475D01*
X91768169Y-90762475D02*
X91863407Y-90810094D01*
X91863407Y-90810094D02*
X91911026Y-90857713D01*
X91911026Y-90857713D02*
X91958645Y-90952951D01*
X91958645Y-90952951D02*
X91958645Y-91095808D01*
X91958645Y-91095808D02*
X91911026Y-91191046D01*
X91911026Y-91191046D02*
X91863407Y-91238665D01*
X91863407Y-91238665D02*
X91768169Y-91286284D01*
X91768169Y-91286284D02*
X91387217Y-91286284D01*
X92672931Y-92143427D02*
X92625312Y-92095808D01*
X92625312Y-92095808D02*
X92530074Y-91952951D01*
X92530074Y-91952951D02*
X92482455Y-91857713D01*
X92482455Y-91857713D02*
X92434836Y-91714856D01*
X92434836Y-91714856D02*
X92387217Y-91476760D01*
X92387217Y-91476760D02*
X92387217Y-91286284D01*
X92387217Y-91286284D02*
X92434836Y-91048189D01*
X92434836Y-91048189D02*
X92482455Y-90905332D01*
X92482455Y-90905332D02*
X92530074Y-90810094D01*
X92530074Y-90810094D02*
X92625312Y-90667236D01*
X92625312Y-90667236D02*
X92672931Y-90619617D01*
X93053884Y-91238665D02*
X93387217Y-91238665D01*
X93530074Y-91762475D02*
X93053884Y-91762475D01*
X93053884Y-91762475D02*
X93053884Y-90762475D01*
X93053884Y-90762475D02*
X93530074Y-90762475D01*
X93863408Y-92143427D02*
X93911027Y-92095808D01*
X93911027Y-92095808D02*
X94006265Y-91952951D01*
X94006265Y-91952951D02*
X94053884Y-91857713D01*
X94053884Y-91857713D02*
X94101503Y-91714856D01*
X94101503Y-91714856D02*
X94149122Y-91476760D01*
X94149122Y-91476760D02*
X94149122Y-91286284D01*
X94149122Y-91286284D02*
X94101503Y-91048189D01*
X94101503Y-91048189D02*
X94053884Y-90905332D01*
X94053884Y-90905332D02*
X94006265Y-90810094D01*
X94006265Y-90810094D02*
X93911027Y-90667236D01*
X93911027Y-90667236D02*
X93863408Y-90619617D01*
X95196741Y-91762475D02*
X94863408Y-91286284D01*
X94625313Y-91762475D02*
X94625313Y-90762475D01*
X94625313Y-90762475D02*
X95006265Y-90762475D01*
X95006265Y-90762475D02*
X95101503Y-90810094D01*
X95101503Y-90810094D02*
X95149122Y-90857713D01*
X95149122Y-90857713D02*
X95196741Y-90952951D01*
X95196741Y-90952951D02*
X95196741Y-91095808D01*
X95196741Y-91095808D02*
X95149122Y-91191046D01*
X95149122Y-91191046D02*
X95101503Y-91238665D01*
X95101503Y-91238665D02*
X95006265Y-91286284D01*
X95006265Y-91286284D02*
X94625313Y-91286284D01*
X90625312Y-93372419D02*
X90291979Y-92896228D01*
X90053884Y-93372419D02*
X90053884Y-92372419D01*
X90053884Y-92372419D02*
X90434836Y-92372419D01*
X90434836Y-92372419D02*
X90530074Y-92420038D01*
X90530074Y-92420038D02*
X90577693Y-92467657D01*
X90577693Y-92467657D02*
X90625312Y-92562895D01*
X90625312Y-92562895D02*
X90625312Y-92705752D01*
X90625312Y-92705752D02*
X90577693Y-92800990D01*
X90577693Y-92800990D02*
X90530074Y-92848609D01*
X90530074Y-92848609D02*
X90434836Y-92896228D01*
X90434836Y-92896228D02*
X90053884Y-92896228D01*
X91434836Y-93324800D02*
X91339598Y-93372419D01*
X91339598Y-93372419D02*
X91149122Y-93372419D01*
X91149122Y-93372419D02*
X91053884Y-93324800D01*
X91053884Y-93324800D02*
X91006265Y-93229561D01*
X91006265Y-93229561D02*
X91006265Y-92848609D01*
X91006265Y-92848609D02*
X91053884Y-92753371D01*
X91053884Y-92753371D02*
X91149122Y-92705752D01*
X91149122Y-92705752D02*
X91339598Y-92705752D01*
X91339598Y-92705752D02*
X91434836Y-92753371D01*
X91434836Y-92753371D02*
X91482455Y-92848609D01*
X91482455Y-92848609D02*
X91482455Y-92943847D01*
X91482455Y-92943847D02*
X91006265Y-93039085D01*
X91815789Y-92705752D02*
X92053884Y-93372419D01*
X92053884Y-93372419D02*
X92291979Y-92705752D01*
X93196741Y-93372419D02*
X92625313Y-93372419D01*
X92911027Y-93372419D02*
X92911027Y-92372419D01*
X92911027Y-92372419D02*
X92815789Y-92515276D01*
X92815789Y-92515276D02*
X92720551Y-92610514D01*
X92720551Y-92610514D02*
X92625313Y-92658133D01*
X93625313Y-93277180D02*
X93672932Y-93324800D01*
X93672932Y-93324800D02*
X93625313Y-93372419D01*
X93625313Y-93372419D02*
X93577694Y-93324800D01*
X93577694Y-93324800D02*
X93625313Y-93277180D01*
X93625313Y-93277180D02*
X93625313Y-93372419D01*
X94053884Y-92467657D02*
X94101503Y-92420038D01*
X94101503Y-92420038D02*
X94196741Y-92372419D01*
X94196741Y-92372419D02*
X94434836Y-92372419D01*
X94434836Y-92372419D02*
X94530074Y-92420038D01*
X94530074Y-92420038D02*
X94577693Y-92467657D01*
X94577693Y-92467657D02*
X94625312Y-92562895D01*
X94625312Y-92562895D02*
X94625312Y-92658133D01*
X94625312Y-92658133D02*
X94577693Y-92800990D01*
X94577693Y-92800990D02*
X94006265Y-93372419D01*
X94006265Y-93372419D02*
X94625312Y-93372419D01*
%TO.C,C14*%
D11*
X98889939Y-39639970D02*
X98691128Y-39838781D01*
X99611188Y-40361219D02*
X99412377Y-40560030D01*
%TO.C,C17*%
X105791158Y-76257836D02*
X105791158Y-76042164D01*
X106511158Y-76257836D02*
X106511158Y-76042164D01*
%TO.C,C16*%
X91241158Y-75965580D02*
X91241158Y-75684420D01*
X92261158Y-75965580D02*
X92261158Y-75684420D01*
%TO.C,R2*%
X105488416Y-82827500D02*
X105013900Y-82827500D01*
X105488416Y-83872500D02*
X105013900Y-83872500D01*
%TO.C,U4*%
X92451158Y-50900000D02*
X113151158Y-50900000D01*
X92451158Y-66500000D02*
X92451158Y-50900000D01*
X113151158Y-50900000D02*
X113151158Y-66500000D01*
X113151158Y-66500000D02*
X92451158Y-66500000D01*
X113401158Y-50625000D02*
X110951158Y-50625000D01*
X113401158Y-50625000D02*
X113401158Y-53075000D01*
X106201158Y-50725000D02*
X105961158Y-50389000D01*
X106441158Y-50389000D01*
X106201158Y-50725000D01*
G36*
X106201158Y-50725000D02*
G01*
X105961158Y-50389000D01*
X106441158Y-50389000D01*
X106201158Y-50725000D01*
G37*
%TO.C,U1*%
X96641158Y-43890000D02*
X97116158Y-43890000D01*
X96641158Y-44365000D02*
X96641158Y-43890000D01*
X96641158Y-48110000D02*
X96641158Y-47635000D01*
X97116158Y-48110000D02*
X96641158Y-48110000D01*
X100386158Y-43890000D02*
X100861158Y-43890000D01*
X100861158Y-43890000D02*
X100861158Y-44365000D01*
X100861158Y-47635000D02*
X100861158Y-48110000D01*
X100861158Y-48110000D02*
X100386158Y-48110000D01*
X100001158Y-43390000D02*
X99761158Y-43060000D01*
X100241158Y-43060000D01*
X100001158Y-43390000D01*
G36*
X100001158Y-43390000D02*
G01*
X99761158Y-43060000D01*
X100241158Y-43060000D01*
X100001158Y-43390000D01*
G37*
%TO.C,D1*%
X96601158Y-82440000D02*
X96601158Y-85100000D01*
X98301158Y-82440000D02*
X96601158Y-82440000D01*
X98301158Y-82440000D02*
X98301158Y-85100000D01*
%TO.C,U6*%
X95541158Y-76040000D02*
X95716158Y-76040000D01*
X95541158Y-79260000D02*
X95541158Y-76040000D01*
X95716158Y-79260000D02*
X95541158Y-79260000D01*
X98586158Y-76040000D02*
X98761158Y-76040000D01*
X98761158Y-76040000D02*
X98761158Y-79260000D01*
X98761158Y-79260000D02*
X98586158Y-79260000D01*
X95711158Y-79810000D02*
X95381158Y-80050000D01*
X95381158Y-79570000D01*
X95711158Y-79810000D01*
G36*
X95711158Y-79810000D02*
G01*
X95381158Y-80050000D01*
X95381158Y-79570000D01*
X95711158Y-79810000D01*
G37*
%TO.C,L1*%
X96088280Y-40390000D02*
X95289036Y-40390000D01*
X96088280Y-41510000D02*
X95289036Y-41510000D01*
%TO.C,D2*%
X93401158Y-77810000D02*
X93401158Y-75150000D01*
X93401158Y-77810000D02*
X95101158Y-77810000D01*
X95101158Y-77810000D02*
X95101158Y-75150000D01*
%TO.C,C11*%
X95228658Y-42957836D02*
X95228658Y-42742164D01*
X95948658Y-42957836D02*
X95948658Y-42742164D01*
%TO.C,C7*%
X94228658Y-45057836D02*
X94228658Y-44842164D01*
X94948658Y-45057836D02*
X94948658Y-44842164D01*
%TO.C,R7*%
X100588900Y-74077500D02*
X101063416Y-74077500D01*
X100588900Y-75122500D02*
X101063416Y-75122500D01*
%TO.C,C1*%
X94610578Y-81290000D02*
X94891738Y-81290000D01*
X94610578Y-82310000D02*
X94891738Y-82310000D01*
%TO.C,U3*%
X106166158Y-43985000D02*
X106166158Y-43015000D01*
X107736158Y-43015000D02*
X106166158Y-43015000D01*
X107736158Y-44185000D02*
X106366158Y-44185000D01*
X107736158Y-44185000D02*
X107736158Y-43015000D01*
D10*
X106151158Y-44200000D02*
X106151158Y-44560000D01*
X105791158Y-44200000D01*
X106151158Y-44200000D01*
G36*
X106151158Y-44560000D02*
G01*
X105791158Y-44200000D01*
X106151158Y-44200000D01*
X106151158Y-44560000D01*
G37*
%TO.C,C2*%
D11*
X99241158Y-79959420D02*
X99241158Y-80240580D01*
X100261158Y-79959420D02*
X100261158Y-80240580D01*
%TO.C,U2*%
X100591158Y-68190000D02*
X104711158Y-68190000D01*
X100591158Y-68285000D02*
X100591158Y-68190000D01*
X100591158Y-73310000D02*
X100591158Y-73215000D01*
X104711158Y-68190000D02*
X104711158Y-68285000D01*
X104711158Y-73215000D02*
X104711158Y-73310000D01*
X104711158Y-73310000D02*
X100591158Y-73310000D01*
X100051158Y-68280000D02*
X99811158Y-67950000D01*
X100291158Y-67950000D01*
X100051158Y-68280000D01*
G36*
X100051158Y-68280000D02*
G01*
X99811158Y-67950000D01*
X100291158Y-67950000D01*
X100051158Y-68280000D01*
G37*
%TO.C,C3*%
X104958994Y-49840000D02*
X104743322Y-49840000D01*
X104958994Y-50560000D02*
X104743322Y-50560000D01*
%TO.C,R9*%
X92528658Y-45637258D02*
X92528658Y-45162742D01*
X93573658Y-45637258D02*
X93573658Y-45162742D01*
%TO.C,C5*%
X100841158Y-79040580D02*
X100841158Y-78759420D01*
X101861158Y-79040580D02*
X101861158Y-78759420D01*
%TO.C,R10*%
X92528658Y-49137258D02*
X92528658Y-48662742D01*
X93573658Y-49137258D02*
X93573658Y-48662742D01*
%TO.C,C15*%
X100859420Y-84390000D02*
X101140580Y-84390000D01*
X100859420Y-85410000D02*
X101140580Y-85410000D01*
%TO.C,R4*%
X96813900Y-49077500D02*
X97288416Y-49077500D01*
X96813900Y-50122500D02*
X97288416Y-50122500D01*
%TO.C,C13*%
X104491158Y-41587836D02*
X104491158Y-41372164D01*
X105211158Y-41587836D02*
X105211158Y-41372164D01*
%TO.C,C12*%
X100389939Y-42560030D02*
X100191128Y-42361219D01*
X101111188Y-41838781D02*
X100912377Y-41639970D01*
%TO.C,C6*%
X97276494Y-41990000D02*
X97060822Y-41990000D01*
X97276494Y-42710000D02*
X97060822Y-42710000D01*
%TO.C,J2*%
X100080000Y-36577600D02*
X100580000Y-36577600D01*
X100330000Y-36077600D02*
X100080000Y-36577600D01*
X100580000Y-36577600D02*
X100330000Y-36077600D01*
%TO.C,SW1*%
D10*
X88851158Y-82800000D02*
X88851158Y-83500000D01*
X88851158Y-83500000D02*
X89151158Y-83800000D01*
X89151158Y-82500000D02*
X88851158Y-82800000D01*
X89151158Y-83800000D02*
X90351158Y-83800000D01*
X90351158Y-82500000D02*
X89151158Y-82500000D01*
X90351158Y-82500000D02*
X90351158Y-79150000D01*
X90351158Y-82500000D02*
X90351158Y-83800000D01*
X90351158Y-83800000D02*
X90351158Y-85850000D01*
X90351158Y-85850000D02*
X92951158Y-85850000D01*
X92951158Y-79150000D02*
X90351158Y-79150000D01*
X92951158Y-85850000D02*
X92951158Y-79150000D01*
D12*
X90701158Y-78647570D02*
X90701158Y-79150000D01*
X90300308Y-79150000D01*
X90300308Y-78647570D01*
X90701158Y-78647570D01*
G36*
X90701158Y-79150000D02*
G01*
X90300308Y-79150000D01*
X90300308Y-78647570D01*
X90701158Y-78647570D01*
X90701158Y-79150000D01*
G37*
X90701158Y-85853270D02*
X90701158Y-86350000D01*
X90299838Y-86350000D01*
X90299838Y-85853270D01*
X90701158Y-85853270D01*
G36*
X90701158Y-86350000D02*
G01*
X90299838Y-86350000D01*
X90299838Y-85853270D01*
X90701158Y-85853270D01*
X90701158Y-86350000D01*
G37*
X93001158Y-78645740D02*
X93001158Y-79150000D01*
X92602210Y-79150000D01*
X92602210Y-78645740D01*
X93001158Y-78645740D01*
G36*
X93001158Y-79150000D02*
G01*
X92602210Y-79150000D01*
X92602210Y-78645740D01*
X93001158Y-78645740D01*
X93001158Y-79150000D01*
G37*
X93001158Y-85856180D02*
X93001158Y-86350000D01*
X92602909Y-86350000D01*
X92602909Y-85856180D01*
X93001158Y-85856180D01*
G36*
X93001158Y-86350000D02*
G01*
X92602909Y-86350000D01*
X92602909Y-85856180D01*
X93001158Y-85856180D01*
X93001158Y-86350000D01*
G37*
X93851158Y-80048000D02*
X93851158Y-80450000D01*
X92952218Y-80450000D01*
X92952218Y-80048000D01*
X93851158Y-80048000D01*
G36*
X93851158Y-80450000D02*
G01*
X92952218Y-80450000D01*
X92952218Y-80048000D01*
X93851158Y-80048000D01*
X93851158Y-80450000D01*
G37*
X93851158Y-83050814D02*
X93851158Y-83450000D01*
X92953078Y-83450000D01*
X92953078Y-83050814D01*
X93851158Y-83050814D01*
G36*
X93851158Y-83450000D02*
G01*
X92953078Y-83450000D01*
X92953078Y-83050814D01*
X93851158Y-83050814D01*
X93851158Y-83450000D01*
G37*
X93851158Y-84550040D02*
X93851158Y-84950000D01*
X92951188Y-84950000D01*
X92951188Y-84550040D01*
X93851158Y-84550040D01*
G36*
X93851158Y-84950000D02*
G01*
X92951188Y-84950000D01*
X92951188Y-84550040D01*
X93851158Y-84550040D01*
X93851158Y-84950000D01*
G37*
%TO.C,J1*%
D11*
X97661158Y-90090000D02*
X97661158Y-88680000D01*
X98481158Y-86010000D02*
X98481158Y-86160000D01*
X99281158Y-86010000D02*
X98481158Y-86010000D01*
X106821158Y-90090000D02*
X106821158Y-88680000D01*
%TO.C,C10*%
X94228658Y-47442164D02*
X94228658Y-47657836D01*
X94948658Y-47442164D02*
X94948658Y-47657836D01*
%TO.C,BT1*%
X90241158Y-67590000D02*
X90241158Y-73710000D01*
X90241158Y-70150000D02*
X94601158Y-70150000D01*
X90241158Y-73710000D02*
X98061158Y-73710000D01*
X92501158Y-68850000D02*
X90241158Y-68850000D01*
X92501158Y-69350000D02*
X90241158Y-69350000D01*
X94601158Y-70150000D02*
X94601158Y-71150000D01*
X94601158Y-71150000D02*
X90241158Y-71150000D01*
X96461158Y-67590000D02*
X96461158Y-68510000D01*
X96461158Y-68510000D02*
X98061158Y-68510000D01*
X96461158Y-68790000D02*
X96461158Y-68510000D01*
X96461158Y-68790000D02*
X97676158Y-68790000D01*
X96461158Y-72790000D02*
X96461158Y-72510000D01*
X96461158Y-73710000D02*
X96461158Y-72790000D01*
X98061158Y-67590000D02*
X90241158Y-67590000D01*
X98061158Y-68510000D02*
X98061158Y-67590000D01*
X98061158Y-72790000D02*
X96461158Y-72790000D01*
X98061158Y-73710000D02*
X98061158Y-72790000D01*
X92501158Y-68350000D02*
X94101158Y-68350000D01*
X94101158Y-69350000D01*
X92501158Y-69350000D01*
X92501158Y-68350000D01*
X92501158Y-71950000D02*
X94101158Y-71950000D01*
X94101158Y-72950000D01*
X92501158Y-72950000D01*
X92501158Y-71950000D01*
%TO.C,C18*%
X101063322Y-75690000D02*
X101278994Y-75690000D01*
X101063322Y-76410000D02*
X101278994Y-76410000D01*
%TO.C,FL1*%
X104340645Y-44640000D02*
X104341158Y-44640000D01*
X104341158Y-46960000D02*
X104016158Y-46960000D01*
X105161158Y-44640000D02*
X105486158Y-44640000D01*
X105486158Y-46960000D02*
X105161158Y-46960000D01*
X104051158Y-44630000D02*
X103811158Y-44300000D01*
X104291158Y-44300000D01*
X104051158Y-44630000D01*
G36*
X104051158Y-44630000D02*
G01*
X103811158Y-44300000D01*
X104291158Y-44300000D01*
X104051158Y-44630000D01*
G37*
%TO.C,C4*%
X103089906Y-47865000D02*
X103612410Y-47865000D01*
X103089906Y-49335000D02*
X103612410Y-49335000D01*
%TO.C,R1*%
X100413416Y-82827500D02*
X99938900Y-82827500D01*
X100413416Y-83872500D02*
X99938900Y-83872500D01*
%TO.C,R5*%
X102587517Y-39720000D02*
X102894799Y-39720000D01*
X102587517Y-40480000D02*
X102894799Y-40480000D01*
%TO.C,U7*%
X102341158Y-77490000D02*
X102516158Y-77490000D01*
X102341158Y-80710000D02*
X102341158Y-77490000D01*
X102516158Y-80710000D02*
X102341158Y-80710000D01*
X105386158Y-77490000D02*
X105561158Y-77490000D01*
X105561158Y-77490000D02*
X105561158Y-80710000D01*
X105561158Y-80710000D02*
X105386158Y-80710000D01*
X102511158Y-81260000D02*
X102181158Y-81500000D01*
X102181158Y-81020000D01*
X102511158Y-81260000D01*
G36*
X102511158Y-81260000D02*
G01*
X102181158Y-81500000D01*
X102181158Y-81020000D01*
X102511158Y-81260000D01*
G37*
%TO.C,L2*%
X102641158Y-42537221D02*
X102641158Y-42862779D01*
X103661158Y-42537221D02*
X103661158Y-42862779D01*
%TD*%
M02*
