%TF.GenerationSoftware,KiCad,Pcbnew,10.0.5*%
%TF.CreationDate,2026-07-29T09:26:39-04:00*%
%TF.ProjectId,main,6d61696e-2e6b-4696-9361-645f70636258,rev?*%
%TF.SameCoordinates,Original*%
%TF.FileFunction,Copper,L2,Bot*%
%TF.FilePolarity,Positive*%
%FSLAX46Y46*%
G04 Gerber Fmt 4.6, Leading zero omitted, Abs format (unit mm)*
G04 Created by KiCad (PCBNEW 10.0.5) date 2026-07-29 09:26:39*
%MOMM*%
%LPD*%
G01*
G04 APERTURE LIST*
G04 Aperture macros list*
%AMRoundRect*
0 Rectangle with rounded corners*
0 $1 Rounding radius*
0 $2 $3 $4 $5 $6 $7 $8 $9 X,Y pos of 4 corners*
0 Add a 4 corners polygon primitive as box body*
4,1,4,$2,$3,$4,$5,$6,$7,$8,$9,$2,$3,0*
0 Add four circle primitives for the rounded corners*
1,1,$1+$1,$2,$3*
1,1,$1+$1,$4,$5*
1,1,$1+$1,$6,$7*
1,1,$1+$1,$8,$9*
0 Add four rect primitives between the rounded corners*
20,1,$1+$1,$2,$3,$4,$5,0*
20,1,$1+$1,$4,$5,$6,$7,0*
20,1,$1+$1,$6,$7,$8,$9,0*
20,1,$1+$1,$8,$9,$2,$3,0*%
G04 Aperture macros list end*
%TA.AperFunction,HeatsinkPad*%
%ADD10C,0.500000*%
%TD*%
%TA.AperFunction,HeatsinkPad*%
%ADD11R,1.900000X2.900000*%
%TD*%
%TA.AperFunction,SMDPad,CuDef*%
%ADD12R,1.500000X5.080000*%
%TD*%
%TA.AperFunction,ComponentPad*%
%ADD13RoundRect,0.250000X-0.625000X0.350000X-0.625000X-0.350000X0.625000X-0.350000X0.625000X0.350000X0*%
%TD*%
%TA.AperFunction,ComponentPad*%
%ADD14O,1.750000X1.200000*%
%TD*%
%TA.AperFunction,ViaPad*%
%ADD15C,0.600000*%
%TD*%
%TA.AperFunction,Conductor*%
%ADD16C,0.200000*%
%TD*%
%TA.AperFunction,Conductor*%
%ADD17C,0.500000*%
%TD*%
%TA.AperFunction,Conductor*%
%ADD18C,0.400000*%
%TD*%
%TA.AperFunction,Conductor*%
%ADD19C,1.000000*%
%TD*%
%TA.AperFunction,Conductor*%
%ADD20C,0.250000*%
%TD*%
G04 APERTURE END LIST*
D10*
%TO.P,U2,9,EPAD_9*%
%TO.N,V-*%
X101951158Y-69550000D03*
X101951158Y-70750000D03*
X101951158Y-71950000D03*
D11*
X102651158Y-70750000D03*
D10*
X103351158Y-69550000D03*
X103351158Y-70750000D03*
X103351158Y-71950000D03*
%TD*%
D12*
%TO.P,J2,2,Ext_2*%
%TO.N,V-*%
X96080000Y-32867600D03*
X104580000Y-32867600D03*
%TD*%
D13*
%TO.P,BT1,1,+_1*%
%TO.N,CHRG_BAT*%
X96601158Y-69650000D03*
D14*
%TO.P,BT1,2,-_2*%
%TO.N,V-*%
X96601158Y-71650000D03*
%TD*%
D15*
%TO.N,V-*%
X93345000Y-65659000D03*
X95802550Y-43351549D03*
X95631000Y-38481000D03*
X90551000Y-77470000D03*
X92751158Y-81800000D03*
X90678000Y-88646000D03*
X96393000Y-56261000D03*
X95851158Y-84700000D03*
X92202000Y-88011000D03*
X91313000Y-46101000D03*
X93345000Y-70231000D03*
X106807000Y-38608000D03*
X95758000Y-73660000D03*
X95250000Y-78613000D03*
X98044000Y-46990000D03*
%TO.N,VCC*%
X94651158Y-46200000D03*
X99251158Y-42200000D03*
X97551158Y-78000000D03*
X107751158Y-45675000D03*
%TO.N,~{CHRG}*%
X94651158Y-56200000D03*
X106550907Y-69253083D03*
%TO.N,~{STDBY}*%
X106508682Y-71257524D03*
X94651158Y-57000000D03*
%TO.N,SERIAL_N*%
X103276158Y-74850000D03*
X101157931Y-67221707D03*
%TO.N,SERIAL_P*%
X104126158Y-74850000D03*
X102051679Y-67149479D03*
%TO.N,DIO2*%
X101500000Y-41000000D03*
X96076158Y-47375000D03*
%TO.N,V+*%
X104651158Y-85500000D03*
X98723842Y-85100000D03*
X105551158Y-67900000D03*
X102551158Y-74100000D03*
%TD*%
%TO.N,V-*%
D16*
X96393000Y-56261000D02*
X96393000Y-48641000D01*
D17*
X91555342Y-45858658D02*
X91313000Y-46101000D01*
D16*
X97059000Y-47975000D02*
X95011944Y-47975000D01*
X98044000Y-46990000D02*
X97059000Y-47975000D01*
D18*
X92751158Y-81800000D02*
X95651158Y-84700000D01*
D16*
X95758000Y-73660000D02*
X93345000Y-71247000D01*
D17*
X93200000Y-45858658D02*
X93200000Y-61298842D01*
X95802550Y-43351549D02*
X95707109Y-43351549D01*
X95707109Y-43351549D02*
X93200000Y-45858658D01*
D18*
X95651158Y-84700000D02*
X95851158Y-84700000D01*
D16*
X93345000Y-71247000D02*
X93345000Y-70231000D01*
X90551000Y-68400158D02*
X93251158Y-65700000D01*
D17*
X93200000Y-45858658D02*
X91555342Y-45858658D01*
D16*
X93651158Y-45502941D02*
X95802550Y-43351549D01*
X90678000Y-77597000D02*
X90551000Y-77470000D01*
X90678000Y-88646000D02*
X90678000Y-77597000D01*
X95011944Y-47975000D02*
X93651158Y-46614214D01*
X96393000Y-48641000D02*
X98044000Y-46990000D01*
X93651158Y-46614214D02*
X93651158Y-45502941D01*
X95802550Y-38652550D02*
X95631000Y-38481000D01*
D17*
X93200000Y-61298842D02*
X102651158Y-70750000D01*
D16*
X95250000Y-78613000D02*
X95250000Y-84963000D01*
X90551000Y-77470000D02*
X90551000Y-68400158D01*
X95250000Y-84963000D02*
X92202000Y-88011000D01*
X106807000Y-38608000D02*
X100546099Y-38608000D01*
X95802550Y-43351549D02*
X95802550Y-38652550D01*
X100546099Y-38608000D02*
X95802550Y-43351549D01*
%TO.N,VCC*%
D19*
X97551158Y-78000000D02*
X106651158Y-78000000D01*
D17*
X102726158Y-45675000D02*
X107751158Y-45675000D01*
D19*
X107351158Y-77300000D02*
X107351158Y-75700000D01*
X106651158Y-78000000D02*
X107351158Y-77300000D01*
X107351158Y-75700000D02*
X107551158Y-75500000D01*
D20*
X94651158Y-46200000D02*
X95251158Y-46200000D01*
D19*
X107551158Y-47142892D02*
X107551158Y-45675000D01*
D20*
X95251158Y-46200000D02*
X99251158Y-42200000D01*
D19*
X107551158Y-47557108D02*
X107551158Y-47142892D01*
X107551158Y-75500000D02*
X107551158Y-47557108D01*
D17*
X99251158Y-42200000D02*
X102726158Y-45675000D01*
%TO.N,~{CHRG}*%
D16*
X106550907Y-67299749D02*
X95451158Y-56200000D01*
X95451158Y-56200000D02*
X94651158Y-56200000D01*
X106550907Y-69253083D02*
X106550907Y-67299749D01*
%TO.N,~{STDBY}*%
X95499687Y-57000000D02*
X94651158Y-57000000D01*
X106151158Y-67651471D02*
X95499687Y-57000000D01*
X105951158Y-70700000D02*
X105951158Y-68348529D01*
X106508682Y-71257524D02*
X105951158Y-70700000D01*
X106151158Y-68148529D02*
X106151158Y-67651471D01*
X105951158Y-68348529D02*
X106151158Y-68148529D01*
%TO.N,SERIAL_N*%
X101686745Y-67750521D02*
X101733480Y-67750521D01*
X103901158Y-72500000D02*
X103476157Y-72925001D01*
X101733480Y-67750521D02*
X102982959Y-69000000D01*
X103901158Y-69000000D02*
X103901158Y-72500000D01*
X102982959Y-69000000D02*
X103901158Y-69000000D01*
X103476157Y-72925001D02*
X103476157Y-74650001D01*
X101157931Y-67221707D02*
X101686745Y-67750521D01*
X103476157Y-74650001D02*
X103276158Y-74850000D01*
%TO.N,SERIAL_P*%
X102051679Y-67432322D02*
X102051679Y-67149479D01*
X104351138Y-72686388D02*
X104351138Y-68813612D01*
X103926159Y-74650001D02*
X103926159Y-73111367D01*
X103169377Y-68550020D02*
X102051679Y-67432322D01*
X104126158Y-74850000D02*
X103926159Y-74650001D01*
X103926159Y-73111367D02*
X104351138Y-72686388D01*
X104087546Y-68550020D02*
X103169377Y-68550020D01*
X104351138Y-68813612D02*
X104087546Y-68550020D01*
%TO.N,DIO2*%
X94051158Y-45951471D02*
X94051158Y-46448529D01*
X99002629Y-41000000D02*
X94051158Y-45951471D01*
X94977629Y-47375000D02*
X96076158Y-47375000D01*
X94051158Y-46448529D02*
X94977629Y-47375000D01*
X101500000Y-41000000D02*
X99002629Y-41000000D01*
%TO.N,V+*%
D18*
X99123842Y-85500000D02*
X98723842Y-85100000D01*
X96651158Y-77627208D02*
X96651158Y-83027316D01*
X105351158Y-74614950D02*
X104416108Y-75550000D01*
X105351158Y-68100000D02*
X105351158Y-74614950D01*
X102551158Y-74100000D02*
X100178366Y-74100000D01*
X100178366Y-74100000D02*
X96651158Y-77627208D01*
X104651158Y-85500000D02*
X99123842Y-85500000D01*
X102986208Y-75550000D02*
X102551158Y-75114950D01*
X102551158Y-75114950D02*
X102551158Y-74100000D01*
X96651158Y-83027316D02*
X98723842Y-85100000D01*
X104416108Y-75550000D02*
X102986208Y-75550000D01*
X105551158Y-67900000D02*
X105351158Y-68100000D01*
%TD*%
M02*
