G04 #@! TF.GenerationSoftware,KiCad,Pcbnew,10.0.5*
G04 #@! TF.CreationDate,2026-07-30T12:00:32-04:00*
G04 #@! TF.ProjectId,main,6d61696e-2e6b-4696-9361-645f70636258,rev?*
G04 #@! TF.SameCoordinates,Original*
G04 #@! TF.FileFunction,Soldermask,Top*
G04 #@! TF.FilePolarity,Negative*
%FSLAX46Y46*%
G04 Gerber Fmt 4.6, Leading zero omitted, Abs format (unit mm)*
G04 Created by KiCad (PCBNEW 10.0.5) date 2026-07-30 12:00:32*
%MOMM*%
%LPD*%
G01*
G04 APERTURE LIST*
G04 Aperture macros list*
%AMRoundRect*
0 Rectangle with rounded corners*
0 $1 Rounding radius*
0 $2 $3 $4 $5 $6 $7 $8 $9 X,Y pos of 4 corners*
0 Add a 4 corners polygon primitive as box body*
4,1,4,$2,$3,$4,$5,$6,$7,$8,$9,$2,$3,0*
0 Add four circle primitives for the rounded corners*
1,1,$1+$1,$2,$3*
1,1,$1+$1,$4,$5*
1,1,$1+$1,$6,$7*
1,1,$1+$1,$8,$9*
0 Add four rect primitives between the rounded corners*
20,1,$1+$1,$2,$3,$4,$5,0*
20,1,$1+$1,$4,$5,$6,$7,0*
20,1,$1+$1,$6,$7,$8,$9,0*
20,1,$1+$1,$8,$9,$2,$3,0*%
%AMOutline5P*
0 Free polygon, 5 corners , with rotation*
0 The origin of the aperture is its center*
0 number of corners: always 5*
0 $1 to $10 corner X, Y*
0 $11 Rotation angle, in degrees counterclockwise*
0 create outline with 5 corners*
4,1,5,$1,$2,$3,$4,$5,$6,$7,$8,$9,$10,$1,$2,$11*%
%AMOutline6P*
0 Free polygon, 6 corners , with rotation*
0 The origin of the aperture is its center*
0 number of corners: always 6*
0 $1 to $12 corner X, Y*
0 $13 Rotation angle, in degrees counterclockwise*
0 create outline with 6 corners*
4,1,6,$1,$2,$3,$4,$5,$6,$7,$8,$9,$10,$11,$12,$1,$2,$13*%
%AMOutline7P*
0 Free polygon, 7 corners , with rotation*
0 The origin of the aperture is its center*
0 number of corners: always 7*
0 $1 to $14 corner X, Y*
0 $15 Rotation angle, in degrees counterclockwise*
0 create outline with 7 corners*
4,1,7,$1,$2,$3,$4,$5,$6,$7,$8,$9,$10,$11,$12,$13,$14,$1,$2,$15*%
%AMOutline8P*
0 Free polygon, 8 corners , with rotation*
0 The origin of the aperture is its center*
0 number of corners: always 8*
0 $1 to $16 corner X, Y*
0 $17 Rotation angle, in degrees counterclockwise*
0 create outline with 8 corners*
4,1,8,$1,$2,$3,$4,$5,$6,$7,$8,$9,$10,$11,$12,$13,$14,$15,$16,$1,$2,$17*%
G04 Aperture macros list end*
%ADD10RoundRect,0.225000X-0.017678X0.335876X-0.335876X0.017678X0.017678X-0.335876X0.335876X-0.017678X0*%
%ADD11RoundRect,0.140000X0.170000X-0.140000X0.170000X0.140000X-0.170000X0.140000X-0.170000X-0.140000X0*%
%ADD12RoundRect,0.225000X0.250000X-0.225000X0.250000X0.225000X-0.250000X0.225000X-0.250000X-0.225000X0*%
%ADD13C,2.600000*%
%ADD14C,3.800000*%
%ADD15RoundRect,0.200000X0.200000X0.275000X-0.200000X0.275000X-0.200000X-0.275000X0.200000X-0.275000X0*%
%ADD16R,0.400000X0.800000*%
%ADD17R,0.800000X0.400000*%
%ADD18Outline5P,-0.600000X0.204000X-0.204000X0.600000X0.600000X0.600000X0.600000X-0.600000X-0.600000X-0.600000X270.000000*%
%ADD19R,1.200000X1.200000*%
%ADD20R,0.800000X0.800000*%
%ADD21RoundRect,0.062500X-0.062500X0.350000X-0.062500X-0.350000X0.062500X-0.350000X0.062500X0.350000X0*%
%ADD22RoundRect,0.062500X-0.350000X0.062500X-0.350000X-0.062500X0.350000X-0.062500X0.350000X0.062500X0*%
%ADD23R,2.600000X2.600000*%
%ADD24RoundRect,0.112500X-0.112500X0.187500X-0.112500X-0.187500X0.112500X-0.187500X0.112500X0.187500X0*%
%ADD25RoundRect,0.100000X0.100000X-0.712500X0.100000X0.712500X-0.100000X0.712500X-0.100000X-0.712500X0*%
%ADD26RoundRect,0.218750X0.218750X0.381250X-0.218750X0.381250X-0.218750X-0.381250X0.218750X-0.381250X0*%
%ADD27RoundRect,0.112500X0.112500X-0.187500X0.112500X0.187500X-0.112500X0.187500X-0.112500X-0.187500X0*%
%ADD28RoundRect,0.200000X-0.200000X-0.275000X0.200000X-0.275000X0.200000X0.275000X-0.200000X0.275000X0*%
%ADD29RoundRect,0.225000X-0.225000X-0.250000X0.225000X-0.250000X0.225000X0.250000X-0.225000X0.250000X0*%
%ADD30RoundRect,0.062500X0.062500X-0.062500X0.062500X0.062500X-0.062500X0.062500X-0.062500X-0.062500X0*%
%ADD31RoundRect,0.225000X-0.250000X0.225000X-0.250000X-0.225000X0.250000X-0.225000X0.250000X0.225000X0*%
%ADD32RoundRect,0.150000X-0.825000X-0.150000X0.825000X-0.150000X0.825000X0.150000X-0.825000X0.150000X0*%
%ADD33R,2.410000X3.300000*%
%ADD34RoundRect,0.140000X0.140000X0.170000X-0.140000X0.170000X-0.140000X-0.170000X0.140000X-0.170000X0*%
%ADD35RoundRect,0.200000X0.275000X-0.200000X0.275000X0.200000X-0.275000X0.200000X-0.275000X-0.200000X0*%
%ADD36RoundRect,0.225000X0.335876X0.017678X0.017678X0.335876X-0.335876X-0.017678X-0.017678X-0.335876X0*%
%ADD37R,1.700000X1.700000*%
%ADD38C,1.700000*%
%ADD39R,1.500000X5.080000*%
%ADD40C,0.900000*%
%ADD41RoundRect,0.102000X-0.750000X0.350000X-0.750000X-0.350000X0.750000X-0.350000X0.750000X0.350000X0*%
%ADD42RoundRect,0.102000X-0.400000X0.500000X-0.400000X-0.500000X0.400000X-0.500000X0.400000X0.500000X0*%
%ADD43C,0.650000*%
%ADD44RoundRect,0.150000X-0.150000X-0.425000X0.150000X-0.425000X0.150000X0.425000X-0.150000X0.425000X0*%
%ADD45RoundRect,0.075000X-0.075000X-0.500000X0.075000X-0.500000X0.075000X0.500000X-0.075000X0.500000X0*%
%ADD46RoundRect,0.250000X-0.840000X-0.750000X0.840000X-0.750000X0.840000X0.750000X-0.840000X0.750000X0*%
%ADD47RoundRect,0.140000X-0.170000X0.140000X-0.170000X-0.140000X0.170000X-0.140000X0.170000X0.140000X0*%
%ADD48RoundRect,0.250000X-0.625000X0.350000X-0.625000X-0.350000X0.625000X-0.350000X0.625000X0.350000X0*%
%ADD49O,1.750000X1.200000*%
%ADD50RoundRect,0.140000X-0.140000X-0.170000X0.140000X-0.170000X0.140000X0.170000X-0.140000X0.170000X0*%
%ADD51RoundRect,0.075000X-0.225000X-0.075000X0.225000X-0.075000X0.225000X0.075000X-0.225000X0.075000X0*%
%ADD52RoundRect,0.075000X-0.075000X-0.237500X0.075000X-0.237500X0.075000X0.237500X-0.075000X0.237500X0*%
%ADD53RoundRect,0.250000X-0.250000X-0.475000X0.250000X-0.475000X0.250000X0.475000X-0.250000X0.475000X0*%
%ADD54RoundRect,0.135000X-0.135000X-0.185000X0.135000X-0.185000X0.135000X0.185000X-0.135000X0.185000X0*%
%ADD55RoundRect,0.087500X0.087500X-0.662500X0.087500X0.662500X-0.087500X0.662500X-0.087500X-0.662500X0*%
%ADD56RoundRect,0.218750X-0.256250X0.218750X-0.256250X-0.218750X0.256250X-0.218750X0.256250X0.218750X0*%
G04 APERTURE END LIST*
D10*
G04 #@! TO.C,C14*
X99699166Y-39551992D03*
X98603150Y-40648008D03*
G04 #@! TD*
D11*
G04 #@! TO.C,C17*
X106151158Y-76630000D03*
X106151158Y-75670000D03*
G04 #@! TD*
D12*
G04 #@! TO.C,C16*
X91751158Y-76600000D03*
X91751158Y-75050000D03*
G04 #@! TD*
D13*
G04 #@! TO.C,H1*
X90200000Y-91000000D03*
D14*
X90200000Y-91000000D03*
G04 #@! TD*
D15*
G04 #@! TO.C,R2*
X106076158Y-83350000D03*
X104426158Y-83350000D03*
G04 #@! TD*
D16*
G04 #@! TO.C,U4*
X106201158Y-51700000D03*
X105351158Y-51700000D03*
X104501158Y-51700000D03*
X103651158Y-51700000D03*
X102801158Y-51700000D03*
X101951158Y-51700000D03*
X101101158Y-51700000D03*
X100251158Y-51700000D03*
X99401158Y-51700000D03*
X98551158Y-51700000D03*
X97701158Y-51700000D03*
X96851158Y-51700000D03*
X96001158Y-51700000D03*
X95151158Y-51700000D03*
X94301158Y-51700000D03*
D17*
X93251158Y-52750000D03*
X93251158Y-53600000D03*
X93251158Y-54450000D03*
X93251158Y-55300000D03*
X93251158Y-56150000D03*
X93251158Y-57000000D03*
X93251158Y-57850000D03*
X93251158Y-58700000D03*
X93251158Y-59550000D03*
X93251158Y-60400000D03*
X93251158Y-61250000D03*
X93251158Y-62100000D03*
X93251158Y-62950000D03*
X93251158Y-63800000D03*
X93251158Y-64650000D03*
D16*
X94301158Y-65700000D03*
X95151158Y-65700000D03*
X96001158Y-65700000D03*
X96851158Y-65700000D03*
X97701158Y-65700000D03*
X98551158Y-65700000D03*
X99401158Y-65700000D03*
X100251158Y-65700000D03*
X101101158Y-65700000D03*
X101951158Y-65700000D03*
X102801158Y-65700000D03*
X103651158Y-65700000D03*
X104501158Y-65700000D03*
X105351158Y-65700000D03*
X106201158Y-65700000D03*
D17*
X107251158Y-64650000D03*
X107251158Y-63800000D03*
X107251158Y-62950000D03*
X107251158Y-62100000D03*
X107251158Y-61250000D03*
X107251158Y-60400000D03*
X107251158Y-59550000D03*
X107251158Y-58700000D03*
X107251158Y-57850000D03*
X107251158Y-57000000D03*
X107251158Y-56150000D03*
X107251158Y-55300000D03*
X107251158Y-54450000D03*
X107251158Y-53600000D03*
X107251158Y-52750000D03*
D18*
X101901158Y-57050000D03*
D19*
X100251158Y-57050000D03*
X98601158Y-57050000D03*
X101901158Y-58700000D03*
X100251158Y-58700000D03*
X98601158Y-58700000D03*
X101901158Y-60350000D03*
X100251158Y-60350000D03*
X98601158Y-60350000D03*
D20*
X107251158Y-51700000D03*
X93251158Y-51700000D03*
X93251158Y-65700000D03*
X107251158Y-65700000D03*
G04 #@! TD*
D21*
G04 #@! TO.C,U1*
X100001158Y-44062500D03*
X99501158Y-44062500D03*
X99001158Y-44062500D03*
X98501158Y-44062500D03*
X98001158Y-44062500D03*
X97501158Y-44062500D03*
D22*
X96813658Y-44750000D03*
X96813658Y-45250000D03*
X96813658Y-45750000D03*
X96813658Y-46250000D03*
X96813658Y-46750000D03*
X96813658Y-47250000D03*
D21*
X97501158Y-47937500D03*
X98001158Y-47937500D03*
X98501158Y-47937500D03*
X99001158Y-47937500D03*
X99501158Y-47937500D03*
X100001158Y-47937500D03*
D22*
X100688658Y-47250000D03*
X100688658Y-46750000D03*
X100688658Y-46250000D03*
X100688658Y-45750000D03*
X100688658Y-45250000D03*
X100688658Y-44750000D03*
D23*
X98751158Y-46000000D03*
G04 #@! TD*
D24*
G04 #@! TO.C,D1*
X97451158Y-83000000D03*
X97451158Y-85100000D03*
G04 #@! TD*
D25*
G04 #@! TO.C,U6*
X96176158Y-79762500D03*
X96826158Y-79762500D03*
X97476158Y-79762500D03*
X98126158Y-79762500D03*
X98126158Y-75537500D03*
X97476158Y-75537500D03*
X96826158Y-75537500D03*
X96176158Y-75537500D03*
G04 #@! TD*
D13*
G04 #@! TO.C,H2*
X93200000Y-37800000D03*
D14*
X93200000Y-37800000D03*
G04 #@! TD*
D26*
G04 #@! TO.C,L1*
X96751158Y-40950000D03*
X94626158Y-40950000D03*
G04 #@! TD*
D27*
G04 #@! TO.C,D2*
X94251158Y-77250000D03*
X94251158Y-75150000D03*
G04 #@! TD*
D11*
G04 #@! TO.C,C11*
X95588658Y-43330000D03*
X95588658Y-42370000D03*
G04 #@! TD*
G04 #@! TO.C,C7*
X94800000Y-45480000D03*
X94800000Y-44520000D03*
G04 #@! TD*
D28*
G04 #@! TO.C,R7*
X100001158Y-74600000D03*
X101651158Y-74600000D03*
G04 #@! TD*
D29*
G04 #@! TO.C,C1*
X93976158Y-81800000D03*
X95526158Y-81800000D03*
G04 #@! TD*
D30*
G04 #@! TO.C,U3*
X106551158Y-43800000D03*
X106951158Y-43800000D03*
X107351158Y-43800000D03*
X107351158Y-43400000D03*
X106951158Y-43400000D03*
X106551158Y-43400000D03*
G04 #@! TD*
D31*
G04 #@! TO.C,C2*
X99751158Y-79325000D03*
X99751158Y-80875000D03*
G04 #@! TD*
D32*
G04 #@! TO.C,U2*
X100176158Y-68845000D03*
X100176158Y-70115000D03*
X100176158Y-71385000D03*
X100176158Y-72655000D03*
X105126158Y-72655000D03*
X105126158Y-71385000D03*
X105126158Y-70115000D03*
X105126158Y-68845000D03*
D33*
X102651158Y-70750000D03*
G04 #@! TD*
D34*
G04 #@! TO.C,C3*
X105331158Y-50200000D03*
X104371158Y-50200000D03*
G04 #@! TD*
D35*
G04 #@! TO.C,R9*
X93051158Y-46225000D03*
X93051158Y-44575000D03*
G04 #@! TD*
D12*
G04 #@! TO.C,C5*
X101351158Y-79675000D03*
X101351158Y-78125000D03*
G04 #@! TD*
D35*
G04 #@! TO.C,R10*
X93051158Y-49725000D03*
X93051158Y-48075000D03*
G04 #@! TD*
D29*
G04 #@! TO.C,C15*
X100225000Y-84900000D03*
X101775000Y-84900000D03*
G04 #@! TD*
D28*
G04 #@! TO.C,R4*
X96226158Y-49600000D03*
X97876158Y-49600000D03*
G04 #@! TD*
D11*
G04 #@! TO.C,C13*
X104851158Y-41960000D03*
X104851158Y-41000000D03*
G04 #@! TD*
D36*
G04 #@! TO.C,C12*
X101199166Y-42648008D03*
X100103150Y-41551992D03*
G04 #@! TD*
D37*
G04 #@! TO.C,J3*
X90045000Y-49805000D03*
D38*
X90045000Y-52345000D03*
X90045000Y-54885000D03*
X90045000Y-57425000D03*
X90045000Y-59965000D03*
X90045000Y-62505000D03*
X90045000Y-65045000D03*
G04 #@! TD*
D34*
G04 #@! TO.C,C6*
X97648658Y-42350000D03*
X96688658Y-42350000D03*
G04 #@! TD*
D39*
G04 #@! TO.C,J2*
X100330000Y-32867600D03*
X96080000Y-32867600D03*
X104580000Y-32867600D03*
G04 #@! TD*
D40*
G04 #@! TO.C,SW1*
X89200000Y-80750000D03*
X89200000Y-83750000D03*
D41*
X91200000Y-80000000D03*
X91200000Y-83000000D03*
X91200000Y-84500000D03*
D42*
X90300000Y-78600000D03*
X90300000Y-85900000D03*
X88100000Y-78600000D03*
X88100000Y-85900000D03*
G04 #@! TD*
D43*
G04 #@! TO.C,J1*
X99351158Y-87920000D03*
X105131158Y-87920000D03*
D44*
X99041158Y-86845000D03*
X99841158Y-86845000D03*
D45*
X100991158Y-86845000D03*
X101991158Y-86845000D03*
X102491158Y-86845000D03*
X103491158Y-86845000D03*
D44*
X104641158Y-86845000D03*
X105441158Y-86845000D03*
X105441158Y-86845000D03*
X104641158Y-86845000D03*
D45*
X103991158Y-86845000D03*
X102991158Y-86845000D03*
X101491158Y-86845000D03*
X100491158Y-86845000D03*
D44*
X99841158Y-86845000D03*
X99041158Y-86845000D03*
D46*
X97131158Y-87420000D03*
X97131158Y-91350000D03*
X107351158Y-87420000D03*
X107351158Y-91350000D03*
G04 #@! TD*
D47*
G04 #@! TO.C,C10*
X94588658Y-47070000D03*
X94588658Y-48030000D03*
G04 #@! TD*
D48*
G04 #@! TO.C,BT1*
X94050000Y-69650000D03*
D49*
X94050000Y-71650000D03*
G04 #@! TD*
D50*
G04 #@! TO.C,C18*
X100691158Y-76050000D03*
X101651158Y-76050000D03*
G04 #@! TD*
D51*
G04 #@! TO.C,FL1*
X104051158Y-45050000D03*
X104051158Y-45550000D03*
X104051158Y-46050000D03*
X104051158Y-46550000D03*
D52*
X104751158Y-46862500D03*
D51*
X105451158Y-46550000D03*
X105451158Y-46050000D03*
X105451158Y-45550000D03*
X105451158Y-45050000D03*
D52*
X104751158Y-44737500D03*
G04 #@! TD*
D53*
G04 #@! TO.C,C4*
X102401158Y-48600000D03*
X104301158Y-48600000D03*
G04 #@! TD*
D15*
G04 #@! TO.C,R1*
X101001158Y-83350000D03*
X99351158Y-83350000D03*
G04 #@! TD*
D54*
G04 #@! TO.C,R5*
X102231158Y-40100000D03*
X103251158Y-40100000D03*
G04 #@! TD*
D55*
G04 #@! TO.C,U7*
X102951158Y-81200000D03*
X103451158Y-81200000D03*
X103951158Y-81200000D03*
X104451158Y-81200000D03*
X104951158Y-81200000D03*
X104951158Y-77000000D03*
X104451158Y-77000000D03*
X103951158Y-77000000D03*
X103451158Y-77000000D03*
X102951158Y-77000000D03*
G04 #@! TD*
D56*
G04 #@! TO.C,L2*
X103151158Y-41912500D03*
X103151158Y-43487500D03*
G04 #@! TD*
M02*
