%TF.GenerationSoftware,KiCad,Pcbnew,10.0.5*%
%TF.CreationDate,2026-07-30T12:00:43-04:00*%
%TF.ProjectId,main,6d61696e-2e6b-4696-9361-645f70636258,rev?*%
%TF.SameCoordinates,Original*%
%TF.FileFunction,Legend,Bot*%
%TF.FilePolarity,Positive*%
%FSLAX46Y46*%
G04 Gerber Fmt 4.6, Leading zero omitted, Abs format (unit mm)*
G04 Created by KiCad (PCBNEW 10.0.5) date 2026-07-30 12:00:43*
%MOMM*%
%LPD*%
G01*
G04 APERTURE LIST*
%ADD10C,0.100000*%
G04 APERTURE END LIST*
D10*
X107737524Y-93696115D02*
X108737524Y-93696115D01*
X108737524Y-93696115D02*
X108737524Y-93458020D01*
X108737524Y-93458020D02*
X108689905Y-93315163D01*
X108689905Y-93315163D02*
X108594667Y-93219925D01*
X108594667Y-93219925D02*
X108499429Y-93172306D01*
X108499429Y-93172306D02*
X108308953Y-93124687D01*
X108308953Y-93124687D02*
X108166096Y-93124687D01*
X108166096Y-93124687D02*
X107975620Y-93172306D01*
X107975620Y-93172306D02*
X107880382Y-93219925D01*
X107880382Y-93219925D02*
X107785144Y-93315163D01*
X107785144Y-93315163D02*
X107737524Y-93458020D01*
X107737524Y-93458020D02*
X107737524Y-93696115D01*
X107785144Y-92315163D02*
X107737524Y-92410401D01*
X107737524Y-92410401D02*
X107737524Y-92600877D01*
X107737524Y-92600877D02*
X107785144Y-92696115D01*
X107785144Y-92696115D02*
X107880382Y-92743734D01*
X107880382Y-92743734D02*
X108261334Y-92743734D01*
X108261334Y-92743734D02*
X108356572Y-92696115D01*
X108356572Y-92696115D02*
X108404191Y-92600877D01*
X108404191Y-92600877D02*
X108404191Y-92410401D01*
X108404191Y-92410401D02*
X108356572Y-92315163D01*
X108356572Y-92315163D02*
X108261334Y-92267544D01*
X108261334Y-92267544D02*
X108166096Y-92267544D01*
X108166096Y-92267544D02*
X108070858Y-92743734D01*
X107785144Y-91886591D02*
X107737524Y-91791353D01*
X107737524Y-91791353D02*
X107737524Y-91600877D01*
X107737524Y-91600877D02*
X107785144Y-91505639D01*
X107785144Y-91505639D02*
X107880382Y-91458020D01*
X107880382Y-91458020D02*
X107928001Y-91458020D01*
X107928001Y-91458020D02*
X108023239Y-91505639D01*
X108023239Y-91505639D02*
X108070858Y-91600877D01*
X108070858Y-91600877D02*
X108070858Y-91743734D01*
X108070858Y-91743734D02*
X108118477Y-91838972D01*
X108118477Y-91838972D02*
X108213715Y-91886591D01*
X108213715Y-91886591D02*
X108261334Y-91886591D01*
X108261334Y-91886591D02*
X108356572Y-91838972D01*
X108356572Y-91838972D02*
X108404191Y-91743734D01*
X108404191Y-91743734D02*
X108404191Y-91600877D01*
X108404191Y-91600877D02*
X108356572Y-91505639D01*
X107737524Y-91029448D02*
X108404191Y-91029448D01*
X108737524Y-91029448D02*
X108689905Y-91077067D01*
X108689905Y-91077067D02*
X108642286Y-91029448D01*
X108642286Y-91029448D02*
X108689905Y-90981829D01*
X108689905Y-90981829D02*
X108737524Y-91029448D01*
X108737524Y-91029448D02*
X108642286Y-91029448D01*
X108404191Y-90124687D02*
X107594667Y-90124687D01*
X107594667Y-90124687D02*
X107499429Y-90172306D01*
X107499429Y-90172306D02*
X107451810Y-90219925D01*
X107451810Y-90219925D02*
X107404191Y-90315163D01*
X107404191Y-90315163D02*
X107404191Y-90458020D01*
X107404191Y-90458020D02*
X107451810Y-90553258D01*
X107785144Y-90124687D02*
X107737524Y-90219925D01*
X107737524Y-90219925D02*
X107737524Y-90410401D01*
X107737524Y-90410401D02*
X107785144Y-90505639D01*
X107785144Y-90505639D02*
X107832763Y-90553258D01*
X107832763Y-90553258D02*
X107928001Y-90600877D01*
X107928001Y-90600877D02*
X108213715Y-90600877D01*
X108213715Y-90600877D02*
X108308953Y-90553258D01*
X108308953Y-90553258D02*
X108356572Y-90505639D01*
X108356572Y-90505639D02*
X108404191Y-90410401D01*
X108404191Y-90410401D02*
X108404191Y-90219925D01*
X108404191Y-90219925D02*
X108356572Y-90124687D01*
X108404191Y-89648496D02*
X107737524Y-89648496D01*
X108308953Y-89648496D02*
X108356572Y-89600877D01*
X108356572Y-89600877D02*
X108404191Y-89505639D01*
X108404191Y-89505639D02*
X108404191Y-89362782D01*
X108404191Y-89362782D02*
X108356572Y-89267544D01*
X108356572Y-89267544D02*
X108261334Y-89219925D01*
X108261334Y-89219925D02*
X107737524Y-89219925D01*
X107785144Y-88362782D02*
X107737524Y-88458020D01*
X107737524Y-88458020D02*
X107737524Y-88648496D01*
X107737524Y-88648496D02*
X107785144Y-88743734D01*
X107785144Y-88743734D02*
X107880382Y-88791353D01*
X107880382Y-88791353D02*
X108261334Y-88791353D01*
X108261334Y-88791353D02*
X108356572Y-88743734D01*
X108356572Y-88743734D02*
X108404191Y-88648496D01*
X108404191Y-88648496D02*
X108404191Y-88458020D01*
X108404191Y-88458020D02*
X108356572Y-88362782D01*
X108356572Y-88362782D02*
X108261334Y-88315163D01*
X108261334Y-88315163D02*
X108166096Y-88315163D01*
X108166096Y-88315163D02*
X108070858Y-88791353D01*
X107737524Y-87458020D02*
X108737524Y-87458020D01*
X107785144Y-87458020D02*
X107737524Y-87553258D01*
X107737524Y-87553258D02*
X107737524Y-87743734D01*
X107737524Y-87743734D02*
X107785144Y-87838972D01*
X107785144Y-87838972D02*
X107832763Y-87886591D01*
X107832763Y-87886591D02*
X107928001Y-87934210D01*
X107928001Y-87934210D02*
X108213715Y-87934210D01*
X108213715Y-87934210D02*
X108308953Y-87886591D01*
X108308953Y-87886591D02*
X108356572Y-87838972D01*
X108356572Y-87838972D02*
X108404191Y-87743734D01*
X108404191Y-87743734D02*
X108404191Y-87553258D01*
X108404191Y-87553258D02*
X108356572Y-87458020D01*
X107737524Y-86219924D02*
X108737524Y-86219924D01*
X108356572Y-86219924D02*
X108404191Y-86124686D01*
X108404191Y-86124686D02*
X108404191Y-85934210D01*
X108404191Y-85934210D02*
X108356572Y-85838972D01*
X108356572Y-85838972D02*
X108308953Y-85791353D01*
X108308953Y-85791353D02*
X108213715Y-85743734D01*
X108213715Y-85743734D02*
X107928001Y-85743734D01*
X107928001Y-85743734D02*
X107832763Y-85791353D01*
X107832763Y-85791353D02*
X107785144Y-85838972D01*
X107785144Y-85838972D02*
X107737524Y-85934210D01*
X107737524Y-85934210D02*
X107737524Y-86124686D01*
X107737524Y-86124686D02*
X107785144Y-86219924D01*
X108404191Y-85410400D02*
X107737524Y-85172305D01*
X108404191Y-84934210D02*
X107737524Y-85172305D01*
X107737524Y-85172305D02*
X107499429Y-85267543D01*
X107499429Y-85267543D02*
X107451810Y-85315162D01*
X107451810Y-85315162D02*
X107404191Y-85410400D01*
X106127580Y-93696115D02*
X107127580Y-93696115D01*
X107127580Y-93696115D02*
X106413295Y-93362782D01*
X106413295Y-93362782D02*
X107127580Y-93029449D01*
X107127580Y-93029449D02*
X106127580Y-93029449D01*
X106127580Y-92124687D02*
X106651390Y-92124687D01*
X106651390Y-92124687D02*
X106746628Y-92172306D01*
X106746628Y-92172306D02*
X106794247Y-92267544D01*
X106794247Y-92267544D02*
X106794247Y-92458020D01*
X106794247Y-92458020D02*
X106746628Y-92553258D01*
X106175200Y-92124687D02*
X106127580Y-92219925D01*
X106127580Y-92219925D02*
X106127580Y-92458020D01*
X106127580Y-92458020D02*
X106175200Y-92553258D01*
X106175200Y-92553258D02*
X106270438Y-92600877D01*
X106270438Y-92600877D02*
X106365676Y-92600877D01*
X106365676Y-92600877D02*
X106460914Y-92553258D01*
X106460914Y-92553258D02*
X106508533Y-92458020D01*
X106508533Y-92458020D02*
X106508533Y-92219925D01*
X106508533Y-92219925D02*
X106556152Y-92124687D01*
X106794247Y-91791353D02*
X106794247Y-91410401D01*
X107127580Y-91648496D02*
X106270438Y-91648496D01*
X106270438Y-91648496D02*
X106175200Y-91600877D01*
X106175200Y-91600877D02*
X106127580Y-91505639D01*
X106127580Y-91505639D02*
X106127580Y-91410401D01*
X106127580Y-91077067D02*
X106794247Y-91077067D01*
X107127580Y-91077067D02*
X107079961Y-91124686D01*
X107079961Y-91124686D02*
X107032342Y-91077067D01*
X107032342Y-91077067D02*
X107079961Y-91029448D01*
X107079961Y-91029448D02*
X107127580Y-91077067D01*
X107127580Y-91077067D02*
X107032342Y-91077067D01*
X106127580Y-90172306D02*
X106651390Y-90172306D01*
X106651390Y-90172306D02*
X106746628Y-90219925D01*
X106746628Y-90219925D02*
X106794247Y-90315163D01*
X106794247Y-90315163D02*
X106794247Y-90505639D01*
X106794247Y-90505639D02*
X106746628Y-90600877D01*
X106175200Y-90172306D02*
X106127580Y-90267544D01*
X106127580Y-90267544D02*
X106127580Y-90505639D01*
X106127580Y-90505639D02*
X106175200Y-90600877D01*
X106175200Y-90600877D02*
X106270438Y-90648496D01*
X106270438Y-90648496D02*
X106365676Y-90648496D01*
X106365676Y-90648496D02*
X106460914Y-90600877D01*
X106460914Y-90600877D02*
X106508533Y-90505639D01*
X106508533Y-90505639D02*
X106508533Y-90267544D01*
X106508533Y-90267544D02*
X106556152Y-90172306D01*
X106175200Y-89743734D02*
X106127580Y-89648496D01*
X106127580Y-89648496D02*
X106127580Y-89458020D01*
X106127580Y-89458020D02*
X106175200Y-89362782D01*
X106175200Y-89362782D02*
X106270438Y-89315163D01*
X106270438Y-89315163D02*
X106318057Y-89315163D01*
X106318057Y-89315163D02*
X106413295Y-89362782D01*
X106413295Y-89362782D02*
X106460914Y-89458020D01*
X106460914Y-89458020D02*
X106460914Y-89600877D01*
X106460914Y-89600877D02*
X106508533Y-89696115D01*
X106508533Y-89696115D02*
X106603771Y-89743734D01*
X106603771Y-89743734D02*
X106651390Y-89743734D01*
X106651390Y-89743734D02*
X106746628Y-89696115D01*
X106746628Y-89696115D02*
X106794247Y-89600877D01*
X106794247Y-89600877D02*
X106794247Y-89458020D01*
X106794247Y-89458020D02*
X106746628Y-89362782D01*
X106413295Y-88172305D02*
X106413295Y-87696115D01*
X106127580Y-88267543D02*
X107127580Y-87934210D01*
X107127580Y-87934210D02*
X106127580Y-87600877D01*
X106127580Y-87267543D02*
X106794247Y-87267543D01*
X106603771Y-87267543D02*
X106699009Y-87219924D01*
X106699009Y-87219924D02*
X106746628Y-87172305D01*
X106746628Y-87172305D02*
X106794247Y-87077067D01*
X106794247Y-87077067D02*
X106794247Y-86981829D01*
X106794247Y-86219924D02*
X105984723Y-86219924D01*
X105984723Y-86219924D02*
X105889485Y-86267543D01*
X105889485Y-86267543D02*
X105841866Y-86315162D01*
X105841866Y-86315162D02*
X105794247Y-86410400D01*
X105794247Y-86410400D02*
X105794247Y-86553257D01*
X105794247Y-86553257D02*
X105841866Y-86648495D01*
X106175200Y-86219924D02*
X106127580Y-86315162D01*
X106127580Y-86315162D02*
X106127580Y-86505638D01*
X106127580Y-86505638D02*
X106175200Y-86600876D01*
X106175200Y-86600876D02*
X106222819Y-86648495D01*
X106222819Y-86648495D02*
X106318057Y-86696114D01*
X106318057Y-86696114D02*
X106603771Y-86696114D01*
X106603771Y-86696114D02*
X106699009Y-86648495D01*
X106699009Y-86648495D02*
X106746628Y-86600876D01*
X106746628Y-86600876D02*
X106794247Y-86505638D01*
X106794247Y-86505638D02*
X106794247Y-86315162D01*
X106794247Y-86315162D02*
X106746628Y-86219924D01*
X106127580Y-85315162D02*
X106651390Y-85315162D01*
X106651390Y-85315162D02*
X106746628Y-85362781D01*
X106746628Y-85362781D02*
X106794247Y-85458019D01*
X106794247Y-85458019D02*
X106794247Y-85648495D01*
X106794247Y-85648495D02*
X106746628Y-85743733D01*
X106175200Y-85315162D02*
X106127580Y-85410400D01*
X106127580Y-85410400D02*
X106127580Y-85648495D01*
X106127580Y-85648495D02*
X106175200Y-85743733D01*
X106175200Y-85743733D02*
X106270438Y-85791352D01*
X106270438Y-85791352D02*
X106365676Y-85791352D01*
X106365676Y-85791352D02*
X106460914Y-85743733D01*
X106460914Y-85743733D02*
X106508533Y-85648495D01*
X106508533Y-85648495D02*
X106508533Y-85410400D01*
X106508533Y-85410400D02*
X106556152Y-85315162D01*
X106794247Y-84838971D02*
X106127580Y-84838971D01*
X106699009Y-84838971D02*
X106746628Y-84791352D01*
X106746628Y-84791352D02*
X106794247Y-84696114D01*
X106794247Y-84696114D02*
X106794247Y-84553257D01*
X106794247Y-84553257D02*
X106746628Y-84458019D01*
X106746628Y-84458019D02*
X106651390Y-84410400D01*
X106651390Y-84410400D02*
X106127580Y-84410400D01*
X106127580Y-83505638D02*
X107127580Y-83505638D01*
X106175200Y-83505638D02*
X106127580Y-83600876D01*
X106127580Y-83600876D02*
X106127580Y-83791352D01*
X106127580Y-83791352D02*
X106175200Y-83886590D01*
X106175200Y-83886590D02*
X106222819Y-83934209D01*
X106222819Y-83934209D02*
X106318057Y-83981828D01*
X106318057Y-83981828D02*
X106603771Y-83981828D01*
X106603771Y-83981828D02*
X106699009Y-83934209D01*
X106699009Y-83934209D02*
X106746628Y-83886590D01*
X106746628Y-83886590D02*
X106794247Y-83791352D01*
X106794247Y-83791352D02*
X106794247Y-83600876D01*
X106794247Y-83600876D02*
X106746628Y-83505638D01*
X106127580Y-82886590D02*
X106175200Y-82981828D01*
X106175200Y-82981828D02*
X106222819Y-83029447D01*
X106222819Y-83029447D02*
X106318057Y-83077066D01*
X106318057Y-83077066D02*
X106603771Y-83077066D01*
X106603771Y-83077066D02*
X106699009Y-83029447D01*
X106699009Y-83029447D02*
X106746628Y-82981828D01*
X106746628Y-82981828D02*
X106794247Y-82886590D01*
X106794247Y-82886590D02*
X106794247Y-82743733D01*
X106794247Y-82743733D02*
X106746628Y-82648495D01*
X106746628Y-82648495D02*
X106699009Y-82600876D01*
X106699009Y-82600876D02*
X106603771Y-82553257D01*
X106603771Y-82553257D02*
X106318057Y-82553257D01*
X106318057Y-82553257D02*
X106222819Y-82600876D01*
X106222819Y-82600876D02*
X106175200Y-82648495D01*
X106175200Y-82648495D02*
X106127580Y-82743733D01*
X106127580Y-82743733D02*
X106127580Y-82886590D01*
X106794247Y-82124685D02*
X106127580Y-82124685D01*
X106699009Y-82124685D02*
X106746628Y-82077066D01*
X106746628Y-82077066D02*
X106794247Y-81981828D01*
X106794247Y-81981828D02*
X106794247Y-81838971D01*
X106794247Y-81838971D02*
X106746628Y-81743733D01*
X106746628Y-81743733D02*
X106651390Y-81696114D01*
X106651390Y-81696114D02*
X106127580Y-81696114D01*
X106127580Y-80791352D02*
X106651390Y-80791352D01*
X106651390Y-80791352D02*
X106746628Y-80838971D01*
X106746628Y-80838971D02*
X106794247Y-80934209D01*
X106794247Y-80934209D02*
X106794247Y-81124685D01*
X106794247Y-81124685D02*
X106746628Y-81219923D01*
X106175200Y-80791352D02*
X106127580Y-80886590D01*
X106127580Y-80886590D02*
X106127580Y-81124685D01*
X106127580Y-81124685D02*
X106175200Y-81219923D01*
X106175200Y-81219923D02*
X106270438Y-81267542D01*
X106270438Y-81267542D02*
X106365676Y-81267542D01*
X106365676Y-81267542D02*
X106460914Y-81219923D01*
X106460914Y-81219923D02*
X106508533Y-81124685D01*
X106508533Y-81124685D02*
X106508533Y-80886590D01*
X106508533Y-80886590D02*
X106556152Y-80791352D01*
M02*
