%TF.GenerationSoftware,KiCad,Pcbnew,10.0.5*%
%TF.CreationDate,2026-07-30T12:00:32-04:00*%
%TF.ProjectId,main,6d61696e-2e6b-4696-9361-645f70636258,rev?*%
%TF.SameCoordinates,Original*%
%TF.FileFunction,Drillmap*%
%TF.FilePolarity,Positive*%
%FSLAX45Y45*%
G04 Gerber Fmt 4.5, Leading zero omitted, Abs format (unit mm)*
G04 Created by KiCad (PCBNEW 10.0.5) date 2026-07-30 12:00:32*
%MOMM*%
%LPD*%
G01*
G04 APERTURE LIST*
%ADD10C,0.050000*%
%ADD11C,0.200000*%
%ADD12C,0.100000*%
G04 APERTURE END LIST*
D10*
X8720000Y-4191765D02*
X8720000Y-9420000D01*
X10910000Y-9420000D01*
X10910000Y-3737586D01*
X10550000Y-3030000D01*
X9510000Y-3030000D01*
X8720000Y-4191765D01*
D11*
D12*
X9902616Y-8759500D02*
X9967616Y-8824500D01*
X9967616Y-8759500D02*
X9902616Y-8824500D01*
X10480616Y-8759500D02*
X10545616Y-8824500D01*
X10545616Y-8759500D02*
X10480616Y-8824500D01*
X8965000Y-8075000D02*
G75*
G02*
X8875000Y-8075000I-45000J0D01*
G01*
X8875000Y-8075000D02*
G75*
G02*
X8965000Y-8075000I45000J0D01*
G01*
X8965000Y-8375000D02*
G75*
G02*
X8875000Y-8375000I-45000J0D01*
G01*
X8875000Y-8375000D02*
G75*
G02*
X8965000Y-8375000I45000J0D01*
G01*
D11*
X8978277Y-9733984D02*
X8978277Y-9533984D01*
X8978277Y-9533984D02*
X9025896Y-9533984D01*
X9025896Y-9533984D02*
X9054467Y-9543508D01*
X9054467Y-9543508D02*
X9073515Y-9562555D01*
X9073515Y-9562555D02*
X9083039Y-9581603D01*
X9083039Y-9581603D02*
X9092563Y-9619698D01*
X9092563Y-9619698D02*
X9092563Y-9648270D01*
X9092563Y-9648270D02*
X9083039Y-9686365D01*
X9083039Y-9686365D02*
X9073515Y-9705412D01*
X9073515Y-9705412D02*
X9054467Y-9724460D01*
X9054467Y-9724460D02*
X9025896Y-9733984D01*
X9025896Y-9733984D02*
X8978277Y-9733984D01*
X9178277Y-9733984D02*
X9178277Y-9600650D01*
X9178277Y-9638746D02*
X9187801Y-9619698D01*
X9187801Y-9619698D02*
X9197324Y-9610174D01*
X9197324Y-9610174D02*
X9216372Y-9600650D01*
X9216372Y-9600650D02*
X9235420Y-9600650D01*
X9302086Y-9733984D02*
X9302086Y-9600650D01*
X9302086Y-9533984D02*
X9292563Y-9543508D01*
X9292563Y-9543508D02*
X9302086Y-9553031D01*
X9302086Y-9553031D02*
X9311610Y-9543508D01*
X9311610Y-9543508D02*
X9302086Y-9533984D01*
X9302086Y-9533984D02*
X9302086Y-9553031D01*
X9425896Y-9733984D02*
X9406848Y-9724460D01*
X9406848Y-9724460D02*
X9397324Y-9705412D01*
X9397324Y-9705412D02*
X9397324Y-9533984D01*
X9530658Y-9733984D02*
X9511610Y-9724460D01*
X9511610Y-9724460D02*
X9502086Y-9705412D01*
X9502086Y-9705412D02*
X9502086Y-9533984D01*
X9759229Y-9733984D02*
X9759229Y-9533984D01*
X9759229Y-9533984D02*
X9825896Y-9676841D01*
X9825896Y-9676841D02*
X9892563Y-9533984D01*
X9892563Y-9533984D02*
X9892563Y-9733984D01*
X10073515Y-9733984D02*
X10073515Y-9629222D01*
X10073515Y-9629222D02*
X10063991Y-9610174D01*
X10063991Y-9610174D02*
X10044944Y-9600650D01*
X10044944Y-9600650D02*
X10006848Y-9600650D01*
X10006848Y-9600650D02*
X9987801Y-9610174D01*
X10073515Y-9724460D02*
X10054467Y-9733984D01*
X10054467Y-9733984D02*
X10006848Y-9733984D01*
X10006848Y-9733984D02*
X9987801Y-9724460D01*
X9987801Y-9724460D02*
X9978277Y-9705412D01*
X9978277Y-9705412D02*
X9978277Y-9686365D01*
X9978277Y-9686365D02*
X9987801Y-9667317D01*
X9987801Y-9667317D02*
X10006848Y-9657793D01*
X10006848Y-9657793D02*
X10054467Y-9657793D01*
X10054467Y-9657793D02*
X10073515Y-9648270D01*
X10168753Y-9600650D02*
X10168753Y-9800650D01*
X10168753Y-9610174D02*
X10187801Y-9600650D01*
X10187801Y-9600650D02*
X10225896Y-9600650D01*
X10225896Y-9600650D02*
X10244944Y-9610174D01*
X10244944Y-9610174D02*
X10254467Y-9619698D01*
X10254467Y-9619698D02*
X10263991Y-9638746D01*
X10263991Y-9638746D02*
X10263991Y-9695889D01*
X10263991Y-9695889D02*
X10254467Y-9714936D01*
X10254467Y-9714936D02*
X10244944Y-9724460D01*
X10244944Y-9724460D02*
X10225896Y-9733984D01*
X10225896Y-9733984D02*
X10187801Y-9733984D01*
X10187801Y-9733984D02*
X10168753Y-9724460D01*
X10349705Y-9714936D02*
X10359229Y-9724460D01*
X10359229Y-9724460D02*
X10349705Y-9733984D01*
X10349705Y-9733984D02*
X10340182Y-9724460D01*
X10340182Y-9724460D02*
X10349705Y-9714936D01*
X10349705Y-9714936D02*
X10349705Y-9733984D01*
X10349705Y-9610174D02*
X10359229Y-9619698D01*
X10359229Y-9619698D02*
X10349705Y-9629222D01*
X10349705Y-9629222D02*
X10340182Y-9619698D01*
X10340182Y-9619698D02*
X10349705Y-9610174D01*
X10349705Y-9610174D02*
X10349705Y-9629222D01*
D12*
X8652500Y-10030000D02*
X8717500Y-10095000D01*
X8717500Y-10030000D02*
X8652500Y-10095000D01*
D11*
X9016372Y-9953984D02*
X9035420Y-9953984D01*
X9035420Y-9953984D02*
X9054467Y-9963508D01*
X9054467Y-9963508D02*
X9063991Y-9973031D01*
X9063991Y-9973031D02*
X9073515Y-9992079D01*
X9073515Y-9992079D02*
X9083039Y-10030174D01*
X9083039Y-10030174D02*
X9083039Y-10077793D01*
X9083039Y-10077793D02*
X9073515Y-10115889D01*
X9073515Y-10115889D02*
X9063991Y-10134936D01*
X9063991Y-10134936D02*
X9054467Y-10144460D01*
X9054467Y-10144460D02*
X9035420Y-10153984D01*
X9035420Y-10153984D02*
X9016372Y-10153984D01*
X9016372Y-10153984D02*
X8997324Y-10144460D01*
X8997324Y-10144460D02*
X8987801Y-10134936D01*
X8987801Y-10134936D02*
X8978277Y-10115889D01*
X8978277Y-10115889D02*
X8968753Y-10077793D01*
X8968753Y-10077793D02*
X8968753Y-10030174D01*
X8968753Y-10030174D02*
X8978277Y-9992079D01*
X8978277Y-9992079D02*
X8987801Y-9973031D01*
X8987801Y-9973031D02*
X8997324Y-9963508D01*
X8997324Y-9963508D02*
X9016372Y-9953984D01*
X9168753Y-10134936D02*
X9178277Y-10144460D01*
X9178277Y-10144460D02*
X9168753Y-10153984D01*
X9168753Y-10153984D02*
X9159229Y-10144460D01*
X9159229Y-10144460D02*
X9168753Y-10134936D01*
X9168753Y-10134936D02*
X9168753Y-10153984D01*
X9349705Y-9953984D02*
X9311610Y-9953984D01*
X9311610Y-9953984D02*
X9292563Y-9963508D01*
X9292563Y-9963508D02*
X9283039Y-9973031D01*
X9283039Y-9973031D02*
X9263991Y-10001603D01*
X9263991Y-10001603D02*
X9254467Y-10039698D01*
X9254467Y-10039698D02*
X9254467Y-10115889D01*
X9254467Y-10115889D02*
X9263991Y-10134936D01*
X9263991Y-10134936D02*
X9273515Y-10144460D01*
X9273515Y-10144460D02*
X9292563Y-10153984D01*
X9292563Y-10153984D02*
X9330658Y-10153984D01*
X9330658Y-10153984D02*
X9349705Y-10144460D01*
X9349705Y-10144460D02*
X9359229Y-10134936D01*
X9359229Y-10134936D02*
X9368753Y-10115889D01*
X9368753Y-10115889D02*
X9368753Y-10068270D01*
X9368753Y-10068270D02*
X9359229Y-10049222D01*
X9359229Y-10049222D02*
X9349705Y-10039698D01*
X9349705Y-10039698D02*
X9330658Y-10030174D01*
X9330658Y-10030174D02*
X9292563Y-10030174D01*
X9292563Y-10030174D02*
X9273515Y-10039698D01*
X9273515Y-10039698D02*
X9263991Y-10049222D01*
X9263991Y-10049222D02*
X9254467Y-10068270D01*
X9549705Y-9953984D02*
X9454467Y-9953984D01*
X9454467Y-9953984D02*
X9444944Y-10049222D01*
X9444944Y-10049222D02*
X9454467Y-10039698D01*
X9454467Y-10039698D02*
X9473515Y-10030174D01*
X9473515Y-10030174D02*
X9521134Y-10030174D01*
X9521134Y-10030174D02*
X9540182Y-10039698D01*
X9540182Y-10039698D02*
X9549705Y-10049222D01*
X9549705Y-10049222D02*
X9559229Y-10068270D01*
X9559229Y-10068270D02*
X9559229Y-10115889D01*
X9559229Y-10115889D02*
X9549705Y-10134936D01*
X9549705Y-10134936D02*
X9540182Y-10144460D01*
X9540182Y-10144460D02*
X9521134Y-10153984D01*
X9521134Y-10153984D02*
X9473515Y-10153984D01*
X9473515Y-10153984D02*
X9454467Y-10144460D01*
X9454467Y-10144460D02*
X9444944Y-10134936D01*
X9683039Y-9953984D02*
X9702086Y-9953984D01*
X9702086Y-9953984D02*
X9721134Y-9963508D01*
X9721134Y-9963508D02*
X9730658Y-9973031D01*
X9730658Y-9973031D02*
X9740182Y-9992079D01*
X9740182Y-9992079D02*
X9749705Y-10030174D01*
X9749705Y-10030174D02*
X9749705Y-10077793D01*
X9749705Y-10077793D02*
X9740182Y-10115889D01*
X9740182Y-10115889D02*
X9730658Y-10134936D01*
X9730658Y-10134936D02*
X9721134Y-10144460D01*
X9721134Y-10144460D02*
X9702086Y-10153984D01*
X9702086Y-10153984D02*
X9683039Y-10153984D01*
X9683039Y-10153984D02*
X9663991Y-10144460D01*
X9663991Y-10144460D02*
X9654467Y-10134936D01*
X9654467Y-10134936D02*
X9644944Y-10115889D01*
X9644944Y-10115889D02*
X9635420Y-10077793D01*
X9635420Y-10077793D02*
X9635420Y-10030174D01*
X9635420Y-10030174D02*
X9644944Y-9992079D01*
X9644944Y-9992079D02*
X9654467Y-9973031D01*
X9654467Y-9973031D02*
X9663991Y-9963508D01*
X9663991Y-9963508D02*
X9683039Y-9953984D01*
X9835420Y-10153984D02*
X9835420Y-10020650D01*
X9835420Y-10039698D02*
X9844944Y-10030174D01*
X9844944Y-10030174D02*
X9863991Y-10020650D01*
X9863991Y-10020650D02*
X9892563Y-10020650D01*
X9892563Y-10020650D02*
X9911610Y-10030174D01*
X9911610Y-10030174D02*
X9921134Y-10049222D01*
X9921134Y-10049222D02*
X9921134Y-10153984D01*
X9921134Y-10049222D02*
X9930658Y-10030174D01*
X9930658Y-10030174D02*
X9949705Y-10020650D01*
X9949705Y-10020650D02*
X9978277Y-10020650D01*
X9978277Y-10020650D02*
X9997325Y-10030174D01*
X9997325Y-10030174D02*
X10006848Y-10049222D01*
X10006848Y-10049222D02*
X10006848Y-10153984D01*
X10102086Y-10153984D02*
X10102086Y-10020650D01*
X10102086Y-10039698D02*
X10111610Y-10030174D01*
X10111610Y-10030174D02*
X10130658Y-10020650D01*
X10130658Y-10020650D02*
X10159229Y-10020650D01*
X10159229Y-10020650D02*
X10178277Y-10030174D01*
X10178277Y-10030174D02*
X10187801Y-10049222D01*
X10187801Y-10049222D02*
X10187801Y-10153984D01*
X10187801Y-10049222D02*
X10197325Y-10030174D01*
X10197325Y-10030174D02*
X10216372Y-10020650D01*
X10216372Y-10020650D02*
X10244944Y-10020650D01*
X10244944Y-10020650D02*
X10263991Y-10030174D01*
X10263991Y-10030174D02*
X10273515Y-10049222D01*
X10273515Y-10049222D02*
X10273515Y-10153984D01*
X10663991Y-9944460D02*
X10492563Y-10201603D01*
X10921134Y-9953984D02*
X10940182Y-9953984D01*
X10940182Y-9953984D02*
X10959229Y-9963508D01*
X10959229Y-9963508D02*
X10968753Y-9973031D01*
X10968753Y-9973031D02*
X10978277Y-9992079D01*
X10978277Y-9992079D02*
X10987801Y-10030174D01*
X10987801Y-10030174D02*
X10987801Y-10077793D01*
X10987801Y-10077793D02*
X10978277Y-10115889D01*
X10978277Y-10115889D02*
X10968753Y-10134936D01*
X10968753Y-10134936D02*
X10959229Y-10144460D01*
X10959229Y-10144460D02*
X10940182Y-10153984D01*
X10940182Y-10153984D02*
X10921134Y-10153984D01*
X10921134Y-10153984D02*
X10902087Y-10144460D01*
X10902087Y-10144460D02*
X10892563Y-10134936D01*
X10892563Y-10134936D02*
X10883039Y-10115889D01*
X10883039Y-10115889D02*
X10873515Y-10077793D01*
X10873515Y-10077793D02*
X10873515Y-10030174D01*
X10873515Y-10030174D02*
X10883039Y-9992079D01*
X10883039Y-9992079D02*
X10892563Y-9973031D01*
X10892563Y-9973031D02*
X10902087Y-9963508D01*
X10902087Y-9963508D02*
X10921134Y-9953984D01*
X11073515Y-10134936D02*
X11083039Y-10144460D01*
X11083039Y-10144460D02*
X11073515Y-10153984D01*
X11073515Y-10153984D02*
X11063991Y-10144460D01*
X11063991Y-10144460D02*
X11073515Y-10134936D01*
X11073515Y-10134936D02*
X11073515Y-10153984D01*
X11206848Y-9953984D02*
X11225896Y-9953984D01*
X11225896Y-9953984D02*
X11244944Y-9963508D01*
X11244944Y-9963508D02*
X11254467Y-9973031D01*
X11254467Y-9973031D02*
X11263991Y-9992079D01*
X11263991Y-9992079D02*
X11273515Y-10030174D01*
X11273515Y-10030174D02*
X11273515Y-10077793D01*
X11273515Y-10077793D02*
X11263991Y-10115889D01*
X11263991Y-10115889D02*
X11254467Y-10134936D01*
X11254467Y-10134936D02*
X11244944Y-10144460D01*
X11244944Y-10144460D02*
X11225896Y-10153984D01*
X11225896Y-10153984D02*
X11206848Y-10153984D01*
X11206848Y-10153984D02*
X11187801Y-10144460D01*
X11187801Y-10144460D02*
X11178277Y-10134936D01*
X11178277Y-10134936D02*
X11168753Y-10115889D01*
X11168753Y-10115889D02*
X11159229Y-10077793D01*
X11159229Y-10077793D02*
X11159229Y-10030174D01*
X11159229Y-10030174D02*
X11168753Y-9992079D01*
X11168753Y-9992079D02*
X11178277Y-9973031D01*
X11178277Y-9973031D02*
X11187801Y-9963508D01*
X11187801Y-9963508D02*
X11206848Y-9953984D01*
X11349706Y-9973031D02*
X11359229Y-9963508D01*
X11359229Y-9963508D02*
X11378277Y-9953984D01*
X11378277Y-9953984D02*
X11425896Y-9953984D01*
X11425896Y-9953984D02*
X11444944Y-9963508D01*
X11444944Y-9963508D02*
X11454467Y-9973031D01*
X11454467Y-9973031D02*
X11463991Y-9992079D01*
X11463991Y-9992079D02*
X11463991Y-10011127D01*
X11463991Y-10011127D02*
X11454467Y-10039698D01*
X11454467Y-10039698D02*
X11340182Y-10153984D01*
X11340182Y-10153984D02*
X11463991Y-10153984D01*
X11644944Y-9953984D02*
X11549706Y-9953984D01*
X11549706Y-9953984D02*
X11540182Y-10049222D01*
X11540182Y-10049222D02*
X11549706Y-10039698D01*
X11549706Y-10039698D02*
X11568753Y-10030174D01*
X11568753Y-10030174D02*
X11616372Y-10030174D01*
X11616372Y-10030174D02*
X11635420Y-10039698D01*
X11635420Y-10039698D02*
X11644944Y-10049222D01*
X11644944Y-10049222D02*
X11654467Y-10068270D01*
X11654467Y-10068270D02*
X11654467Y-10115889D01*
X11654467Y-10115889D02*
X11644944Y-10134936D01*
X11644944Y-10134936D02*
X11635420Y-10144460D01*
X11635420Y-10144460D02*
X11616372Y-10153984D01*
X11616372Y-10153984D02*
X11568753Y-10153984D01*
X11568753Y-10153984D02*
X11549706Y-10144460D01*
X11549706Y-10144460D02*
X11540182Y-10134936D01*
X11825896Y-9953984D02*
X11787801Y-9953984D01*
X11787801Y-9953984D02*
X11768753Y-9963508D01*
X11768753Y-9963508D02*
X11759229Y-9973031D01*
X11759229Y-9973031D02*
X11740182Y-10001603D01*
X11740182Y-10001603D02*
X11730658Y-10039698D01*
X11730658Y-10039698D02*
X11730658Y-10115889D01*
X11730658Y-10115889D02*
X11740182Y-10134936D01*
X11740182Y-10134936D02*
X11749706Y-10144460D01*
X11749706Y-10144460D02*
X11768753Y-10153984D01*
X11768753Y-10153984D02*
X11806848Y-10153984D01*
X11806848Y-10153984D02*
X11825896Y-10144460D01*
X11825896Y-10144460D02*
X11835420Y-10134936D01*
X11835420Y-10134936D02*
X11844944Y-10115889D01*
X11844944Y-10115889D02*
X11844944Y-10068270D01*
X11844944Y-10068270D02*
X11835420Y-10049222D01*
X11835420Y-10049222D02*
X11825896Y-10039698D01*
X11825896Y-10039698D02*
X11806848Y-10030174D01*
X11806848Y-10030174D02*
X11768753Y-10030174D01*
X11768753Y-10030174D02*
X11749706Y-10039698D01*
X11749706Y-10039698D02*
X11740182Y-10049222D01*
X11740182Y-10049222D02*
X11730658Y-10068270D01*
X11921134Y-9953984D02*
X11921134Y-9992079D01*
X11997325Y-9953984D02*
X11997325Y-9992079D01*
X12292563Y-10230174D02*
X12283039Y-10220650D01*
X12283039Y-10220650D02*
X12263991Y-10192079D01*
X12263991Y-10192079D02*
X12254468Y-10173031D01*
X12254468Y-10173031D02*
X12244944Y-10144460D01*
X12244944Y-10144460D02*
X12235420Y-10096841D01*
X12235420Y-10096841D02*
X12235420Y-10058746D01*
X12235420Y-10058746D02*
X12244944Y-10011127D01*
X12244944Y-10011127D02*
X12254468Y-9982555D01*
X12254468Y-9982555D02*
X12263991Y-9963508D01*
X12263991Y-9963508D02*
X12283039Y-9934936D01*
X12283039Y-9934936D02*
X12292563Y-9925412D01*
X12359229Y-9973031D02*
X12368753Y-9963508D01*
X12368753Y-9963508D02*
X12387801Y-9953984D01*
X12387801Y-9953984D02*
X12435420Y-9953984D01*
X12435420Y-9953984D02*
X12454468Y-9963508D01*
X12454468Y-9963508D02*
X12463991Y-9973031D01*
X12463991Y-9973031D02*
X12473515Y-9992079D01*
X12473515Y-9992079D02*
X12473515Y-10011127D01*
X12473515Y-10011127D02*
X12463991Y-10039698D01*
X12463991Y-10039698D02*
X12349706Y-10153984D01*
X12349706Y-10153984D02*
X12473515Y-10153984D01*
X12711610Y-10153984D02*
X12711610Y-9953984D01*
X12797325Y-10153984D02*
X12797325Y-10049222D01*
X12797325Y-10049222D02*
X12787801Y-10030174D01*
X12787801Y-10030174D02*
X12768753Y-10020650D01*
X12768753Y-10020650D02*
X12740182Y-10020650D01*
X12740182Y-10020650D02*
X12721134Y-10030174D01*
X12721134Y-10030174D02*
X12711610Y-10039698D01*
X12921134Y-10153984D02*
X12902087Y-10144460D01*
X12902087Y-10144460D02*
X12892563Y-10134936D01*
X12892563Y-10134936D02*
X12883039Y-10115889D01*
X12883039Y-10115889D02*
X12883039Y-10058746D01*
X12883039Y-10058746D02*
X12892563Y-10039698D01*
X12892563Y-10039698D02*
X12902087Y-10030174D01*
X12902087Y-10030174D02*
X12921134Y-10020650D01*
X12921134Y-10020650D02*
X12949706Y-10020650D01*
X12949706Y-10020650D02*
X12968753Y-10030174D01*
X12968753Y-10030174D02*
X12978277Y-10039698D01*
X12978277Y-10039698D02*
X12987801Y-10058746D01*
X12987801Y-10058746D02*
X12987801Y-10115889D01*
X12987801Y-10115889D02*
X12978277Y-10134936D01*
X12978277Y-10134936D02*
X12968753Y-10144460D01*
X12968753Y-10144460D02*
X12949706Y-10153984D01*
X12949706Y-10153984D02*
X12921134Y-10153984D01*
X13102087Y-10153984D02*
X13083039Y-10144460D01*
X13083039Y-10144460D02*
X13073515Y-10125412D01*
X13073515Y-10125412D02*
X13073515Y-9953984D01*
X13254468Y-10144460D02*
X13235420Y-10153984D01*
X13235420Y-10153984D02*
X13197325Y-10153984D01*
X13197325Y-10153984D02*
X13178277Y-10144460D01*
X13178277Y-10144460D02*
X13168753Y-10125412D01*
X13168753Y-10125412D02*
X13168753Y-10049222D01*
X13168753Y-10049222D02*
X13178277Y-10030174D01*
X13178277Y-10030174D02*
X13197325Y-10020650D01*
X13197325Y-10020650D02*
X13235420Y-10020650D01*
X13235420Y-10020650D02*
X13254468Y-10030174D01*
X13254468Y-10030174D02*
X13263991Y-10049222D01*
X13263991Y-10049222D02*
X13263991Y-10068270D01*
X13263991Y-10068270D02*
X13168753Y-10087317D01*
X13340182Y-10144460D02*
X13359230Y-10153984D01*
X13359230Y-10153984D02*
X13397325Y-10153984D01*
X13397325Y-10153984D02*
X13416372Y-10144460D01*
X13416372Y-10144460D02*
X13425896Y-10125412D01*
X13425896Y-10125412D02*
X13425896Y-10115889D01*
X13425896Y-10115889D02*
X13416372Y-10096841D01*
X13416372Y-10096841D02*
X13397325Y-10087317D01*
X13397325Y-10087317D02*
X13368753Y-10087317D01*
X13368753Y-10087317D02*
X13349706Y-10077793D01*
X13349706Y-10077793D02*
X13340182Y-10058746D01*
X13340182Y-10058746D02*
X13340182Y-10049222D01*
X13340182Y-10049222D02*
X13349706Y-10030174D01*
X13349706Y-10030174D02*
X13368753Y-10020650D01*
X13368753Y-10020650D02*
X13397325Y-10020650D01*
X13397325Y-10020650D02*
X13416372Y-10030174D01*
X13492563Y-10230174D02*
X13502087Y-10220650D01*
X13502087Y-10220650D02*
X13521134Y-10192079D01*
X13521134Y-10192079D02*
X13530658Y-10173031D01*
X13530658Y-10173031D02*
X13540182Y-10144460D01*
X13540182Y-10144460D02*
X13549706Y-10096841D01*
X13549706Y-10096841D02*
X13549706Y-10058746D01*
X13549706Y-10058746D02*
X13540182Y-10011127D01*
X13540182Y-10011127D02*
X13530658Y-9982555D01*
X13530658Y-9982555D02*
X13521134Y-9963508D01*
X13521134Y-9963508D02*
X13502087Y-9934936D01*
X13502087Y-9934936D02*
X13492563Y-9925412D01*
X13854468Y-10230174D02*
X13844944Y-10220650D01*
X13844944Y-10220650D02*
X13825896Y-10192079D01*
X13825896Y-10192079D02*
X13816372Y-10173031D01*
X13816372Y-10173031D02*
X13806849Y-10144460D01*
X13806849Y-10144460D02*
X13797325Y-10096841D01*
X13797325Y-10096841D02*
X13797325Y-10058746D01*
X13797325Y-10058746D02*
X13806849Y-10011127D01*
X13806849Y-10011127D02*
X13816372Y-9982555D01*
X13816372Y-9982555D02*
X13825896Y-9963508D01*
X13825896Y-9963508D02*
X13844944Y-9934936D01*
X13844944Y-9934936D02*
X13854468Y-9925412D01*
X13930658Y-10020650D02*
X13930658Y-10153984D01*
X13930658Y-10039698D02*
X13940182Y-10030174D01*
X13940182Y-10030174D02*
X13959230Y-10020650D01*
X13959230Y-10020650D02*
X13987801Y-10020650D01*
X13987801Y-10020650D02*
X14006849Y-10030174D01*
X14006849Y-10030174D02*
X14016372Y-10049222D01*
X14016372Y-10049222D02*
X14016372Y-10153984D01*
X14140182Y-10153984D02*
X14121134Y-10144460D01*
X14121134Y-10144460D02*
X14111611Y-10134936D01*
X14111611Y-10134936D02*
X14102087Y-10115889D01*
X14102087Y-10115889D02*
X14102087Y-10058746D01*
X14102087Y-10058746D02*
X14111611Y-10039698D01*
X14111611Y-10039698D02*
X14121134Y-10030174D01*
X14121134Y-10030174D02*
X14140182Y-10020650D01*
X14140182Y-10020650D02*
X14168753Y-10020650D01*
X14168753Y-10020650D02*
X14187801Y-10030174D01*
X14187801Y-10030174D02*
X14197325Y-10039698D01*
X14197325Y-10039698D02*
X14206849Y-10058746D01*
X14206849Y-10058746D02*
X14206849Y-10115889D01*
X14206849Y-10115889D02*
X14197325Y-10134936D01*
X14197325Y-10134936D02*
X14187801Y-10144460D01*
X14187801Y-10144460D02*
X14168753Y-10153984D01*
X14168753Y-10153984D02*
X14140182Y-10153984D01*
X14263992Y-10020650D02*
X14340182Y-10020650D01*
X14292563Y-9953984D02*
X14292563Y-10125412D01*
X14292563Y-10125412D02*
X14302087Y-10144460D01*
X14302087Y-10144460D02*
X14321134Y-10153984D01*
X14321134Y-10153984D02*
X14340182Y-10153984D01*
X14559230Y-10020650D02*
X14559230Y-10220650D01*
X14559230Y-10030174D02*
X14578277Y-10020650D01*
X14578277Y-10020650D02*
X14616373Y-10020650D01*
X14616373Y-10020650D02*
X14635420Y-10030174D01*
X14635420Y-10030174D02*
X14644944Y-10039698D01*
X14644944Y-10039698D02*
X14654468Y-10058746D01*
X14654468Y-10058746D02*
X14654468Y-10115889D01*
X14654468Y-10115889D02*
X14644944Y-10134936D01*
X14644944Y-10134936D02*
X14635420Y-10144460D01*
X14635420Y-10144460D02*
X14616373Y-10153984D01*
X14616373Y-10153984D02*
X14578277Y-10153984D01*
X14578277Y-10153984D02*
X14559230Y-10144460D01*
X14768753Y-10153984D02*
X14749706Y-10144460D01*
X14749706Y-10144460D02*
X14740182Y-10125412D01*
X14740182Y-10125412D02*
X14740182Y-9953984D01*
X14930658Y-10153984D02*
X14930658Y-10049222D01*
X14930658Y-10049222D02*
X14921134Y-10030174D01*
X14921134Y-10030174D02*
X14902087Y-10020650D01*
X14902087Y-10020650D02*
X14863992Y-10020650D01*
X14863992Y-10020650D02*
X14844944Y-10030174D01*
X14930658Y-10144460D02*
X14911611Y-10153984D01*
X14911611Y-10153984D02*
X14863992Y-10153984D01*
X14863992Y-10153984D02*
X14844944Y-10144460D01*
X14844944Y-10144460D02*
X14835420Y-10125412D01*
X14835420Y-10125412D02*
X14835420Y-10106365D01*
X14835420Y-10106365D02*
X14844944Y-10087317D01*
X14844944Y-10087317D02*
X14863992Y-10077793D01*
X14863992Y-10077793D02*
X14911611Y-10077793D01*
X14911611Y-10077793D02*
X14930658Y-10068270D01*
X14997325Y-10020650D02*
X15073515Y-10020650D01*
X15025896Y-9953984D02*
X15025896Y-10125412D01*
X15025896Y-10125412D02*
X15035420Y-10144460D01*
X15035420Y-10144460D02*
X15054468Y-10153984D01*
X15054468Y-10153984D02*
X15073515Y-10153984D01*
X15216373Y-10144460D02*
X15197325Y-10153984D01*
X15197325Y-10153984D02*
X15159230Y-10153984D01*
X15159230Y-10153984D02*
X15140182Y-10144460D01*
X15140182Y-10144460D02*
X15130658Y-10125412D01*
X15130658Y-10125412D02*
X15130658Y-10049222D01*
X15130658Y-10049222D02*
X15140182Y-10030174D01*
X15140182Y-10030174D02*
X15159230Y-10020650D01*
X15159230Y-10020650D02*
X15197325Y-10020650D01*
X15197325Y-10020650D02*
X15216373Y-10030174D01*
X15216373Y-10030174D02*
X15225896Y-10049222D01*
X15225896Y-10049222D02*
X15225896Y-10068270D01*
X15225896Y-10068270D02*
X15130658Y-10087317D01*
X15397325Y-10153984D02*
X15397325Y-9953984D01*
X15397325Y-10144460D02*
X15378277Y-10153984D01*
X15378277Y-10153984D02*
X15340182Y-10153984D01*
X15340182Y-10153984D02*
X15321134Y-10144460D01*
X15321134Y-10144460D02*
X15311611Y-10134936D01*
X15311611Y-10134936D02*
X15302087Y-10115889D01*
X15302087Y-10115889D02*
X15302087Y-10058746D01*
X15302087Y-10058746D02*
X15311611Y-10039698D01*
X15311611Y-10039698D02*
X15321134Y-10030174D01*
X15321134Y-10030174D02*
X15340182Y-10020650D01*
X15340182Y-10020650D02*
X15378277Y-10020650D01*
X15378277Y-10020650D02*
X15397325Y-10030174D01*
X15473515Y-10230174D02*
X15483039Y-10220650D01*
X15483039Y-10220650D02*
X15502087Y-10192079D01*
X15502087Y-10192079D02*
X15511611Y-10173031D01*
X15511611Y-10173031D02*
X15521134Y-10144460D01*
X15521134Y-10144460D02*
X15530658Y-10096841D01*
X15530658Y-10096841D02*
X15530658Y-10058746D01*
X15530658Y-10058746D02*
X15521134Y-10011127D01*
X15521134Y-10011127D02*
X15511611Y-9982555D01*
X15511611Y-9982555D02*
X15502087Y-9963508D01*
X15502087Y-9963508D02*
X15483039Y-9934936D01*
X15483039Y-9934936D02*
X15473515Y-9925412D01*
D12*
X8717500Y-10326500D02*
G75*
G02*
X8627500Y-10326500I-45000J0D01*
G01*
X8627500Y-10326500D02*
G75*
G02*
X8717500Y-10326500I45000J0D01*
G01*
D11*
X9016372Y-10217984D02*
X9035420Y-10217984D01*
X9035420Y-10217984D02*
X9054467Y-10227508D01*
X9054467Y-10227508D02*
X9063991Y-10237031D01*
X9063991Y-10237031D02*
X9073515Y-10256079D01*
X9073515Y-10256079D02*
X9083039Y-10294174D01*
X9083039Y-10294174D02*
X9083039Y-10341793D01*
X9083039Y-10341793D02*
X9073515Y-10379889D01*
X9073515Y-10379889D02*
X9063991Y-10398936D01*
X9063991Y-10398936D02*
X9054467Y-10408460D01*
X9054467Y-10408460D02*
X9035420Y-10417984D01*
X9035420Y-10417984D02*
X9016372Y-10417984D01*
X9016372Y-10417984D02*
X8997324Y-10408460D01*
X8997324Y-10408460D02*
X8987801Y-10398936D01*
X8987801Y-10398936D02*
X8978277Y-10379889D01*
X8978277Y-10379889D02*
X8968753Y-10341793D01*
X8968753Y-10341793D02*
X8968753Y-10294174D01*
X8968753Y-10294174D02*
X8978277Y-10256079D01*
X8978277Y-10256079D02*
X8987801Y-10237031D01*
X8987801Y-10237031D02*
X8997324Y-10227508D01*
X8997324Y-10227508D02*
X9016372Y-10217984D01*
X9168753Y-10398936D02*
X9178277Y-10408460D01*
X9178277Y-10408460D02*
X9168753Y-10417984D01*
X9168753Y-10417984D02*
X9159229Y-10408460D01*
X9159229Y-10408460D02*
X9168753Y-10398936D01*
X9168753Y-10398936D02*
X9168753Y-10417984D01*
X9273515Y-10417984D02*
X9311610Y-10417984D01*
X9311610Y-10417984D02*
X9330658Y-10408460D01*
X9330658Y-10408460D02*
X9340182Y-10398936D01*
X9340182Y-10398936D02*
X9359229Y-10370365D01*
X9359229Y-10370365D02*
X9368753Y-10332270D01*
X9368753Y-10332270D02*
X9368753Y-10256079D01*
X9368753Y-10256079D02*
X9359229Y-10237031D01*
X9359229Y-10237031D02*
X9349705Y-10227508D01*
X9349705Y-10227508D02*
X9330658Y-10217984D01*
X9330658Y-10217984D02*
X9292563Y-10217984D01*
X9292563Y-10217984D02*
X9273515Y-10227508D01*
X9273515Y-10227508D02*
X9263991Y-10237031D01*
X9263991Y-10237031D02*
X9254467Y-10256079D01*
X9254467Y-10256079D02*
X9254467Y-10303698D01*
X9254467Y-10303698D02*
X9263991Y-10322746D01*
X9263991Y-10322746D02*
X9273515Y-10332270D01*
X9273515Y-10332270D02*
X9292563Y-10341793D01*
X9292563Y-10341793D02*
X9330658Y-10341793D01*
X9330658Y-10341793D02*
X9349705Y-10332270D01*
X9349705Y-10332270D02*
X9359229Y-10322746D01*
X9359229Y-10322746D02*
X9368753Y-10303698D01*
X9492563Y-10217984D02*
X9511610Y-10217984D01*
X9511610Y-10217984D02*
X9530658Y-10227508D01*
X9530658Y-10227508D02*
X9540182Y-10237031D01*
X9540182Y-10237031D02*
X9549705Y-10256079D01*
X9549705Y-10256079D02*
X9559229Y-10294174D01*
X9559229Y-10294174D02*
X9559229Y-10341793D01*
X9559229Y-10341793D02*
X9549705Y-10379889D01*
X9549705Y-10379889D02*
X9540182Y-10398936D01*
X9540182Y-10398936D02*
X9530658Y-10408460D01*
X9530658Y-10408460D02*
X9511610Y-10417984D01*
X9511610Y-10417984D02*
X9492563Y-10417984D01*
X9492563Y-10417984D02*
X9473515Y-10408460D01*
X9473515Y-10408460D02*
X9463991Y-10398936D01*
X9463991Y-10398936D02*
X9454467Y-10379889D01*
X9454467Y-10379889D02*
X9444944Y-10341793D01*
X9444944Y-10341793D02*
X9444944Y-10294174D01*
X9444944Y-10294174D02*
X9454467Y-10256079D01*
X9454467Y-10256079D02*
X9463991Y-10237031D01*
X9463991Y-10237031D02*
X9473515Y-10227508D01*
X9473515Y-10227508D02*
X9492563Y-10217984D01*
X9683039Y-10217984D02*
X9702086Y-10217984D01*
X9702086Y-10217984D02*
X9721134Y-10227508D01*
X9721134Y-10227508D02*
X9730658Y-10237031D01*
X9730658Y-10237031D02*
X9740182Y-10256079D01*
X9740182Y-10256079D02*
X9749705Y-10294174D01*
X9749705Y-10294174D02*
X9749705Y-10341793D01*
X9749705Y-10341793D02*
X9740182Y-10379889D01*
X9740182Y-10379889D02*
X9730658Y-10398936D01*
X9730658Y-10398936D02*
X9721134Y-10408460D01*
X9721134Y-10408460D02*
X9702086Y-10417984D01*
X9702086Y-10417984D02*
X9683039Y-10417984D01*
X9683039Y-10417984D02*
X9663991Y-10408460D01*
X9663991Y-10408460D02*
X9654467Y-10398936D01*
X9654467Y-10398936D02*
X9644944Y-10379889D01*
X9644944Y-10379889D02*
X9635420Y-10341793D01*
X9635420Y-10341793D02*
X9635420Y-10294174D01*
X9635420Y-10294174D02*
X9644944Y-10256079D01*
X9644944Y-10256079D02*
X9654467Y-10237031D01*
X9654467Y-10237031D02*
X9663991Y-10227508D01*
X9663991Y-10227508D02*
X9683039Y-10217984D01*
X9835420Y-10417984D02*
X9835420Y-10284650D01*
X9835420Y-10303698D02*
X9844944Y-10294174D01*
X9844944Y-10294174D02*
X9863991Y-10284650D01*
X9863991Y-10284650D02*
X9892563Y-10284650D01*
X9892563Y-10284650D02*
X9911610Y-10294174D01*
X9911610Y-10294174D02*
X9921134Y-10313222D01*
X9921134Y-10313222D02*
X9921134Y-10417984D01*
X9921134Y-10313222D02*
X9930658Y-10294174D01*
X9930658Y-10294174D02*
X9949705Y-10284650D01*
X9949705Y-10284650D02*
X9978277Y-10284650D01*
X9978277Y-10284650D02*
X9997325Y-10294174D01*
X9997325Y-10294174D02*
X10006848Y-10313222D01*
X10006848Y-10313222D02*
X10006848Y-10417984D01*
X10102086Y-10417984D02*
X10102086Y-10284650D01*
X10102086Y-10303698D02*
X10111610Y-10294174D01*
X10111610Y-10294174D02*
X10130658Y-10284650D01*
X10130658Y-10284650D02*
X10159229Y-10284650D01*
X10159229Y-10284650D02*
X10178277Y-10294174D01*
X10178277Y-10294174D02*
X10187801Y-10313222D01*
X10187801Y-10313222D02*
X10187801Y-10417984D01*
X10187801Y-10313222D02*
X10197325Y-10294174D01*
X10197325Y-10294174D02*
X10216372Y-10284650D01*
X10216372Y-10284650D02*
X10244944Y-10284650D01*
X10244944Y-10284650D02*
X10263991Y-10294174D01*
X10263991Y-10294174D02*
X10273515Y-10313222D01*
X10273515Y-10313222D02*
X10273515Y-10417984D01*
X10663991Y-10208460D02*
X10492563Y-10465603D01*
X10921134Y-10217984D02*
X10940182Y-10217984D01*
X10940182Y-10217984D02*
X10959229Y-10227508D01*
X10959229Y-10227508D02*
X10968753Y-10237031D01*
X10968753Y-10237031D02*
X10978277Y-10256079D01*
X10978277Y-10256079D02*
X10987801Y-10294174D01*
X10987801Y-10294174D02*
X10987801Y-10341793D01*
X10987801Y-10341793D02*
X10978277Y-10379889D01*
X10978277Y-10379889D02*
X10968753Y-10398936D01*
X10968753Y-10398936D02*
X10959229Y-10408460D01*
X10959229Y-10408460D02*
X10940182Y-10417984D01*
X10940182Y-10417984D02*
X10921134Y-10417984D01*
X10921134Y-10417984D02*
X10902087Y-10408460D01*
X10902087Y-10408460D02*
X10892563Y-10398936D01*
X10892563Y-10398936D02*
X10883039Y-10379889D01*
X10883039Y-10379889D02*
X10873515Y-10341793D01*
X10873515Y-10341793D02*
X10873515Y-10294174D01*
X10873515Y-10294174D02*
X10883039Y-10256079D01*
X10883039Y-10256079D02*
X10892563Y-10237031D01*
X10892563Y-10237031D02*
X10902087Y-10227508D01*
X10902087Y-10227508D02*
X10921134Y-10217984D01*
X11073515Y-10398936D02*
X11083039Y-10408460D01*
X11083039Y-10408460D02*
X11073515Y-10417984D01*
X11073515Y-10417984D02*
X11063991Y-10408460D01*
X11063991Y-10408460D02*
X11073515Y-10398936D01*
X11073515Y-10398936D02*
X11073515Y-10417984D01*
X11206848Y-10217984D02*
X11225896Y-10217984D01*
X11225896Y-10217984D02*
X11244944Y-10227508D01*
X11244944Y-10227508D02*
X11254467Y-10237031D01*
X11254467Y-10237031D02*
X11263991Y-10256079D01*
X11263991Y-10256079D02*
X11273515Y-10294174D01*
X11273515Y-10294174D02*
X11273515Y-10341793D01*
X11273515Y-10341793D02*
X11263991Y-10379889D01*
X11263991Y-10379889D02*
X11254467Y-10398936D01*
X11254467Y-10398936D02*
X11244944Y-10408460D01*
X11244944Y-10408460D02*
X11225896Y-10417984D01*
X11225896Y-10417984D02*
X11206848Y-10417984D01*
X11206848Y-10417984D02*
X11187801Y-10408460D01*
X11187801Y-10408460D02*
X11178277Y-10398936D01*
X11178277Y-10398936D02*
X11168753Y-10379889D01*
X11168753Y-10379889D02*
X11159229Y-10341793D01*
X11159229Y-10341793D02*
X11159229Y-10294174D01*
X11159229Y-10294174D02*
X11168753Y-10256079D01*
X11168753Y-10256079D02*
X11178277Y-10237031D01*
X11178277Y-10237031D02*
X11187801Y-10227508D01*
X11187801Y-10227508D02*
X11206848Y-10217984D01*
X11340182Y-10217984D02*
X11463991Y-10217984D01*
X11463991Y-10217984D02*
X11397325Y-10294174D01*
X11397325Y-10294174D02*
X11425896Y-10294174D01*
X11425896Y-10294174D02*
X11444944Y-10303698D01*
X11444944Y-10303698D02*
X11454467Y-10313222D01*
X11454467Y-10313222D02*
X11463991Y-10332270D01*
X11463991Y-10332270D02*
X11463991Y-10379889D01*
X11463991Y-10379889D02*
X11454467Y-10398936D01*
X11454467Y-10398936D02*
X11444944Y-10408460D01*
X11444944Y-10408460D02*
X11425896Y-10417984D01*
X11425896Y-10417984D02*
X11368753Y-10417984D01*
X11368753Y-10417984D02*
X11349706Y-10408460D01*
X11349706Y-10408460D02*
X11340182Y-10398936D01*
X11644944Y-10217984D02*
X11549706Y-10217984D01*
X11549706Y-10217984D02*
X11540182Y-10313222D01*
X11540182Y-10313222D02*
X11549706Y-10303698D01*
X11549706Y-10303698D02*
X11568753Y-10294174D01*
X11568753Y-10294174D02*
X11616372Y-10294174D01*
X11616372Y-10294174D02*
X11635420Y-10303698D01*
X11635420Y-10303698D02*
X11644944Y-10313222D01*
X11644944Y-10313222D02*
X11654467Y-10332270D01*
X11654467Y-10332270D02*
X11654467Y-10379889D01*
X11654467Y-10379889D02*
X11644944Y-10398936D01*
X11644944Y-10398936D02*
X11635420Y-10408460D01*
X11635420Y-10408460D02*
X11616372Y-10417984D01*
X11616372Y-10417984D02*
X11568753Y-10417984D01*
X11568753Y-10417984D02*
X11549706Y-10408460D01*
X11549706Y-10408460D02*
X11540182Y-10398936D01*
X11825896Y-10284650D02*
X11825896Y-10417984D01*
X11778277Y-10208460D02*
X11730658Y-10351317D01*
X11730658Y-10351317D02*
X11854467Y-10351317D01*
X11921134Y-10217984D02*
X11921134Y-10256079D01*
X11997325Y-10217984D02*
X11997325Y-10256079D01*
X12292563Y-10494174D02*
X12283039Y-10484650D01*
X12283039Y-10484650D02*
X12263991Y-10456079D01*
X12263991Y-10456079D02*
X12254468Y-10437031D01*
X12254468Y-10437031D02*
X12244944Y-10408460D01*
X12244944Y-10408460D02*
X12235420Y-10360841D01*
X12235420Y-10360841D02*
X12235420Y-10322746D01*
X12235420Y-10322746D02*
X12244944Y-10275127D01*
X12244944Y-10275127D02*
X12254468Y-10246555D01*
X12254468Y-10246555D02*
X12263991Y-10227508D01*
X12263991Y-10227508D02*
X12283039Y-10198936D01*
X12283039Y-10198936D02*
X12292563Y-10189412D01*
X12359229Y-10237031D02*
X12368753Y-10227508D01*
X12368753Y-10227508D02*
X12387801Y-10217984D01*
X12387801Y-10217984D02*
X12435420Y-10217984D01*
X12435420Y-10217984D02*
X12454468Y-10227508D01*
X12454468Y-10227508D02*
X12463991Y-10237031D01*
X12463991Y-10237031D02*
X12473515Y-10256079D01*
X12473515Y-10256079D02*
X12473515Y-10275127D01*
X12473515Y-10275127D02*
X12463991Y-10303698D01*
X12463991Y-10303698D02*
X12349706Y-10417984D01*
X12349706Y-10417984D02*
X12473515Y-10417984D01*
X12711610Y-10417984D02*
X12711610Y-10217984D01*
X12797325Y-10417984D02*
X12797325Y-10313222D01*
X12797325Y-10313222D02*
X12787801Y-10294174D01*
X12787801Y-10294174D02*
X12768753Y-10284650D01*
X12768753Y-10284650D02*
X12740182Y-10284650D01*
X12740182Y-10284650D02*
X12721134Y-10294174D01*
X12721134Y-10294174D02*
X12711610Y-10303698D01*
X12921134Y-10417984D02*
X12902087Y-10408460D01*
X12902087Y-10408460D02*
X12892563Y-10398936D01*
X12892563Y-10398936D02*
X12883039Y-10379889D01*
X12883039Y-10379889D02*
X12883039Y-10322746D01*
X12883039Y-10322746D02*
X12892563Y-10303698D01*
X12892563Y-10303698D02*
X12902087Y-10294174D01*
X12902087Y-10294174D02*
X12921134Y-10284650D01*
X12921134Y-10284650D02*
X12949706Y-10284650D01*
X12949706Y-10284650D02*
X12968753Y-10294174D01*
X12968753Y-10294174D02*
X12978277Y-10303698D01*
X12978277Y-10303698D02*
X12987801Y-10322746D01*
X12987801Y-10322746D02*
X12987801Y-10379889D01*
X12987801Y-10379889D02*
X12978277Y-10398936D01*
X12978277Y-10398936D02*
X12968753Y-10408460D01*
X12968753Y-10408460D02*
X12949706Y-10417984D01*
X12949706Y-10417984D02*
X12921134Y-10417984D01*
X13102087Y-10417984D02*
X13083039Y-10408460D01*
X13083039Y-10408460D02*
X13073515Y-10389412D01*
X13073515Y-10389412D02*
X13073515Y-10217984D01*
X13254468Y-10408460D02*
X13235420Y-10417984D01*
X13235420Y-10417984D02*
X13197325Y-10417984D01*
X13197325Y-10417984D02*
X13178277Y-10408460D01*
X13178277Y-10408460D02*
X13168753Y-10389412D01*
X13168753Y-10389412D02*
X13168753Y-10313222D01*
X13168753Y-10313222D02*
X13178277Y-10294174D01*
X13178277Y-10294174D02*
X13197325Y-10284650D01*
X13197325Y-10284650D02*
X13235420Y-10284650D01*
X13235420Y-10284650D02*
X13254468Y-10294174D01*
X13254468Y-10294174D02*
X13263991Y-10313222D01*
X13263991Y-10313222D02*
X13263991Y-10332270D01*
X13263991Y-10332270D02*
X13168753Y-10351317D01*
X13340182Y-10408460D02*
X13359230Y-10417984D01*
X13359230Y-10417984D02*
X13397325Y-10417984D01*
X13397325Y-10417984D02*
X13416372Y-10408460D01*
X13416372Y-10408460D02*
X13425896Y-10389412D01*
X13425896Y-10389412D02*
X13425896Y-10379889D01*
X13425896Y-10379889D02*
X13416372Y-10360841D01*
X13416372Y-10360841D02*
X13397325Y-10351317D01*
X13397325Y-10351317D02*
X13368753Y-10351317D01*
X13368753Y-10351317D02*
X13349706Y-10341793D01*
X13349706Y-10341793D02*
X13340182Y-10322746D01*
X13340182Y-10322746D02*
X13340182Y-10313222D01*
X13340182Y-10313222D02*
X13349706Y-10294174D01*
X13349706Y-10294174D02*
X13368753Y-10284650D01*
X13368753Y-10284650D02*
X13397325Y-10284650D01*
X13397325Y-10284650D02*
X13416372Y-10294174D01*
X13492563Y-10494174D02*
X13502087Y-10484650D01*
X13502087Y-10484650D02*
X13521134Y-10456079D01*
X13521134Y-10456079D02*
X13530658Y-10437031D01*
X13530658Y-10437031D02*
X13540182Y-10408460D01*
X13540182Y-10408460D02*
X13549706Y-10360841D01*
X13549706Y-10360841D02*
X13549706Y-10322746D01*
X13549706Y-10322746D02*
X13540182Y-10275127D01*
X13540182Y-10275127D02*
X13530658Y-10246555D01*
X13530658Y-10246555D02*
X13521134Y-10227508D01*
X13521134Y-10227508D02*
X13502087Y-10198936D01*
X13502087Y-10198936D02*
X13492563Y-10189412D01*
X13854468Y-10494174D02*
X13844944Y-10484650D01*
X13844944Y-10484650D02*
X13825896Y-10456079D01*
X13825896Y-10456079D02*
X13816372Y-10437031D01*
X13816372Y-10437031D02*
X13806849Y-10408460D01*
X13806849Y-10408460D02*
X13797325Y-10360841D01*
X13797325Y-10360841D02*
X13797325Y-10322746D01*
X13797325Y-10322746D02*
X13806849Y-10275127D01*
X13806849Y-10275127D02*
X13816372Y-10246555D01*
X13816372Y-10246555D02*
X13825896Y-10227508D01*
X13825896Y-10227508D02*
X13844944Y-10198936D01*
X13844944Y-10198936D02*
X13854468Y-10189412D01*
X13930658Y-10284650D02*
X13930658Y-10417984D01*
X13930658Y-10303698D02*
X13940182Y-10294174D01*
X13940182Y-10294174D02*
X13959230Y-10284650D01*
X13959230Y-10284650D02*
X13987801Y-10284650D01*
X13987801Y-10284650D02*
X14006849Y-10294174D01*
X14006849Y-10294174D02*
X14016372Y-10313222D01*
X14016372Y-10313222D02*
X14016372Y-10417984D01*
X14140182Y-10417984D02*
X14121134Y-10408460D01*
X14121134Y-10408460D02*
X14111611Y-10398936D01*
X14111611Y-10398936D02*
X14102087Y-10379889D01*
X14102087Y-10379889D02*
X14102087Y-10322746D01*
X14102087Y-10322746D02*
X14111611Y-10303698D01*
X14111611Y-10303698D02*
X14121134Y-10294174D01*
X14121134Y-10294174D02*
X14140182Y-10284650D01*
X14140182Y-10284650D02*
X14168753Y-10284650D01*
X14168753Y-10284650D02*
X14187801Y-10294174D01*
X14187801Y-10294174D02*
X14197325Y-10303698D01*
X14197325Y-10303698D02*
X14206849Y-10322746D01*
X14206849Y-10322746D02*
X14206849Y-10379889D01*
X14206849Y-10379889D02*
X14197325Y-10398936D01*
X14197325Y-10398936D02*
X14187801Y-10408460D01*
X14187801Y-10408460D02*
X14168753Y-10417984D01*
X14168753Y-10417984D02*
X14140182Y-10417984D01*
X14263992Y-10284650D02*
X14340182Y-10284650D01*
X14292563Y-10217984D02*
X14292563Y-10389412D01*
X14292563Y-10389412D02*
X14302087Y-10408460D01*
X14302087Y-10408460D02*
X14321134Y-10417984D01*
X14321134Y-10417984D02*
X14340182Y-10417984D01*
X14559230Y-10284650D02*
X14559230Y-10484650D01*
X14559230Y-10294174D02*
X14578277Y-10284650D01*
X14578277Y-10284650D02*
X14616373Y-10284650D01*
X14616373Y-10284650D02*
X14635420Y-10294174D01*
X14635420Y-10294174D02*
X14644944Y-10303698D01*
X14644944Y-10303698D02*
X14654468Y-10322746D01*
X14654468Y-10322746D02*
X14654468Y-10379889D01*
X14654468Y-10379889D02*
X14644944Y-10398936D01*
X14644944Y-10398936D02*
X14635420Y-10408460D01*
X14635420Y-10408460D02*
X14616373Y-10417984D01*
X14616373Y-10417984D02*
X14578277Y-10417984D01*
X14578277Y-10417984D02*
X14559230Y-10408460D01*
X14768753Y-10417984D02*
X14749706Y-10408460D01*
X14749706Y-10408460D02*
X14740182Y-10389412D01*
X14740182Y-10389412D02*
X14740182Y-10217984D01*
X14930658Y-10417984D02*
X14930658Y-10313222D01*
X14930658Y-10313222D02*
X14921134Y-10294174D01*
X14921134Y-10294174D02*
X14902087Y-10284650D01*
X14902087Y-10284650D02*
X14863992Y-10284650D01*
X14863992Y-10284650D02*
X14844944Y-10294174D01*
X14930658Y-10408460D02*
X14911611Y-10417984D01*
X14911611Y-10417984D02*
X14863992Y-10417984D01*
X14863992Y-10417984D02*
X14844944Y-10408460D01*
X14844944Y-10408460D02*
X14835420Y-10389412D01*
X14835420Y-10389412D02*
X14835420Y-10370365D01*
X14835420Y-10370365D02*
X14844944Y-10351317D01*
X14844944Y-10351317D02*
X14863992Y-10341793D01*
X14863992Y-10341793D02*
X14911611Y-10341793D01*
X14911611Y-10341793D02*
X14930658Y-10332270D01*
X14997325Y-10284650D02*
X15073515Y-10284650D01*
X15025896Y-10217984D02*
X15025896Y-10389412D01*
X15025896Y-10389412D02*
X15035420Y-10408460D01*
X15035420Y-10408460D02*
X15054468Y-10417984D01*
X15054468Y-10417984D02*
X15073515Y-10417984D01*
X15216373Y-10408460D02*
X15197325Y-10417984D01*
X15197325Y-10417984D02*
X15159230Y-10417984D01*
X15159230Y-10417984D02*
X15140182Y-10408460D01*
X15140182Y-10408460D02*
X15130658Y-10389412D01*
X15130658Y-10389412D02*
X15130658Y-10313222D01*
X15130658Y-10313222D02*
X15140182Y-10294174D01*
X15140182Y-10294174D02*
X15159230Y-10284650D01*
X15159230Y-10284650D02*
X15197325Y-10284650D01*
X15197325Y-10284650D02*
X15216373Y-10294174D01*
X15216373Y-10294174D02*
X15225896Y-10313222D01*
X15225896Y-10313222D02*
X15225896Y-10332270D01*
X15225896Y-10332270D02*
X15130658Y-10351317D01*
X15397325Y-10417984D02*
X15397325Y-10217984D01*
X15397325Y-10408460D02*
X15378277Y-10417984D01*
X15378277Y-10417984D02*
X15340182Y-10417984D01*
X15340182Y-10417984D02*
X15321134Y-10408460D01*
X15321134Y-10408460D02*
X15311611Y-10398936D01*
X15311611Y-10398936D02*
X15302087Y-10379889D01*
X15302087Y-10379889D02*
X15302087Y-10322746D01*
X15302087Y-10322746D02*
X15311611Y-10303698D01*
X15311611Y-10303698D02*
X15321134Y-10294174D01*
X15321134Y-10294174D02*
X15340182Y-10284650D01*
X15340182Y-10284650D02*
X15378277Y-10284650D01*
X15378277Y-10284650D02*
X15397325Y-10294174D01*
X15473515Y-10494174D02*
X15483039Y-10484650D01*
X15483039Y-10484650D02*
X15502087Y-10456079D01*
X15502087Y-10456079D02*
X15511611Y-10437031D01*
X15511611Y-10437031D02*
X15521134Y-10408460D01*
X15521134Y-10408460D02*
X15530658Y-10360841D01*
X15530658Y-10360841D02*
X15530658Y-10322746D01*
X15530658Y-10322746D02*
X15521134Y-10275127D01*
X15521134Y-10275127D02*
X15511611Y-10246555D01*
X15511611Y-10246555D02*
X15502087Y-10227508D01*
X15502087Y-10227508D02*
X15483039Y-10198936D01*
X15483039Y-10198936D02*
X15473515Y-10189412D01*
M02*
