%TF.GenerationSoftware,KiCad,Pcbnew,10.0.5*%
%TF.CreationDate,2026-07-30T12:00:32-04:00*%
%TF.ProjectId,main,6d61696e-2e6b-4696-9361-645f70636258,rev?*%
%TF.SameCoordinates,Original*%
%TF.FileFunction,Drillmap*%
%TF.FilePolarity,Positive*%
%FSLAX45Y45*%
G04 Gerber Fmt 4.5, Leading zero omitted, Abs format (unit mm)*
G04 Created by KiCad (PCBNEW 10.0.5) date 2026-07-30 12:00:32*
%MOMM*%
%LPD*%
G01*
G04 APERTURE LIST*
%ADD10C,0.050000*%
%ADD11C,0.200000*%
%ADD12C,0.100000*%
%ADD13C,0.220000*%
G04 APERTURE END LIST*
D10*
X8720000Y-4191765D02*
X8720000Y-9420000D01*
X10910000Y-9420000D01*
X10910000Y-3737586D01*
X10550000Y-3030000D01*
X9510000Y-3030000D01*
X8720000Y-4191765D01*
D11*
D12*
X10185116Y-6945000D02*
X10205116Y-6965000D01*
X10205116Y-6945000D02*
X10185116Y-6965000D01*
X10185116Y-7065000D02*
X10205116Y-7085000D01*
X10205116Y-7065000D02*
X10185116Y-7085000D01*
X10185116Y-7185000D02*
X10205116Y-7205000D01*
X10205116Y-7185000D02*
X10185116Y-7205000D01*
X10325116Y-6945000D02*
X10345116Y-6965000D01*
X10345116Y-6945000D02*
X10325116Y-6965000D01*
X10325116Y-7065000D02*
X10345116Y-7085000D01*
X10345116Y-7065000D02*
X10325116Y-7085000D01*
X10325116Y-7185000D02*
X10345116Y-7205000D01*
X10345116Y-7185000D02*
X10325116Y-7205000D01*
X9070100Y-7747000D02*
G75*
G02*
X9040100Y-7747000I-15000J0D01*
G01*
X9040100Y-7747000D02*
G75*
G02*
X9070100Y-7747000I15000J0D01*
G01*
X9082800Y-8864600D02*
G75*
G02*
X9052800Y-8864600I-15000J0D01*
G01*
X9052800Y-8864600D02*
G75*
G02*
X9082800Y-8864600I15000J0D01*
G01*
X9146300Y-4610100D02*
G75*
G02*
X9116300Y-4610100I-15000J0D01*
G01*
X9116300Y-4610100D02*
G75*
G02*
X9146300Y-4610100I15000J0D01*
G01*
X9235200Y-8801100D02*
G75*
G02*
X9205200Y-8801100I-15000J0D01*
G01*
X9205200Y-8801100D02*
G75*
G02*
X9235200Y-8801100I15000J0D01*
G01*
X9290116Y-8180000D02*
G75*
G02*
X9260116Y-8180000I-15000J0D01*
G01*
X9260116Y-8180000D02*
G75*
G02*
X9290116Y-8180000I15000J0D01*
G01*
X9349500Y-6565900D02*
G75*
G02*
X9319500Y-6565900I-15000J0D01*
G01*
X9319500Y-6565900D02*
G75*
G02*
X9349500Y-6565900I15000J0D01*
G01*
X9349500Y-7075000D02*
G75*
G02*
X9319500Y-7075000I-15000J0D01*
G01*
X9319500Y-7075000D02*
G75*
G02*
X9349500Y-7075000I15000J0D01*
G01*
X9477616Y-4095000D02*
G75*
G02*
X9447616Y-4095000I-15000J0D01*
G01*
X9447616Y-4095000D02*
G75*
G02*
X9477616Y-4095000I15000J0D01*
G01*
X9480116Y-4620000D02*
G75*
G02*
X9450116Y-4620000I-15000J0D01*
G01*
X9450116Y-4620000D02*
G75*
G02*
X9480116Y-4620000I15000J0D01*
G01*
X9480116Y-5620000D02*
G75*
G02*
X9450116Y-5620000I-15000J0D01*
G01*
X9450116Y-5620000D02*
G75*
G02*
X9480116Y-5620000I15000J0D01*
G01*
X9480116Y-5700000D02*
G75*
G02*
X9450116Y-5700000I-15000J0D01*
G01*
X9450116Y-5700000D02*
G75*
G02*
X9480116Y-5700000I15000J0D01*
G01*
X9508553Y-4293553D02*
G75*
G02*
X9478553Y-4293553I-15000J0D01*
G01*
X9478553Y-4293553D02*
G75*
G02*
X9508553Y-4293553I15000J0D01*
G01*
X9540000Y-7861300D02*
G75*
G02*
X9510000Y-7861300I-15000J0D01*
G01*
X9510000Y-7861300D02*
G75*
G02*
X9540000Y-7861300I15000J0D01*
G01*
X9578100Y-3848100D02*
G75*
G02*
X9548100Y-3848100I-15000J0D01*
G01*
X9548100Y-3848100D02*
G75*
G02*
X9578100Y-3848100I15000J0D01*
G01*
X9590800Y-7366000D02*
G75*
G02*
X9560800Y-7366000I-15000J0D01*
G01*
X9560800Y-7366000D02*
G75*
G02*
X9590800Y-7366000I15000J0D01*
G01*
X9595255Y-4335155D02*
G75*
G02*
X9565255Y-4335155I-15000J0D01*
G01*
X9565255Y-4335155D02*
G75*
G02*
X9595255Y-4335155I15000J0D01*
G01*
X9600116Y-8470000D02*
G75*
G02*
X9570116Y-8470000I-15000J0D01*
G01*
X9570116Y-8470000D02*
G75*
G02*
X9600116Y-8470000I15000J0D01*
G01*
X9622616Y-4737500D02*
G75*
G02*
X9592616Y-4737500I-15000J0D01*
G01*
X9592616Y-4737500D02*
G75*
G02*
X9622616Y-4737500I15000J0D01*
G01*
X9654300Y-5626100D02*
G75*
G02*
X9624300Y-5626100I-15000J0D01*
G01*
X9624300Y-5626100D02*
G75*
G02*
X9654300Y-5626100I15000J0D01*
G01*
X9770116Y-7800000D02*
G75*
G02*
X9740116Y-7800000I-15000J0D01*
G01*
X9740116Y-7800000D02*
G75*
G02*
X9770116Y-7800000I15000J0D01*
G01*
X9819400Y-4699000D02*
G75*
G02*
X9789400Y-4699000I-15000J0D01*
G01*
X9789400Y-4699000D02*
G75*
G02*
X9819400Y-4699000I15000J0D01*
G01*
X9887384Y-8510000D02*
G75*
G02*
X9857384Y-8510000I-15000J0D01*
G01*
X9857384Y-8510000D02*
G75*
G02*
X9887384Y-8510000I15000J0D01*
G01*
X9940116Y-4220000D02*
G75*
G02*
X9910116Y-4220000I-15000J0D01*
G01*
X9910116Y-4220000D02*
G75*
G02*
X9940116Y-4220000I15000J0D01*
G01*
X10130793Y-6722171D02*
G75*
G02*
X10100793Y-6722171I-15000J0D01*
G01*
X10100793Y-6722171D02*
G75*
G02*
X10130793Y-6722171I15000J0D01*
G01*
X10165000Y-4100000D02*
G75*
G02*
X10135000Y-4100000I-15000J0D01*
G01*
X10135000Y-4100000D02*
G75*
G02*
X10165000Y-4100000I15000J0D01*
G01*
X10220168Y-6714948D02*
G75*
G02*
X10190168Y-6714948I-15000J0D01*
G01*
X10190168Y-6714948D02*
G75*
G02*
X10220168Y-6714948I15000J0D01*
G01*
X10270116Y-7410000D02*
G75*
G02*
X10240116Y-7410000I-15000J0D01*
G01*
X10240116Y-7410000D02*
G75*
G02*
X10270116Y-7410000I15000J0D01*
G01*
X10342616Y-7485000D02*
G75*
G02*
X10312616Y-7485000I-15000J0D01*
G01*
X10312616Y-7485000D02*
G75*
G02*
X10342616Y-7485000I15000J0D01*
G01*
X10427616Y-7485000D02*
G75*
G02*
X10397616Y-7485000I-15000J0D01*
G01*
X10397616Y-7485000D02*
G75*
G02*
X10427616Y-7485000I15000J0D01*
G01*
X10480116Y-8550000D02*
G75*
G02*
X10450116Y-8550000I-15000J0D01*
G01*
X10450116Y-8550000D02*
G75*
G02*
X10480116Y-8550000I15000J0D01*
G01*
X10570116Y-6790000D02*
G75*
G02*
X10540116Y-6790000I-15000J0D01*
G01*
X10540116Y-6790000D02*
G75*
G02*
X10570116Y-6790000I15000J0D01*
G01*
X10665868Y-7125752D02*
G75*
G02*
X10635868Y-7125752I-15000J0D01*
G01*
X10635868Y-7125752D02*
G75*
G02*
X10665868Y-7125752I15000J0D01*
G01*
X10670091Y-6925308D02*
G75*
G02*
X10640091Y-6925308I-15000J0D01*
G01*
X10640091Y-6925308D02*
G75*
G02*
X10670091Y-6925308I15000J0D01*
G01*
X10755000Y-4000000D02*
G75*
G02*
X10725000Y-4000000I-15000J0D01*
G01*
X10725000Y-4000000D02*
G75*
G02*
X10755000Y-4000000I15000J0D01*
G01*
X10790116Y-4567500D02*
G75*
G02*
X10760116Y-4567500I-15000J0D01*
G01*
X10760116Y-4567500D02*
G75*
G02*
X10790116Y-4567500I15000J0D01*
G01*
X9405000Y-6927500D02*
X9405000Y-7002500D01*
X9367500Y-6965000D02*
X9442500Y-6965000D01*
X9405000Y-7127500D02*
X9405000Y-7202500D01*
X9367500Y-7165000D02*
X9442500Y-7165000D01*
X9039856Y-5015856D02*
X9039856Y-4945144D01*
X8969144Y-4945144D01*
X8969144Y-5015856D01*
X9039856Y-5015856D01*
X9039856Y-5269856D02*
X9039856Y-5199144D01*
X8969144Y-5199144D01*
X8969144Y-5269856D01*
X9039856Y-5269856D01*
X9039856Y-5523856D02*
X9039856Y-5453144D01*
X8969144Y-5453144D01*
X8969144Y-5523856D01*
X9039856Y-5523856D01*
X9039856Y-5777856D02*
X9039856Y-5707144D01*
X8969144Y-5707144D01*
X8969144Y-5777856D01*
X9039856Y-5777856D01*
X9039856Y-6031856D02*
X9039856Y-5961144D01*
X8969144Y-5961144D01*
X8969144Y-6031856D01*
X9039856Y-6031856D01*
X9039856Y-6285856D02*
X9039856Y-6215144D01*
X8969144Y-6215144D01*
X8969144Y-6285856D01*
X9039856Y-6285856D01*
X9039856Y-6539856D02*
X9039856Y-6469144D01*
X8969144Y-6469144D01*
X8969144Y-6539856D01*
X9039856Y-6539856D01*
D13*
X9020000Y-9210000D02*
X9130000Y-9100000D01*
X9020000Y-8990000D01*
X8910000Y-9100000D01*
X9020000Y-9210000D01*
X9320000Y-3890000D02*
X9430000Y-3780000D01*
X9320000Y-3670000D01*
X9210000Y-3780000D01*
X9320000Y-3890000D01*
D11*
X8978277Y-9733984D02*
X8978277Y-9533984D01*
X8978277Y-9533984D02*
X9025896Y-9533984D01*
X9025896Y-9533984D02*
X9054467Y-9543508D01*
X9054467Y-9543508D02*
X9073515Y-9562555D01*
X9073515Y-9562555D02*
X9083039Y-9581603D01*
X9083039Y-9581603D02*
X9092563Y-9619698D01*
X9092563Y-9619698D02*
X9092563Y-9648270D01*
X9092563Y-9648270D02*
X9083039Y-9686365D01*
X9083039Y-9686365D02*
X9073515Y-9705412D01*
X9073515Y-9705412D02*
X9054467Y-9724460D01*
X9054467Y-9724460D02*
X9025896Y-9733984D01*
X9025896Y-9733984D02*
X8978277Y-9733984D01*
X9178277Y-9733984D02*
X9178277Y-9600650D01*
X9178277Y-9638746D02*
X9187801Y-9619698D01*
X9187801Y-9619698D02*
X9197324Y-9610174D01*
X9197324Y-9610174D02*
X9216372Y-9600650D01*
X9216372Y-9600650D02*
X9235420Y-9600650D01*
X9302086Y-9733984D02*
X9302086Y-9600650D01*
X9302086Y-9533984D02*
X9292563Y-9543508D01*
X9292563Y-9543508D02*
X9302086Y-9553031D01*
X9302086Y-9553031D02*
X9311610Y-9543508D01*
X9311610Y-9543508D02*
X9302086Y-9533984D01*
X9302086Y-9533984D02*
X9302086Y-9553031D01*
X9425896Y-9733984D02*
X9406848Y-9724460D01*
X9406848Y-9724460D02*
X9397324Y-9705412D01*
X9397324Y-9705412D02*
X9397324Y-9533984D01*
X9530658Y-9733984D02*
X9511610Y-9724460D01*
X9511610Y-9724460D02*
X9502086Y-9705412D01*
X9502086Y-9705412D02*
X9502086Y-9533984D01*
X9759229Y-9733984D02*
X9759229Y-9533984D01*
X9759229Y-9533984D02*
X9825896Y-9676841D01*
X9825896Y-9676841D02*
X9892563Y-9533984D01*
X9892563Y-9533984D02*
X9892563Y-9733984D01*
X10073515Y-9733984D02*
X10073515Y-9629222D01*
X10073515Y-9629222D02*
X10063991Y-9610174D01*
X10063991Y-9610174D02*
X10044944Y-9600650D01*
X10044944Y-9600650D02*
X10006848Y-9600650D01*
X10006848Y-9600650D02*
X9987801Y-9610174D01*
X10073515Y-9724460D02*
X10054467Y-9733984D01*
X10054467Y-9733984D02*
X10006848Y-9733984D01*
X10006848Y-9733984D02*
X9987801Y-9724460D01*
X9987801Y-9724460D02*
X9978277Y-9705412D01*
X9978277Y-9705412D02*
X9978277Y-9686365D01*
X9978277Y-9686365D02*
X9987801Y-9667317D01*
X9987801Y-9667317D02*
X10006848Y-9657793D01*
X10006848Y-9657793D02*
X10054467Y-9657793D01*
X10054467Y-9657793D02*
X10073515Y-9648270D01*
X10168753Y-9600650D02*
X10168753Y-9800650D01*
X10168753Y-9610174D02*
X10187801Y-9600650D01*
X10187801Y-9600650D02*
X10225896Y-9600650D01*
X10225896Y-9600650D02*
X10244944Y-9610174D01*
X10244944Y-9610174D02*
X10254467Y-9619698D01*
X10254467Y-9619698D02*
X10263991Y-9638746D01*
X10263991Y-9638746D02*
X10263991Y-9695889D01*
X10263991Y-9695889D02*
X10254467Y-9714936D01*
X10254467Y-9714936D02*
X10244944Y-9724460D01*
X10244944Y-9724460D02*
X10225896Y-9733984D01*
X10225896Y-9733984D02*
X10187801Y-9733984D01*
X10187801Y-9733984D02*
X10168753Y-9724460D01*
X10349705Y-9714936D02*
X10359229Y-9724460D01*
X10359229Y-9724460D02*
X10349705Y-9733984D01*
X10349705Y-9733984D02*
X10340182Y-9724460D01*
X10340182Y-9724460D02*
X10349705Y-9714936D01*
X10349705Y-9714936D02*
X10349705Y-9733984D01*
X10349705Y-9610174D02*
X10359229Y-9619698D01*
X10359229Y-9619698D02*
X10349705Y-9629222D01*
X10349705Y-9629222D02*
X10340182Y-9619698D01*
X10340182Y-9619698D02*
X10349705Y-9610174D01*
X10349705Y-9610174D02*
X10349705Y-9629222D01*
D12*
X8697500Y-10052500D02*
X8717500Y-10072500D01*
X8717500Y-10052500D02*
X8697500Y-10072500D01*
D11*
X9016372Y-9953984D02*
X9035420Y-9953984D01*
X9035420Y-9953984D02*
X9054467Y-9963508D01*
X9054467Y-9963508D02*
X9063991Y-9973031D01*
X9063991Y-9973031D02*
X9073515Y-9992079D01*
X9073515Y-9992079D02*
X9083039Y-10030174D01*
X9083039Y-10030174D02*
X9083039Y-10077793D01*
X9083039Y-10077793D02*
X9073515Y-10115889D01*
X9073515Y-10115889D02*
X9063991Y-10134936D01*
X9063991Y-10134936D02*
X9054467Y-10144460D01*
X9054467Y-10144460D02*
X9035420Y-10153984D01*
X9035420Y-10153984D02*
X9016372Y-10153984D01*
X9016372Y-10153984D02*
X8997324Y-10144460D01*
X8997324Y-10144460D02*
X8987801Y-10134936D01*
X8987801Y-10134936D02*
X8978277Y-10115889D01*
X8978277Y-10115889D02*
X8968753Y-10077793D01*
X8968753Y-10077793D02*
X8968753Y-10030174D01*
X8968753Y-10030174D02*
X8978277Y-9992079D01*
X8978277Y-9992079D02*
X8987801Y-9973031D01*
X8987801Y-9973031D02*
X8997324Y-9963508D01*
X8997324Y-9963508D02*
X9016372Y-9953984D01*
X9168753Y-10134936D02*
X9178277Y-10144460D01*
X9178277Y-10144460D02*
X9168753Y-10153984D01*
X9168753Y-10153984D02*
X9159229Y-10144460D01*
X9159229Y-10144460D02*
X9168753Y-10134936D01*
X9168753Y-10134936D02*
X9168753Y-10153984D01*
X9254467Y-9973031D02*
X9263991Y-9963508D01*
X9263991Y-9963508D02*
X9283039Y-9953984D01*
X9283039Y-9953984D02*
X9330658Y-9953984D01*
X9330658Y-9953984D02*
X9349705Y-9963508D01*
X9349705Y-9963508D02*
X9359229Y-9973031D01*
X9359229Y-9973031D02*
X9368753Y-9992079D01*
X9368753Y-9992079D02*
X9368753Y-10011127D01*
X9368753Y-10011127D02*
X9359229Y-10039698D01*
X9359229Y-10039698D02*
X9244944Y-10153984D01*
X9244944Y-10153984D02*
X9368753Y-10153984D01*
X9492563Y-9953984D02*
X9511610Y-9953984D01*
X9511610Y-9953984D02*
X9530658Y-9963508D01*
X9530658Y-9963508D02*
X9540182Y-9973031D01*
X9540182Y-9973031D02*
X9549705Y-9992079D01*
X9549705Y-9992079D02*
X9559229Y-10030174D01*
X9559229Y-10030174D02*
X9559229Y-10077793D01*
X9559229Y-10077793D02*
X9549705Y-10115889D01*
X9549705Y-10115889D02*
X9540182Y-10134936D01*
X9540182Y-10134936D02*
X9530658Y-10144460D01*
X9530658Y-10144460D02*
X9511610Y-10153984D01*
X9511610Y-10153984D02*
X9492563Y-10153984D01*
X9492563Y-10153984D02*
X9473515Y-10144460D01*
X9473515Y-10144460D02*
X9463991Y-10134936D01*
X9463991Y-10134936D02*
X9454467Y-10115889D01*
X9454467Y-10115889D02*
X9444944Y-10077793D01*
X9444944Y-10077793D02*
X9444944Y-10030174D01*
X9444944Y-10030174D02*
X9454467Y-9992079D01*
X9454467Y-9992079D02*
X9463991Y-9973031D01*
X9463991Y-9973031D02*
X9473515Y-9963508D01*
X9473515Y-9963508D02*
X9492563Y-9953984D01*
X9683039Y-9953984D02*
X9702086Y-9953984D01*
X9702086Y-9953984D02*
X9721134Y-9963508D01*
X9721134Y-9963508D02*
X9730658Y-9973031D01*
X9730658Y-9973031D02*
X9740182Y-9992079D01*
X9740182Y-9992079D02*
X9749705Y-10030174D01*
X9749705Y-10030174D02*
X9749705Y-10077793D01*
X9749705Y-10077793D02*
X9740182Y-10115889D01*
X9740182Y-10115889D02*
X9730658Y-10134936D01*
X9730658Y-10134936D02*
X9721134Y-10144460D01*
X9721134Y-10144460D02*
X9702086Y-10153984D01*
X9702086Y-10153984D02*
X9683039Y-10153984D01*
X9683039Y-10153984D02*
X9663991Y-10144460D01*
X9663991Y-10144460D02*
X9654467Y-10134936D01*
X9654467Y-10134936D02*
X9644944Y-10115889D01*
X9644944Y-10115889D02*
X9635420Y-10077793D01*
X9635420Y-10077793D02*
X9635420Y-10030174D01*
X9635420Y-10030174D02*
X9644944Y-9992079D01*
X9644944Y-9992079D02*
X9654467Y-9973031D01*
X9654467Y-9973031D02*
X9663991Y-9963508D01*
X9663991Y-9963508D02*
X9683039Y-9953984D01*
X9835420Y-10153984D02*
X9835420Y-10020650D01*
X9835420Y-10039698D02*
X9844944Y-10030174D01*
X9844944Y-10030174D02*
X9863991Y-10020650D01*
X9863991Y-10020650D02*
X9892563Y-10020650D01*
X9892563Y-10020650D02*
X9911610Y-10030174D01*
X9911610Y-10030174D02*
X9921134Y-10049222D01*
X9921134Y-10049222D02*
X9921134Y-10153984D01*
X9921134Y-10049222D02*
X9930658Y-10030174D01*
X9930658Y-10030174D02*
X9949705Y-10020650D01*
X9949705Y-10020650D02*
X9978277Y-10020650D01*
X9978277Y-10020650D02*
X9997325Y-10030174D01*
X9997325Y-10030174D02*
X10006848Y-10049222D01*
X10006848Y-10049222D02*
X10006848Y-10153984D01*
X10102086Y-10153984D02*
X10102086Y-10020650D01*
X10102086Y-10039698D02*
X10111610Y-10030174D01*
X10111610Y-10030174D02*
X10130658Y-10020650D01*
X10130658Y-10020650D02*
X10159229Y-10020650D01*
X10159229Y-10020650D02*
X10178277Y-10030174D01*
X10178277Y-10030174D02*
X10187801Y-10049222D01*
X10187801Y-10049222D02*
X10187801Y-10153984D01*
X10187801Y-10049222D02*
X10197325Y-10030174D01*
X10197325Y-10030174D02*
X10216372Y-10020650D01*
X10216372Y-10020650D02*
X10244944Y-10020650D01*
X10244944Y-10020650D02*
X10263991Y-10030174D01*
X10263991Y-10030174D02*
X10273515Y-10049222D01*
X10273515Y-10049222D02*
X10273515Y-10153984D01*
X10663991Y-9944460D02*
X10492563Y-10201603D01*
X10921134Y-9953984D02*
X10940182Y-9953984D01*
X10940182Y-9953984D02*
X10959229Y-9963508D01*
X10959229Y-9963508D02*
X10968753Y-9973031D01*
X10968753Y-9973031D02*
X10978277Y-9992079D01*
X10978277Y-9992079D02*
X10987801Y-10030174D01*
X10987801Y-10030174D02*
X10987801Y-10077793D01*
X10987801Y-10077793D02*
X10978277Y-10115889D01*
X10978277Y-10115889D02*
X10968753Y-10134936D01*
X10968753Y-10134936D02*
X10959229Y-10144460D01*
X10959229Y-10144460D02*
X10940182Y-10153984D01*
X10940182Y-10153984D02*
X10921134Y-10153984D01*
X10921134Y-10153984D02*
X10902087Y-10144460D01*
X10902087Y-10144460D02*
X10892563Y-10134936D01*
X10892563Y-10134936D02*
X10883039Y-10115889D01*
X10883039Y-10115889D02*
X10873515Y-10077793D01*
X10873515Y-10077793D02*
X10873515Y-10030174D01*
X10873515Y-10030174D02*
X10883039Y-9992079D01*
X10883039Y-9992079D02*
X10892563Y-9973031D01*
X10892563Y-9973031D02*
X10902087Y-9963508D01*
X10902087Y-9963508D02*
X10921134Y-9953984D01*
X11073515Y-10134936D02*
X11083039Y-10144460D01*
X11083039Y-10144460D02*
X11073515Y-10153984D01*
X11073515Y-10153984D02*
X11063991Y-10144460D01*
X11063991Y-10144460D02*
X11073515Y-10134936D01*
X11073515Y-10134936D02*
X11073515Y-10153984D01*
X11206848Y-9953984D02*
X11225896Y-9953984D01*
X11225896Y-9953984D02*
X11244944Y-9963508D01*
X11244944Y-9963508D02*
X11254467Y-9973031D01*
X11254467Y-9973031D02*
X11263991Y-9992079D01*
X11263991Y-9992079D02*
X11273515Y-10030174D01*
X11273515Y-10030174D02*
X11273515Y-10077793D01*
X11273515Y-10077793D02*
X11263991Y-10115889D01*
X11263991Y-10115889D02*
X11254467Y-10134936D01*
X11254467Y-10134936D02*
X11244944Y-10144460D01*
X11244944Y-10144460D02*
X11225896Y-10153984D01*
X11225896Y-10153984D02*
X11206848Y-10153984D01*
X11206848Y-10153984D02*
X11187801Y-10144460D01*
X11187801Y-10144460D02*
X11178277Y-10134936D01*
X11178277Y-10134936D02*
X11168753Y-10115889D01*
X11168753Y-10115889D02*
X11159229Y-10077793D01*
X11159229Y-10077793D02*
X11159229Y-10030174D01*
X11159229Y-10030174D02*
X11168753Y-9992079D01*
X11168753Y-9992079D02*
X11178277Y-9973031D01*
X11178277Y-9973031D02*
X11187801Y-9963508D01*
X11187801Y-9963508D02*
X11206848Y-9953984D01*
X11397325Y-9953984D02*
X11416372Y-9953984D01*
X11416372Y-9953984D02*
X11435420Y-9963508D01*
X11435420Y-9963508D02*
X11444944Y-9973031D01*
X11444944Y-9973031D02*
X11454467Y-9992079D01*
X11454467Y-9992079D02*
X11463991Y-10030174D01*
X11463991Y-10030174D02*
X11463991Y-10077793D01*
X11463991Y-10077793D02*
X11454467Y-10115889D01*
X11454467Y-10115889D02*
X11444944Y-10134936D01*
X11444944Y-10134936D02*
X11435420Y-10144460D01*
X11435420Y-10144460D02*
X11416372Y-10153984D01*
X11416372Y-10153984D02*
X11397325Y-10153984D01*
X11397325Y-10153984D02*
X11378277Y-10144460D01*
X11378277Y-10144460D02*
X11368753Y-10134936D01*
X11368753Y-10134936D02*
X11359229Y-10115889D01*
X11359229Y-10115889D02*
X11349706Y-10077793D01*
X11349706Y-10077793D02*
X11349706Y-10030174D01*
X11349706Y-10030174D02*
X11359229Y-9992079D01*
X11359229Y-9992079D02*
X11368753Y-9973031D01*
X11368753Y-9973031D02*
X11378277Y-9963508D01*
X11378277Y-9963508D02*
X11397325Y-9953984D01*
X11530658Y-9953984D02*
X11663991Y-9953984D01*
X11663991Y-9953984D02*
X11578277Y-10153984D01*
X11749706Y-10153984D02*
X11787801Y-10153984D01*
X11787801Y-10153984D02*
X11806848Y-10144460D01*
X11806848Y-10144460D02*
X11816372Y-10134936D01*
X11816372Y-10134936D02*
X11835420Y-10106365D01*
X11835420Y-10106365D02*
X11844944Y-10068270D01*
X11844944Y-10068270D02*
X11844944Y-9992079D01*
X11844944Y-9992079D02*
X11835420Y-9973031D01*
X11835420Y-9973031D02*
X11825896Y-9963508D01*
X11825896Y-9963508D02*
X11806848Y-9953984D01*
X11806848Y-9953984D02*
X11768753Y-9953984D01*
X11768753Y-9953984D02*
X11749706Y-9963508D01*
X11749706Y-9963508D02*
X11740182Y-9973031D01*
X11740182Y-9973031D02*
X11730658Y-9992079D01*
X11730658Y-9992079D02*
X11730658Y-10039698D01*
X11730658Y-10039698D02*
X11740182Y-10058746D01*
X11740182Y-10058746D02*
X11749706Y-10068270D01*
X11749706Y-10068270D02*
X11768753Y-10077793D01*
X11768753Y-10077793D02*
X11806848Y-10077793D01*
X11806848Y-10077793D02*
X11825896Y-10068270D01*
X11825896Y-10068270D02*
X11835420Y-10058746D01*
X11835420Y-10058746D02*
X11844944Y-10039698D01*
X11921134Y-9953984D02*
X11921134Y-9992079D01*
X11997325Y-9953984D02*
X11997325Y-9992079D01*
X12292563Y-10230174D02*
X12283039Y-10220650D01*
X12283039Y-10220650D02*
X12263991Y-10192079D01*
X12263991Y-10192079D02*
X12254468Y-10173031D01*
X12254468Y-10173031D02*
X12244944Y-10144460D01*
X12244944Y-10144460D02*
X12235420Y-10096841D01*
X12235420Y-10096841D02*
X12235420Y-10058746D01*
X12235420Y-10058746D02*
X12244944Y-10011127D01*
X12244944Y-10011127D02*
X12254468Y-9982555D01*
X12254468Y-9982555D02*
X12263991Y-9963508D01*
X12263991Y-9963508D02*
X12283039Y-9934936D01*
X12283039Y-9934936D02*
X12292563Y-9925412D01*
X12454468Y-9953984D02*
X12416372Y-9953984D01*
X12416372Y-9953984D02*
X12397325Y-9963508D01*
X12397325Y-9963508D02*
X12387801Y-9973031D01*
X12387801Y-9973031D02*
X12368753Y-10001603D01*
X12368753Y-10001603D02*
X12359229Y-10039698D01*
X12359229Y-10039698D02*
X12359229Y-10115889D01*
X12359229Y-10115889D02*
X12368753Y-10134936D01*
X12368753Y-10134936D02*
X12378277Y-10144460D01*
X12378277Y-10144460D02*
X12397325Y-10153984D01*
X12397325Y-10153984D02*
X12435420Y-10153984D01*
X12435420Y-10153984D02*
X12454468Y-10144460D01*
X12454468Y-10144460D02*
X12463991Y-10134936D01*
X12463991Y-10134936D02*
X12473515Y-10115889D01*
X12473515Y-10115889D02*
X12473515Y-10068270D01*
X12473515Y-10068270D02*
X12463991Y-10049222D01*
X12463991Y-10049222D02*
X12454468Y-10039698D01*
X12454468Y-10039698D02*
X12435420Y-10030174D01*
X12435420Y-10030174D02*
X12397325Y-10030174D01*
X12397325Y-10030174D02*
X12378277Y-10039698D01*
X12378277Y-10039698D02*
X12368753Y-10049222D01*
X12368753Y-10049222D02*
X12359229Y-10068270D01*
X12711610Y-10153984D02*
X12711610Y-9953984D01*
X12797325Y-10153984D02*
X12797325Y-10049222D01*
X12797325Y-10049222D02*
X12787801Y-10030174D01*
X12787801Y-10030174D02*
X12768753Y-10020650D01*
X12768753Y-10020650D02*
X12740182Y-10020650D01*
X12740182Y-10020650D02*
X12721134Y-10030174D01*
X12721134Y-10030174D02*
X12711610Y-10039698D01*
X12921134Y-10153984D02*
X12902087Y-10144460D01*
X12902087Y-10144460D02*
X12892563Y-10134936D01*
X12892563Y-10134936D02*
X12883039Y-10115889D01*
X12883039Y-10115889D02*
X12883039Y-10058746D01*
X12883039Y-10058746D02*
X12892563Y-10039698D01*
X12892563Y-10039698D02*
X12902087Y-10030174D01*
X12902087Y-10030174D02*
X12921134Y-10020650D01*
X12921134Y-10020650D02*
X12949706Y-10020650D01*
X12949706Y-10020650D02*
X12968753Y-10030174D01*
X12968753Y-10030174D02*
X12978277Y-10039698D01*
X12978277Y-10039698D02*
X12987801Y-10058746D01*
X12987801Y-10058746D02*
X12987801Y-10115889D01*
X12987801Y-10115889D02*
X12978277Y-10134936D01*
X12978277Y-10134936D02*
X12968753Y-10144460D01*
X12968753Y-10144460D02*
X12949706Y-10153984D01*
X12949706Y-10153984D02*
X12921134Y-10153984D01*
X13102087Y-10153984D02*
X13083039Y-10144460D01*
X13083039Y-10144460D02*
X13073515Y-10125412D01*
X13073515Y-10125412D02*
X13073515Y-9953984D01*
X13254468Y-10144460D02*
X13235420Y-10153984D01*
X13235420Y-10153984D02*
X13197325Y-10153984D01*
X13197325Y-10153984D02*
X13178277Y-10144460D01*
X13178277Y-10144460D02*
X13168753Y-10125412D01*
X13168753Y-10125412D02*
X13168753Y-10049222D01*
X13168753Y-10049222D02*
X13178277Y-10030174D01*
X13178277Y-10030174D02*
X13197325Y-10020650D01*
X13197325Y-10020650D02*
X13235420Y-10020650D01*
X13235420Y-10020650D02*
X13254468Y-10030174D01*
X13254468Y-10030174D02*
X13263991Y-10049222D01*
X13263991Y-10049222D02*
X13263991Y-10068270D01*
X13263991Y-10068270D02*
X13168753Y-10087317D01*
X13340182Y-10144460D02*
X13359230Y-10153984D01*
X13359230Y-10153984D02*
X13397325Y-10153984D01*
X13397325Y-10153984D02*
X13416372Y-10144460D01*
X13416372Y-10144460D02*
X13425896Y-10125412D01*
X13425896Y-10125412D02*
X13425896Y-10115889D01*
X13425896Y-10115889D02*
X13416372Y-10096841D01*
X13416372Y-10096841D02*
X13397325Y-10087317D01*
X13397325Y-10087317D02*
X13368753Y-10087317D01*
X13368753Y-10087317D02*
X13349706Y-10077793D01*
X13349706Y-10077793D02*
X13340182Y-10058746D01*
X13340182Y-10058746D02*
X13340182Y-10049222D01*
X13340182Y-10049222D02*
X13349706Y-10030174D01*
X13349706Y-10030174D02*
X13368753Y-10020650D01*
X13368753Y-10020650D02*
X13397325Y-10020650D01*
X13397325Y-10020650D02*
X13416372Y-10030174D01*
X13492563Y-10230174D02*
X13502087Y-10220650D01*
X13502087Y-10220650D02*
X13521134Y-10192079D01*
X13521134Y-10192079D02*
X13530658Y-10173031D01*
X13530658Y-10173031D02*
X13540182Y-10144460D01*
X13540182Y-10144460D02*
X13549706Y-10096841D01*
X13549706Y-10096841D02*
X13549706Y-10058746D01*
X13549706Y-10058746D02*
X13540182Y-10011127D01*
X13540182Y-10011127D02*
X13530658Y-9982555D01*
X13530658Y-9982555D02*
X13521134Y-9963508D01*
X13521134Y-9963508D02*
X13502087Y-9934936D01*
X13502087Y-9934936D02*
X13492563Y-9925412D01*
D12*
X8717500Y-10326500D02*
G75*
G02*
X8687500Y-10326500I-15000J0D01*
G01*
X8687500Y-10326500D02*
G75*
G02*
X8717500Y-10326500I15000J0D01*
G01*
D11*
X9016372Y-10217984D02*
X9035420Y-10217984D01*
X9035420Y-10217984D02*
X9054467Y-10227508D01*
X9054467Y-10227508D02*
X9063991Y-10237031D01*
X9063991Y-10237031D02*
X9073515Y-10256079D01*
X9073515Y-10256079D02*
X9083039Y-10294174D01*
X9083039Y-10294174D02*
X9083039Y-10341793D01*
X9083039Y-10341793D02*
X9073515Y-10379889D01*
X9073515Y-10379889D02*
X9063991Y-10398936D01*
X9063991Y-10398936D02*
X9054467Y-10408460D01*
X9054467Y-10408460D02*
X9035420Y-10417984D01*
X9035420Y-10417984D02*
X9016372Y-10417984D01*
X9016372Y-10417984D02*
X8997324Y-10408460D01*
X8997324Y-10408460D02*
X8987801Y-10398936D01*
X8987801Y-10398936D02*
X8978277Y-10379889D01*
X8978277Y-10379889D02*
X8968753Y-10341793D01*
X8968753Y-10341793D02*
X8968753Y-10294174D01*
X8968753Y-10294174D02*
X8978277Y-10256079D01*
X8978277Y-10256079D02*
X8987801Y-10237031D01*
X8987801Y-10237031D02*
X8997324Y-10227508D01*
X8997324Y-10227508D02*
X9016372Y-10217984D01*
X9168753Y-10398936D02*
X9178277Y-10408460D01*
X9178277Y-10408460D02*
X9168753Y-10417984D01*
X9168753Y-10417984D02*
X9159229Y-10408460D01*
X9159229Y-10408460D02*
X9168753Y-10398936D01*
X9168753Y-10398936D02*
X9168753Y-10417984D01*
X9244944Y-10217984D02*
X9368753Y-10217984D01*
X9368753Y-10217984D02*
X9302086Y-10294174D01*
X9302086Y-10294174D02*
X9330658Y-10294174D01*
X9330658Y-10294174D02*
X9349705Y-10303698D01*
X9349705Y-10303698D02*
X9359229Y-10313222D01*
X9359229Y-10313222D02*
X9368753Y-10332270D01*
X9368753Y-10332270D02*
X9368753Y-10379889D01*
X9368753Y-10379889D02*
X9359229Y-10398936D01*
X9359229Y-10398936D02*
X9349705Y-10408460D01*
X9349705Y-10408460D02*
X9330658Y-10417984D01*
X9330658Y-10417984D02*
X9273515Y-10417984D01*
X9273515Y-10417984D02*
X9254467Y-10408460D01*
X9254467Y-10408460D02*
X9244944Y-10398936D01*
X9492563Y-10217984D02*
X9511610Y-10217984D01*
X9511610Y-10217984D02*
X9530658Y-10227508D01*
X9530658Y-10227508D02*
X9540182Y-10237031D01*
X9540182Y-10237031D02*
X9549705Y-10256079D01*
X9549705Y-10256079D02*
X9559229Y-10294174D01*
X9559229Y-10294174D02*
X9559229Y-10341793D01*
X9559229Y-10341793D02*
X9549705Y-10379889D01*
X9549705Y-10379889D02*
X9540182Y-10398936D01*
X9540182Y-10398936D02*
X9530658Y-10408460D01*
X9530658Y-10408460D02*
X9511610Y-10417984D01*
X9511610Y-10417984D02*
X9492563Y-10417984D01*
X9492563Y-10417984D02*
X9473515Y-10408460D01*
X9473515Y-10408460D02*
X9463991Y-10398936D01*
X9463991Y-10398936D02*
X9454467Y-10379889D01*
X9454467Y-10379889D02*
X9444944Y-10341793D01*
X9444944Y-10341793D02*
X9444944Y-10294174D01*
X9444944Y-10294174D02*
X9454467Y-10256079D01*
X9454467Y-10256079D02*
X9463991Y-10237031D01*
X9463991Y-10237031D02*
X9473515Y-10227508D01*
X9473515Y-10227508D02*
X9492563Y-10217984D01*
X9683039Y-10217984D02*
X9702086Y-10217984D01*
X9702086Y-10217984D02*
X9721134Y-10227508D01*
X9721134Y-10227508D02*
X9730658Y-10237031D01*
X9730658Y-10237031D02*
X9740182Y-10256079D01*
X9740182Y-10256079D02*
X9749705Y-10294174D01*
X9749705Y-10294174D02*
X9749705Y-10341793D01*
X9749705Y-10341793D02*
X9740182Y-10379889D01*
X9740182Y-10379889D02*
X9730658Y-10398936D01*
X9730658Y-10398936D02*
X9721134Y-10408460D01*
X9721134Y-10408460D02*
X9702086Y-10417984D01*
X9702086Y-10417984D02*
X9683039Y-10417984D01*
X9683039Y-10417984D02*
X9663991Y-10408460D01*
X9663991Y-10408460D02*
X9654467Y-10398936D01*
X9654467Y-10398936D02*
X9644944Y-10379889D01*
X9644944Y-10379889D02*
X9635420Y-10341793D01*
X9635420Y-10341793D02*
X9635420Y-10294174D01*
X9635420Y-10294174D02*
X9644944Y-10256079D01*
X9644944Y-10256079D02*
X9654467Y-10237031D01*
X9654467Y-10237031D02*
X9663991Y-10227508D01*
X9663991Y-10227508D02*
X9683039Y-10217984D01*
X9835420Y-10417984D02*
X9835420Y-10284650D01*
X9835420Y-10303698D02*
X9844944Y-10294174D01*
X9844944Y-10294174D02*
X9863991Y-10284650D01*
X9863991Y-10284650D02*
X9892563Y-10284650D01*
X9892563Y-10284650D02*
X9911610Y-10294174D01*
X9911610Y-10294174D02*
X9921134Y-10313222D01*
X9921134Y-10313222D02*
X9921134Y-10417984D01*
X9921134Y-10313222D02*
X9930658Y-10294174D01*
X9930658Y-10294174D02*
X9949705Y-10284650D01*
X9949705Y-10284650D02*
X9978277Y-10284650D01*
X9978277Y-10284650D02*
X9997325Y-10294174D01*
X9997325Y-10294174D02*
X10006848Y-10313222D01*
X10006848Y-10313222D02*
X10006848Y-10417984D01*
X10102086Y-10417984D02*
X10102086Y-10284650D01*
X10102086Y-10303698D02*
X10111610Y-10294174D01*
X10111610Y-10294174D02*
X10130658Y-10284650D01*
X10130658Y-10284650D02*
X10159229Y-10284650D01*
X10159229Y-10284650D02*
X10178277Y-10294174D01*
X10178277Y-10294174D02*
X10187801Y-10313222D01*
X10187801Y-10313222D02*
X10187801Y-10417984D01*
X10187801Y-10313222D02*
X10197325Y-10294174D01*
X10197325Y-10294174D02*
X10216372Y-10284650D01*
X10216372Y-10284650D02*
X10244944Y-10284650D01*
X10244944Y-10284650D02*
X10263991Y-10294174D01*
X10263991Y-10294174D02*
X10273515Y-10313222D01*
X10273515Y-10313222D02*
X10273515Y-10417984D01*
X10663991Y-10208460D02*
X10492563Y-10465603D01*
X10921134Y-10217984D02*
X10940182Y-10217984D01*
X10940182Y-10217984D02*
X10959229Y-10227508D01*
X10959229Y-10227508D02*
X10968753Y-10237031D01*
X10968753Y-10237031D02*
X10978277Y-10256079D01*
X10978277Y-10256079D02*
X10987801Y-10294174D01*
X10987801Y-10294174D02*
X10987801Y-10341793D01*
X10987801Y-10341793D02*
X10978277Y-10379889D01*
X10978277Y-10379889D02*
X10968753Y-10398936D01*
X10968753Y-10398936D02*
X10959229Y-10408460D01*
X10959229Y-10408460D02*
X10940182Y-10417984D01*
X10940182Y-10417984D02*
X10921134Y-10417984D01*
X10921134Y-10417984D02*
X10902087Y-10408460D01*
X10902087Y-10408460D02*
X10892563Y-10398936D01*
X10892563Y-10398936D02*
X10883039Y-10379889D01*
X10883039Y-10379889D02*
X10873515Y-10341793D01*
X10873515Y-10341793D02*
X10873515Y-10294174D01*
X10873515Y-10294174D02*
X10883039Y-10256079D01*
X10883039Y-10256079D02*
X10892563Y-10237031D01*
X10892563Y-10237031D02*
X10902087Y-10227508D01*
X10902087Y-10227508D02*
X10921134Y-10217984D01*
X11073515Y-10398936D02*
X11083039Y-10408460D01*
X11083039Y-10408460D02*
X11073515Y-10417984D01*
X11073515Y-10417984D02*
X11063991Y-10408460D01*
X11063991Y-10408460D02*
X11073515Y-10398936D01*
X11073515Y-10398936D02*
X11073515Y-10417984D01*
X11206848Y-10217984D02*
X11225896Y-10217984D01*
X11225896Y-10217984D02*
X11244944Y-10227508D01*
X11244944Y-10227508D02*
X11254467Y-10237031D01*
X11254467Y-10237031D02*
X11263991Y-10256079D01*
X11263991Y-10256079D02*
X11273515Y-10294174D01*
X11273515Y-10294174D02*
X11273515Y-10341793D01*
X11273515Y-10341793D02*
X11263991Y-10379889D01*
X11263991Y-10379889D02*
X11254467Y-10398936D01*
X11254467Y-10398936D02*
X11244944Y-10408460D01*
X11244944Y-10408460D02*
X11225896Y-10417984D01*
X11225896Y-10417984D02*
X11206848Y-10417984D01*
X11206848Y-10417984D02*
X11187801Y-10408460D01*
X11187801Y-10408460D02*
X11178277Y-10398936D01*
X11178277Y-10398936D02*
X11168753Y-10379889D01*
X11168753Y-10379889D02*
X11159229Y-10341793D01*
X11159229Y-10341793D02*
X11159229Y-10294174D01*
X11159229Y-10294174D02*
X11168753Y-10256079D01*
X11168753Y-10256079D02*
X11178277Y-10237031D01*
X11178277Y-10237031D02*
X11187801Y-10227508D01*
X11187801Y-10227508D02*
X11206848Y-10217984D01*
X11463991Y-10417984D02*
X11349706Y-10417984D01*
X11406848Y-10417984D02*
X11406848Y-10217984D01*
X11406848Y-10217984D02*
X11387801Y-10246555D01*
X11387801Y-10246555D02*
X11368753Y-10265603D01*
X11368753Y-10265603D02*
X11349706Y-10275127D01*
X11654467Y-10417984D02*
X11540182Y-10417984D01*
X11597325Y-10417984D02*
X11597325Y-10217984D01*
X11597325Y-10217984D02*
X11578277Y-10246555D01*
X11578277Y-10246555D02*
X11559229Y-10265603D01*
X11559229Y-10265603D02*
X11540182Y-10275127D01*
X11768753Y-10303698D02*
X11749706Y-10294174D01*
X11749706Y-10294174D02*
X11740182Y-10284650D01*
X11740182Y-10284650D02*
X11730658Y-10265603D01*
X11730658Y-10265603D02*
X11730658Y-10256079D01*
X11730658Y-10256079D02*
X11740182Y-10237031D01*
X11740182Y-10237031D02*
X11749706Y-10227508D01*
X11749706Y-10227508D02*
X11768753Y-10217984D01*
X11768753Y-10217984D02*
X11806848Y-10217984D01*
X11806848Y-10217984D02*
X11825896Y-10227508D01*
X11825896Y-10227508D02*
X11835420Y-10237031D01*
X11835420Y-10237031D02*
X11844944Y-10256079D01*
X11844944Y-10256079D02*
X11844944Y-10265603D01*
X11844944Y-10265603D02*
X11835420Y-10284650D01*
X11835420Y-10284650D02*
X11825896Y-10294174D01*
X11825896Y-10294174D02*
X11806848Y-10303698D01*
X11806848Y-10303698D02*
X11768753Y-10303698D01*
X11768753Y-10303698D02*
X11749706Y-10313222D01*
X11749706Y-10313222D02*
X11740182Y-10322746D01*
X11740182Y-10322746D02*
X11730658Y-10341793D01*
X11730658Y-10341793D02*
X11730658Y-10379889D01*
X11730658Y-10379889D02*
X11740182Y-10398936D01*
X11740182Y-10398936D02*
X11749706Y-10408460D01*
X11749706Y-10408460D02*
X11768753Y-10417984D01*
X11768753Y-10417984D02*
X11806848Y-10417984D01*
X11806848Y-10417984D02*
X11825896Y-10408460D01*
X11825896Y-10408460D02*
X11835420Y-10398936D01*
X11835420Y-10398936D02*
X11844944Y-10379889D01*
X11844944Y-10379889D02*
X11844944Y-10341793D01*
X11844944Y-10341793D02*
X11835420Y-10322746D01*
X11835420Y-10322746D02*
X11825896Y-10313222D01*
X11825896Y-10313222D02*
X11806848Y-10303698D01*
X11921134Y-10217984D02*
X11921134Y-10256079D01*
X11997325Y-10217984D02*
X11997325Y-10256079D01*
X12292563Y-10494174D02*
X12283039Y-10484650D01*
X12283039Y-10484650D02*
X12263991Y-10456079D01*
X12263991Y-10456079D02*
X12254468Y-10437031D01*
X12254468Y-10437031D02*
X12244944Y-10408460D01*
X12244944Y-10408460D02*
X12235420Y-10360841D01*
X12235420Y-10360841D02*
X12235420Y-10322746D01*
X12235420Y-10322746D02*
X12244944Y-10275127D01*
X12244944Y-10275127D02*
X12254468Y-10246555D01*
X12254468Y-10246555D02*
X12263991Y-10227508D01*
X12263991Y-10227508D02*
X12283039Y-10198936D01*
X12283039Y-10198936D02*
X12292563Y-10189412D01*
X12349706Y-10217984D02*
X12473515Y-10217984D01*
X12473515Y-10217984D02*
X12406848Y-10294174D01*
X12406848Y-10294174D02*
X12435420Y-10294174D01*
X12435420Y-10294174D02*
X12454468Y-10303698D01*
X12454468Y-10303698D02*
X12463991Y-10313222D01*
X12463991Y-10313222D02*
X12473515Y-10332270D01*
X12473515Y-10332270D02*
X12473515Y-10379889D01*
X12473515Y-10379889D02*
X12463991Y-10398936D01*
X12463991Y-10398936D02*
X12454468Y-10408460D01*
X12454468Y-10408460D02*
X12435420Y-10417984D01*
X12435420Y-10417984D02*
X12378277Y-10417984D01*
X12378277Y-10417984D02*
X12359229Y-10408460D01*
X12359229Y-10408460D02*
X12349706Y-10398936D01*
X12654468Y-10217984D02*
X12559229Y-10217984D01*
X12559229Y-10217984D02*
X12549706Y-10313222D01*
X12549706Y-10313222D02*
X12559229Y-10303698D01*
X12559229Y-10303698D02*
X12578277Y-10294174D01*
X12578277Y-10294174D02*
X12625896Y-10294174D01*
X12625896Y-10294174D02*
X12644944Y-10303698D01*
X12644944Y-10303698D02*
X12654468Y-10313222D01*
X12654468Y-10313222D02*
X12663991Y-10332270D01*
X12663991Y-10332270D02*
X12663991Y-10379889D01*
X12663991Y-10379889D02*
X12654468Y-10398936D01*
X12654468Y-10398936D02*
X12644944Y-10408460D01*
X12644944Y-10408460D02*
X12625896Y-10417984D01*
X12625896Y-10417984D02*
X12578277Y-10417984D01*
X12578277Y-10417984D02*
X12559229Y-10408460D01*
X12559229Y-10408460D02*
X12549706Y-10398936D01*
X12902087Y-10417984D02*
X12902087Y-10217984D01*
X12987801Y-10417984D02*
X12987801Y-10313222D01*
X12987801Y-10313222D02*
X12978277Y-10294174D01*
X12978277Y-10294174D02*
X12959230Y-10284650D01*
X12959230Y-10284650D02*
X12930658Y-10284650D01*
X12930658Y-10284650D02*
X12911610Y-10294174D01*
X12911610Y-10294174D02*
X12902087Y-10303698D01*
X13111610Y-10417984D02*
X13092563Y-10408460D01*
X13092563Y-10408460D02*
X13083039Y-10398936D01*
X13083039Y-10398936D02*
X13073515Y-10379889D01*
X13073515Y-10379889D02*
X13073515Y-10322746D01*
X13073515Y-10322746D02*
X13083039Y-10303698D01*
X13083039Y-10303698D02*
X13092563Y-10294174D01*
X13092563Y-10294174D02*
X13111610Y-10284650D01*
X13111610Y-10284650D02*
X13140182Y-10284650D01*
X13140182Y-10284650D02*
X13159230Y-10294174D01*
X13159230Y-10294174D02*
X13168753Y-10303698D01*
X13168753Y-10303698D02*
X13178277Y-10322746D01*
X13178277Y-10322746D02*
X13178277Y-10379889D01*
X13178277Y-10379889D02*
X13168753Y-10398936D01*
X13168753Y-10398936D02*
X13159230Y-10408460D01*
X13159230Y-10408460D02*
X13140182Y-10417984D01*
X13140182Y-10417984D02*
X13111610Y-10417984D01*
X13292563Y-10417984D02*
X13273515Y-10408460D01*
X13273515Y-10408460D02*
X13263991Y-10389412D01*
X13263991Y-10389412D02*
X13263991Y-10217984D01*
X13444944Y-10408460D02*
X13425896Y-10417984D01*
X13425896Y-10417984D02*
X13387801Y-10417984D01*
X13387801Y-10417984D02*
X13368753Y-10408460D01*
X13368753Y-10408460D02*
X13359230Y-10389412D01*
X13359230Y-10389412D02*
X13359230Y-10313222D01*
X13359230Y-10313222D02*
X13368753Y-10294174D01*
X13368753Y-10294174D02*
X13387801Y-10284650D01*
X13387801Y-10284650D02*
X13425896Y-10284650D01*
X13425896Y-10284650D02*
X13444944Y-10294174D01*
X13444944Y-10294174D02*
X13454468Y-10313222D01*
X13454468Y-10313222D02*
X13454468Y-10332270D01*
X13454468Y-10332270D02*
X13359230Y-10351317D01*
X13530658Y-10408460D02*
X13549706Y-10417984D01*
X13549706Y-10417984D02*
X13587801Y-10417984D01*
X13587801Y-10417984D02*
X13606849Y-10408460D01*
X13606849Y-10408460D02*
X13616372Y-10389412D01*
X13616372Y-10389412D02*
X13616372Y-10379889D01*
X13616372Y-10379889D02*
X13606849Y-10360841D01*
X13606849Y-10360841D02*
X13587801Y-10351317D01*
X13587801Y-10351317D02*
X13559230Y-10351317D01*
X13559230Y-10351317D02*
X13540182Y-10341793D01*
X13540182Y-10341793D02*
X13530658Y-10322746D01*
X13530658Y-10322746D02*
X13530658Y-10313222D01*
X13530658Y-10313222D02*
X13540182Y-10294174D01*
X13540182Y-10294174D02*
X13559230Y-10284650D01*
X13559230Y-10284650D02*
X13587801Y-10284650D01*
X13587801Y-10284650D02*
X13606849Y-10294174D01*
X13683039Y-10494174D02*
X13692563Y-10484650D01*
X13692563Y-10484650D02*
X13711611Y-10456079D01*
X13711611Y-10456079D02*
X13721134Y-10437031D01*
X13721134Y-10437031D02*
X13730658Y-10408460D01*
X13730658Y-10408460D02*
X13740182Y-10360841D01*
X13740182Y-10360841D02*
X13740182Y-10322746D01*
X13740182Y-10322746D02*
X13730658Y-10275127D01*
X13730658Y-10275127D02*
X13721134Y-10246555D01*
X13721134Y-10246555D02*
X13711611Y-10227508D01*
X13711611Y-10227508D02*
X13692563Y-10198936D01*
X13692563Y-10198936D02*
X13683039Y-10189412D01*
D12*
X8680000Y-10553000D02*
X8680000Y-10628000D01*
X8642500Y-10590500D02*
X8717500Y-10590500D01*
D11*
X9016372Y-10481984D02*
X9035420Y-10481984D01*
X9035420Y-10481984D02*
X9054467Y-10491508D01*
X9054467Y-10491508D02*
X9063991Y-10501031D01*
X9063991Y-10501031D02*
X9073515Y-10520079D01*
X9073515Y-10520079D02*
X9083039Y-10558174D01*
X9083039Y-10558174D02*
X9083039Y-10605793D01*
X9083039Y-10605793D02*
X9073515Y-10643889D01*
X9073515Y-10643889D02*
X9063991Y-10662936D01*
X9063991Y-10662936D02*
X9054467Y-10672460D01*
X9054467Y-10672460D02*
X9035420Y-10681984D01*
X9035420Y-10681984D02*
X9016372Y-10681984D01*
X9016372Y-10681984D02*
X8997324Y-10672460D01*
X8997324Y-10672460D02*
X8987801Y-10662936D01*
X8987801Y-10662936D02*
X8978277Y-10643889D01*
X8978277Y-10643889D02*
X8968753Y-10605793D01*
X8968753Y-10605793D02*
X8968753Y-10558174D01*
X8968753Y-10558174D02*
X8978277Y-10520079D01*
X8978277Y-10520079D02*
X8987801Y-10501031D01*
X8987801Y-10501031D02*
X8997324Y-10491508D01*
X8997324Y-10491508D02*
X9016372Y-10481984D01*
X9168753Y-10662936D02*
X9178277Y-10672460D01*
X9178277Y-10672460D02*
X9168753Y-10681984D01*
X9168753Y-10681984D02*
X9159229Y-10672460D01*
X9159229Y-10672460D02*
X9168753Y-10662936D01*
X9168753Y-10662936D02*
X9168753Y-10681984D01*
X9244944Y-10481984D02*
X9378277Y-10481984D01*
X9378277Y-10481984D02*
X9292563Y-10681984D01*
X9549705Y-10481984D02*
X9454467Y-10481984D01*
X9454467Y-10481984D02*
X9444944Y-10577222D01*
X9444944Y-10577222D02*
X9454467Y-10567698D01*
X9454467Y-10567698D02*
X9473515Y-10558174D01*
X9473515Y-10558174D02*
X9521134Y-10558174D01*
X9521134Y-10558174D02*
X9540182Y-10567698D01*
X9540182Y-10567698D02*
X9549705Y-10577222D01*
X9549705Y-10577222D02*
X9559229Y-10596270D01*
X9559229Y-10596270D02*
X9559229Y-10643889D01*
X9559229Y-10643889D02*
X9549705Y-10662936D01*
X9549705Y-10662936D02*
X9540182Y-10672460D01*
X9540182Y-10672460D02*
X9521134Y-10681984D01*
X9521134Y-10681984D02*
X9473515Y-10681984D01*
X9473515Y-10681984D02*
X9454467Y-10672460D01*
X9454467Y-10672460D02*
X9444944Y-10662936D01*
X9683039Y-10481984D02*
X9702086Y-10481984D01*
X9702086Y-10481984D02*
X9721134Y-10491508D01*
X9721134Y-10491508D02*
X9730658Y-10501031D01*
X9730658Y-10501031D02*
X9740182Y-10520079D01*
X9740182Y-10520079D02*
X9749705Y-10558174D01*
X9749705Y-10558174D02*
X9749705Y-10605793D01*
X9749705Y-10605793D02*
X9740182Y-10643889D01*
X9740182Y-10643889D02*
X9730658Y-10662936D01*
X9730658Y-10662936D02*
X9721134Y-10672460D01*
X9721134Y-10672460D02*
X9702086Y-10681984D01*
X9702086Y-10681984D02*
X9683039Y-10681984D01*
X9683039Y-10681984D02*
X9663991Y-10672460D01*
X9663991Y-10672460D02*
X9654467Y-10662936D01*
X9654467Y-10662936D02*
X9644944Y-10643889D01*
X9644944Y-10643889D02*
X9635420Y-10605793D01*
X9635420Y-10605793D02*
X9635420Y-10558174D01*
X9635420Y-10558174D02*
X9644944Y-10520079D01*
X9644944Y-10520079D02*
X9654467Y-10501031D01*
X9654467Y-10501031D02*
X9663991Y-10491508D01*
X9663991Y-10491508D02*
X9683039Y-10481984D01*
X9835420Y-10681984D02*
X9835420Y-10548650D01*
X9835420Y-10567698D02*
X9844944Y-10558174D01*
X9844944Y-10558174D02*
X9863991Y-10548650D01*
X9863991Y-10548650D02*
X9892563Y-10548650D01*
X9892563Y-10548650D02*
X9911610Y-10558174D01*
X9911610Y-10558174D02*
X9921134Y-10577222D01*
X9921134Y-10577222D02*
X9921134Y-10681984D01*
X9921134Y-10577222D02*
X9930658Y-10558174D01*
X9930658Y-10558174D02*
X9949705Y-10548650D01*
X9949705Y-10548650D02*
X9978277Y-10548650D01*
X9978277Y-10548650D02*
X9997325Y-10558174D01*
X9997325Y-10558174D02*
X10006848Y-10577222D01*
X10006848Y-10577222D02*
X10006848Y-10681984D01*
X10102086Y-10681984D02*
X10102086Y-10548650D01*
X10102086Y-10567698D02*
X10111610Y-10558174D01*
X10111610Y-10558174D02*
X10130658Y-10548650D01*
X10130658Y-10548650D02*
X10159229Y-10548650D01*
X10159229Y-10548650D02*
X10178277Y-10558174D01*
X10178277Y-10558174D02*
X10187801Y-10577222D01*
X10187801Y-10577222D02*
X10187801Y-10681984D01*
X10187801Y-10577222D02*
X10197325Y-10558174D01*
X10197325Y-10558174D02*
X10216372Y-10548650D01*
X10216372Y-10548650D02*
X10244944Y-10548650D01*
X10244944Y-10548650D02*
X10263991Y-10558174D01*
X10263991Y-10558174D02*
X10273515Y-10577222D01*
X10273515Y-10577222D02*
X10273515Y-10681984D01*
X10663991Y-10472460D02*
X10492563Y-10729603D01*
X10921134Y-10481984D02*
X10940182Y-10481984D01*
X10940182Y-10481984D02*
X10959229Y-10491508D01*
X10959229Y-10491508D02*
X10968753Y-10501031D01*
X10968753Y-10501031D02*
X10978277Y-10520079D01*
X10978277Y-10520079D02*
X10987801Y-10558174D01*
X10987801Y-10558174D02*
X10987801Y-10605793D01*
X10987801Y-10605793D02*
X10978277Y-10643889D01*
X10978277Y-10643889D02*
X10968753Y-10662936D01*
X10968753Y-10662936D02*
X10959229Y-10672460D01*
X10959229Y-10672460D02*
X10940182Y-10681984D01*
X10940182Y-10681984D02*
X10921134Y-10681984D01*
X10921134Y-10681984D02*
X10902087Y-10672460D01*
X10902087Y-10672460D02*
X10892563Y-10662936D01*
X10892563Y-10662936D02*
X10883039Y-10643889D01*
X10883039Y-10643889D02*
X10873515Y-10605793D01*
X10873515Y-10605793D02*
X10873515Y-10558174D01*
X10873515Y-10558174D02*
X10883039Y-10520079D01*
X10883039Y-10520079D02*
X10892563Y-10501031D01*
X10892563Y-10501031D02*
X10902087Y-10491508D01*
X10902087Y-10491508D02*
X10921134Y-10481984D01*
X11073515Y-10662936D02*
X11083039Y-10672460D01*
X11083039Y-10672460D02*
X11073515Y-10681984D01*
X11073515Y-10681984D02*
X11063991Y-10672460D01*
X11063991Y-10672460D02*
X11073515Y-10662936D01*
X11073515Y-10662936D02*
X11073515Y-10681984D01*
X11206848Y-10481984D02*
X11225896Y-10481984D01*
X11225896Y-10481984D02*
X11244944Y-10491508D01*
X11244944Y-10491508D02*
X11254467Y-10501031D01*
X11254467Y-10501031D02*
X11263991Y-10520079D01*
X11263991Y-10520079D02*
X11273515Y-10558174D01*
X11273515Y-10558174D02*
X11273515Y-10605793D01*
X11273515Y-10605793D02*
X11263991Y-10643889D01*
X11263991Y-10643889D02*
X11254467Y-10662936D01*
X11254467Y-10662936D02*
X11244944Y-10672460D01*
X11244944Y-10672460D02*
X11225896Y-10681984D01*
X11225896Y-10681984D02*
X11206848Y-10681984D01*
X11206848Y-10681984D02*
X11187801Y-10672460D01*
X11187801Y-10672460D02*
X11178277Y-10662936D01*
X11178277Y-10662936D02*
X11168753Y-10643889D01*
X11168753Y-10643889D02*
X11159229Y-10605793D01*
X11159229Y-10605793D02*
X11159229Y-10558174D01*
X11159229Y-10558174D02*
X11168753Y-10520079D01*
X11168753Y-10520079D02*
X11178277Y-10501031D01*
X11178277Y-10501031D02*
X11187801Y-10491508D01*
X11187801Y-10491508D02*
X11206848Y-10481984D01*
X11349706Y-10501031D02*
X11359229Y-10491508D01*
X11359229Y-10491508D02*
X11378277Y-10481984D01*
X11378277Y-10481984D02*
X11425896Y-10481984D01*
X11425896Y-10481984D02*
X11444944Y-10491508D01*
X11444944Y-10491508D02*
X11454467Y-10501031D01*
X11454467Y-10501031D02*
X11463991Y-10520079D01*
X11463991Y-10520079D02*
X11463991Y-10539127D01*
X11463991Y-10539127D02*
X11454467Y-10567698D01*
X11454467Y-10567698D02*
X11340182Y-10681984D01*
X11340182Y-10681984D02*
X11463991Y-10681984D01*
X11559229Y-10681984D02*
X11597325Y-10681984D01*
X11597325Y-10681984D02*
X11616372Y-10672460D01*
X11616372Y-10672460D02*
X11625896Y-10662936D01*
X11625896Y-10662936D02*
X11644944Y-10634365D01*
X11644944Y-10634365D02*
X11654467Y-10596270D01*
X11654467Y-10596270D02*
X11654467Y-10520079D01*
X11654467Y-10520079D02*
X11644944Y-10501031D01*
X11644944Y-10501031D02*
X11635420Y-10491508D01*
X11635420Y-10491508D02*
X11616372Y-10481984D01*
X11616372Y-10481984D02*
X11578277Y-10481984D01*
X11578277Y-10481984D02*
X11559229Y-10491508D01*
X11559229Y-10491508D02*
X11549706Y-10501031D01*
X11549706Y-10501031D02*
X11540182Y-10520079D01*
X11540182Y-10520079D02*
X11540182Y-10567698D01*
X11540182Y-10567698D02*
X11549706Y-10586746D01*
X11549706Y-10586746D02*
X11559229Y-10596270D01*
X11559229Y-10596270D02*
X11578277Y-10605793D01*
X11578277Y-10605793D02*
X11616372Y-10605793D01*
X11616372Y-10605793D02*
X11635420Y-10596270D01*
X11635420Y-10596270D02*
X11644944Y-10586746D01*
X11644944Y-10586746D02*
X11654467Y-10567698D01*
X11835420Y-10481984D02*
X11740182Y-10481984D01*
X11740182Y-10481984D02*
X11730658Y-10577222D01*
X11730658Y-10577222D02*
X11740182Y-10567698D01*
X11740182Y-10567698D02*
X11759229Y-10558174D01*
X11759229Y-10558174D02*
X11806848Y-10558174D01*
X11806848Y-10558174D02*
X11825896Y-10567698D01*
X11825896Y-10567698D02*
X11835420Y-10577222D01*
X11835420Y-10577222D02*
X11844944Y-10596270D01*
X11844944Y-10596270D02*
X11844944Y-10643889D01*
X11844944Y-10643889D02*
X11835420Y-10662936D01*
X11835420Y-10662936D02*
X11825896Y-10672460D01*
X11825896Y-10672460D02*
X11806848Y-10681984D01*
X11806848Y-10681984D02*
X11759229Y-10681984D01*
X11759229Y-10681984D02*
X11740182Y-10672460D01*
X11740182Y-10672460D02*
X11730658Y-10662936D01*
X11921134Y-10481984D02*
X11921134Y-10520079D01*
X11997325Y-10481984D02*
X11997325Y-10520079D01*
X12292563Y-10758174D02*
X12283039Y-10748650D01*
X12283039Y-10748650D02*
X12263991Y-10720079D01*
X12263991Y-10720079D02*
X12254468Y-10701031D01*
X12254468Y-10701031D02*
X12244944Y-10672460D01*
X12244944Y-10672460D02*
X12235420Y-10624841D01*
X12235420Y-10624841D02*
X12235420Y-10586746D01*
X12235420Y-10586746D02*
X12244944Y-10539127D01*
X12244944Y-10539127D02*
X12254468Y-10510555D01*
X12254468Y-10510555D02*
X12263991Y-10491508D01*
X12263991Y-10491508D02*
X12283039Y-10462936D01*
X12283039Y-10462936D02*
X12292563Y-10453412D01*
X12359229Y-10501031D02*
X12368753Y-10491508D01*
X12368753Y-10491508D02*
X12387801Y-10481984D01*
X12387801Y-10481984D02*
X12435420Y-10481984D01*
X12435420Y-10481984D02*
X12454468Y-10491508D01*
X12454468Y-10491508D02*
X12463991Y-10501031D01*
X12463991Y-10501031D02*
X12473515Y-10520079D01*
X12473515Y-10520079D02*
X12473515Y-10539127D01*
X12473515Y-10539127D02*
X12463991Y-10567698D01*
X12463991Y-10567698D02*
X12349706Y-10681984D01*
X12349706Y-10681984D02*
X12473515Y-10681984D01*
X12711610Y-10681984D02*
X12711610Y-10481984D01*
X12797325Y-10681984D02*
X12797325Y-10577222D01*
X12797325Y-10577222D02*
X12787801Y-10558174D01*
X12787801Y-10558174D02*
X12768753Y-10548650D01*
X12768753Y-10548650D02*
X12740182Y-10548650D01*
X12740182Y-10548650D02*
X12721134Y-10558174D01*
X12721134Y-10558174D02*
X12711610Y-10567698D01*
X12921134Y-10681984D02*
X12902087Y-10672460D01*
X12902087Y-10672460D02*
X12892563Y-10662936D01*
X12892563Y-10662936D02*
X12883039Y-10643889D01*
X12883039Y-10643889D02*
X12883039Y-10586746D01*
X12883039Y-10586746D02*
X12892563Y-10567698D01*
X12892563Y-10567698D02*
X12902087Y-10558174D01*
X12902087Y-10558174D02*
X12921134Y-10548650D01*
X12921134Y-10548650D02*
X12949706Y-10548650D01*
X12949706Y-10548650D02*
X12968753Y-10558174D01*
X12968753Y-10558174D02*
X12978277Y-10567698D01*
X12978277Y-10567698D02*
X12987801Y-10586746D01*
X12987801Y-10586746D02*
X12987801Y-10643889D01*
X12987801Y-10643889D02*
X12978277Y-10662936D01*
X12978277Y-10662936D02*
X12968753Y-10672460D01*
X12968753Y-10672460D02*
X12949706Y-10681984D01*
X12949706Y-10681984D02*
X12921134Y-10681984D01*
X13102087Y-10681984D02*
X13083039Y-10672460D01*
X13083039Y-10672460D02*
X13073515Y-10653412D01*
X13073515Y-10653412D02*
X13073515Y-10481984D01*
X13254468Y-10672460D02*
X13235420Y-10681984D01*
X13235420Y-10681984D02*
X13197325Y-10681984D01*
X13197325Y-10681984D02*
X13178277Y-10672460D01*
X13178277Y-10672460D02*
X13168753Y-10653412D01*
X13168753Y-10653412D02*
X13168753Y-10577222D01*
X13168753Y-10577222D02*
X13178277Y-10558174D01*
X13178277Y-10558174D02*
X13197325Y-10548650D01*
X13197325Y-10548650D02*
X13235420Y-10548650D01*
X13235420Y-10548650D02*
X13254468Y-10558174D01*
X13254468Y-10558174D02*
X13263991Y-10577222D01*
X13263991Y-10577222D02*
X13263991Y-10596270D01*
X13263991Y-10596270D02*
X13168753Y-10615317D01*
X13340182Y-10672460D02*
X13359230Y-10681984D01*
X13359230Y-10681984D02*
X13397325Y-10681984D01*
X13397325Y-10681984D02*
X13416372Y-10672460D01*
X13416372Y-10672460D02*
X13425896Y-10653412D01*
X13425896Y-10653412D02*
X13425896Y-10643889D01*
X13425896Y-10643889D02*
X13416372Y-10624841D01*
X13416372Y-10624841D02*
X13397325Y-10615317D01*
X13397325Y-10615317D02*
X13368753Y-10615317D01*
X13368753Y-10615317D02*
X13349706Y-10605793D01*
X13349706Y-10605793D02*
X13340182Y-10586746D01*
X13340182Y-10586746D02*
X13340182Y-10577222D01*
X13340182Y-10577222D02*
X13349706Y-10558174D01*
X13349706Y-10558174D02*
X13368753Y-10548650D01*
X13368753Y-10548650D02*
X13397325Y-10548650D01*
X13397325Y-10548650D02*
X13416372Y-10558174D01*
X13492563Y-10758174D02*
X13502087Y-10748650D01*
X13502087Y-10748650D02*
X13521134Y-10720079D01*
X13521134Y-10720079D02*
X13530658Y-10701031D01*
X13530658Y-10701031D02*
X13540182Y-10672460D01*
X13540182Y-10672460D02*
X13549706Y-10624841D01*
X13549706Y-10624841D02*
X13549706Y-10586746D01*
X13549706Y-10586746D02*
X13540182Y-10539127D01*
X13540182Y-10539127D02*
X13530658Y-10510555D01*
X13530658Y-10510555D02*
X13521134Y-10491508D01*
X13521134Y-10491508D02*
X13502087Y-10462936D01*
X13502087Y-10462936D02*
X13492563Y-10453412D01*
D12*
X8702856Y-10889856D02*
X8702856Y-10819144D01*
X8632144Y-10819144D01*
X8632144Y-10889856D01*
X8702856Y-10889856D01*
D11*
X9083039Y-10945984D02*
X8968753Y-10945984D01*
X9025896Y-10945984D02*
X9025896Y-10745984D01*
X9025896Y-10745984D02*
X9006848Y-10774555D01*
X9006848Y-10774555D02*
X8987801Y-10793603D01*
X8987801Y-10793603D02*
X8968753Y-10803127D01*
X9168753Y-10926936D02*
X9178277Y-10936460D01*
X9178277Y-10936460D02*
X9168753Y-10945984D01*
X9168753Y-10945984D02*
X9159229Y-10936460D01*
X9159229Y-10936460D02*
X9168753Y-10926936D01*
X9168753Y-10926936D02*
X9168753Y-10945984D01*
X9302086Y-10745984D02*
X9321134Y-10745984D01*
X9321134Y-10745984D02*
X9340182Y-10755508D01*
X9340182Y-10755508D02*
X9349705Y-10765031D01*
X9349705Y-10765031D02*
X9359229Y-10784079D01*
X9359229Y-10784079D02*
X9368753Y-10822174D01*
X9368753Y-10822174D02*
X9368753Y-10869793D01*
X9368753Y-10869793D02*
X9359229Y-10907889D01*
X9359229Y-10907889D02*
X9349705Y-10926936D01*
X9349705Y-10926936D02*
X9340182Y-10936460D01*
X9340182Y-10936460D02*
X9321134Y-10945984D01*
X9321134Y-10945984D02*
X9302086Y-10945984D01*
X9302086Y-10945984D02*
X9283039Y-10936460D01*
X9283039Y-10936460D02*
X9273515Y-10926936D01*
X9273515Y-10926936D02*
X9263991Y-10907889D01*
X9263991Y-10907889D02*
X9254467Y-10869793D01*
X9254467Y-10869793D02*
X9254467Y-10822174D01*
X9254467Y-10822174D02*
X9263991Y-10784079D01*
X9263991Y-10784079D02*
X9273515Y-10765031D01*
X9273515Y-10765031D02*
X9283039Y-10755508D01*
X9283039Y-10755508D02*
X9302086Y-10745984D01*
X9492563Y-10745984D02*
X9511610Y-10745984D01*
X9511610Y-10745984D02*
X9530658Y-10755508D01*
X9530658Y-10755508D02*
X9540182Y-10765031D01*
X9540182Y-10765031D02*
X9549705Y-10784079D01*
X9549705Y-10784079D02*
X9559229Y-10822174D01*
X9559229Y-10822174D02*
X9559229Y-10869793D01*
X9559229Y-10869793D02*
X9549705Y-10907889D01*
X9549705Y-10907889D02*
X9540182Y-10926936D01*
X9540182Y-10926936D02*
X9530658Y-10936460D01*
X9530658Y-10936460D02*
X9511610Y-10945984D01*
X9511610Y-10945984D02*
X9492563Y-10945984D01*
X9492563Y-10945984D02*
X9473515Y-10936460D01*
X9473515Y-10936460D02*
X9463991Y-10926936D01*
X9463991Y-10926936D02*
X9454467Y-10907889D01*
X9454467Y-10907889D02*
X9444944Y-10869793D01*
X9444944Y-10869793D02*
X9444944Y-10822174D01*
X9444944Y-10822174D02*
X9454467Y-10784079D01*
X9454467Y-10784079D02*
X9463991Y-10765031D01*
X9463991Y-10765031D02*
X9473515Y-10755508D01*
X9473515Y-10755508D02*
X9492563Y-10745984D01*
X9683039Y-10745984D02*
X9702086Y-10745984D01*
X9702086Y-10745984D02*
X9721134Y-10755508D01*
X9721134Y-10755508D02*
X9730658Y-10765031D01*
X9730658Y-10765031D02*
X9740182Y-10784079D01*
X9740182Y-10784079D02*
X9749705Y-10822174D01*
X9749705Y-10822174D02*
X9749705Y-10869793D01*
X9749705Y-10869793D02*
X9740182Y-10907889D01*
X9740182Y-10907889D02*
X9730658Y-10926936D01*
X9730658Y-10926936D02*
X9721134Y-10936460D01*
X9721134Y-10936460D02*
X9702086Y-10945984D01*
X9702086Y-10945984D02*
X9683039Y-10945984D01*
X9683039Y-10945984D02*
X9663991Y-10936460D01*
X9663991Y-10936460D02*
X9654467Y-10926936D01*
X9654467Y-10926936D02*
X9644944Y-10907889D01*
X9644944Y-10907889D02*
X9635420Y-10869793D01*
X9635420Y-10869793D02*
X9635420Y-10822174D01*
X9635420Y-10822174D02*
X9644944Y-10784079D01*
X9644944Y-10784079D02*
X9654467Y-10765031D01*
X9654467Y-10765031D02*
X9663991Y-10755508D01*
X9663991Y-10755508D02*
X9683039Y-10745984D01*
X9835420Y-10945984D02*
X9835420Y-10812650D01*
X9835420Y-10831698D02*
X9844944Y-10822174D01*
X9844944Y-10822174D02*
X9863991Y-10812650D01*
X9863991Y-10812650D02*
X9892563Y-10812650D01*
X9892563Y-10812650D02*
X9911610Y-10822174D01*
X9911610Y-10822174D02*
X9921134Y-10841222D01*
X9921134Y-10841222D02*
X9921134Y-10945984D01*
X9921134Y-10841222D02*
X9930658Y-10822174D01*
X9930658Y-10822174D02*
X9949705Y-10812650D01*
X9949705Y-10812650D02*
X9978277Y-10812650D01*
X9978277Y-10812650D02*
X9997325Y-10822174D01*
X9997325Y-10822174D02*
X10006848Y-10841222D01*
X10006848Y-10841222D02*
X10006848Y-10945984D01*
X10102086Y-10945984D02*
X10102086Y-10812650D01*
X10102086Y-10831698D02*
X10111610Y-10822174D01*
X10111610Y-10822174D02*
X10130658Y-10812650D01*
X10130658Y-10812650D02*
X10159229Y-10812650D01*
X10159229Y-10812650D02*
X10178277Y-10822174D01*
X10178277Y-10822174D02*
X10187801Y-10841222D01*
X10187801Y-10841222D02*
X10187801Y-10945984D01*
X10187801Y-10841222D02*
X10197325Y-10822174D01*
X10197325Y-10822174D02*
X10216372Y-10812650D01*
X10216372Y-10812650D02*
X10244944Y-10812650D01*
X10244944Y-10812650D02*
X10263991Y-10822174D01*
X10263991Y-10822174D02*
X10273515Y-10841222D01*
X10273515Y-10841222D02*
X10273515Y-10945984D01*
X10663991Y-10736460D02*
X10492563Y-10993603D01*
X10921134Y-10745984D02*
X10940182Y-10745984D01*
X10940182Y-10745984D02*
X10959229Y-10755508D01*
X10959229Y-10755508D02*
X10968753Y-10765031D01*
X10968753Y-10765031D02*
X10978277Y-10784079D01*
X10978277Y-10784079D02*
X10987801Y-10822174D01*
X10987801Y-10822174D02*
X10987801Y-10869793D01*
X10987801Y-10869793D02*
X10978277Y-10907889D01*
X10978277Y-10907889D02*
X10968753Y-10926936D01*
X10968753Y-10926936D02*
X10959229Y-10936460D01*
X10959229Y-10936460D02*
X10940182Y-10945984D01*
X10940182Y-10945984D02*
X10921134Y-10945984D01*
X10921134Y-10945984D02*
X10902087Y-10936460D01*
X10902087Y-10936460D02*
X10892563Y-10926936D01*
X10892563Y-10926936D02*
X10883039Y-10907889D01*
X10883039Y-10907889D02*
X10873515Y-10869793D01*
X10873515Y-10869793D02*
X10873515Y-10822174D01*
X10873515Y-10822174D02*
X10883039Y-10784079D01*
X10883039Y-10784079D02*
X10892563Y-10765031D01*
X10892563Y-10765031D02*
X10902087Y-10755508D01*
X10902087Y-10755508D02*
X10921134Y-10745984D01*
X11073515Y-10926936D02*
X11083039Y-10936460D01*
X11083039Y-10936460D02*
X11073515Y-10945984D01*
X11073515Y-10945984D02*
X11063991Y-10936460D01*
X11063991Y-10936460D02*
X11073515Y-10926936D01*
X11073515Y-10926936D02*
X11073515Y-10945984D01*
X11206848Y-10745984D02*
X11225896Y-10745984D01*
X11225896Y-10745984D02*
X11244944Y-10755508D01*
X11244944Y-10755508D02*
X11254467Y-10765031D01*
X11254467Y-10765031D02*
X11263991Y-10784079D01*
X11263991Y-10784079D02*
X11273515Y-10822174D01*
X11273515Y-10822174D02*
X11273515Y-10869793D01*
X11273515Y-10869793D02*
X11263991Y-10907889D01*
X11263991Y-10907889D02*
X11254467Y-10926936D01*
X11254467Y-10926936D02*
X11244944Y-10936460D01*
X11244944Y-10936460D02*
X11225896Y-10945984D01*
X11225896Y-10945984D02*
X11206848Y-10945984D01*
X11206848Y-10945984D02*
X11187801Y-10936460D01*
X11187801Y-10936460D02*
X11178277Y-10926936D01*
X11178277Y-10926936D02*
X11168753Y-10907889D01*
X11168753Y-10907889D02*
X11159229Y-10869793D01*
X11159229Y-10869793D02*
X11159229Y-10822174D01*
X11159229Y-10822174D02*
X11168753Y-10784079D01*
X11168753Y-10784079D02*
X11178277Y-10765031D01*
X11178277Y-10765031D02*
X11187801Y-10755508D01*
X11187801Y-10755508D02*
X11206848Y-10745984D01*
X11340182Y-10745984D02*
X11463991Y-10745984D01*
X11463991Y-10745984D02*
X11397325Y-10822174D01*
X11397325Y-10822174D02*
X11425896Y-10822174D01*
X11425896Y-10822174D02*
X11444944Y-10831698D01*
X11444944Y-10831698D02*
X11454467Y-10841222D01*
X11454467Y-10841222D02*
X11463991Y-10860270D01*
X11463991Y-10860270D02*
X11463991Y-10907889D01*
X11463991Y-10907889D02*
X11454467Y-10926936D01*
X11454467Y-10926936D02*
X11444944Y-10936460D01*
X11444944Y-10936460D02*
X11425896Y-10945984D01*
X11425896Y-10945984D02*
X11368753Y-10945984D01*
X11368753Y-10945984D02*
X11349706Y-10936460D01*
X11349706Y-10936460D02*
X11340182Y-10926936D01*
X11559229Y-10945984D02*
X11597325Y-10945984D01*
X11597325Y-10945984D02*
X11616372Y-10936460D01*
X11616372Y-10936460D02*
X11625896Y-10926936D01*
X11625896Y-10926936D02*
X11644944Y-10898365D01*
X11644944Y-10898365D02*
X11654467Y-10860270D01*
X11654467Y-10860270D02*
X11654467Y-10784079D01*
X11654467Y-10784079D02*
X11644944Y-10765031D01*
X11644944Y-10765031D02*
X11635420Y-10755508D01*
X11635420Y-10755508D02*
X11616372Y-10745984D01*
X11616372Y-10745984D02*
X11578277Y-10745984D01*
X11578277Y-10745984D02*
X11559229Y-10755508D01*
X11559229Y-10755508D02*
X11549706Y-10765031D01*
X11549706Y-10765031D02*
X11540182Y-10784079D01*
X11540182Y-10784079D02*
X11540182Y-10831698D01*
X11540182Y-10831698D02*
X11549706Y-10850746D01*
X11549706Y-10850746D02*
X11559229Y-10860270D01*
X11559229Y-10860270D02*
X11578277Y-10869793D01*
X11578277Y-10869793D02*
X11616372Y-10869793D01*
X11616372Y-10869793D02*
X11635420Y-10860270D01*
X11635420Y-10860270D02*
X11644944Y-10850746D01*
X11644944Y-10850746D02*
X11654467Y-10831698D01*
X11825896Y-10812650D02*
X11825896Y-10945984D01*
X11778277Y-10736460D02*
X11730658Y-10879317D01*
X11730658Y-10879317D02*
X11854467Y-10879317D01*
X11921134Y-10745984D02*
X11921134Y-10784079D01*
X11997325Y-10745984D02*
X11997325Y-10784079D01*
X12292563Y-11022174D02*
X12283039Y-11012650D01*
X12283039Y-11012650D02*
X12263991Y-10984079D01*
X12263991Y-10984079D02*
X12254468Y-10965031D01*
X12254468Y-10965031D02*
X12244944Y-10936460D01*
X12244944Y-10936460D02*
X12235420Y-10888841D01*
X12235420Y-10888841D02*
X12235420Y-10850746D01*
X12235420Y-10850746D02*
X12244944Y-10803127D01*
X12244944Y-10803127D02*
X12254468Y-10774555D01*
X12254468Y-10774555D02*
X12263991Y-10755508D01*
X12263991Y-10755508D02*
X12283039Y-10726936D01*
X12283039Y-10726936D02*
X12292563Y-10717412D01*
X12349706Y-10745984D02*
X12483039Y-10745984D01*
X12483039Y-10745984D02*
X12397325Y-10945984D01*
X12711610Y-10945984D02*
X12711610Y-10745984D01*
X12797325Y-10945984D02*
X12797325Y-10841222D01*
X12797325Y-10841222D02*
X12787801Y-10822174D01*
X12787801Y-10822174D02*
X12768753Y-10812650D01*
X12768753Y-10812650D02*
X12740182Y-10812650D01*
X12740182Y-10812650D02*
X12721134Y-10822174D01*
X12721134Y-10822174D02*
X12711610Y-10831698D01*
X12921134Y-10945984D02*
X12902087Y-10936460D01*
X12902087Y-10936460D02*
X12892563Y-10926936D01*
X12892563Y-10926936D02*
X12883039Y-10907889D01*
X12883039Y-10907889D02*
X12883039Y-10850746D01*
X12883039Y-10850746D02*
X12892563Y-10831698D01*
X12892563Y-10831698D02*
X12902087Y-10822174D01*
X12902087Y-10822174D02*
X12921134Y-10812650D01*
X12921134Y-10812650D02*
X12949706Y-10812650D01*
X12949706Y-10812650D02*
X12968753Y-10822174D01*
X12968753Y-10822174D02*
X12978277Y-10831698D01*
X12978277Y-10831698D02*
X12987801Y-10850746D01*
X12987801Y-10850746D02*
X12987801Y-10907889D01*
X12987801Y-10907889D02*
X12978277Y-10926936D01*
X12978277Y-10926936D02*
X12968753Y-10936460D01*
X12968753Y-10936460D02*
X12949706Y-10945984D01*
X12949706Y-10945984D02*
X12921134Y-10945984D01*
X13102087Y-10945984D02*
X13083039Y-10936460D01*
X13083039Y-10936460D02*
X13073515Y-10917412D01*
X13073515Y-10917412D02*
X13073515Y-10745984D01*
X13254468Y-10936460D02*
X13235420Y-10945984D01*
X13235420Y-10945984D02*
X13197325Y-10945984D01*
X13197325Y-10945984D02*
X13178277Y-10936460D01*
X13178277Y-10936460D02*
X13168753Y-10917412D01*
X13168753Y-10917412D02*
X13168753Y-10841222D01*
X13168753Y-10841222D02*
X13178277Y-10822174D01*
X13178277Y-10822174D02*
X13197325Y-10812650D01*
X13197325Y-10812650D02*
X13235420Y-10812650D01*
X13235420Y-10812650D02*
X13254468Y-10822174D01*
X13254468Y-10822174D02*
X13263991Y-10841222D01*
X13263991Y-10841222D02*
X13263991Y-10860270D01*
X13263991Y-10860270D02*
X13168753Y-10879317D01*
X13340182Y-10936460D02*
X13359230Y-10945984D01*
X13359230Y-10945984D02*
X13397325Y-10945984D01*
X13397325Y-10945984D02*
X13416372Y-10936460D01*
X13416372Y-10936460D02*
X13425896Y-10917412D01*
X13425896Y-10917412D02*
X13425896Y-10907889D01*
X13425896Y-10907889D02*
X13416372Y-10888841D01*
X13416372Y-10888841D02*
X13397325Y-10879317D01*
X13397325Y-10879317D02*
X13368753Y-10879317D01*
X13368753Y-10879317D02*
X13349706Y-10869793D01*
X13349706Y-10869793D02*
X13340182Y-10850746D01*
X13340182Y-10850746D02*
X13340182Y-10841222D01*
X13340182Y-10841222D02*
X13349706Y-10822174D01*
X13349706Y-10822174D02*
X13368753Y-10812650D01*
X13368753Y-10812650D02*
X13397325Y-10812650D01*
X13397325Y-10812650D02*
X13416372Y-10822174D01*
X13492563Y-11022174D02*
X13502087Y-11012650D01*
X13502087Y-11012650D02*
X13521134Y-10984079D01*
X13521134Y-10984079D02*
X13530658Y-10965031D01*
X13530658Y-10965031D02*
X13540182Y-10936460D01*
X13540182Y-10936460D02*
X13549706Y-10888841D01*
X13549706Y-10888841D02*
X13549706Y-10850746D01*
X13549706Y-10850746D02*
X13540182Y-10803127D01*
X13540182Y-10803127D02*
X13530658Y-10774555D01*
X13530658Y-10774555D02*
X13521134Y-10755508D01*
X13521134Y-10755508D02*
X13502087Y-10726936D01*
X13502087Y-10726936D02*
X13492563Y-10717412D01*
X8617500Y-11218500D02*
X8717500Y-11118500D01*
X8617500Y-11018500D01*
X8517500Y-11118500D01*
X8617500Y-11218500D01*
X8968753Y-11029031D02*
X8978277Y-11019508D01*
X8978277Y-11019508D02*
X8997324Y-11009984D01*
X8997324Y-11009984D02*
X9044944Y-11009984D01*
X9044944Y-11009984D02*
X9063991Y-11019508D01*
X9063991Y-11019508D02*
X9073515Y-11029031D01*
X9073515Y-11029031D02*
X9083039Y-11048079D01*
X9083039Y-11048079D02*
X9083039Y-11067127D01*
X9083039Y-11067127D02*
X9073515Y-11095698D01*
X9073515Y-11095698D02*
X8959229Y-11209984D01*
X8959229Y-11209984D02*
X9083039Y-11209984D01*
X9168753Y-11190936D02*
X9178277Y-11200460D01*
X9178277Y-11200460D02*
X9168753Y-11209984D01*
X9168753Y-11209984D02*
X9159229Y-11200460D01*
X9159229Y-11200460D02*
X9168753Y-11190936D01*
X9168753Y-11190936D02*
X9168753Y-11209984D01*
X9254467Y-11029031D02*
X9263991Y-11019508D01*
X9263991Y-11019508D02*
X9283039Y-11009984D01*
X9283039Y-11009984D02*
X9330658Y-11009984D01*
X9330658Y-11009984D02*
X9349705Y-11019508D01*
X9349705Y-11019508D02*
X9359229Y-11029031D01*
X9359229Y-11029031D02*
X9368753Y-11048079D01*
X9368753Y-11048079D02*
X9368753Y-11067127D01*
X9368753Y-11067127D02*
X9359229Y-11095698D01*
X9359229Y-11095698D02*
X9244944Y-11209984D01*
X9244944Y-11209984D02*
X9368753Y-11209984D01*
X9492563Y-11009984D02*
X9511610Y-11009984D01*
X9511610Y-11009984D02*
X9530658Y-11019508D01*
X9530658Y-11019508D02*
X9540182Y-11029031D01*
X9540182Y-11029031D02*
X9549705Y-11048079D01*
X9549705Y-11048079D02*
X9559229Y-11086174D01*
X9559229Y-11086174D02*
X9559229Y-11133793D01*
X9559229Y-11133793D02*
X9549705Y-11171889D01*
X9549705Y-11171889D02*
X9540182Y-11190936D01*
X9540182Y-11190936D02*
X9530658Y-11200460D01*
X9530658Y-11200460D02*
X9511610Y-11209984D01*
X9511610Y-11209984D02*
X9492563Y-11209984D01*
X9492563Y-11209984D02*
X9473515Y-11200460D01*
X9473515Y-11200460D02*
X9463991Y-11190936D01*
X9463991Y-11190936D02*
X9454467Y-11171889D01*
X9454467Y-11171889D02*
X9444944Y-11133793D01*
X9444944Y-11133793D02*
X9444944Y-11086174D01*
X9444944Y-11086174D02*
X9454467Y-11048079D01*
X9454467Y-11048079D02*
X9463991Y-11029031D01*
X9463991Y-11029031D02*
X9473515Y-11019508D01*
X9473515Y-11019508D02*
X9492563Y-11009984D01*
X9683039Y-11009984D02*
X9702086Y-11009984D01*
X9702086Y-11009984D02*
X9721134Y-11019508D01*
X9721134Y-11019508D02*
X9730658Y-11029031D01*
X9730658Y-11029031D02*
X9740182Y-11048079D01*
X9740182Y-11048079D02*
X9749705Y-11086174D01*
X9749705Y-11086174D02*
X9749705Y-11133793D01*
X9749705Y-11133793D02*
X9740182Y-11171889D01*
X9740182Y-11171889D02*
X9730658Y-11190936D01*
X9730658Y-11190936D02*
X9721134Y-11200460D01*
X9721134Y-11200460D02*
X9702086Y-11209984D01*
X9702086Y-11209984D02*
X9683039Y-11209984D01*
X9683039Y-11209984D02*
X9663991Y-11200460D01*
X9663991Y-11200460D02*
X9654467Y-11190936D01*
X9654467Y-11190936D02*
X9644944Y-11171889D01*
X9644944Y-11171889D02*
X9635420Y-11133793D01*
X9635420Y-11133793D02*
X9635420Y-11086174D01*
X9635420Y-11086174D02*
X9644944Y-11048079D01*
X9644944Y-11048079D02*
X9654467Y-11029031D01*
X9654467Y-11029031D02*
X9663991Y-11019508D01*
X9663991Y-11019508D02*
X9683039Y-11009984D01*
X9835420Y-11209984D02*
X9835420Y-11076650D01*
X9835420Y-11095698D02*
X9844944Y-11086174D01*
X9844944Y-11086174D02*
X9863991Y-11076650D01*
X9863991Y-11076650D02*
X9892563Y-11076650D01*
X9892563Y-11076650D02*
X9911610Y-11086174D01*
X9911610Y-11086174D02*
X9921134Y-11105222D01*
X9921134Y-11105222D02*
X9921134Y-11209984D01*
X9921134Y-11105222D02*
X9930658Y-11086174D01*
X9930658Y-11086174D02*
X9949705Y-11076650D01*
X9949705Y-11076650D02*
X9978277Y-11076650D01*
X9978277Y-11076650D02*
X9997325Y-11086174D01*
X9997325Y-11086174D02*
X10006848Y-11105222D01*
X10006848Y-11105222D02*
X10006848Y-11209984D01*
X10102086Y-11209984D02*
X10102086Y-11076650D01*
X10102086Y-11095698D02*
X10111610Y-11086174D01*
X10111610Y-11086174D02*
X10130658Y-11076650D01*
X10130658Y-11076650D02*
X10159229Y-11076650D01*
X10159229Y-11076650D02*
X10178277Y-11086174D01*
X10178277Y-11086174D02*
X10187801Y-11105222D01*
X10187801Y-11105222D02*
X10187801Y-11209984D01*
X10187801Y-11105222D02*
X10197325Y-11086174D01*
X10197325Y-11086174D02*
X10216372Y-11076650D01*
X10216372Y-11076650D02*
X10244944Y-11076650D01*
X10244944Y-11076650D02*
X10263991Y-11086174D01*
X10263991Y-11086174D02*
X10273515Y-11105222D01*
X10273515Y-11105222D02*
X10273515Y-11209984D01*
X10663991Y-11000460D02*
X10492563Y-11257603D01*
X10921134Y-11009984D02*
X10940182Y-11009984D01*
X10940182Y-11009984D02*
X10959229Y-11019508D01*
X10959229Y-11019508D02*
X10968753Y-11029031D01*
X10968753Y-11029031D02*
X10978277Y-11048079D01*
X10978277Y-11048079D02*
X10987801Y-11086174D01*
X10987801Y-11086174D02*
X10987801Y-11133793D01*
X10987801Y-11133793D02*
X10978277Y-11171889D01*
X10978277Y-11171889D02*
X10968753Y-11190936D01*
X10968753Y-11190936D02*
X10959229Y-11200460D01*
X10959229Y-11200460D02*
X10940182Y-11209984D01*
X10940182Y-11209984D02*
X10921134Y-11209984D01*
X10921134Y-11209984D02*
X10902087Y-11200460D01*
X10902087Y-11200460D02*
X10892563Y-11190936D01*
X10892563Y-11190936D02*
X10883039Y-11171889D01*
X10883039Y-11171889D02*
X10873515Y-11133793D01*
X10873515Y-11133793D02*
X10873515Y-11086174D01*
X10873515Y-11086174D02*
X10883039Y-11048079D01*
X10883039Y-11048079D02*
X10892563Y-11029031D01*
X10892563Y-11029031D02*
X10902087Y-11019508D01*
X10902087Y-11019508D02*
X10921134Y-11009984D01*
X11073515Y-11190936D02*
X11083039Y-11200460D01*
X11083039Y-11200460D02*
X11073515Y-11209984D01*
X11073515Y-11209984D02*
X11063991Y-11200460D01*
X11063991Y-11200460D02*
X11073515Y-11190936D01*
X11073515Y-11190936D02*
X11073515Y-11209984D01*
X11206848Y-11009984D02*
X11225896Y-11009984D01*
X11225896Y-11009984D02*
X11244944Y-11019508D01*
X11244944Y-11019508D02*
X11254467Y-11029031D01*
X11254467Y-11029031D02*
X11263991Y-11048079D01*
X11263991Y-11048079D02*
X11273515Y-11086174D01*
X11273515Y-11086174D02*
X11273515Y-11133793D01*
X11273515Y-11133793D02*
X11263991Y-11171889D01*
X11263991Y-11171889D02*
X11254467Y-11190936D01*
X11254467Y-11190936D02*
X11244944Y-11200460D01*
X11244944Y-11200460D02*
X11225896Y-11209984D01*
X11225896Y-11209984D02*
X11206848Y-11209984D01*
X11206848Y-11209984D02*
X11187801Y-11200460D01*
X11187801Y-11200460D02*
X11178277Y-11190936D01*
X11178277Y-11190936D02*
X11168753Y-11171889D01*
X11168753Y-11171889D02*
X11159229Y-11133793D01*
X11159229Y-11133793D02*
X11159229Y-11086174D01*
X11159229Y-11086174D02*
X11168753Y-11048079D01*
X11168753Y-11048079D02*
X11178277Y-11029031D01*
X11178277Y-11029031D02*
X11187801Y-11019508D01*
X11187801Y-11019508D02*
X11206848Y-11009984D01*
X11387801Y-11095698D02*
X11368753Y-11086174D01*
X11368753Y-11086174D02*
X11359229Y-11076650D01*
X11359229Y-11076650D02*
X11349706Y-11057603D01*
X11349706Y-11057603D02*
X11349706Y-11048079D01*
X11349706Y-11048079D02*
X11359229Y-11029031D01*
X11359229Y-11029031D02*
X11368753Y-11019508D01*
X11368753Y-11019508D02*
X11387801Y-11009984D01*
X11387801Y-11009984D02*
X11425896Y-11009984D01*
X11425896Y-11009984D02*
X11444944Y-11019508D01*
X11444944Y-11019508D02*
X11454467Y-11029031D01*
X11454467Y-11029031D02*
X11463991Y-11048079D01*
X11463991Y-11048079D02*
X11463991Y-11057603D01*
X11463991Y-11057603D02*
X11454467Y-11076650D01*
X11454467Y-11076650D02*
X11444944Y-11086174D01*
X11444944Y-11086174D02*
X11425896Y-11095698D01*
X11425896Y-11095698D02*
X11387801Y-11095698D01*
X11387801Y-11095698D02*
X11368753Y-11105222D01*
X11368753Y-11105222D02*
X11359229Y-11114746D01*
X11359229Y-11114746D02*
X11349706Y-11133793D01*
X11349706Y-11133793D02*
X11349706Y-11171889D01*
X11349706Y-11171889D02*
X11359229Y-11190936D01*
X11359229Y-11190936D02*
X11368753Y-11200460D01*
X11368753Y-11200460D02*
X11387801Y-11209984D01*
X11387801Y-11209984D02*
X11425896Y-11209984D01*
X11425896Y-11209984D02*
X11444944Y-11200460D01*
X11444944Y-11200460D02*
X11454467Y-11190936D01*
X11454467Y-11190936D02*
X11463991Y-11171889D01*
X11463991Y-11171889D02*
X11463991Y-11133793D01*
X11463991Y-11133793D02*
X11454467Y-11114746D01*
X11454467Y-11114746D02*
X11444944Y-11105222D01*
X11444944Y-11105222D02*
X11425896Y-11095698D01*
X11635420Y-11009984D02*
X11597325Y-11009984D01*
X11597325Y-11009984D02*
X11578277Y-11019508D01*
X11578277Y-11019508D02*
X11568753Y-11029031D01*
X11568753Y-11029031D02*
X11549706Y-11057603D01*
X11549706Y-11057603D02*
X11540182Y-11095698D01*
X11540182Y-11095698D02*
X11540182Y-11171889D01*
X11540182Y-11171889D02*
X11549706Y-11190936D01*
X11549706Y-11190936D02*
X11559229Y-11200460D01*
X11559229Y-11200460D02*
X11578277Y-11209984D01*
X11578277Y-11209984D02*
X11616372Y-11209984D01*
X11616372Y-11209984D02*
X11635420Y-11200460D01*
X11635420Y-11200460D02*
X11644944Y-11190936D01*
X11644944Y-11190936D02*
X11654467Y-11171889D01*
X11654467Y-11171889D02*
X11654467Y-11124270D01*
X11654467Y-11124270D02*
X11644944Y-11105222D01*
X11644944Y-11105222D02*
X11635420Y-11095698D01*
X11635420Y-11095698D02*
X11616372Y-11086174D01*
X11616372Y-11086174D02*
X11578277Y-11086174D01*
X11578277Y-11086174D02*
X11559229Y-11095698D01*
X11559229Y-11095698D02*
X11549706Y-11105222D01*
X11549706Y-11105222D02*
X11540182Y-11124270D01*
X11825896Y-11009984D02*
X11787801Y-11009984D01*
X11787801Y-11009984D02*
X11768753Y-11019508D01*
X11768753Y-11019508D02*
X11759229Y-11029031D01*
X11759229Y-11029031D02*
X11740182Y-11057603D01*
X11740182Y-11057603D02*
X11730658Y-11095698D01*
X11730658Y-11095698D02*
X11730658Y-11171889D01*
X11730658Y-11171889D02*
X11740182Y-11190936D01*
X11740182Y-11190936D02*
X11749706Y-11200460D01*
X11749706Y-11200460D02*
X11768753Y-11209984D01*
X11768753Y-11209984D02*
X11806848Y-11209984D01*
X11806848Y-11209984D02*
X11825896Y-11200460D01*
X11825896Y-11200460D02*
X11835420Y-11190936D01*
X11835420Y-11190936D02*
X11844944Y-11171889D01*
X11844944Y-11171889D02*
X11844944Y-11124270D01*
X11844944Y-11124270D02*
X11835420Y-11105222D01*
X11835420Y-11105222D02*
X11825896Y-11095698D01*
X11825896Y-11095698D02*
X11806848Y-11086174D01*
X11806848Y-11086174D02*
X11768753Y-11086174D01*
X11768753Y-11086174D02*
X11749706Y-11095698D01*
X11749706Y-11095698D02*
X11740182Y-11105222D01*
X11740182Y-11105222D02*
X11730658Y-11124270D01*
X11921134Y-11009984D02*
X11921134Y-11048079D01*
X11997325Y-11009984D02*
X11997325Y-11048079D01*
X12292563Y-11286174D02*
X12283039Y-11276650D01*
X12283039Y-11276650D02*
X12263991Y-11248079D01*
X12263991Y-11248079D02*
X12254468Y-11229031D01*
X12254468Y-11229031D02*
X12244944Y-11200460D01*
X12244944Y-11200460D02*
X12235420Y-11152841D01*
X12235420Y-11152841D02*
X12235420Y-11114746D01*
X12235420Y-11114746D02*
X12244944Y-11067127D01*
X12244944Y-11067127D02*
X12254468Y-11038555D01*
X12254468Y-11038555D02*
X12263991Y-11019508D01*
X12263991Y-11019508D02*
X12283039Y-10990936D01*
X12283039Y-10990936D02*
X12292563Y-10981412D01*
X12359229Y-11029031D02*
X12368753Y-11019508D01*
X12368753Y-11019508D02*
X12387801Y-11009984D01*
X12387801Y-11009984D02*
X12435420Y-11009984D01*
X12435420Y-11009984D02*
X12454468Y-11019508D01*
X12454468Y-11019508D02*
X12463991Y-11029031D01*
X12463991Y-11029031D02*
X12473515Y-11048079D01*
X12473515Y-11048079D02*
X12473515Y-11067127D01*
X12473515Y-11067127D02*
X12463991Y-11095698D01*
X12463991Y-11095698D02*
X12349706Y-11209984D01*
X12349706Y-11209984D02*
X12473515Y-11209984D01*
X12711610Y-11209984D02*
X12711610Y-11009984D01*
X12797325Y-11209984D02*
X12797325Y-11105222D01*
X12797325Y-11105222D02*
X12787801Y-11086174D01*
X12787801Y-11086174D02*
X12768753Y-11076650D01*
X12768753Y-11076650D02*
X12740182Y-11076650D01*
X12740182Y-11076650D02*
X12721134Y-11086174D01*
X12721134Y-11086174D02*
X12711610Y-11095698D01*
X12921134Y-11209984D02*
X12902087Y-11200460D01*
X12902087Y-11200460D02*
X12892563Y-11190936D01*
X12892563Y-11190936D02*
X12883039Y-11171889D01*
X12883039Y-11171889D02*
X12883039Y-11114746D01*
X12883039Y-11114746D02*
X12892563Y-11095698D01*
X12892563Y-11095698D02*
X12902087Y-11086174D01*
X12902087Y-11086174D02*
X12921134Y-11076650D01*
X12921134Y-11076650D02*
X12949706Y-11076650D01*
X12949706Y-11076650D02*
X12968753Y-11086174D01*
X12968753Y-11086174D02*
X12978277Y-11095698D01*
X12978277Y-11095698D02*
X12987801Y-11114746D01*
X12987801Y-11114746D02*
X12987801Y-11171889D01*
X12987801Y-11171889D02*
X12978277Y-11190936D01*
X12978277Y-11190936D02*
X12968753Y-11200460D01*
X12968753Y-11200460D02*
X12949706Y-11209984D01*
X12949706Y-11209984D02*
X12921134Y-11209984D01*
X13102087Y-11209984D02*
X13083039Y-11200460D01*
X13083039Y-11200460D02*
X13073515Y-11181412D01*
X13073515Y-11181412D02*
X13073515Y-11009984D01*
X13254468Y-11200460D02*
X13235420Y-11209984D01*
X13235420Y-11209984D02*
X13197325Y-11209984D01*
X13197325Y-11209984D02*
X13178277Y-11200460D01*
X13178277Y-11200460D02*
X13168753Y-11181412D01*
X13168753Y-11181412D02*
X13168753Y-11105222D01*
X13168753Y-11105222D02*
X13178277Y-11086174D01*
X13178277Y-11086174D02*
X13197325Y-11076650D01*
X13197325Y-11076650D02*
X13235420Y-11076650D01*
X13235420Y-11076650D02*
X13254468Y-11086174D01*
X13254468Y-11086174D02*
X13263991Y-11105222D01*
X13263991Y-11105222D02*
X13263991Y-11124270D01*
X13263991Y-11124270D02*
X13168753Y-11143317D01*
X13340182Y-11200460D02*
X13359230Y-11209984D01*
X13359230Y-11209984D02*
X13397325Y-11209984D01*
X13397325Y-11209984D02*
X13416372Y-11200460D01*
X13416372Y-11200460D02*
X13425896Y-11181412D01*
X13425896Y-11181412D02*
X13425896Y-11171889D01*
X13425896Y-11171889D02*
X13416372Y-11152841D01*
X13416372Y-11152841D02*
X13397325Y-11143317D01*
X13397325Y-11143317D02*
X13368753Y-11143317D01*
X13368753Y-11143317D02*
X13349706Y-11133793D01*
X13349706Y-11133793D02*
X13340182Y-11114746D01*
X13340182Y-11114746D02*
X13340182Y-11105222D01*
X13340182Y-11105222D02*
X13349706Y-11086174D01*
X13349706Y-11086174D02*
X13368753Y-11076650D01*
X13368753Y-11076650D02*
X13397325Y-11076650D01*
X13397325Y-11076650D02*
X13416372Y-11086174D01*
X13492563Y-11286174D02*
X13502087Y-11276650D01*
X13502087Y-11276650D02*
X13521134Y-11248079D01*
X13521134Y-11248079D02*
X13530658Y-11229031D01*
X13530658Y-11229031D02*
X13540182Y-11200460D01*
X13540182Y-11200460D02*
X13549706Y-11152841D01*
X13549706Y-11152841D02*
X13549706Y-11114746D01*
X13549706Y-11114746D02*
X13540182Y-11067127D01*
X13540182Y-11067127D02*
X13530658Y-11038555D01*
X13530658Y-11038555D02*
X13521134Y-11019508D01*
X13521134Y-11019508D02*
X13502087Y-10990936D01*
X13502087Y-10990936D02*
X13492563Y-10981412D01*
M02*
