%TF.GenerationSoftware,KiCad,Pcbnew,10.0.5*%
%TF.CreationDate,2026-07-30T12:00:43-04:00*%
%TF.ProjectId,main,6d61696e-2e6b-4696-9361-645f70636258,rev?*%
%TF.SameCoordinates,Original*%
%TF.FileFunction,Legend,Top*%
%TF.FilePolarity,Positive*%
%FSLAX46Y46*%
G04 Gerber Fmt 4.6, Leading zero omitted, Abs format (unit mm)*
G04 Created by KiCad (PCBNEW 10.0.5) date 2026-07-30 12:00:43*
%MOMM*%
%LPD*%
G01*
G04 APERTURE LIST*
%ADD10C,0.100000*%
%ADD11C,0.150000*%
%ADD12C,0.120000*%
%ADD13C,0.010000*%
G04 APERTURE END LIST*
D10*
X102656265Y-36986704D02*
X103132455Y-36986704D01*
X102561027Y-37272419D02*
X102894360Y-36272419D01*
X102894360Y-36272419D02*
X103227693Y-37272419D01*
X103561027Y-37272419D02*
X103561027Y-36272419D01*
X103561027Y-36272419D02*
X104132455Y-37272419D01*
X104132455Y-37272419D02*
X104132455Y-36272419D01*
X104465789Y-36272419D02*
X105037217Y-36272419D01*
X104751503Y-37272419D02*
X104751503Y-36272419D01*
X105894360Y-37272419D02*
X105322932Y-37272419D01*
X105608646Y-37272419D02*
X105608646Y-36272419D01*
X105608646Y-36272419D02*
X105513408Y-36415276D01*
X105513408Y-36415276D02*
X105418170Y-36510514D01*
X105418170Y-36510514D02*
X105322932Y-36558133D01*
X92662475Y-91238972D02*
X93662475Y-90905639D01*
X93662475Y-90905639D02*
X92662475Y-90572306D01*
X93662475Y-90238972D02*
X92662475Y-90238972D01*
X93662475Y-89762782D02*
X92662475Y-89762782D01*
X92662475Y-89762782D02*
X92662475Y-89381830D01*
X92662475Y-89381830D02*
X92710094Y-89286592D01*
X92710094Y-89286592D02*
X92757713Y-89238973D01*
X92757713Y-89238973D02*
X92852951Y-89191354D01*
X92852951Y-89191354D02*
X92995808Y-89191354D01*
X92995808Y-89191354D02*
X93091046Y-89238973D01*
X93091046Y-89238973D02*
X93138665Y-89286592D01*
X93138665Y-89286592D02*
X93186284Y-89381830D01*
X93186284Y-89381830D02*
X93186284Y-89762782D01*
X93662475Y-88191354D02*
X93186284Y-88524687D01*
X93662475Y-88762782D02*
X92662475Y-88762782D01*
X92662475Y-88762782D02*
X92662475Y-88381830D01*
X92662475Y-88381830D02*
X92710094Y-88286592D01*
X92710094Y-88286592D02*
X92757713Y-88238973D01*
X92757713Y-88238973D02*
X92852951Y-88191354D01*
X92852951Y-88191354D02*
X92995808Y-88191354D01*
X92995808Y-88191354D02*
X93091046Y-88238973D01*
X93091046Y-88238973D02*
X93138665Y-88286592D01*
X93138665Y-88286592D02*
X93186284Y-88381830D01*
X93186284Y-88381830D02*
X93186284Y-88762782D01*
X95272419Y-90524687D02*
X94796228Y-90858020D01*
X95272419Y-91096115D02*
X94272419Y-91096115D01*
X94272419Y-91096115D02*
X94272419Y-90715163D01*
X94272419Y-90715163D02*
X94320038Y-90619925D01*
X94320038Y-90619925D02*
X94367657Y-90572306D01*
X94367657Y-90572306D02*
X94462895Y-90524687D01*
X94462895Y-90524687D02*
X94605752Y-90524687D01*
X94605752Y-90524687D02*
X94700990Y-90572306D01*
X94700990Y-90572306D02*
X94748609Y-90619925D01*
X94748609Y-90619925D02*
X94796228Y-90715163D01*
X94796228Y-90715163D02*
X94796228Y-91096115D01*
X95224800Y-89715163D02*
X95272419Y-89810401D01*
X95272419Y-89810401D02*
X95272419Y-90000877D01*
X95272419Y-90000877D02*
X95224800Y-90096115D01*
X95224800Y-90096115D02*
X95129561Y-90143734D01*
X95129561Y-90143734D02*
X94748609Y-90143734D01*
X94748609Y-90143734D02*
X94653371Y-90096115D01*
X94653371Y-90096115D02*
X94605752Y-90000877D01*
X94605752Y-90000877D02*
X94605752Y-89810401D01*
X94605752Y-89810401D02*
X94653371Y-89715163D01*
X94653371Y-89715163D02*
X94748609Y-89667544D01*
X94748609Y-89667544D02*
X94843847Y-89667544D01*
X94843847Y-89667544D02*
X94939085Y-90143734D01*
X94605752Y-89334210D02*
X95272419Y-89096115D01*
X95272419Y-89096115D02*
X94605752Y-88858020D01*
X94367657Y-88524686D02*
X94320038Y-88477067D01*
X94320038Y-88477067D02*
X94272419Y-88381829D01*
X94272419Y-88381829D02*
X94272419Y-88143734D01*
X94272419Y-88143734D02*
X94320038Y-88048496D01*
X94320038Y-88048496D02*
X94367657Y-88000877D01*
X94367657Y-88000877D02*
X94462895Y-87953258D01*
X94462895Y-87953258D02*
X94558133Y-87953258D01*
X94558133Y-87953258D02*
X94700990Y-88000877D01*
X94700990Y-88000877D02*
X95272419Y-88572305D01*
X95272419Y-88572305D02*
X95272419Y-87953258D01*
X95177180Y-87524686D02*
X95224800Y-87477067D01*
X95224800Y-87477067D02*
X95272419Y-87524686D01*
X95272419Y-87524686D02*
X95224800Y-87572305D01*
X95224800Y-87572305D02*
X95177180Y-87524686D01*
X95177180Y-87524686D02*
X95272419Y-87524686D01*
X95272419Y-86524687D02*
X95272419Y-87096115D01*
X95272419Y-86810401D02*
X94272419Y-86810401D01*
X94272419Y-86810401D02*
X94415276Y-86905639D01*
X94415276Y-86905639D02*
X94510514Y-87000877D01*
X94510514Y-87000877D02*
X94558133Y-87096115D01*
X105261334Y-54503884D02*
X105261334Y-54837217D01*
X104737524Y-54980074D02*
X104737524Y-54503884D01*
X104737524Y-54503884D02*
X105737524Y-54503884D01*
X105737524Y-54503884D02*
X105737524Y-54980074D01*
X104785144Y-55361027D02*
X104737524Y-55503884D01*
X104737524Y-55503884D02*
X104737524Y-55741979D01*
X104737524Y-55741979D02*
X104785144Y-55837217D01*
X104785144Y-55837217D02*
X104832763Y-55884836D01*
X104832763Y-55884836D02*
X104928001Y-55932455D01*
X104928001Y-55932455D02*
X105023239Y-55932455D01*
X105023239Y-55932455D02*
X105118477Y-55884836D01*
X105118477Y-55884836D02*
X105166096Y-55837217D01*
X105166096Y-55837217D02*
X105213715Y-55741979D01*
X105213715Y-55741979D02*
X105261334Y-55551503D01*
X105261334Y-55551503D02*
X105308953Y-55456265D01*
X105308953Y-55456265D02*
X105356572Y-55408646D01*
X105356572Y-55408646D02*
X105451810Y-55361027D01*
X105451810Y-55361027D02*
X105547048Y-55361027D01*
X105547048Y-55361027D02*
X105642286Y-55408646D01*
X105642286Y-55408646D02*
X105689905Y-55456265D01*
X105689905Y-55456265D02*
X105737524Y-55551503D01*
X105737524Y-55551503D02*
X105737524Y-55789598D01*
X105737524Y-55789598D02*
X105689905Y-55932455D01*
X104737524Y-56361027D02*
X105737524Y-56361027D01*
X105737524Y-56361027D02*
X105737524Y-56741979D01*
X105737524Y-56741979D02*
X105689905Y-56837217D01*
X105689905Y-56837217D02*
X105642286Y-56884836D01*
X105642286Y-56884836D02*
X105547048Y-56932455D01*
X105547048Y-56932455D02*
X105404191Y-56932455D01*
X105404191Y-56932455D02*
X105308953Y-56884836D01*
X105308953Y-56884836D02*
X105261334Y-56837217D01*
X105261334Y-56837217D02*
X105213715Y-56741979D01*
X105213715Y-56741979D02*
X105213715Y-56361027D01*
X105737524Y-57265789D02*
X105737524Y-57884836D01*
X105737524Y-57884836D02*
X105356572Y-57551503D01*
X105356572Y-57551503D02*
X105356572Y-57694360D01*
X105356572Y-57694360D02*
X105308953Y-57789598D01*
X105308953Y-57789598D02*
X105261334Y-57837217D01*
X105261334Y-57837217D02*
X105166096Y-57884836D01*
X105166096Y-57884836D02*
X104928001Y-57884836D01*
X104928001Y-57884836D02*
X104832763Y-57837217D01*
X104832763Y-57837217D02*
X104785144Y-57789598D01*
X104785144Y-57789598D02*
X104737524Y-57694360D01*
X104737524Y-57694360D02*
X104737524Y-57408646D01*
X104737524Y-57408646D02*
X104785144Y-57313408D01*
X104785144Y-57313408D02*
X104832763Y-57265789D01*
X105642286Y-58265789D02*
X105689905Y-58313408D01*
X105689905Y-58313408D02*
X105737524Y-58408646D01*
X105737524Y-58408646D02*
X105737524Y-58646741D01*
X105737524Y-58646741D02*
X105689905Y-58741979D01*
X105689905Y-58741979D02*
X105642286Y-58789598D01*
X105642286Y-58789598D02*
X105547048Y-58837217D01*
X105547048Y-58837217D02*
X105451810Y-58837217D01*
X105451810Y-58837217D02*
X105308953Y-58789598D01*
X105308953Y-58789598D02*
X104737524Y-58218170D01*
X104737524Y-58218170D02*
X104737524Y-58837217D01*
X105118477Y-59265789D02*
X105118477Y-60027694D01*
X104785144Y-60456265D02*
X104737524Y-60599122D01*
X104737524Y-60599122D02*
X104737524Y-60837217D01*
X104737524Y-60837217D02*
X104785144Y-60932455D01*
X104785144Y-60932455D02*
X104832763Y-60980074D01*
X104832763Y-60980074D02*
X104928001Y-61027693D01*
X104928001Y-61027693D02*
X105023239Y-61027693D01*
X105023239Y-61027693D02*
X105118477Y-60980074D01*
X105118477Y-60980074D02*
X105166096Y-60932455D01*
X105166096Y-60932455D02*
X105213715Y-60837217D01*
X105213715Y-60837217D02*
X105261334Y-60646741D01*
X105261334Y-60646741D02*
X105308953Y-60551503D01*
X105308953Y-60551503D02*
X105356572Y-60503884D01*
X105356572Y-60503884D02*
X105451810Y-60456265D01*
X105451810Y-60456265D02*
X105547048Y-60456265D01*
X105547048Y-60456265D02*
X105642286Y-60503884D01*
X105642286Y-60503884D02*
X105689905Y-60551503D01*
X105689905Y-60551503D02*
X105737524Y-60646741D01*
X105737524Y-60646741D02*
X105737524Y-60884836D01*
X105737524Y-60884836D02*
X105689905Y-61027693D01*
X105737524Y-61361027D02*
X105737524Y-61980074D01*
X105737524Y-61980074D02*
X105356572Y-61646741D01*
X105356572Y-61646741D02*
X105356572Y-61789598D01*
X105356572Y-61789598D02*
X105308953Y-61884836D01*
X105308953Y-61884836D02*
X105261334Y-61932455D01*
X105261334Y-61932455D02*
X105166096Y-61980074D01*
X105166096Y-61980074D02*
X104928001Y-61980074D01*
X104928001Y-61980074D02*
X104832763Y-61932455D01*
X104832763Y-61932455D02*
X104785144Y-61884836D01*
X104785144Y-61884836D02*
X104737524Y-61789598D01*
X104737524Y-61789598D02*
X104737524Y-61503884D01*
X104737524Y-61503884D02*
X104785144Y-61408646D01*
X104785144Y-61408646D02*
X104832763Y-61361027D01*
X103127580Y-54503884D02*
X104127580Y-54503884D01*
X104127580Y-54503884D02*
X103413295Y-54837217D01*
X103413295Y-54837217D02*
X104127580Y-55170550D01*
X104127580Y-55170550D02*
X103127580Y-55170550D01*
X103127580Y-55646741D02*
X104127580Y-55646741D01*
X103127580Y-56122931D02*
X104127580Y-56122931D01*
X104127580Y-56122931D02*
X103127580Y-56694359D01*
X103127580Y-56694359D02*
X104127580Y-56694359D01*
X103127580Y-57170550D02*
X104127580Y-57170550D01*
X103508533Y-57646740D02*
X103508533Y-58408645D01*
X103127580Y-59408644D02*
X103127580Y-58837216D01*
X103127580Y-59122930D02*
X104127580Y-59122930D01*
X104127580Y-59122930D02*
X103984723Y-59027692D01*
X103984723Y-59027692D02*
X103889485Y-58932454D01*
X103889485Y-58932454D02*
X103841866Y-58837216D01*
X103508533Y-59837216D02*
X103508533Y-60599121D01*
X103127580Y-61075311D02*
X104127580Y-61075311D01*
X104127580Y-61075311D02*
X103127580Y-61646739D01*
X103127580Y-61646739D02*
X104127580Y-61646739D01*
X103699009Y-62265787D02*
X103746628Y-62170549D01*
X103746628Y-62170549D02*
X103794247Y-62122930D01*
X103794247Y-62122930D02*
X103889485Y-62075311D01*
X103889485Y-62075311D02*
X103937104Y-62075311D01*
X103937104Y-62075311D02*
X104032342Y-62122930D01*
X104032342Y-62122930D02*
X104079961Y-62170549D01*
X104079961Y-62170549D02*
X104127580Y-62265787D01*
X104127580Y-62265787D02*
X104127580Y-62456263D01*
X104127580Y-62456263D02*
X104079961Y-62551501D01*
X104079961Y-62551501D02*
X104032342Y-62599120D01*
X104032342Y-62599120D02*
X103937104Y-62646739D01*
X103937104Y-62646739D02*
X103889485Y-62646739D01*
X103889485Y-62646739D02*
X103794247Y-62599120D01*
X103794247Y-62599120D02*
X103746628Y-62551501D01*
X103746628Y-62551501D02*
X103699009Y-62456263D01*
X103699009Y-62456263D02*
X103699009Y-62265787D01*
X103699009Y-62265787D02*
X103651390Y-62170549D01*
X103651390Y-62170549D02*
X103603771Y-62122930D01*
X103603771Y-62122930D02*
X103508533Y-62075311D01*
X103508533Y-62075311D02*
X103318057Y-62075311D01*
X103318057Y-62075311D02*
X103222819Y-62122930D01*
X103222819Y-62122930D02*
X103175200Y-62170549D01*
X103175200Y-62170549D02*
X103127580Y-62265787D01*
X103127580Y-62265787D02*
X103127580Y-62456263D01*
X103127580Y-62456263D02*
X103175200Y-62551501D01*
X103175200Y-62551501D02*
X103222819Y-62599120D01*
X103222819Y-62599120D02*
X103318057Y-62646739D01*
X103318057Y-62646739D02*
X103508533Y-62646739D01*
X103508533Y-62646739D02*
X103603771Y-62599120D01*
X103603771Y-62599120D02*
X103651390Y-62551501D01*
X103651390Y-62551501D02*
X103699009Y-62456263D01*
D11*
X89711666Y-46879819D02*
X89711666Y-47594104D01*
X89711666Y-47594104D02*
X89664047Y-47736961D01*
X89664047Y-47736961D02*
X89568809Y-47832200D01*
X89568809Y-47832200D02*
X89425952Y-47879819D01*
X89425952Y-47879819D02*
X89330714Y-47879819D01*
X90092619Y-46879819D02*
X90711666Y-46879819D01*
X90711666Y-46879819D02*
X90378333Y-47260771D01*
X90378333Y-47260771D02*
X90521190Y-47260771D01*
X90521190Y-47260771D02*
X90616428Y-47308390D01*
X90616428Y-47308390D02*
X90664047Y-47356009D01*
X90664047Y-47356009D02*
X90711666Y-47451247D01*
X90711666Y-47451247D02*
X90711666Y-47689342D01*
X90711666Y-47689342D02*
X90664047Y-47784580D01*
X90664047Y-47784580D02*
X90616428Y-47832200D01*
X90616428Y-47832200D02*
X90521190Y-47879819D01*
X90521190Y-47879819D02*
X90235476Y-47879819D01*
X90235476Y-47879819D02*
X90140238Y-47832200D01*
X90140238Y-47832200D02*
X90092619Y-47784580D01*
%TO.C,C14*%
D12*
X98889939Y-39639970D02*
X98691128Y-39838781D01*
X99611188Y-40361219D02*
X99412377Y-40560030D01*
%TO.C,C17*%
X105791158Y-76257836D02*
X105791158Y-76042164D01*
X106511158Y-76257836D02*
X106511158Y-76042164D01*
%TO.C,C16*%
X91241158Y-75965580D02*
X91241158Y-75684420D01*
X92261158Y-75965580D02*
X92261158Y-75684420D01*
%TO.C,R2*%
X105488416Y-82827500D02*
X105013900Y-82827500D01*
X105488416Y-83872500D02*
X105013900Y-83872500D01*
%TO.C,U4*%
X92451158Y-50900000D02*
X113151158Y-50900000D01*
X92451158Y-66500000D02*
X92451158Y-50900000D01*
X113151158Y-50900000D02*
X113151158Y-66500000D01*
X113151158Y-66500000D02*
X92451158Y-66500000D01*
X113401158Y-50625000D02*
X110951158Y-50625000D01*
X113401158Y-50625000D02*
X113401158Y-53075000D01*
X106201158Y-50725000D02*
X105961158Y-50389000D01*
X106441158Y-50389000D01*
X106201158Y-50725000D01*
G36*
X106201158Y-50725000D02*
G01*
X105961158Y-50389000D01*
X106441158Y-50389000D01*
X106201158Y-50725000D01*
G37*
%TO.C,U1*%
X96641158Y-43890000D02*
X97116158Y-43890000D01*
X96641158Y-44365000D02*
X96641158Y-43890000D01*
X96641158Y-48110000D02*
X96641158Y-47635000D01*
X97116158Y-48110000D02*
X96641158Y-48110000D01*
X100386158Y-43890000D02*
X100861158Y-43890000D01*
X100861158Y-43890000D02*
X100861158Y-44365000D01*
X100861158Y-47635000D02*
X100861158Y-48110000D01*
X100861158Y-48110000D02*
X100386158Y-48110000D01*
X100001158Y-43390000D02*
X99761158Y-43060000D01*
X100241158Y-43060000D01*
X100001158Y-43390000D01*
G36*
X100001158Y-43390000D02*
G01*
X99761158Y-43060000D01*
X100241158Y-43060000D01*
X100001158Y-43390000D01*
G37*
%TO.C,D1*%
X96601158Y-82440000D02*
X96601158Y-85100000D01*
X98301158Y-82440000D02*
X96601158Y-82440000D01*
X98301158Y-82440000D02*
X98301158Y-85100000D01*
%TO.C,U6*%
X95541158Y-76040000D02*
X95716158Y-76040000D01*
X95541158Y-79260000D02*
X95541158Y-76040000D01*
X95716158Y-79260000D02*
X95541158Y-79260000D01*
X98586158Y-76040000D02*
X98761158Y-76040000D01*
X98761158Y-76040000D02*
X98761158Y-79260000D01*
X98761158Y-79260000D02*
X98586158Y-79260000D01*
X95711158Y-79810000D02*
X95381158Y-80050000D01*
X95381158Y-79570000D01*
X95711158Y-79810000D01*
G36*
X95711158Y-79810000D02*
G01*
X95381158Y-80050000D01*
X95381158Y-79570000D01*
X95711158Y-79810000D01*
G37*
%TO.C,L1*%
X96088280Y-40390000D02*
X95289036Y-40390000D01*
X96088280Y-41510000D02*
X95289036Y-41510000D01*
%TO.C,D2*%
X93401158Y-77810000D02*
X93401158Y-75150000D01*
X93401158Y-77810000D02*
X95101158Y-77810000D01*
X95101158Y-77810000D02*
X95101158Y-75150000D01*
%TO.C,C11*%
X95228658Y-42957836D02*
X95228658Y-42742164D01*
X95948658Y-42957836D02*
X95948658Y-42742164D01*
%TO.C,C7*%
X94440000Y-45107836D02*
X94440000Y-44892164D01*
X95160000Y-45107836D02*
X95160000Y-44892164D01*
%TO.C,R7*%
X100588900Y-74077500D02*
X101063416Y-74077500D01*
X100588900Y-75122500D02*
X101063416Y-75122500D01*
%TO.C,C1*%
X94610578Y-81290000D02*
X94891738Y-81290000D01*
X94610578Y-82310000D02*
X94891738Y-82310000D01*
%TO.C,U3*%
X106166158Y-43985000D02*
X106166158Y-43015000D01*
X107736158Y-43015000D02*
X106166158Y-43015000D01*
X107736158Y-44185000D02*
X106366158Y-44185000D01*
X107736158Y-44185000D02*
X107736158Y-43015000D01*
D10*
X106151158Y-44200000D02*
X106151158Y-44560000D01*
X105791158Y-44200000D01*
X106151158Y-44200000D01*
G36*
X106151158Y-44560000D02*
G01*
X105791158Y-44200000D01*
X106151158Y-44200000D01*
X106151158Y-44560000D01*
G37*
%TO.C,C2*%
D12*
X99241158Y-79959420D02*
X99241158Y-80240580D01*
X100261158Y-79959420D02*
X100261158Y-80240580D01*
%TO.C,U2*%
X100591158Y-68190000D02*
X104711158Y-68190000D01*
X100591158Y-68285000D02*
X100591158Y-68190000D01*
X100591158Y-73310000D02*
X100591158Y-73215000D01*
X104711158Y-68190000D02*
X104711158Y-68285000D01*
X104711158Y-73215000D02*
X104711158Y-73310000D01*
X104711158Y-73310000D02*
X100591158Y-73310000D01*
X100051158Y-68280000D02*
X99811158Y-67950000D01*
X100291158Y-67950000D01*
X100051158Y-68280000D01*
G36*
X100051158Y-68280000D02*
G01*
X99811158Y-67950000D01*
X100291158Y-67950000D01*
X100051158Y-68280000D01*
G37*
%TO.C,C3*%
X104958994Y-49840000D02*
X104743322Y-49840000D01*
X104958994Y-50560000D02*
X104743322Y-50560000D01*
%TO.C,R9*%
X92528658Y-45637258D02*
X92528658Y-45162742D01*
X93573658Y-45637258D02*
X93573658Y-45162742D01*
%TO.C,C5*%
X100841158Y-79040580D02*
X100841158Y-78759420D01*
X101861158Y-79040580D02*
X101861158Y-78759420D01*
%TO.C,R10*%
X92528658Y-49137258D02*
X92528658Y-48662742D01*
X93573658Y-49137258D02*
X93573658Y-48662742D01*
%TO.C,C15*%
X100859420Y-84390000D02*
X101140580Y-84390000D01*
X100859420Y-85410000D02*
X101140580Y-85410000D01*
%TO.C,R4*%
X96813900Y-49077500D02*
X97288416Y-49077500D01*
X96813900Y-50122500D02*
X97288416Y-50122500D01*
%TO.C,C13*%
X104491158Y-41587836D02*
X104491158Y-41372164D01*
X105211158Y-41587836D02*
X105211158Y-41372164D01*
%TO.C,C12*%
X100389939Y-42560030D02*
X100191128Y-42361219D01*
X101111188Y-41838781D02*
X100912377Y-41639970D01*
%TO.C,J3*%
X88665000Y-48425000D02*
X90045000Y-48425000D01*
X88665000Y-49805000D02*
X88665000Y-48425000D01*
X88665000Y-51075000D02*
X88665000Y-66425000D01*
X88665000Y-51075000D02*
X91425000Y-51075000D01*
X88665000Y-66425000D02*
X91425000Y-66425000D01*
X91425000Y-51075000D02*
X91425000Y-66425000D01*
%TO.C,C6*%
X97276494Y-41990000D02*
X97060822Y-41990000D01*
X97276494Y-42710000D02*
X97060822Y-42710000D01*
%TO.C,J2*%
X100080000Y-36577600D02*
X100580000Y-36577600D01*
X100330000Y-36077600D02*
X100080000Y-36577600D01*
X100580000Y-36577600D02*
X100330000Y-36077600D01*
%TO.C,SW1*%
D10*
X86400000Y-82550000D02*
X86400000Y-83250000D01*
X86400000Y-83250000D02*
X86700000Y-83550000D01*
X86700000Y-82250000D02*
X86400000Y-82550000D01*
X86700000Y-83550000D02*
X87900000Y-83550000D01*
X87900000Y-82250000D02*
X86700000Y-82250000D01*
X87900000Y-82250000D02*
X87900000Y-78900000D01*
X87900000Y-82250000D02*
X87900000Y-83550000D01*
X87900000Y-83550000D02*
X87900000Y-85600000D01*
X87900000Y-85600000D02*
X90500000Y-85600000D01*
X90500000Y-78900000D02*
X87900000Y-78900000D01*
X90500000Y-85600000D02*
X90500000Y-78900000D01*
D13*
X88250000Y-78397570D02*
X88250000Y-78900000D01*
X87849150Y-78900000D01*
X87849150Y-78397570D01*
X88250000Y-78397570D01*
G36*
X88250000Y-78900000D02*
G01*
X87849150Y-78900000D01*
X87849150Y-78397570D01*
X88250000Y-78397570D01*
X88250000Y-78900000D01*
G37*
X88250000Y-85603270D02*
X88250000Y-86100000D01*
X87848680Y-86100000D01*
X87848680Y-85603270D01*
X88250000Y-85603270D01*
G36*
X88250000Y-86100000D02*
G01*
X87848680Y-86100000D01*
X87848680Y-85603270D01*
X88250000Y-85603270D01*
X88250000Y-86100000D01*
G37*
X90550000Y-78395740D02*
X90550000Y-78900000D01*
X90151052Y-78900000D01*
X90151052Y-78395740D01*
X90550000Y-78395740D01*
G36*
X90550000Y-78900000D02*
G01*
X90151052Y-78900000D01*
X90151052Y-78395740D01*
X90550000Y-78395740D01*
X90550000Y-78900000D01*
G37*
X90550000Y-85606180D02*
X90550000Y-86100000D01*
X90151751Y-86100000D01*
X90151751Y-85606180D01*
X90550000Y-85606180D01*
G36*
X90550000Y-86100000D02*
G01*
X90151751Y-86100000D01*
X90151751Y-85606180D01*
X90550000Y-85606180D01*
X90550000Y-86100000D01*
G37*
X91400000Y-79798000D02*
X91400000Y-80200000D01*
X90501060Y-80200000D01*
X90501060Y-79798000D01*
X91400000Y-79798000D01*
G36*
X91400000Y-80200000D02*
G01*
X90501060Y-80200000D01*
X90501060Y-79798000D01*
X91400000Y-79798000D01*
X91400000Y-80200000D01*
G37*
X91400000Y-82800814D02*
X91400000Y-83200000D01*
X90501920Y-83200000D01*
X90501920Y-82800814D01*
X91400000Y-82800814D01*
G36*
X91400000Y-83200000D02*
G01*
X90501920Y-83200000D01*
X90501920Y-82800814D01*
X91400000Y-82800814D01*
X91400000Y-83200000D01*
G37*
X91400000Y-84300040D02*
X91400000Y-84700000D01*
X90500030Y-84700000D01*
X90500030Y-84300040D01*
X91400000Y-84300040D01*
G36*
X91400000Y-84700000D02*
G01*
X90500030Y-84700000D01*
X90500030Y-84300040D01*
X91400000Y-84300040D01*
X91400000Y-84700000D01*
G37*
%TO.C,J1*%
D12*
X97661158Y-90090000D02*
X97661158Y-88680000D01*
X98481158Y-86010000D02*
X98481158Y-86160000D01*
X99281158Y-86010000D02*
X98481158Y-86010000D01*
X106821158Y-90090000D02*
X106821158Y-88680000D01*
%TO.C,C10*%
X94228658Y-47442164D02*
X94228658Y-47657836D01*
X94948658Y-47442164D02*
X94948658Y-47657836D01*
%TO.C,BT1*%
X87690000Y-67590000D02*
X87690000Y-73710000D01*
X87690000Y-70150000D02*
X92050000Y-70150000D01*
X87690000Y-73710000D02*
X95510000Y-73710000D01*
X89950000Y-68850000D02*
X87690000Y-68850000D01*
X89950000Y-69350000D02*
X87690000Y-69350000D01*
X92050000Y-70150000D02*
X92050000Y-71150000D01*
X92050000Y-71150000D02*
X87690000Y-71150000D01*
X93910000Y-67590000D02*
X93910000Y-68510000D01*
X93910000Y-68510000D02*
X95510000Y-68510000D01*
X93910000Y-68790000D02*
X93910000Y-68510000D01*
X93910000Y-68790000D02*
X95125000Y-68790000D01*
X93910000Y-72790000D02*
X93910000Y-72510000D01*
X93910000Y-73710000D02*
X93910000Y-72790000D01*
X95510000Y-67590000D02*
X87690000Y-67590000D01*
X95510000Y-68510000D02*
X95510000Y-67590000D01*
X95510000Y-72790000D02*
X93910000Y-72790000D01*
X95510000Y-73710000D02*
X95510000Y-72790000D01*
X89950000Y-68350000D02*
X91550000Y-68350000D01*
X91550000Y-69350000D01*
X89950000Y-69350000D01*
X89950000Y-68350000D01*
X89950000Y-71950000D02*
X91550000Y-71950000D01*
X91550000Y-72950000D01*
X89950000Y-72950000D01*
X89950000Y-71950000D01*
%TO.C,C18*%
X101063322Y-75690000D02*
X101278994Y-75690000D01*
X101063322Y-76410000D02*
X101278994Y-76410000D01*
%TO.C,FL1*%
X104340645Y-44640000D02*
X104341158Y-44640000D01*
X104341158Y-46960000D02*
X104016158Y-46960000D01*
X105161158Y-44640000D02*
X105486158Y-44640000D01*
X105486158Y-46960000D02*
X105161158Y-46960000D01*
X104051158Y-44630000D02*
X103811158Y-44300000D01*
X104291158Y-44300000D01*
X104051158Y-44630000D01*
G36*
X104051158Y-44630000D02*
G01*
X103811158Y-44300000D01*
X104291158Y-44300000D01*
X104051158Y-44630000D01*
G37*
%TO.C,C4*%
X103089906Y-47865000D02*
X103612410Y-47865000D01*
X103089906Y-49335000D02*
X103612410Y-49335000D01*
%TO.C,R1*%
X100413416Y-82827500D02*
X99938900Y-82827500D01*
X100413416Y-83872500D02*
X99938900Y-83872500D01*
%TO.C,R5*%
X102587517Y-39720000D02*
X102894799Y-39720000D01*
X102587517Y-40480000D02*
X102894799Y-40480000D01*
%TO.C,U7*%
X102341158Y-77490000D02*
X102516158Y-77490000D01*
X102341158Y-80710000D02*
X102341158Y-77490000D01*
X102516158Y-80710000D02*
X102341158Y-80710000D01*
X105386158Y-77490000D02*
X105561158Y-77490000D01*
X105561158Y-77490000D02*
X105561158Y-80710000D01*
X105561158Y-80710000D02*
X105386158Y-80710000D01*
X102511158Y-81260000D02*
X102181158Y-81500000D01*
X102181158Y-81020000D01*
X102511158Y-81260000D01*
G36*
X102511158Y-81260000D02*
G01*
X102181158Y-81500000D01*
X102181158Y-81020000D01*
X102511158Y-81260000D01*
G37*
%TO.C,L2*%
X102641158Y-42537221D02*
X102641158Y-42862779D01*
X103661158Y-42537221D02*
X103661158Y-42862779D01*
%TD*%
M02*
