G04 #@! TF.GenerationSoftware,KiCad,Pcbnew,10.0.5*
G04 #@! TF.CreationDate,2026-07-30T12:00:32-04:00*
G04 #@! TF.ProjectId,main,6d61696e-2e6b-4696-9361-645f70636258,rev?*
G04 #@! TF.SameCoordinates,Original*
G04 #@! TF.FileFunction,Legend,Top*
G04 #@! TF.FilePolarity,Positive*
%FSLAX46Y46*%
G04 Gerber Fmt 4.6, Leading zero omitted, Abs format (unit mm)*
G04 Created by KiCad (PCBNEW 10.0.5) date 2026-07-30 12:00:32*
%MOMM*%
%LPD*%
G01*
G04 APERTURE LIST*
G04 Aperture macros list*
%AMRoundRect*
0 Rectangle with rounded corners*
0 $1 Rounding radius*
0 $2 $3 $4 $5 $6 $7 $8 $9 X,Y pos of 4 corners*
0 Add a 4 corners polygon primitive as box body*
4,1,4,$2,$3,$4,$5,$6,$7,$8,$9,$2,$3,0*
0 Add four circle primitives for the rounded corners*
1,1,$1+$1,$2,$3*
1,1,$1+$1,$4,$5*
1,1,$1+$1,$6,$7*
1,1,$1+$1,$8,$9*
0 Add four rect primitives between the rounded corners*
20,1,$1+$1,$2,$3,$4,$5,0*
20,1,$1+$1,$4,$5,$6,$7,0*
20,1,$1+$1,$6,$7,$8,$9,0*
20,1,$1+$1,$8,$9,$2,$3,0*%
%AMOutline5P*
0 Free polygon, 5 corners , with rotation*
0 The origin of the aperture is its center*
0 number of corners: always 5*
0 $1 to $10 corner X, Y*
0 $11 Rotation angle, in degrees counterclockwise*
0 create outline with 5 corners*
4,1,5,$1,$2,$3,$4,$5,$6,$7,$8,$9,$10,$1,$2,$11*%
%AMOutline6P*
0 Free polygon, 6 corners , with rotation*
0 The origin of the aperture is its center*
0 number of corners: always 6*
0 $1 to $12 corner X, Y*
0 $13 Rotation angle, in degrees counterclockwise*
0 create outline with 6 corners*
4,1,6,$1,$2,$3,$4,$5,$6,$7,$8,$9,$10,$11,$12,$1,$2,$13*%
%AMOutline7P*
0 Free polygon, 7 corners , with rotation*
0 The origin of the aperture is its center*
0 number of corners: always 7*
0 $1 to $14 corner X, Y*
0 $15 Rotation angle, in degrees counterclockwise*
0 create outline with 7 corners*
4,1,7,$1,$2,$3,$4,$5,$6,$7,$8,$9,$10,$11,$12,$13,$14,$1,$2,$15*%
%AMOutline8P*
0 Free polygon, 8 corners , with rotation*
0 The origin of the aperture is its center*
0 number of corners: always 8*
0 $1 to $16 corner X, Y*
0 $17 Rotation angle, in degrees counterclockwise*
0 create outline with 8 corners*
4,1,8,$1,$2,$3,$4,$5,$6,$7,$8,$9,$10,$11,$12,$13,$14,$15,$16,$1,$2,$17*%
G04 Aperture macros list end*
%ADD10C,0.100000*%
%ADD11C,0.150000*%
%ADD12C,0.120000*%
%ADD13C,0.010000*%
%ADD14RoundRect,0.225000X-0.017678X0.335876X-0.335876X0.017678X0.017678X-0.335876X0.335876X-0.017678X0*%
%ADD15RoundRect,0.140000X0.170000X-0.140000X0.170000X0.140000X-0.170000X0.140000X-0.170000X-0.140000X0*%
%ADD16RoundRect,0.225000X0.250000X-0.225000X0.250000X0.225000X-0.250000X0.225000X-0.250000X-0.225000X0*%
%ADD17C,2.600000*%
%ADD18C,3.800000*%
%ADD19RoundRect,0.200000X0.200000X0.275000X-0.200000X0.275000X-0.200000X-0.275000X0.200000X-0.275000X0*%
%ADD20R,0.400000X0.800000*%
%ADD21R,0.800000X0.400000*%
%ADD22Outline5P,-0.600000X0.204000X-0.204000X0.600000X0.600000X0.600000X0.600000X-0.600000X-0.600000X-0.600000X270.000000*%
%ADD23R,1.200000X1.200000*%
%ADD24R,0.800000X0.800000*%
%ADD25RoundRect,0.062500X-0.062500X0.350000X-0.062500X-0.350000X0.062500X-0.350000X0.062500X0.350000X0*%
%ADD26RoundRect,0.062500X-0.350000X0.062500X-0.350000X-0.062500X0.350000X-0.062500X0.350000X0.062500X0*%
%ADD27R,2.600000X2.600000*%
%ADD28RoundRect,0.112500X-0.112500X0.187500X-0.112500X-0.187500X0.112500X-0.187500X0.112500X0.187500X0*%
%ADD29RoundRect,0.100000X0.100000X-0.712500X0.100000X0.712500X-0.100000X0.712500X-0.100000X-0.712500X0*%
%ADD30RoundRect,0.218750X0.218750X0.381250X-0.218750X0.381250X-0.218750X-0.381250X0.218750X-0.381250X0*%
%ADD31RoundRect,0.112500X0.112500X-0.187500X0.112500X0.187500X-0.112500X0.187500X-0.112500X-0.187500X0*%
%ADD32RoundRect,0.200000X-0.200000X-0.275000X0.200000X-0.275000X0.200000X0.275000X-0.200000X0.275000X0*%
%ADD33RoundRect,0.225000X-0.225000X-0.250000X0.225000X-0.250000X0.225000X0.250000X-0.225000X0.250000X0*%
%ADD34RoundRect,0.062500X0.062500X-0.062500X0.062500X0.062500X-0.062500X0.062500X-0.062500X-0.062500X0*%
%ADD35RoundRect,0.225000X-0.250000X0.225000X-0.250000X-0.225000X0.250000X-0.225000X0.250000X0.225000X0*%
%ADD36RoundRect,0.150000X-0.825000X-0.150000X0.825000X-0.150000X0.825000X0.150000X-0.825000X0.150000X0*%
%ADD37R,2.410000X3.300000*%
%ADD38RoundRect,0.140000X0.140000X0.170000X-0.140000X0.170000X-0.140000X-0.170000X0.140000X-0.170000X0*%
%ADD39RoundRect,0.200000X0.275000X-0.200000X0.275000X0.200000X-0.275000X0.200000X-0.275000X-0.200000X0*%
%ADD40RoundRect,0.225000X0.335876X0.017678X0.017678X0.335876X-0.335876X-0.017678X-0.017678X-0.335876X0*%
%ADD41R,1.700000X1.700000*%
%ADD42C,1.700000*%
%ADD43R,1.500000X5.080000*%
%ADD44C,0.900000*%
%ADD45RoundRect,0.102000X-0.750000X0.350000X-0.750000X-0.350000X0.750000X-0.350000X0.750000X0.350000X0*%
%ADD46RoundRect,0.102000X-0.400000X0.500000X-0.400000X-0.500000X0.400000X-0.500000X0.400000X0.500000X0*%
%ADD47C,0.650000*%
%ADD48RoundRect,0.150000X-0.150000X-0.425000X0.150000X-0.425000X0.150000X0.425000X-0.150000X0.425000X0*%
%ADD49RoundRect,0.075000X-0.075000X-0.500000X0.075000X-0.500000X0.075000X0.500000X-0.075000X0.500000X0*%
%ADD50RoundRect,0.250000X-0.840000X-0.750000X0.840000X-0.750000X0.840000X0.750000X-0.840000X0.750000X0*%
%ADD51RoundRect,0.140000X-0.170000X0.140000X-0.170000X-0.140000X0.170000X-0.140000X0.170000X0.140000X0*%
%ADD52RoundRect,0.250000X-0.625000X0.350000X-0.625000X-0.350000X0.625000X-0.350000X0.625000X0.350000X0*%
%ADD53O,1.750000X1.200000*%
%ADD54RoundRect,0.140000X-0.140000X-0.170000X0.140000X-0.170000X0.140000X0.170000X-0.140000X0.170000X0*%
%ADD55RoundRect,0.075000X-0.225000X-0.075000X0.225000X-0.075000X0.225000X0.075000X-0.225000X0.075000X0*%
%ADD56RoundRect,0.075000X-0.075000X-0.237500X0.075000X-0.237500X0.075000X0.237500X-0.075000X0.237500X0*%
%ADD57RoundRect,0.250000X-0.250000X-0.475000X0.250000X-0.475000X0.250000X0.475000X-0.250000X0.475000X0*%
%ADD58RoundRect,0.135000X-0.135000X-0.185000X0.135000X-0.185000X0.135000X0.185000X-0.135000X0.185000X0*%
%ADD59RoundRect,0.087500X0.087500X-0.662500X0.087500X0.662500X-0.087500X0.662500X-0.087500X-0.662500X0*%
%ADD60RoundRect,0.218750X-0.256250X0.218750X-0.256250X-0.218750X0.256250X-0.218750X0.256250X0.218750X0*%
G04 APERTURE END LIST*
D10*
X102656265Y-36986704D02*
X103132455Y-36986704D01*
X102561027Y-37272419D02*
X102894360Y-36272419D01*
X102894360Y-36272419D02*
X103227693Y-37272419D01*
X103561027Y-37272419D02*
X103561027Y-36272419D01*
X103561027Y-36272419D02*
X104132455Y-37272419D01*
X104132455Y-37272419D02*
X104132455Y-36272419D01*
X104465789Y-36272419D02*
X105037217Y-36272419D01*
X104751503Y-37272419D02*
X104751503Y-36272419D01*
X105894360Y-37272419D02*
X105322932Y-37272419D01*
X105608646Y-37272419D02*
X105608646Y-36272419D01*
X105608646Y-36272419D02*
X105513408Y-36415276D01*
X105513408Y-36415276D02*
X105418170Y-36510514D01*
X105418170Y-36510514D02*
X105322932Y-36558133D01*
X92662475Y-91238972D02*
X93662475Y-90905639D01*
X93662475Y-90905639D02*
X92662475Y-90572306D01*
X93662475Y-90238972D02*
X92662475Y-90238972D01*
X93662475Y-89762782D02*
X92662475Y-89762782D01*
X92662475Y-89762782D02*
X92662475Y-89381830D01*
X92662475Y-89381830D02*
X92710094Y-89286592D01*
X92710094Y-89286592D02*
X92757713Y-89238973D01*
X92757713Y-89238973D02*
X92852951Y-89191354D01*
X92852951Y-89191354D02*
X92995808Y-89191354D01*
X92995808Y-89191354D02*
X93091046Y-89238973D01*
X93091046Y-89238973D02*
X93138665Y-89286592D01*
X93138665Y-89286592D02*
X93186284Y-89381830D01*
X93186284Y-89381830D02*
X93186284Y-89762782D01*
X93662475Y-88191354D02*
X93186284Y-88524687D01*
X93662475Y-88762782D02*
X92662475Y-88762782D01*
X92662475Y-88762782D02*
X92662475Y-88381830D01*
X92662475Y-88381830D02*
X92710094Y-88286592D01*
X92710094Y-88286592D02*
X92757713Y-88238973D01*
X92757713Y-88238973D02*
X92852951Y-88191354D01*
X92852951Y-88191354D02*
X92995808Y-88191354D01*
X92995808Y-88191354D02*
X93091046Y-88238973D01*
X93091046Y-88238973D02*
X93138665Y-88286592D01*
X93138665Y-88286592D02*
X93186284Y-88381830D01*
X93186284Y-88381830D02*
X93186284Y-88762782D01*
X95272419Y-90524687D02*
X94796228Y-90858020D01*
X95272419Y-91096115D02*
X94272419Y-91096115D01*
X94272419Y-91096115D02*
X94272419Y-90715163D01*
X94272419Y-90715163D02*
X94320038Y-90619925D01*
X94320038Y-90619925D02*
X94367657Y-90572306D01*
X94367657Y-90572306D02*
X94462895Y-90524687D01*
X94462895Y-90524687D02*
X94605752Y-90524687D01*
X94605752Y-90524687D02*
X94700990Y-90572306D01*
X94700990Y-90572306D02*
X94748609Y-90619925D01*
X94748609Y-90619925D02*
X94796228Y-90715163D01*
X94796228Y-90715163D02*
X94796228Y-91096115D01*
X95224800Y-89715163D02*
X95272419Y-89810401D01*
X95272419Y-89810401D02*
X95272419Y-90000877D01*
X95272419Y-90000877D02*
X95224800Y-90096115D01*
X95224800Y-90096115D02*
X95129561Y-90143734D01*
X95129561Y-90143734D02*
X94748609Y-90143734D01*
X94748609Y-90143734D02*
X94653371Y-90096115D01*
X94653371Y-90096115D02*
X94605752Y-90000877D01*
X94605752Y-90000877D02*
X94605752Y-89810401D01*
X94605752Y-89810401D02*
X94653371Y-89715163D01*
X94653371Y-89715163D02*
X94748609Y-89667544D01*
X94748609Y-89667544D02*
X94843847Y-89667544D01*
X94843847Y-89667544D02*
X94939085Y-90143734D01*
X94605752Y-89334210D02*
X95272419Y-89096115D01*
X95272419Y-89096115D02*
X94605752Y-88858020D01*
X94367657Y-88524686D02*
X94320038Y-88477067D01*
X94320038Y-88477067D02*
X94272419Y-88381829D01*
X94272419Y-88381829D02*
X94272419Y-88143734D01*
X94272419Y-88143734D02*
X94320038Y-88048496D01*
X94320038Y-88048496D02*
X94367657Y-88000877D01*
X94367657Y-88000877D02*
X94462895Y-87953258D01*
X94462895Y-87953258D02*
X94558133Y-87953258D01*
X94558133Y-87953258D02*
X94700990Y-88000877D01*
X94700990Y-88000877D02*
X95272419Y-88572305D01*
X95272419Y-88572305D02*
X95272419Y-87953258D01*
X95177180Y-87524686D02*
X95224800Y-87477067D01*
X95224800Y-87477067D02*
X95272419Y-87524686D01*
X95272419Y-87524686D02*
X95224800Y-87572305D01*
X95224800Y-87572305D02*
X95177180Y-87524686D01*
X95177180Y-87524686D02*
X95272419Y-87524686D01*
X95272419Y-86524687D02*
X95272419Y-87096115D01*
X95272419Y-86810401D02*
X94272419Y-86810401D01*
X94272419Y-86810401D02*
X94415276Y-86905639D01*
X94415276Y-86905639D02*
X94510514Y-87000877D01*
X94510514Y-87000877D02*
X94558133Y-87096115D01*
X105261334Y-54503884D02*
X105261334Y-54837217D01*
X104737524Y-54980074D02*
X104737524Y-54503884D01*
X104737524Y-54503884D02*
X105737524Y-54503884D01*
X105737524Y-54503884D02*
X105737524Y-54980074D01*
X104785144Y-55361027D02*
X104737524Y-55503884D01*
X104737524Y-55503884D02*
X104737524Y-55741979D01*
X104737524Y-55741979D02*
X104785144Y-55837217D01*
X104785144Y-55837217D02*
X104832763Y-55884836D01*
X104832763Y-55884836D02*
X104928001Y-55932455D01*
X104928001Y-55932455D02*
X105023239Y-55932455D01*
X105023239Y-55932455D02*
X105118477Y-55884836D01*
X105118477Y-55884836D02*
X105166096Y-55837217D01*
X105166096Y-55837217D02*
X105213715Y-55741979D01*
X105213715Y-55741979D02*
X105261334Y-55551503D01*
X105261334Y-55551503D02*
X105308953Y-55456265D01*
X105308953Y-55456265D02*
X105356572Y-55408646D01*
X105356572Y-55408646D02*
X105451810Y-55361027D01*
X105451810Y-55361027D02*
X105547048Y-55361027D01*
X105547048Y-55361027D02*
X105642286Y-55408646D01*
X105642286Y-55408646D02*
X105689905Y-55456265D01*
X105689905Y-55456265D02*
X105737524Y-55551503D01*
X105737524Y-55551503D02*
X105737524Y-55789598D01*
X105737524Y-55789598D02*
X105689905Y-55932455D01*
X104737524Y-56361027D02*
X105737524Y-56361027D01*
X105737524Y-56361027D02*
X105737524Y-56741979D01*
X105737524Y-56741979D02*
X105689905Y-56837217D01*
X105689905Y-56837217D02*
X105642286Y-56884836D01*
X105642286Y-56884836D02*
X105547048Y-56932455D01*
X105547048Y-56932455D02*
X105404191Y-56932455D01*
X105404191Y-56932455D02*
X105308953Y-56884836D01*
X105308953Y-56884836D02*
X105261334Y-56837217D01*
X105261334Y-56837217D02*
X105213715Y-56741979D01*
X105213715Y-56741979D02*
X105213715Y-56361027D01*
X105737524Y-57265789D02*
X105737524Y-57884836D01*
X105737524Y-57884836D02*
X105356572Y-57551503D01*
X105356572Y-57551503D02*
X105356572Y-57694360D01*
X105356572Y-57694360D02*
X105308953Y-57789598D01*
X105308953Y-57789598D02*
X105261334Y-57837217D01*
X105261334Y-57837217D02*
X105166096Y-57884836D01*
X105166096Y-57884836D02*
X104928001Y-57884836D01*
X104928001Y-57884836D02*
X104832763Y-57837217D01*
X104832763Y-57837217D02*
X104785144Y-57789598D01*
X104785144Y-57789598D02*
X104737524Y-57694360D01*
X104737524Y-57694360D02*
X104737524Y-57408646D01*
X104737524Y-57408646D02*
X104785144Y-57313408D01*
X104785144Y-57313408D02*
X104832763Y-57265789D01*
X105642286Y-58265789D02*
X105689905Y-58313408D01*
X105689905Y-58313408D02*
X105737524Y-58408646D01*
X105737524Y-58408646D02*
X105737524Y-58646741D01*
X105737524Y-58646741D02*
X105689905Y-58741979D01*
X105689905Y-58741979D02*
X105642286Y-58789598D01*
X105642286Y-58789598D02*
X105547048Y-58837217D01*
X105547048Y-58837217D02*
X105451810Y-58837217D01*
X105451810Y-58837217D02*
X105308953Y-58789598D01*
X105308953Y-58789598D02*
X104737524Y-58218170D01*
X104737524Y-58218170D02*
X104737524Y-58837217D01*
X105118477Y-59265789D02*
X105118477Y-60027694D01*
X104785144Y-60456265D02*
X104737524Y-60599122D01*
X104737524Y-60599122D02*
X104737524Y-60837217D01*
X104737524Y-60837217D02*
X104785144Y-60932455D01*
X104785144Y-60932455D02*
X104832763Y-60980074D01*
X104832763Y-60980074D02*
X104928001Y-61027693D01*
X104928001Y-61027693D02*
X105023239Y-61027693D01*
X105023239Y-61027693D02*
X105118477Y-60980074D01*
X105118477Y-60980074D02*
X105166096Y-60932455D01*
X105166096Y-60932455D02*
X105213715Y-60837217D01*
X105213715Y-60837217D02*
X105261334Y-60646741D01*
X105261334Y-60646741D02*
X105308953Y-60551503D01*
X105308953Y-60551503D02*
X105356572Y-60503884D01*
X105356572Y-60503884D02*
X105451810Y-60456265D01*
X105451810Y-60456265D02*
X105547048Y-60456265D01*
X105547048Y-60456265D02*
X105642286Y-60503884D01*
X105642286Y-60503884D02*
X105689905Y-60551503D01*
X105689905Y-60551503D02*
X105737524Y-60646741D01*
X105737524Y-60646741D02*
X105737524Y-60884836D01*
X105737524Y-60884836D02*
X105689905Y-61027693D01*
X105737524Y-61361027D02*
X105737524Y-61980074D01*
X105737524Y-61980074D02*
X105356572Y-61646741D01*
X105356572Y-61646741D02*
X105356572Y-61789598D01*
X105356572Y-61789598D02*
X105308953Y-61884836D01*
X105308953Y-61884836D02*
X105261334Y-61932455D01*
X105261334Y-61932455D02*
X105166096Y-61980074D01*
X105166096Y-61980074D02*
X104928001Y-61980074D01*
X104928001Y-61980074D02*
X104832763Y-61932455D01*
X104832763Y-61932455D02*
X104785144Y-61884836D01*
X104785144Y-61884836D02*
X104737524Y-61789598D01*
X104737524Y-61789598D02*
X104737524Y-61503884D01*
X104737524Y-61503884D02*
X104785144Y-61408646D01*
X104785144Y-61408646D02*
X104832763Y-61361027D01*
X103127580Y-54503884D02*
X104127580Y-54503884D01*
X104127580Y-54503884D02*
X103413295Y-54837217D01*
X103413295Y-54837217D02*
X104127580Y-55170550D01*
X104127580Y-55170550D02*
X103127580Y-55170550D01*
X103127580Y-55646741D02*
X104127580Y-55646741D01*
X103127580Y-56122931D02*
X104127580Y-56122931D01*
X104127580Y-56122931D02*
X103127580Y-56694359D01*
X103127580Y-56694359D02*
X104127580Y-56694359D01*
X103127580Y-57170550D02*
X104127580Y-57170550D01*
X103508533Y-57646740D02*
X103508533Y-58408645D01*
X103127580Y-59408644D02*
X103127580Y-58837216D01*
X103127580Y-59122930D02*
X104127580Y-59122930D01*
X104127580Y-59122930D02*
X103984723Y-59027692D01*
X103984723Y-59027692D02*
X103889485Y-58932454D01*
X103889485Y-58932454D02*
X103841866Y-58837216D01*
X103508533Y-59837216D02*
X103508533Y-60599121D01*
X103127580Y-61075311D02*
X104127580Y-61075311D01*
X104127580Y-61075311D02*
X103127580Y-61646739D01*
X103127580Y-61646739D02*
X104127580Y-61646739D01*
X103699009Y-62265787D02*
X103746628Y-62170549D01*
X103746628Y-62170549D02*
X103794247Y-62122930D01*
X103794247Y-62122930D02*
X103889485Y-62075311D01*
X103889485Y-62075311D02*
X103937104Y-62075311D01*
X103937104Y-62075311D02*
X104032342Y-62122930D01*
X104032342Y-62122930D02*
X104079961Y-62170549D01*
X104079961Y-62170549D02*
X104127580Y-62265787D01*
X104127580Y-62265787D02*
X104127580Y-62456263D01*
X104127580Y-62456263D02*
X104079961Y-62551501D01*
X104079961Y-62551501D02*
X104032342Y-62599120D01*
X104032342Y-62599120D02*
X103937104Y-62646739D01*
X103937104Y-62646739D02*
X103889485Y-62646739D01*
X103889485Y-62646739D02*
X103794247Y-62599120D01*
X103794247Y-62599120D02*
X103746628Y-62551501D01*
X103746628Y-62551501D02*
X103699009Y-62456263D01*
X103699009Y-62456263D02*
X103699009Y-62265787D01*
X103699009Y-62265787D02*
X103651390Y-62170549D01*
X103651390Y-62170549D02*
X103603771Y-62122930D01*
X103603771Y-62122930D02*
X103508533Y-62075311D01*
X103508533Y-62075311D02*
X103318057Y-62075311D01*
X103318057Y-62075311D02*
X103222819Y-62122930D01*
X103222819Y-62122930D02*
X103175200Y-62170549D01*
X103175200Y-62170549D02*
X103127580Y-62265787D01*
X103127580Y-62265787D02*
X103127580Y-62456263D01*
X103127580Y-62456263D02*
X103175200Y-62551501D01*
X103175200Y-62551501D02*
X103222819Y-62599120D01*
X103222819Y-62599120D02*
X103318057Y-62646739D01*
X103318057Y-62646739D02*
X103508533Y-62646739D01*
X103508533Y-62646739D02*
X103603771Y-62599120D01*
X103603771Y-62599120D02*
X103651390Y-62551501D01*
X103651390Y-62551501D02*
X103699009Y-62456263D01*
D11*
X89711666Y-46879819D02*
X89711666Y-47594104D01*
X89711666Y-47594104D02*
X89664047Y-47736961D01*
X89664047Y-47736961D02*
X89568809Y-47832200D01*
X89568809Y-47832200D02*
X89425952Y-47879819D01*
X89425952Y-47879819D02*
X89330714Y-47879819D01*
X90092619Y-46879819D02*
X90711666Y-46879819D01*
X90711666Y-46879819D02*
X90378333Y-47260771D01*
X90378333Y-47260771D02*
X90521190Y-47260771D01*
X90521190Y-47260771D02*
X90616428Y-47308390D01*
X90616428Y-47308390D02*
X90664047Y-47356009D01*
X90664047Y-47356009D02*
X90711666Y-47451247D01*
X90711666Y-47451247D02*
X90711666Y-47689342D01*
X90711666Y-47689342D02*
X90664047Y-47784580D01*
X90664047Y-47784580D02*
X90616428Y-47832200D01*
X90616428Y-47832200D02*
X90521190Y-47879819D01*
X90521190Y-47879819D02*
X90235476Y-47879819D01*
X90235476Y-47879819D02*
X90140238Y-47832200D01*
X90140238Y-47832200D02*
X90092619Y-47784580D01*
G04 #@! TO.C,C14*
D12*
X98889939Y-39639970D02*
X98691128Y-39838781D01*
X99611188Y-40361219D02*
X99412377Y-40560030D01*
G04 #@! TO.C,C17*
X105791158Y-76257836D02*
X105791158Y-76042164D01*
X106511158Y-76257836D02*
X106511158Y-76042164D01*
G04 #@! TO.C,C16*
X91241158Y-75965580D02*
X91241158Y-75684420D01*
X92261158Y-75965580D02*
X92261158Y-75684420D01*
G04 #@! TO.C,R2*
X105488416Y-82827500D02*
X105013900Y-82827500D01*
X105488416Y-83872500D02*
X105013900Y-83872500D01*
G04 #@! TO.C,U4*
X92451158Y-50900000D02*
X113151158Y-50900000D01*
X92451158Y-66500000D02*
X92451158Y-50900000D01*
X113151158Y-50900000D02*
X113151158Y-66500000D01*
X113151158Y-66500000D02*
X92451158Y-66500000D01*
X113401158Y-50625000D02*
X110951158Y-50625000D01*
X113401158Y-50625000D02*
X113401158Y-53075000D01*
X106201158Y-50725000D02*
X105961158Y-50389000D01*
X106441158Y-50389000D01*
X106201158Y-50725000D01*
G36*
X106201158Y-50725000D02*
G01*
X105961158Y-50389000D01*
X106441158Y-50389000D01*
X106201158Y-50725000D01*
G37*
G04 #@! TO.C,U1*
X96641158Y-43890000D02*
X97116158Y-43890000D01*
X96641158Y-44365000D02*
X96641158Y-43890000D01*
X96641158Y-48110000D02*
X96641158Y-47635000D01*
X97116158Y-48110000D02*
X96641158Y-48110000D01*
X100386158Y-43890000D02*
X100861158Y-43890000D01*
X100861158Y-43890000D02*
X100861158Y-44365000D01*
X100861158Y-47635000D02*
X100861158Y-48110000D01*
X100861158Y-48110000D02*
X100386158Y-48110000D01*
X100001158Y-43390000D02*
X99761158Y-43060000D01*
X100241158Y-43060000D01*
X100001158Y-43390000D01*
G36*
X100001158Y-43390000D02*
G01*
X99761158Y-43060000D01*
X100241158Y-43060000D01*
X100001158Y-43390000D01*
G37*
G04 #@! TO.C,D1*
X96601158Y-82440000D02*
X96601158Y-85100000D01*
X98301158Y-82440000D02*
X96601158Y-82440000D01*
X98301158Y-82440000D02*
X98301158Y-85100000D01*
G04 #@! TO.C,U6*
X95541158Y-76040000D02*
X95716158Y-76040000D01*
X95541158Y-79260000D02*
X95541158Y-76040000D01*
X95716158Y-79260000D02*
X95541158Y-79260000D01*
X98586158Y-76040000D02*
X98761158Y-76040000D01*
X98761158Y-76040000D02*
X98761158Y-79260000D01*
X98761158Y-79260000D02*
X98586158Y-79260000D01*
X95711158Y-79810000D02*
X95381158Y-80050000D01*
X95381158Y-79570000D01*
X95711158Y-79810000D01*
G36*
X95711158Y-79810000D02*
G01*
X95381158Y-80050000D01*
X95381158Y-79570000D01*
X95711158Y-79810000D01*
G37*
G04 #@! TO.C,L1*
X96088280Y-40390000D02*
X95289036Y-40390000D01*
X96088280Y-41510000D02*
X95289036Y-41510000D01*
G04 #@! TO.C,D2*
X93401158Y-77810000D02*
X93401158Y-75150000D01*
X93401158Y-77810000D02*
X95101158Y-77810000D01*
X95101158Y-77810000D02*
X95101158Y-75150000D01*
G04 #@! TO.C,C11*
X95228658Y-42957836D02*
X95228658Y-42742164D01*
X95948658Y-42957836D02*
X95948658Y-42742164D01*
G04 #@! TO.C,C7*
X94440000Y-45107836D02*
X94440000Y-44892164D01*
X95160000Y-45107836D02*
X95160000Y-44892164D01*
G04 #@! TO.C,R7*
X100588900Y-74077500D02*
X101063416Y-74077500D01*
X100588900Y-75122500D02*
X101063416Y-75122500D01*
G04 #@! TO.C,C1*
X94610578Y-81290000D02*
X94891738Y-81290000D01*
X94610578Y-82310000D02*
X94891738Y-82310000D01*
G04 #@! TO.C,U3*
X106166158Y-43985000D02*
X106166158Y-43015000D01*
X107736158Y-43015000D02*
X106166158Y-43015000D01*
X107736158Y-44185000D02*
X106366158Y-44185000D01*
X107736158Y-44185000D02*
X107736158Y-43015000D01*
D10*
X106151158Y-44200000D02*
X106151158Y-44560000D01*
X105791158Y-44200000D01*
X106151158Y-44200000D01*
G36*
X106151158Y-44560000D02*
G01*
X105791158Y-44200000D01*
X106151158Y-44200000D01*
X106151158Y-44560000D01*
G37*
G04 #@! TO.C,C2*
D12*
X99241158Y-79959420D02*
X99241158Y-80240580D01*
X100261158Y-79959420D02*
X100261158Y-80240580D01*
G04 #@! TO.C,U2*
X100591158Y-68190000D02*
X104711158Y-68190000D01*
X100591158Y-68285000D02*
X100591158Y-68190000D01*
X100591158Y-73310000D02*
X100591158Y-73215000D01*
X104711158Y-68190000D02*
X104711158Y-68285000D01*
X104711158Y-73215000D02*
X104711158Y-73310000D01*
X104711158Y-73310000D02*
X100591158Y-73310000D01*
X100051158Y-68280000D02*
X99811158Y-67950000D01*
X100291158Y-67950000D01*
X100051158Y-68280000D01*
G36*
X100051158Y-68280000D02*
G01*
X99811158Y-67950000D01*
X100291158Y-67950000D01*
X100051158Y-68280000D01*
G37*
G04 #@! TO.C,C3*
X104958994Y-49840000D02*
X104743322Y-49840000D01*
X104958994Y-50560000D02*
X104743322Y-50560000D01*
G04 #@! TO.C,R9*
X92528658Y-45637258D02*
X92528658Y-45162742D01*
X93573658Y-45637258D02*
X93573658Y-45162742D01*
G04 #@! TO.C,C5*
X100841158Y-79040580D02*
X100841158Y-78759420D01*
X101861158Y-79040580D02*
X101861158Y-78759420D01*
G04 #@! TO.C,R10*
X92528658Y-49137258D02*
X92528658Y-48662742D01*
X93573658Y-49137258D02*
X93573658Y-48662742D01*
G04 #@! TO.C,C15*
X100859420Y-84390000D02*
X101140580Y-84390000D01*
X100859420Y-85410000D02*
X101140580Y-85410000D01*
G04 #@! TO.C,R4*
X96813900Y-49077500D02*
X97288416Y-49077500D01*
X96813900Y-50122500D02*
X97288416Y-50122500D01*
G04 #@! TO.C,C13*
X104491158Y-41587836D02*
X104491158Y-41372164D01*
X105211158Y-41587836D02*
X105211158Y-41372164D01*
G04 #@! TO.C,C12*
X100389939Y-42560030D02*
X100191128Y-42361219D01*
X101111188Y-41838781D02*
X100912377Y-41639970D01*
G04 #@! TO.C,J3*
X88665000Y-48425000D02*
X90045000Y-48425000D01*
X88665000Y-49805000D02*
X88665000Y-48425000D01*
X88665000Y-51075000D02*
X88665000Y-66425000D01*
X88665000Y-51075000D02*
X91425000Y-51075000D01*
X88665000Y-66425000D02*
X91425000Y-66425000D01*
X91425000Y-51075000D02*
X91425000Y-66425000D01*
G04 #@! TO.C,C6*
X97276494Y-41990000D02*
X97060822Y-41990000D01*
X97276494Y-42710000D02*
X97060822Y-42710000D01*
G04 #@! TO.C,J2*
X100080000Y-36577600D02*
X100580000Y-36577600D01*
X100330000Y-36077600D02*
X100080000Y-36577600D01*
X100580000Y-36577600D02*
X100330000Y-36077600D01*
G04 #@! TO.C,SW1*
D10*
X86400000Y-82550000D02*
X86400000Y-83250000D01*
X86400000Y-83250000D02*
X86700000Y-83550000D01*
X86700000Y-82250000D02*
X86400000Y-82550000D01*
X86700000Y-83550000D02*
X87900000Y-83550000D01*
X87900000Y-82250000D02*
X86700000Y-82250000D01*
X87900000Y-82250000D02*
X87900000Y-78900000D01*
X87900000Y-82250000D02*
X87900000Y-83550000D01*
X87900000Y-83550000D02*
X87900000Y-85600000D01*
X87900000Y-85600000D02*
X90500000Y-85600000D01*
X90500000Y-78900000D02*
X87900000Y-78900000D01*
X90500000Y-85600000D02*
X90500000Y-78900000D01*
D13*
X88250000Y-78397570D02*
X88250000Y-78900000D01*
X87849150Y-78900000D01*
X87849150Y-78397570D01*
X88250000Y-78397570D01*
G36*
X88250000Y-78900000D02*
G01*
X87849150Y-78900000D01*
X87849150Y-78397570D01*
X88250000Y-78397570D01*
X88250000Y-78900000D01*
G37*
X88250000Y-85603270D02*
X88250000Y-86100000D01*
X87848680Y-86100000D01*
X87848680Y-85603270D01*
X88250000Y-85603270D01*
G36*
X88250000Y-86100000D02*
G01*
X87848680Y-86100000D01*
X87848680Y-85603270D01*
X88250000Y-85603270D01*
X88250000Y-86100000D01*
G37*
X90550000Y-78395740D02*
X90550000Y-78900000D01*
X90151052Y-78900000D01*
X90151052Y-78395740D01*
X90550000Y-78395740D01*
G36*
X90550000Y-78900000D02*
G01*
X90151052Y-78900000D01*
X90151052Y-78395740D01*
X90550000Y-78395740D01*
X90550000Y-78900000D01*
G37*
X90550000Y-85606180D02*
X90550000Y-86100000D01*
X90151751Y-86100000D01*
X90151751Y-85606180D01*
X90550000Y-85606180D01*
G36*
X90550000Y-86100000D02*
G01*
X90151751Y-86100000D01*
X90151751Y-85606180D01*
X90550000Y-85606180D01*
X90550000Y-86100000D01*
G37*
X91400000Y-79798000D02*
X91400000Y-80200000D01*
X90501060Y-80200000D01*
X90501060Y-79798000D01*
X91400000Y-79798000D01*
G36*
X91400000Y-80200000D02*
G01*
X90501060Y-80200000D01*
X90501060Y-79798000D01*
X91400000Y-79798000D01*
X91400000Y-80200000D01*
G37*
X91400000Y-82800814D02*
X91400000Y-83200000D01*
X90501920Y-83200000D01*
X90501920Y-82800814D01*
X91400000Y-82800814D01*
G36*
X91400000Y-83200000D02*
G01*
X90501920Y-83200000D01*
X90501920Y-82800814D01*
X91400000Y-82800814D01*
X91400000Y-83200000D01*
G37*
X91400000Y-84300040D02*
X91400000Y-84700000D01*
X90500030Y-84700000D01*
X90500030Y-84300040D01*
X91400000Y-84300040D01*
G36*
X91400000Y-84700000D02*
G01*
X90500030Y-84700000D01*
X90500030Y-84300040D01*
X91400000Y-84300040D01*
X91400000Y-84700000D01*
G37*
G04 #@! TO.C,J1*
D12*
X97661158Y-90090000D02*
X97661158Y-88680000D01*
X98481158Y-86010000D02*
X98481158Y-86160000D01*
X99281158Y-86010000D02*
X98481158Y-86010000D01*
X106821158Y-90090000D02*
X106821158Y-88680000D01*
G04 #@! TO.C,C10*
X94228658Y-47442164D02*
X94228658Y-47657836D01*
X94948658Y-47442164D02*
X94948658Y-47657836D01*
G04 #@! TO.C,BT1*
X87690000Y-67590000D02*
X87690000Y-73710000D01*
X87690000Y-70150000D02*
X92050000Y-70150000D01*
X87690000Y-73710000D02*
X95510000Y-73710000D01*
X89950000Y-68850000D02*
X87690000Y-68850000D01*
X89950000Y-69350000D02*
X87690000Y-69350000D01*
X92050000Y-70150000D02*
X92050000Y-71150000D01*
X92050000Y-71150000D02*
X87690000Y-71150000D01*
X93910000Y-67590000D02*
X93910000Y-68510000D01*
X93910000Y-68510000D02*
X95510000Y-68510000D01*
X93910000Y-68790000D02*
X93910000Y-68510000D01*
X93910000Y-68790000D02*
X95125000Y-68790000D01*
X93910000Y-72790000D02*
X93910000Y-72510000D01*
X93910000Y-73710000D02*
X93910000Y-72790000D01*
X95510000Y-67590000D02*
X87690000Y-67590000D01*
X95510000Y-68510000D02*
X95510000Y-67590000D01*
X95510000Y-72790000D02*
X93910000Y-72790000D01*
X95510000Y-73710000D02*
X95510000Y-72790000D01*
X89950000Y-68350000D02*
X91550000Y-68350000D01*
X91550000Y-69350000D01*
X89950000Y-69350000D01*
X89950000Y-68350000D01*
X89950000Y-71950000D02*
X91550000Y-71950000D01*
X91550000Y-72950000D01*
X89950000Y-72950000D01*
X89950000Y-71950000D01*
G04 #@! TO.C,C18*
X101063322Y-75690000D02*
X101278994Y-75690000D01*
X101063322Y-76410000D02*
X101278994Y-76410000D01*
G04 #@! TO.C,FL1*
X104340645Y-44640000D02*
X104341158Y-44640000D01*
X104341158Y-46960000D02*
X104016158Y-46960000D01*
X105161158Y-44640000D02*
X105486158Y-44640000D01*
X105486158Y-46960000D02*
X105161158Y-46960000D01*
X104051158Y-44630000D02*
X103811158Y-44300000D01*
X104291158Y-44300000D01*
X104051158Y-44630000D01*
G36*
X104051158Y-44630000D02*
G01*
X103811158Y-44300000D01*
X104291158Y-44300000D01*
X104051158Y-44630000D01*
G37*
G04 #@! TO.C,C4*
X103089906Y-47865000D02*
X103612410Y-47865000D01*
X103089906Y-49335000D02*
X103612410Y-49335000D01*
G04 #@! TO.C,R1*
X100413416Y-82827500D02*
X99938900Y-82827500D01*
X100413416Y-83872500D02*
X99938900Y-83872500D01*
G04 #@! TO.C,R5*
X102587517Y-39720000D02*
X102894799Y-39720000D01*
X102587517Y-40480000D02*
X102894799Y-40480000D01*
G04 #@! TO.C,U7*
X102341158Y-77490000D02*
X102516158Y-77490000D01*
X102341158Y-80710000D02*
X102341158Y-77490000D01*
X102516158Y-80710000D02*
X102341158Y-80710000D01*
X105386158Y-77490000D02*
X105561158Y-77490000D01*
X105561158Y-77490000D02*
X105561158Y-80710000D01*
X105561158Y-80710000D02*
X105386158Y-80710000D01*
X102511158Y-81260000D02*
X102181158Y-81500000D01*
X102181158Y-81020000D01*
X102511158Y-81260000D01*
G36*
X102511158Y-81260000D02*
G01*
X102181158Y-81500000D01*
X102181158Y-81020000D01*
X102511158Y-81260000D01*
G37*
G04 #@! TO.C,L2*
X102641158Y-42537221D02*
X102641158Y-42862779D01*
X103661158Y-42537221D02*
X103661158Y-42862779D01*
G04 #@! TD*
%LPC*%
D14*
G04 #@! TO.C,C14*
X99699166Y-39551992D03*
X98603150Y-40648008D03*
G04 #@! TD*
D15*
G04 #@! TO.C,C17*
X106151158Y-76630000D03*
X106151158Y-75670000D03*
G04 #@! TD*
D16*
G04 #@! TO.C,C16*
X91751158Y-76600000D03*
X91751158Y-75050000D03*
G04 #@! TD*
D17*
G04 #@! TO.C,H1*
X90200000Y-91000000D03*
D18*
X90200000Y-91000000D03*
G04 #@! TD*
D19*
G04 #@! TO.C,R2*
X106076158Y-83350000D03*
X104426158Y-83350000D03*
G04 #@! TD*
D20*
G04 #@! TO.C,U4*
X106201158Y-51700000D03*
X105351158Y-51700000D03*
X104501158Y-51700000D03*
X103651158Y-51700000D03*
X102801158Y-51700000D03*
X101951158Y-51700000D03*
X101101158Y-51700000D03*
X100251158Y-51700000D03*
X99401158Y-51700000D03*
X98551158Y-51700000D03*
X97701158Y-51700000D03*
X96851158Y-51700000D03*
X96001158Y-51700000D03*
X95151158Y-51700000D03*
X94301158Y-51700000D03*
D21*
X93251158Y-52750000D03*
X93251158Y-53600000D03*
X93251158Y-54450000D03*
X93251158Y-55300000D03*
X93251158Y-56150000D03*
X93251158Y-57000000D03*
X93251158Y-57850000D03*
X93251158Y-58700000D03*
X93251158Y-59550000D03*
X93251158Y-60400000D03*
X93251158Y-61250000D03*
X93251158Y-62100000D03*
X93251158Y-62950000D03*
X93251158Y-63800000D03*
X93251158Y-64650000D03*
D20*
X94301158Y-65700000D03*
X95151158Y-65700000D03*
X96001158Y-65700000D03*
X96851158Y-65700000D03*
X97701158Y-65700000D03*
X98551158Y-65700000D03*
X99401158Y-65700000D03*
X100251158Y-65700000D03*
X101101158Y-65700000D03*
X101951158Y-65700000D03*
X102801158Y-65700000D03*
X103651158Y-65700000D03*
X104501158Y-65700000D03*
X105351158Y-65700000D03*
X106201158Y-65700000D03*
D21*
X107251158Y-64650000D03*
X107251158Y-63800000D03*
X107251158Y-62950000D03*
X107251158Y-62100000D03*
X107251158Y-61250000D03*
X107251158Y-60400000D03*
X107251158Y-59550000D03*
X107251158Y-58700000D03*
X107251158Y-57850000D03*
X107251158Y-57000000D03*
X107251158Y-56150000D03*
X107251158Y-55300000D03*
X107251158Y-54450000D03*
X107251158Y-53600000D03*
X107251158Y-52750000D03*
D22*
X101901158Y-57050000D03*
D23*
X100251158Y-57050000D03*
X98601158Y-57050000D03*
X101901158Y-58700000D03*
X100251158Y-58700000D03*
X98601158Y-58700000D03*
X101901158Y-60350000D03*
X100251158Y-60350000D03*
X98601158Y-60350000D03*
D24*
X107251158Y-51700000D03*
X93251158Y-51700000D03*
X93251158Y-65700000D03*
X107251158Y-65700000D03*
G04 #@! TD*
D25*
G04 #@! TO.C,U1*
X100001158Y-44062500D03*
X99501158Y-44062500D03*
X99001158Y-44062500D03*
X98501158Y-44062500D03*
X98001158Y-44062500D03*
X97501158Y-44062500D03*
D26*
X96813658Y-44750000D03*
X96813658Y-45250000D03*
X96813658Y-45750000D03*
X96813658Y-46250000D03*
X96813658Y-46750000D03*
X96813658Y-47250000D03*
D25*
X97501158Y-47937500D03*
X98001158Y-47937500D03*
X98501158Y-47937500D03*
X99001158Y-47937500D03*
X99501158Y-47937500D03*
X100001158Y-47937500D03*
D26*
X100688658Y-47250000D03*
X100688658Y-46750000D03*
X100688658Y-46250000D03*
X100688658Y-45750000D03*
X100688658Y-45250000D03*
X100688658Y-44750000D03*
D27*
X98751158Y-46000000D03*
G04 #@! TD*
D28*
G04 #@! TO.C,D1*
X97451158Y-83000000D03*
X97451158Y-85100000D03*
G04 #@! TD*
D29*
G04 #@! TO.C,U6*
X96176158Y-79762500D03*
X96826158Y-79762500D03*
X97476158Y-79762500D03*
X98126158Y-79762500D03*
X98126158Y-75537500D03*
X97476158Y-75537500D03*
X96826158Y-75537500D03*
X96176158Y-75537500D03*
G04 #@! TD*
D17*
G04 #@! TO.C,H2*
X93200000Y-37800000D03*
D18*
X93200000Y-37800000D03*
G04 #@! TD*
D30*
G04 #@! TO.C,L1*
X96751158Y-40950000D03*
X94626158Y-40950000D03*
G04 #@! TD*
D31*
G04 #@! TO.C,D2*
X94251158Y-77250000D03*
X94251158Y-75150000D03*
G04 #@! TD*
D15*
G04 #@! TO.C,C11*
X95588658Y-43330000D03*
X95588658Y-42370000D03*
G04 #@! TD*
G04 #@! TO.C,C7*
X94800000Y-45480000D03*
X94800000Y-44520000D03*
G04 #@! TD*
D32*
G04 #@! TO.C,R7*
X100001158Y-74600000D03*
X101651158Y-74600000D03*
G04 #@! TD*
D33*
G04 #@! TO.C,C1*
X93976158Y-81800000D03*
X95526158Y-81800000D03*
G04 #@! TD*
D34*
G04 #@! TO.C,U3*
X106551158Y-43800000D03*
X106951158Y-43800000D03*
X107351158Y-43800000D03*
X107351158Y-43400000D03*
X106951158Y-43400000D03*
X106551158Y-43400000D03*
G04 #@! TD*
D35*
G04 #@! TO.C,C2*
X99751158Y-79325000D03*
X99751158Y-80875000D03*
G04 #@! TD*
D36*
G04 #@! TO.C,U2*
X100176158Y-68845000D03*
X100176158Y-70115000D03*
X100176158Y-71385000D03*
X100176158Y-72655000D03*
X105126158Y-72655000D03*
X105126158Y-71385000D03*
X105126158Y-70115000D03*
X105126158Y-68845000D03*
D37*
X102651158Y-70750000D03*
G04 #@! TD*
D38*
G04 #@! TO.C,C3*
X105331158Y-50200000D03*
X104371158Y-50200000D03*
G04 #@! TD*
D39*
G04 #@! TO.C,R9*
X93051158Y-46225000D03*
X93051158Y-44575000D03*
G04 #@! TD*
D16*
G04 #@! TO.C,C5*
X101351158Y-79675000D03*
X101351158Y-78125000D03*
G04 #@! TD*
D39*
G04 #@! TO.C,R10*
X93051158Y-49725000D03*
X93051158Y-48075000D03*
G04 #@! TD*
D33*
G04 #@! TO.C,C15*
X100225000Y-84900000D03*
X101775000Y-84900000D03*
G04 #@! TD*
D32*
G04 #@! TO.C,R4*
X96226158Y-49600000D03*
X97876158Y-49600000D03*
G04 #@! TD*
D15*
G04 #@! TO.C,C13*
X104851158Y-41960000D03*
X104851158Y-41000000D03*
G04 #@! TD*
D40*
G04 #@! TO.C,C12*
X101199166Y-42648008D03*
X100103150Y-41551992D03*
G04 #@! TD*
D41*
G04 #@! TO.C,J3*
X90045000Y-49805000D03*
D42*
X90045000Y-52345000D03*
X90045000Y-54885000D03*
X90045000Y-57425000D03*
X90045000Y-59965000D03*
X90045000Y-62505000D03*
X90045000Y-65045000D03*
G04 #@! TD*
D38*
G04 #@! TO.C,C6*
X97648658Y-42350000D03*
X96688658Y-42350000D03*
G04 #@! TD*
D43*
G04 #@! TO.C,J2*
X100330000Y-32867600D03*
X96080000Y-32867600D03*
X104580000Y-32867600D03*
G04 #@! TD*
D44*
G04 #@! TO.C,SW1*
X89200000Y-80750000D03*
X89200000Y-83750000D03*
D45*
X91200000Y-80000000D03*
X91200000Y-83000000D03*
X91200000Y-84500000D03*
D46*
X90300000Y-78600000D03*
X90300000Y-85900000D03*
X88100000Y-78600000D03*
X88100000Y-85900000D03*
G04 #@! TD*
D47*
G04 #@! TO.C,J1*
X99351158Y-87920000D03*
X105131158Y-87920000D03*
D48*
X99041158Y-86845000D03*
X99841158Y-86845000D03*
D49*
X100991158Y-86845000D03*
X101991158Y-86845000D03*
X102491158Y-86845000D03*
X103491158Y-86845000D03*
D48*
X104641158Y-86845000D03*
X105441158Y-86845000D03*
X105441158Y-86845000D03*
X104641158Y-86845000D03*
D49*
X103991158Y-86845000D03*
X102991158Y-86845000D03*
X101491158Y-86845000D03*
X100491158Y-86845000D03*
D48*
X99841158Y-86845000D03*
X99041158Y-86845000D03*
D50*
X97131158Y-87420000D03*
X97131158Y-91350000D03*
X107351158Y-87420000D03*
X107351158Y-91350000D03*
G04 #@! TD*
D51*
G04 #@! TO.C,C10*
X94588658Y-47070000D03*
X94588658Y-48030000D03*
G04 #@! TD*
D52*
G04 #@! TO.C,BT1*
X94050000Y-69650000D03*
D53*
X94050000Y-71650000D03*
G04 #@! TD*
D54*
G04 #@! TO.C,C18*
X100691158Y-76050000D03*
X101651158Y-76050000D03*
G04 #@! TD*
D55*
G04 #@! TO.C,FL1*
X104051158Y-45050000D03*
X104051158Y-45550000D03*
X104051158Y-46050000D03*
X104051158Y-46550000D03*
D56*
X104751158Y-46862500D03*
D55*
X105451158Y-46550000D03*
X105451158Y-46050000D03*
X105451158Y-45550000D03*
X105451158Y-45050000D03*
D56*
X104751158Y-44737500D03*
G04 #@! TD*
D57*
G04 #@! TO.C,C4*
X102401158Y-48600000D03*
X104301158Y-48600000D03*
G04 #@! TD*
D19*
G04 #@! TO.C,R1*
X101001158Y-83350000D03*
X99351158Y-83350000D03*
G04 #@! TD*
D58*
G04 #@! TO.C,R5*
X102231158Y-40100000D03*
X103251158Y-40100000D03*
G04 #@! TD*
D59*
G04 #@! TO.C,U7*
X102951158Y-81200000D03*
X103451158Y-81200000D03*
X103951158Y-81200000D03*
X104451158Y-81200000D03*
X104951158Y-81200000D03*
X104951158Y-77000000D03*
X104451158Y-77000000D03*
X103951158Y-77000000D03*
X103451158Y-77000000D03*
X102951158Y-77000000D03*
G04 #@! TD*
D60*
G04 #@! TO.C,L2*
X103151158Y-41912500D03*
X103151158Y-43487500D03*
G04 #@! TD*
%LPD*%
M02*
