M48
; DRILL file KiCad 10.0.5 date 2026-07-30T12:00:32
; FORMAT={-:-/ absolute / metric / decimal}
; #@! TF.CreationDate,2026-07-30T12:00:32-04:00
; #@! TF.GenerationSoftware,Kicad,Pcbnew,10.0.5
; #@! TF.FileFunction,Plated,1,2,PTH
FMAT,2
METRIC
; #@! TA.AperFunction,Plated,PTH,ComponentDrill
T1C0.200
; #@! TA.AperFunction,Plated,PTH,ViaDrill
T2C0.300
; #@! TA.AperFunction,Plated,PTH,ComponentDrill
T3C0.750
; #@! TA.AperFunction,Plated,PTH,ComponentDrill
T4C1.000
; #@! TA.AperFunction,Plated,PTH,ComponentDrill
T5C2.200
%
G90
G05
T1
X101.951Y-69.55
X101.951Y-70.75
X101.951Y-71.95
X103.351Y-69.55
X103.351Y-70.75
X103.351Y-71.95
T2
X90.551Y-77.47
X90.678Y-88.646
X91.313Y-46.101
X92.202Y-88.011
X92.751Y-81.8
X93.345Y-65.659
X93.345Y-70.75
X94.626Y-40.95
X94.651Y-46.2
X94.651Y-56.2
X94.651Y-57.0
X94.936Y-42.936
X95.25Y-78.613
X95.631Y-38.481
X95.758Y-73.66
X95.803Y-43.352
X95.851Y-84.7
X96.076Y-47.375
X96.393Y-56.261
X97.551Y-78.0
X98.044Y-46.99
X98.724Y-85.1
X99.251Y-42.2
X101.158Y-67.222
X101.5Y-41.0
X102.052Y-67.149
X102.551Y-74.1
X103.276Y-74.85
X104.126Y-74.85
X104.651Y-85.5
X105.551Y-67.9
X106.509Y-71.258
X106.551Y-69.253
X107.4Y-40.0
X107.751Y-45.675
T3
X94.05Y-69.65
X94.05Y-71.65
T4
X90.045Y-49.805
X90.045Y-52.345
X90.045Y-54.885
X90.045Y-57.425
X90.045Y-59.965
X90.045Y-62.505
X90.045Y-65.045
T5
X90.2Y-91.0
X93.2Y-37.8
M30
